<svg width="150" height="150" viewBox="0 0 150 150" fill="none" xmlns="http://www.w3.org/2000/svg">
<rect x="1.02658" y="0.546108" width="148.426" height="148.426" rx="25.431" fill="#2D2D33" stroke="#515151" stroke-width="1.09417"/>
<path d="M58.4815 83.2291C55.4864 83.2291 52.8188 82.7143 50.4788 81.6847C48.1522 80.6417 46.3136 79.211 44.9631 77.3925C43.626 75.5606 42.9374 73.4479 42.8972 71.0545H51.6421C51.6956 72.0573 52.0232 72.9398 52.6249 73.702C53.24 74.4508 54.0556 75.0324 55.0719 75.447C56.0881 75.8615 57.2313 76.0687 58.5016 76.0687C59.8254 76.0687 60.9954 75.8347 62.0116 75.3667C63.0278 74.8987 63.8234 74.2502 64.3984 73.4212C64.9733 72.5922 65.2608 71.6361 65.2608 70.553C65.2608 69.4566 64.9533 68.4872 64.3382 67.6448C63.7365 66.789 62.8673 66.1204 61.7308 65.6391C60.6076 65.1577 59.2705 64.917 57.7194 64.917H53.8885V58.5389H57.7194C59.0298 58.5389 60.1864 58.3116 61.1892 57.857C62.2055 57.4023 62.9944 56.7739 63.556 55.9716C64.1176 55.1559 64.3984 54.2066 64.3984 53.1235C64.3984 52.0939 64.151 51.1913 63.6563 50.4158C63.1749 49.6269 62.4929 49.0118 61.6104 48.5706C60.7413 48.1293 59.7251 47.9087 58.5618 47.9087C57.3851 47.9087 56.3087 48.1226 55.3326 48.5505C54.3565 48.965 53.5743 49.56 52.9859 50.3356C52.3976 51.1111 52.0834 52.0204 52.0432 53.0633H43.7196C43.7597 50.6966 44.4349 48.6107 45.7453 46.8055C47.0557 45.0004 48.8207 43.5897 51.0404 42.5735C53.2734 41.5439 55.7939 41.0291 58.6019 41.0291C61.4366 41.0291 63.917 41.5439 66.043 42.5735C68.1691 43.6031 69.8204 44.9937 70.9971 46.7454C72.1872 48.4836 72.7755 50.4359 72.7621 52.602C72.7755 54.9019 72.0601 56.8207 70.616 58.3584C69.1853 59.8961 67.32 60.8722 65.0201 61.2867V61.6076C68.0421 61.9954 70.3419 63.045 71.9197 64.7566C73.5109 66.4547 74.2998 68.5808 74.2865 71.1347C74.2998 73.4747 73.6246 75.5539 72.2607 77.3724C70.9102 79.1909 69.0449 80.6217 66.6648 81.6646C64.2847 82.7076 61.557 83.2291 58.4815 83.2291ZM88.3515 73.8023L88.3715 63.5531H89.615L99.4831 51.8599H109.291L96.0333 67.3439H94.0075L88.3515 73.8023ZM80.6094 82.6675V41.5907H89.1537V82.6675H80.6094ZM99.8642 82.6675L90.7984 69.2493L96.4946 63.2122L109.873 82.6675H99.8642Z" fill="white"/>
<path d="M28.3559 101.704C28.304 101.18 28.081 100.773 27.687 100.483C27.293 100.193 26.7583 100.048 26.0829 100.048C25.624 100.048 25.2365 100.113 24.9205 100.242C24.6044 100.368 24.362 100.543 24.1931 100.768C24.0286 100.994 23.9463 101.249 23.9463 101.535C23.9377 101.773 23.9875 101.981 24.0957 102.158C24.2083 102.336 24.362 102.489 24.5568 102.619C24.7516 102.745 24.9768 102.855 25.2322 102.951C25.4876 103.041 25.7604 103.119 26.0505 103.184L27.2454 103.47C27.8256 103.6 28.3581 103.773 28.843 103.99C29.3279 104.206 29.7478 104.472 30.1029 104.788C30.4579 105.104 30.7328 105.477 30.9276 105.905C31.1268 106.334 31.2285 106.825 31.2329 107.38C31.2285 108.194 31.0207 108.899 30.6094 109.497C30.2024 110.09 29.6136 110.551 28.843 110.88C28.0767 111.205 27.1523 111.367 26.07 111.367C24.9962 111.367 24.0611 111.203 23.2644 110.873C22.4722 110.544 21.853 110.057 21.4071 109.412C20.9655 108.763 20.7339 107.96 20.7122 107.003H23.4333C23.4636 107.449 23.5913 107.821 23.8165 108.12C24.0459 108.414 24.3511 108.637 24.7321 108.789C25.1175 108.936 25.5526 109.01 26.0375 109.01C26.5137 109.01 26.9272 108.94 27.2779 108.802C27.6329 108.663 27.9078 108.471 28.1026 108.224C28.2975 107.977 28.3949 107.693 28.3949 107.373C28.3949 107.074 28.3061 106.823 28.1286 106.62C27.9554 106.416 27.7 106.243 27.3623 106.1C27.0289 105.957 26.6198 105.827 26.1349 105.711L24.6867 105.347C23.5653 105.074 22.68 104.648 22.0305 104.068C21.3811 103.487 21.0586 102.706 21.0629 101.723C21.0586 100.918 21.2729 100.214 21.7058 99.6125C22.1431 99.0107 22.7427 98.5409 23.5047 98.2032C24.2667 97.8655 25.1326 97.6967 26.1024 97.6967C27.0895 97.6967 27.9511 97.8655 28.6871 98.2032C29.4275 98.5409 30.0033 99.0107 30.4146 99.6125C30.8259 100.214 31.038 100.911 31.051 101.704H28.3559ZM39.4692 106.931V101.204H42.2357V111.179H39.5796V109.367H39.4757C39.2505 109.951 38.876 110.421 38.3522 110.776C37.8326 111.131 37.1983 111.309 36.4493 111.309C35.7826 111.309 35.196 111.157 34.6894 110.854C34.1829 110.551 33.7867 110.12 33.501 109.562C33.2196 109.003 33.0767 108.334 33.0724 107.555V101.204H35.8389V107.061C35.8432 107.65 36.0012 108.116 36.313 108.458C36.6247 108.8 37.0425 108.971 37.5664 108.971C37.8997 108.971 38.2114 108.895 38.5015 108.743C38.7916 108.588 39.0254 108.358 39.2029 108.055C39.3847 107.752 39.4735 107.377 39.4692 106.931ZM44.5006 111.179V97.8785H47.2671V102.879H47.3515C47.4728 102.611 47.6481 102.338 47.8776 102.061C48.1114 101.779 48.4144 101.546 48.7868 101.359C49.1634 101.169 49.631 101.074 50.1895 101.074C50.9169 101.074 51.5879 101.264 52.2027 101.645C52.8175 102.022 53.3089 102.591 53.6769 103.353C54.0449 104.111 54.2289 105.061 54.2289 106.204C54.2289 107.317 54.0492 108.256 53.6899 109.023C53.3349 109.785 52.85 110.363 52.2352 110.757C51.6247 111.146 50.9407 111.341 50.183 111.341C49.6462 111.341 49.1894 111.252 48.8127 111.075C48.4404 110.897 48.1352 110.674 47.897 110.406C47.6589 110.133 47.4771 109.858 47.3515 109.581H47.2281V111.179H44.5006ZM47.2087 106.191C47.2087 106.784 47.2909 107.302 47.4554 107.743C47.62 108.185 47.8581 108.529 48.1698 108.776C48.4815 109.018 48.8604 109.14 49.3063 109.14C49.7566 109.14 50.1376 109.016 50.4493 108.769C50.761 108.518 50.997 108.172 51.1571 107.73C51.3217 107.284 51.4039 106.771 51.4039 106.191C51.4039 105.615 51.3238 105.109 51.1636 104.671C51.0034 104.234 50.7675 103.892 50.4558 103.645C50.144 103.399 49.7609 103.275 49.3063 103.275C48.856 103.275 48.475 103.394 48.1633 103.632C47.8559 103.871 47.62 104.208 47.4554 104.646C47.2909 105.083 47.2087 105.598 47.2087 106.191ZM64.3745 104.048L61.8418 104.204C61.7985 103.987 61.7054 103.793 61.5625 103.619C61.4196 103.442 61.2313 103.301 60.9975 103.197C60.7681 103.089 60.4931 103.035 60.1728 103.035C59.7441 103.035 59.3826 103.126 59.0882 103.308C58.7938 103.485 58.6466 103.723 58.6466 104.022C58.6466 104.26 58.7419 104.462 58.9324 104.626C59.1229 104.791 59.4497 104.923 59.913 105.022L61.7184 105.386C62.6882 105.585 63.4112 105.905 63.8875 106.347C64.3637 106.789 64.6018 107.369 64.6018 108.087C64.6018 108.741 64.4092 109.315 64.0238 109.808C63.6428 110.302 63.119 110.687 62.4522 110.964C61.7898 111.237 61.0257 111.374 60.1598 111.374C58.8393 111.374 57.7872 111.099 57.0036 110.549C56.2243 109.995 55.7675 109.241 55.6333 108.289L58.3544 108.146C58.4366 108.549 58.6358 108.856 58.9518 109.068C59.2679 109.276 59.6727 109.38 60.1663 109.38C60.6512 109.38 61.0408 109.287 61.3352 109.101C61.634 108.91 61.7855 108.665 61.7898 108.367C61.7855 108.116 61.6794 107.91 61.4716 107.75C61.2638 107.585 60.9434 107.46 60.5105 107.373L58.783 107.029C57.8089 106.834 57.0837 106.496 56.6074 106.016C56.1355 105.535 55.8996 104.923 55.8996 104.178C55.8996 103.537 56.0727 102.985 56.4191 102.522C56.7698 102.059 57.2612 101.701 57.8933 101.45C58.5297 101.199 59.2744 101.074 60.1273 101.074C61.3872 101.074 62.3786 101.34 63.1016 101.872C63.829 102.405 64.2533 103.13 64.3745 104.048ZM70.8509 111.374C69.8291 111.374 68.9502 111.157 68.2142 110.724C67.4825 110.287 66.9197 109.681 66.5257 108.906C66.1361 108.131 65.9413 107.239 65.9413 106.23C65.9413 105.208 66.1382 104.312 66.5322 103.542C66.9305 102.767 67.4955 102.163 68.2272 101.73C68.9589 101.292 69.8291 101.074 70.8379 101.074C71.7081 101.074 72.4701 101.232 73.1239 101.548C73.7776 101.864 74.295 102.308 74.676 102.879C75.057 103.451 75.267 104.122 75.3059 104.892H72.6952C72.6216 104.394 72.4268 103.994 72.1108 103.691C71.799 103.383 71.3899 103.23 70.8834 103.23C70.4547 103.23 70.0802 103.347 69.7599 103.58C69.4438 103.81 69.197 104.145 69.0195 104.587C68.842 105.029 68.7533 105.563 68.7533 106.191C68.7533 106.828 68.8398 107.369 69.013 107.815C69.1905 108.261 69.4395 108.601 69.7599 108.834C70.0802 109.068 70.4547 109.185 70.8834 109.185C71.1994 109.185 71.483 109.12 71.7341 108.99C71.9895 108.86 72.1995 108.672 72.364 108.425C72.5329 108.174 72.6433 107.873 72.6952 107.522H75.3059C75.2626 108.284 75.0548 108.956 74.6825 109.536C74.3145 110.111 73.8058 110.562 73.1563 110.886C72.5069 111.211 71.7384 111.374 70.8509 111.374ZM77.0772 111.179V101.204H79.7593V102.944H79.8632C80.0451 102.325 80.3503 101.857 80.7789 101.541C81.2076 101.221 81.7011 101.061 82.2596 101.061C82.3982 101.061 82.5475 101.069 82.7077 101.087C82.8679 101.104 83.0086 101.128 83.1298 101.158V103.613C83 103.574 82.8203 103.539 82.5908 103.509C82.3614 103.479 82.1514 103.464 81.9609 103.464C81.5539 103.464 81.1902 103.552 80.8699 103.73C80.5538 103.903 80.3027 104.145 80.1165 104.457C79.9347 104.769 79.8438 105.128 79.8438 105.535V111.179H77.0772ZM84.5602 111.179V101.204H87.3267V111.179H84.5602ZM85.95 99.9177C85.5387 99.9177 85.1858 99.7813 84.8914 99.5086C84.6013 99.2315 84.4563 98.9003 84.4563 98.515C84.4563 98.134 84.6013 97.8071 84.8914 97.5343C85.1858 97.2573 85.5387 97.1187 85.95 97.1187C86.3613 97.1187 86.7119 97.2573 87.002 97.5343C87.2964 97.8071 87.4436 98.134 87.4436 98.515C87.4436 98.9003 87.2964 99.2315 87.002 99.5086C86.7119 99.7813 86.3613 99.9177 85.95 99.9177ZM89.5948 111.179V97.8785H92.3614V102.879H92.4458C92.567 102.611 92.7424 102.338 92.9718 102.061C93.2056 101.779 93.5087 101.546 93.881 101.359C94.2577 101.169 94.7253 101.074 95.2838 101.074C96.0111 101.074 96.6822 101.264 97.297 101.645C97.9118 102.022 98.4032 102.591 98.7712 103.353C99.1392 104.111 99.3232 105.061 99.3232 106.204C99.3232 107.317 99.1435 108.256 98.7842 109.023C98.4292 109.785 97.9443 110.363 97.3295 110.757C96.719 111.146 96.035 111.341 95.2773 111.341C94.7404 111.341 94.2837 111.252 93.907 111.075C93.5347 110.897 93.2294 110.674 92.9913 110.406C92.7532 110.133 92.5714 109.858 92.4458 109.581H92.3224V111.179H89.5948ZM92.3029 106.191C92.3029 106.784 92.3852 107.302 92.5497 107.743C92.7142 108.185 92.9524 108.529 93.2641 108.776C93.5758 109.018 93.9546 109.14 94.4006 109.14C94.8508 109.14 95.2318 109.016 95.5436 108.769C95.8553 108.518 96.0912 108.172 96.2514 107.73C96.4159 107.284 96.4982 106.771 96.4982 106.191C96.4982 105.615 96.4181 105.109 96.2579 104.671C96.0977 104.234 95.8618 103.892 95.5501 103.645C95.2383 103.399 94.8552 103.275 94.4006 103.275C93.9503 103.275 93.5693 103.394 93.2576 103.632C92.9502 103.871 92.7142 104.208 92.5497 104.646C92.3852 105.083 92.3029 105.598 92.3029 106.191ZM105.715 111.374C104.689 111.374 103.806 111.166 103.065 110.75C102.329 110.33 101.762 109.737 101.364 108.971C100.966 108.2 100.767 107.289 100.767 106.237C100.767 105.211 100.966 104.31 101.364 103.535C101.762 102.76 102.323 102.156 103.046 101.723C103.773 101.29 104.626 101.074 105.605 101.074C106.263 101.074 106.875 101.18 107.443 101.392C108.014 101.6 108.512 101.914 108.936 102.334C109.365 102.754 109.698 103.282 109.936 103.918C110.174 104.55 110.294 105.291 110.294 106.139V106.899H101.871V105.185H107.689C107.689 104.786 107.603 104.433 107.43 104.126C107.256 103.819 107.016 103.578 106.709 103.405C106.406 103.228 106.053 103.139 105.65 103.139C105.23 103.139 104.858 103.236 104.533 103.431C104.213 103.622 103.962 103.879 103.78 104.204C103.598 104.524 103.505 104.881 103.501 105.275V106.906C103.501 107.399 103.592 107.826 103.773 108.185C103.96 108.544 104.221 108.821 104.559 109.016C104.897 109.211 105.297 109.308 105.761 109.308C106.068 109.308 106.349 109.265 106.605 109.178C106.86 109.092 107.079 108.962 107.261 108.789C107.443 108.616 107.581 108.404 107.676 108.152L110.235 108.321C110.105 108.936 109.839 109.473 109.436 109.932C109.038 110.386 108.523 110.741 107.891 110.997C107.263 111.248 106.538 111.374 105.715 111.374ZM112.099 111.179V101.204H114.781V102.944H114.885C115.067 102.325 115.372 101.857 115.801 101.541C116.229 101.221 116.723 101.061 117.281 101.061C117.42 101.061 117.569 101.069 117.729 101.087C117.89 101.104 118.03 101.128 118.152 101.158V103.613C118.022 103.574 117.842 103.539 117.613 103.509C117.383 103.479 117.173 103.464 116.983 103.464C116.576 103.464 116.212 103.552 115.892 103.73C115.576 103.903 115.324 104.145 115.138 104.457C114.956 104.769 114.866 105.128 114.866 105.535V111.179H112.099ZM127.882 104.048L125.349 104.204C125.306 103.987 125.212 103.793 125.07 103.619C124.927 103.442 124.738 103.301 124.505 103.197C124.275 103.089 124 103.035 123.68 103.035C123.251 103.035 122.89 103.126 122.595 103.308C122.301 103.485 122.154 103.723 122.154 104.022C122.154 104.26 122.249 104.462 122.439 104.626C122.63 104.791 122.957 104.923 123.42 105.022L125.225 105.386C126.195 105.585 126.918 105.905 127.394 106.347C127.871 106.789 128.109 107.369 128.109 108.087C128.109 108.741 127.916 109.315 127.531 109.808C127.15 110.302 126.626 110.687 125.959 110.964C125.297 111.237 124.533 111.374 123.667 111.374C122.346 111.374 121.294 111.099 120.511 110.549C119.731 109.995 119.275 109.241 119.14 108.289L121.861 108.146C121.944 108.549 122.143 108.856 122.459 109.068C122.775 109.276 123.18 109.38 123.673 109.38C124.158 109.38 124.548 109.287 124.842 109.101C125.141 108.91 125.293 108.665 125.297 108.367C125.293 108.116 125.186 107.91 124.979 107.75C124.771 107.585 124.45 107.46 124.017 107.373L122.29 107.029C121.316 106.834 120.591 106.496 120.114 106.016C119.643 105.535 119.407 104.923 119.407 104.178C119.407 103.537 119.58 102.985 119.926 102.522C120.277 102.059 120.768 101.701 121.4 101.45C122.037 101.199 122.781 101.074 123.634 101.074C124.894 101.074 125.886 101.34 126.609 101.872C127.336 102.405 127.76 103.13 127.882 104.048Z" fill="white"/>
</svg>
