<svg width="195" height="195" viewBox="0 0 195 195" fill="none" xmlns="http://www.w3.org/2000/svg">
<g filter="url(#filter0_d_462_5351)">
<path d="M140.97 84.5663C140.97 118.372 113.565 145.778 79.7584 145.778C45.9523 145.778 18.5471 118.372 18.5471 84.5663C18.5471 50.7602 45.9523 23.3549 79.7584 23.3549C113.565 23.3549 140.97 50.7602 140.97 84.5663Z" fill="#2D2D33" stroke="#515151" stroke-width="1.09417"/>
<path d="M48.3279 66.6275C48.3279 64.7756 49.0635 62.9996 50.373 61.6901C51.6824 60.3807 53.4585 59.645 55.3103 59.645H104.187C106.039 59.645 107.815 60.3807 109.125 61.6901C110.434 62.9996 111.17 64.7756 111.17 66.6275V101.54C111.17 103.391 110.434 105.167 109.125 106.477C107.815 107.786 106.039 108.522 104.187 108.522H55.3103C53.4585 108.522 51.6824 107.786 50.373 106.477C49.0635 105.167 48.3279 103.391 48.3279 101.54V66.6275Z" stroke="white" stroke-width="3.63665" stroke-linecap="round" stroke-linejoin="round"/>
<path d="M48.3279 66.6274L79.7488 87.5747L111.17 66.6274" stroke="white" stroke-width="3.63665" stroke-linecap="round" stroke-linejoin="round"/>
</g>
<defs>
<filter id="filter0_d_462_5351" x="0.493307" y="0.924496" width="193.544" height="193.544" filterUnits="userSpaceOnUse" color-interpolation-filters="sRGB">
<feFlood flood-opacity="0" result="BackgroundImageFix"/>
<feColorMatrix in="SourceAlpha" type="matrix" values="0 0 0 0 0 0 0 0 0 0 0 0 0 0 0 0 0 0 127 0" result="hardAlpha"/>
<feOffset dx="17.5067" dy="13.13"/>
<feGaussianBlur stdDeviation="17.5067"/>
<feColorMatrix type="matrix" values="0 0 0 0 0.120833 0 0 0 0 0.120833 0 0 0 0 0.120833 0 0 0 0.35 0"/>
<feBlend mode="normal" in2="BackgroundImageFix" result="effect1_dropShadow_462_5351"/>
<feBlend mode="normal" in="SourceGraphic" in2="effect1_dropShadow_462_5351" result="shape"/>
</filter>
</defs>
</svg>
