<svg width="374" height="216" viewBox="0 0 374 216" fill="none" xmlns="http://www.w3.org/2000/svg">
<rect x="4.55688" y="15.6201" width="176" height="64" rx="32" transform="rotate(-5.03169 4.55688 15.6201)" fill="#91DAF9"/>
<path d="M50.4753 54.7434L48.6335 33.8243L61.8723 32.6587L62.2301 36.7229L53.6533 37.4781L54.0427 41.901L62.0218 41.1985L62.3613 45.0535L54.3821 45.7561L54.7795 50.2686L63.6551 49.4872L64.013 53.5514L50.4753 54.7434ZM67.5701 53.2382L66.2019 37.6983L69.7283 37.3879C69.8741 37.6762 70.0062 38.036 70.1245 38.4673C70.241 38.8786 70.3241 39.2528 70.3739 39.5897C70.9231 38.7584 71.6058 38.0758 72.4222 37.5422C73.2567 36.9869 74.172 36.6653 75.1682 36.5776L75.1981 36.575C76.3137 36.4768 77.2712 36.6334 78.0703 37.0449C78.8678 37.4365 79.5043 38.053 79.9799 38.8945C80.5239 38.0034 81.2122 37.2702 82.045 36.6949C82.8976 36.1179 83.8519 35.7829 84.9078 35.69L84.9377 35.6873C86.5913 35.5417 87.902 35.9484 88.8699 36.9072C89.8377 37.866 90.4032 39.2718 90.5663 41.1246L91.4451 51.106L86.9924 51.4981L86.1846 42.3236C86.1355 41.7657 86.0453 41.3119 85.9141 40.962C85.8011 40.5905 85.6345 40.294 85.4142 40.0725C85.2138 39.8492 84.9598 39.7009 84.6522 39.6276C84.3446 39.5543 83.9916 39.5352 83.5931 39.5702L83.5632 39.5729C83.1466 39.6296 82.766 39.7535 82.4214 39.9444C82.0751 40.1155 81.7856 40.3618 81.5529 40.6835C81.3401 41.0034 81.1742 41.3994 81.0552 41.8717C80.9543 42.3223 80.9311 42.8564 80.9854 43.474L81.7353 51.991L77.2826 52.3831L76.4722 43.1787C76.4248 42.6408 76.3346 42.1869 76.2017 41.8172C76.0887 41.4457 75.9229 41.1591 75.7044 40.9575C75.504 40.7342 75.2401 40.5868 74.9125 40.5152C74.6049 40.4419 74.2519 40.4228 73.8534 40.4579L73.8235 40.4605C73.4069 40.5173 73.0254 40.6312 72.6791 40.8022C72.3527 40.9715 72.074 41.2269 71.8431 41.5685C71.6104 41.8901 71.4445 42.2862 71.3454 42.7567C71.2445 43.2073 71.2204 43.7314 71.273 44.3291L72.0229 52.8462L67.5701 53.2382ZM99.6585 50.7443C98.8616 50.8144 98.1247 50.7689 97.448 50.6076C96.7712 50.4463 96.1762 50.1875 95.663 49.8312C95.148 49.4549 94.7265 49.0001 94.3985 48.4668C94.0886 47.9119 93.903 47.2857 93.8416 46.5884L93.8179 46.3195C93.6706 44.6459 94.3271 43.3233 95.7875 42.3514C97.266 41.3579 99.5593 40.7243 102.667 40.4507L103.833 40.3481L103.793 39.8998C103.732 39.2025 103.444 38.6657 102.929 38.2894C102.414 37.9132 101.678 37.7671 100.722 37.8513L100.602 37.8618C99.8053 37.932 98.98 38.1352 98.1262 38.4714C97.2923 38.8058 96.488 39.248 95.7132 39.7981L93.7388 36.87C94.6226 36.1899 95.6472 35.6278 96.8128 35.1839C97.9983 34.7382 99.2285 34.4592 100.504 34.3469L100.773 34.3233C101.769 34.2356 102.687 34.2852 103.526 34.4723C104.364 34.6395 105.095 34.9566 105.718 35.4237C106.36 35.8692 106.872 36.4465 107.256 37.1555C107.66 37.8629 107.904 38.7046 107.99 39.6809L108.551 46.0462C108.607 46.6838 108.71 47.287 108.861 47.856C109.009 48.4051 109.19 48.9715 109.402 49.5551L105.218 49.9235C105.097 49.6932 104.994 49.4312 104.908 49.1377C104.82 48.8242 104.741 48.4998 104.672 48.1646C104.128 48.8349 103.436 49.4078 102.594 49.8834C101.753 50.3591 100.774 50.646 99.6585 50.7443ZM100.497 47.2673C101.234 47.2024 101.939 46.9998 102.612 46.6595C103.283 46.2993 103.844 45.8382 104.297 45.2764L104.092 42.9454L103.016 43.0401C101.282 43.1927 100.004 43.496 99.1807 43.95C98.3556 44.384 97.9755 44.9696 98.0404 45.7068L98.0483 45.7964C98.0694 46.0355 98.1394 46.2602 98.2583 46.4706C98.3953 46.6593 98.5705 46.8246 98.7838 46.9664C98.9953 47.0883 99.244 47.1769 99.5299 47.232C99.8358 47.2854 100.158 47.2972 100.497 47.2673ZM112.864 49.2503L111.495 33.7104L115.948 33.3184L117.316 48.8583L112.864 49.2503ZM113.493 31.4264C112.736 31.4931 112.1 31.3383 111.585 30.962C111.09 30.584 110.812 30.0563 110.753 29.3789C110.695 28.7214 110.876 28.1534 111.295 27.6747C111.735 27.1943 112.333 26.9208 113.09 26.8541C113.867 26.7857 114.514 26.9496 115.031 27.3458C115.568 27.7403 115.865 28.2662 115.923 28.9237C115.982 29.6011 115.782 30.1709 115.32 30.6331C114.879 31.0936 114.27 31.358 113.493 31.4264ZM121.794 48.464L119.899 26.9473L124.352 26.5552L126.247 48.072L121.794 48.464ZM136.592 47.5225C135.138 47.6505 133.748 47.5923 132.421 47.3477C131.113 47.0814 129.899 46.6361 128.78 46.0119L130.59 42.6301C130.953 42.8792 131.365 43.104 131.824 43.3044C132.282 43.485 132.757 43.6439 133.251 43.7811C133.744 43.8984 134.243 43.9849 134.75 44.0407C135.255 44.0765 135.737 44.0743 136.195 44.0339C136.554 44.0023 136.87 43.9444 137.143 43.8601C137.417 43.7757 137.638 43.6659 137.807 43.5306C137.996 43.3935 138.133 43.2409 138.218 43.0727C138.302 42.8847 138.334 42.6711 138.313 42.432C138.284 42.1132 138.153 41.8738 137.918 41.7138C137.683 41.5538 137.34 41.4234 136.89 41.3225C136.457 41.2 135.915 41.0871 135.264 40.9838C134.632 40.8788 133.876 40.7246 132.994 40.5211C132.482 40.4055 131.978 40.2692 131.483 40.1121C130.985 39.935 130.533 39.7038 130.127 39.4183C129.738 39.1112 129.414 38.7382 129.155 38.2993C128.895 37.8603 128.737 37.3221 128.681 36.6846C128.616 35.9474 128.698 35.2777 128.926 34.6754C129.172 34.0514 129.536 33.5074 130.017 33.0434C130.518 32.5776 131.138 32.2019 131.875 31.9161C132.611 31.6103 133.458 31.4154 134.414 31.3312C135.569 31.2294 136.721 31.3087 137.868 31.5691C139.034 31.8078 140.073 32.2082 140.985 32.7703L139.162 36.0027C138.562 35.5737 137.821 35.2574 136.94 35.0539C136.077 34.8288 135.247 34.7513 134.45 34.8214C134.111 34.8512 133.815 34.9074 133.562 34.99C133.328 35.0708 133.136 35.178 132.988 35.3116C132.837 35.4252 132.729 35.5653 132.663 35.7317C132.617 35.8963 132.602 36.0683 132.618 36.2476C132.639 36.4867 132.737 36.6888 132.913 36.8541C133.086 36.9995 133.338 37.1278 133.669 37.2392C134 37.3506 134.4 37.4459 134.869 37.5251C135.338 37.6043 135.867 37.6882 136.457 37.7768C137.129 37.8783 137.803 38.0097 138.479 38.1709C139.154 38.3123 139.777 38.5386 140.346 38.8498C140.916 39.1611 141.394 39.5807 141.782 40.1087C142.188 40.6151 142.427 41.2767 142.499 42.0935C142.562 42.8107 142.462 43.4922 142.197 44.1379C141.951 44.7619 141.567 45.3076 141.046 45.7751C140.525 46.2426 139.887 46.6301 139.131 46.9376C138.375 47.2451 137.529 47.44 136.592 47.5225Z" fill="black"/>
<rect x="118.227" y="56.3398" width="257" height="64" rx="32" transform="rotate(6.94337 118.227 56.3398)" fill="#F27AFF"/>
<path d="M155.029 104.139L157.568 83.2933L164.119 84.0912L167.024 96.715L167.322 96.7512L173.172 85.1937L179.724 85.9915L177.185 106.838L172.659 106.286L174.516 91.0389L174.247 91.0063L168.142 102.926L164.717 102.509L161.651 89.4722L161.412 89.4432L159.555 104.691L155.029 104.139ZM188.773 108.581C187.581 108.436 186.502 108.113 185.536 107.613C184.569 107.112 183.77 106.481 183.137 105.719C182.507 104.937 182.052 104.045 181.771 103.044C181.49 102.043 181.419 100.966 181.559 99.8148L181.621 99.3086C181.759 98.1769 182.084 97.1588 182.597 96.2542C183.13 95.352 183.797 94.597 184.596 93.9892C185.398 93.3615 186.308 92.9183 187.327 92.6595C188.368 92.3834 189.464 92.3154 190.615 92.4556L190.883 92.4883C191.975 92.6212 192.956 92.922 193.826 93.3906C194.718 93.8417 195.453 94.4248 196.031 95.1399C196.628 95.8574 197.063 96.6759 197.333 97.5954C197.607 98.4951 197.682 99.4511 197.558 100.464L197.29 102.667L185.765 101.264C185.762 101.787 185.845 102.261 186.015 102.685C186.185 103.108 186.431 103.491 186.752 103.832C187.075 104.153 187.466 104.423 187.923 104.639C188.4 104.859 188.916 105.002 189.472 105.07L189.681 105.095C190.614 105.209 191.479 105.133 192.277 104.868C193.095 104.604 193.774 104.244 194.313 103.786L196.179 106.824C195.756 107.155 195.266 107.458 194.709 107.732C194.174 107.99 193.594 108.201 192.969 108.367C192.347 108.513 191.711 108.607 191.061 108.648C190.429 108.712 189.805 108.707 189.189 108.632L188.773 108.581ZM186.184 98.5648L193.421 99.446C193.459 98.9671 193.403 98.5171 193.253 98.0958C193.125 97.6571 192.919 97.2795 192.635 96.9629C192.374 96.6288 192.044 96.357 191.647 96.1474C191.271 95.9203 190.836 95.7766 190.339 95.7161L190.28 95.7089C189.823 95.6533 189.377 95.6795 188.94 95.7875C188.526 95.8782 188.142 96.053 187.789 96.3121C187.437 96.5514 187.117 96.865 186.828 97.2529C186.561 97.6234 186.347 98.0607 186.184 98.5648ZM205.872 110.694C204.422 110.517 203.074 110.172 201.827 109.657C200.603 109.125 199.508 108.438 198.543 107.595L201.015 104.662C201.319 104.981 201.675 105.287 202.082 105.578C202.493 105.85 202.925 106.104 203.38 106.34C203.837 106.557 204.308 106.746 204.792 106.905C205.278 107.045 205.75 107.143 206.207 107.199C206.564 107.242 206.885 107.251 207.171 107.225C207.456 107.2 207.695 107.138 207.888 107.041C208.101 106.946 208.267 106.825 208.386 106.678C208.507 106.512 208.582 106.309 208.611 106.071C208.649 105.753 208.57 105.492 208.374 105.286C208.177 105.081 207.869 104.882 207.449 104.69C207.051 104.481 206.545 104.258 205.929 104.022C205.333 103.788 204.625 103.48 203.805 103.098C203.328 102.879 202.863 102.641 202.411 102.384C201.961 102.108 201.567 101.788 201.228 101.424C200.912 101.043 200.672 100.611 200.51 100.128C200.347 99.6448 200.304 99.0855 200.382 98.4502C200.471 97.7156 200.69 97.0774 201.038 96.5355C201.408 95.9761 201.877 95.5194 202.444 95.1654C203.031 94.8137 203.714 94.5747 204.496 94.4482C205.279 94.3018 206.147 94.2866 207.1 94.4027C208.252 94.5429 209.361 94.8594 210.43 95.3522C211.52 95.8275 212.454 96.4348 213.23 97.1741L210.776 99.9577C210.278 99.4136 209.619 98.9505 208.799 98.5686C208.001 98.1693 207.206 97.9212 206.411 97.8245C206.074 97.7834 205.772 97.7769 205.507 97.8051C205.262 97.8356 205.052 97.9008 204.879 98.0006C204.708 98.0805 204.573 98.195 204.474 98.3442C204.395 98.4958 204.345 98.6609 204.323 98.8396C204.294 99.0778 204.348 99.2959 204.485 99.494C204.625 99.6721 204.845 99.85 205.146 100.028C205.447 100.205 205.818 100.382 206.26 100.556C206.702 100.731 207.203 100.923 207.761 101.132C208.397 101.371 209.029 101.639 209.658 101.937C210.289 102.215 210.851 102.566 211.343 102.989C211.836 103.411 212.217 103.921 212.487 104.518C212.779 105.098 212.875 105.794 212.776 106.608C212.689 107.323 212.449 107.969 212.057 108.546C211.686 109.105 211.198 109.559 210.591 109.908C209.985 110.258 209.28 110.504 208.476 110.648C207.673 110.792 206.805 110.807 205.872 110.694ZM221.227 112.564C219.778 112.387 218.43 112.042 217.183 111.527C215.958 110.995 214.863 110.308 213.898 109.465L216.371 106.532C216.674 106.851 217.03 107.157 217.438 107.448C217.848 107.72 218.28 107.974 218.735 108.21C219.192 108.427 219.663 108.616 220.147 108.775C220.634 108.915 221.105 109.013 221.562 109.069C221.919 109.112 222.241 109.121 222.526 109.095C222.811 109.07 223.05 109.008 223.243 108.911C223.456 108.816 223.622 108.695 223.741 108.548C223.862 108.382 223.937 108.179 223.966 107.941C224.005 107.623 223.926 107.362 223.729 107.156C223.532 106.951 223.224 106.752 222.804 106.56C222.407 106.351 221.9 106.128 221.284 105.892C220.688 105.658 219.98 105.35 219.16 104.968C218.683 104.749 218.218 104.511 217.766 104.254C217.316 103.978 216.922 103.658 216.584 103.294C216.267 102.913 216.028 102.481 215.865 101.998C215.702 101.515 215.659 100.955 215.737 100.32C215.826 99.5856 216.045 98.9474 216.393 98.4055C216.763 97.8461 217.232 97.3894 217.799 97.0354C218.386 96.6837 219.07 96.4447 219.851 96.3181C220.634 96.1718 221.502 96.1566 222.455 96.2727C223.607 96.4129 224.717 96.7294 225.785 97.2222C226.876 97.6975 227.809 98.3048 228.585 99.044L226.131 101.828C225.633 101.284 224.974 100.821 224.154 100.439C223.357 100.039 222.561 99.7912 221.767 99.6945C221.429 99.6534 221.128 99.6469 220.862 99.6751C220.617 99.7056 220.408 99.7708 220.234 99.8705C220.063 99.9505 219.928 100.065 219.83 100.214C219.751 100.366 219.7 100.531 219.679 100.71C219.65 100.948 219.704 101.166 219.841 101.364C219.98 101.542 220.2 101.72 220.501 101.898C220.802 102.075 221.173 102.252 221.615 102.426C222.057 102.601 222.558 102.793 223.117 103.002C223.753 103.241 224.385 103.509 225.013 103.807C225.644 104.085 226.206 104.436 226.699 104.859C227.191 105.281 227.572 105.791 227.842 106.388C228.134 106.968 228.231 107.664 228.132 108.478C228.044 109.193 227.805 109.839 227.412 110.416C227.042 110.975 226.553 111.429 225.947 111.778C225.34 112.128 224.635 112.374 223.832 112.518C223.028 112.662 222.16 112.677 221.227 112.564ZM237.514 114.517C236.323 114.372 235.244 114.049 234.277 113.549C233.311 113.048 232.511 112.417 231.879 111.655C231.249 110.873 230.793 109.981 230.512 108.98C230.231 107.979 230.161 106.902 230.301 105.751L230.363 105.244C230.5 104.113 230.826 103.095 231.339 102.19C231.872 101.288 232.538 100.533 233.337 99.925C234.139 99.2973 235.049 98.8541 236.068 98.5953C237.109 98.3192 238.205 98.2512 239.357 98.3914L239.625 98.4241C240.717 98.557 241.698 98.8578 242.567 99.3264C243.459 99.7775 244.194 100.361 244.772 101.076C245.37 101.793 245.804 102.612 246.075 103.531C246.348 104.431 246.423 105.387 246.3 106.399L246.031 108.603L234.507 107.2C234.503 107.723 234.587 108.197 234.757 108.62C234.927 109.044 235.172 109.426 235.493 109.768C235.817 110.089 236.207 110.358 236.664 110.575C237.141 110.795 237.658 110.938 238.214 111.006L238.422 111.031C239.355 111.145 240.221 111.069 241.019 110.803C241.836 110.54 242.515 110.18 243.054 109.721L244.921 112.759C244.498 113.091 244.007 113.394 243.45 113.668C242.915 113.925 242.335 114.137 241.711 114.303C241.088 114.449 240.452 114.542 239.803 114.584C239.17 114.648 238.546 114.643 237.931 114.568L237.514 114.517ZM234.926 104.501L242.162 105.382C242.201 104.903 242.145 104.453 241.994 104.032C241.867 103.593 241.661 103.215 241.377 102.899C241.115 102.565 240.786 102.293 240.388 102.083C240.013 101.856 239.577 101.712 239.081 101.652L239.021 101.645C238.565 101.589 238.118 101.615 237.682 101.723C237.268 101.814 236.884 101.989 236.53 102.248C236.178 102.487 235.858 102.801 235.569 103.189C235.302 103.559 235.088 103.996 234.926 104.501ZM248.462 115.518L250.348 100.032L253.862 100.46C253.943 100.792 254.002 101.213 254.041 101.721C254.082 102.21 254.083 102.623 254.041 102.96C254.929 102.121 255.907 101.535 256.976 101.202C258.063 100.871 259.124 100.768 260.156 100.894L260.245 100.905C262.012 101.12 263.308 101.812 264.133 102.98C264.96 104.129 265.259 105.646 265.029 107.532L263.829 117.389L259.392 116.849L260.476 107.945C260.604 106.892 260.483 106.072 260.111 105.482C259.74 104.893 259.067 104.539 258.095 104.421L257.975 104.406C257.439 104.341 256.931 104.38 256.45 104.523C255.989 104.668 255.579 104.89 255.221 105.189C254.862 105.488 254.564 105.865 254.327 106.319C254.111 106.776 253.967 107.293 253.897 107.869L252.9 116.058L248.462 115.518ZM268.011 107.744L268.04 107.506C268.141 106.672 268.403 105.928 268.825 105.274C269.267 104.623 269.835 104.098 270.528 103.699C271.224 103.28 272.024 102.994 272.929 102.843C273.834 102.691 274.793 102.677 275.806 102.8L276.401 102.873C277.434 102.998 278.371 103.243 279.213 103.608C280.055 103.972 280.764 104.441 281.338 105.015C281.913 105.589 282.337 106.245 282.61 106.983C282.885 107.702 282.972 108.478 282.87 109.312L282.838 109.58C282.743 110.354 282.475 111.067 282.033 111.718C281.591 112.37 281.012 112.904 280.297 113.32C279.604 113.719 278.803 114.005 277.896 114.176C277.008 114.35 276.048 114.374 275.016 114.248L274.897 114.234C274.758 114.217 274.619 114.2 274.48 114.183C274.363 114.149 274.246 114.114 274.13 114.08L273.941 115.629C274.162 115.635 274.372 115.651 274.57 115.675C274.769 115.699 274.997 115.727 275.255 115.758L275.553 115.795C276.585 115.92 277.525 116.146 278.372 116.47C279.221 116.775 279.939 117.165 280.526 117.639C281.133 118.116 281.581 118.654 281.871 119.254C282.183 119.836 282.299 120.454 282.219 121.11L282.176 121.467C282.094 122.142 281.831 122.725 281.389 123.215C280.944 123.725 280.37 124.138 279.666 124.455C278.963 124.773 278.152 124.976 277.234 125.066C276.314 125.176 275.328 125.166 274.276 125.038L273.234 124.911C272.201 124.786 271.242 124.558 270.355 124.228C269.486 123.921 268.748 123.529 268.141 123.052C267.534 122.575 267.076 122.036 266.767 121.434C266.475 120.854 266.37 120.227 266.452 119.552L266.503 119.135C266.611 118.242 267.016 117.485 267.716 116.865C268.436 116.248 269.325 115.812 270.384 115.558L270.706 112.908C269.752 112.308 269.026 111.565 268.53 110.678C268.056 109.774 267.883 108.796 268.011 107.744ZM272.377 108.125L272.33 108.512C272.286 108.869 272.326 109.206 272.448 109.523C272.573 109.821 272.751 110.094 272.983 110.344C273.234 110.596 273.531 110.804 273.874 110.966C274.217 111.129 274.587 111.235 274.984 111.283L275.371 111.33C275.768 111.378 276.153 111.365 276.525 111.289C276.897 111.214 277.225 111.082 277.51 110.895C277.814 110.711 278.064 110.479 278.259 110.201C278.474 109.925 278.602 109.618 278.643 109.281L278.69 108.893C278.736 108.516 278.687 108.178 278.542 107.878C278.419 107.561 278.232 107.276 277.981 107.024C277.749 106.774 277.462 106.568 277.119 106.405C276.777 106.243 276.397 106.136 275.98 106.085L275.652 106.045C275.235 105.994 274.841 106.007 274.469 106.082C274.097 106.158 273.759 106.288 273.454 106.473C273.17 106.66 272.93 106.892 272.735 107.171C272.542 107.429 272.423 107.747 272.377 108.125ZM270.925 119.553L270.888 119.851C270.833 120.307 271.055 120.717 271.555 121.08C272.074 121.446 272.781 121.683 273.674 121.792L274.597 121.904C275.511 122.015 276.274 121.947 276.889 121.7C277.501 121.472 277.833 121.14 277.887 120.703L277.919 120.435C277.975 119.978 277.734 119.556 277.197 119.168C276.658 118.8 275.931 118.561 275.018 118.45L274.095 118.337C273.201 118.228 272.459 118.289 271.867 118.519C271.292 118.771 270.978 119.116 270.925 119.553ZM284.339 101.965L281.554 106.22L278.876 104.141C279.157 103.49 279.413 102.957 279.645 102.542C279.899 102.11 280.144 101.757 280.378 101.483L284.339 101.965ZM292.13 121.168C290.939 121.023 289.86 120.7 288.893 120.2C287.927 119.699 287.127 119.068 286.495 118.306C285.865 117.524 285.409 116.632 285.128 115.631C284.847 114.63 284.777 113.553 284.917 112.402L284.979 111.896C285.116 110.764 285.442 109.746 285.955 108.841C286.488 107.939 287.154 107.184 287.953 106.576C288.755 105.949 289.665 105.505 290.684 105.247C291.725 104.97 292.821 104.902 293.973 105.043L294.241 105.075C295.333 105.208 296.314 105.509 297.183 105.978C298.075 106.429 298.81 107.012 299.388 107.727C299.986 108.444 300.42 109.263 300.691 110.182C300.964 111.082 301.039 112.038 300.916 113.051L300.647 115.254L289.123 113.851C289.119 114.374 289.203 114.848 289.373 115.272C289.543 115.695 289.788 116.078 290.109 116.419C290.433 116.74 290.823 117.01 291.28 117.226C291.757 117.446 292.274 117.589 292.83 117.657L293.038 117.682C293.971 117.796 294.837 117.72 295.635 117.455C296.452 117.191 297.131 116.831 297.67 116.373L299.537 119.411C299.114 119.742 298.623 120.045 298.066 120.319C297.531 120.577 296.951 120.788 296.327 120.954C295.705 121.1 295.069 121.194 294.419 121.235C293.786 121.299 293.162 121.294 292.547 121.219L292.13 121.168ZM289.542 111.152L296.778 112.033C296.817 111.554 296.761 111.104 296.61 110.683C296.483 110.244 296.277 109.867 295.993 109.55C295.731 109.216 295.402 108.944 295.004 108.734C294.629 108.507 294.193 108.364 293.697 108.303L293.637 108.296C293.181 108.24 292.734 108.267 292.298 108.375C291.884 108.465 291.5 108.64 291.146 108.899C290.794 109.138 290.474 109.452 290.185 109.84C289.918 110.21 289.704 110.648 289.542 111.152ZM303.078 122.169L304.964 106.683L308.508 107.115C308.571 107.425 308.616 107.803 308.642 108.249C308.668 108.696 308.682 109.08 308.683 109.403C309.363 108.781 310.164 108.324 311.086 108.033C312.008 107.743 313.015 107.664 314.107 107.797L314.494 107.844L313.986 112.013C313.835 111.934 313.652 111.862 313.439 111.795C313.245 111.731 313.049 111.687 312.85 111.663C312.215 111.586 311.639 111.596 311.124 111.695C310.628 111.796 310.193 111.974 309.819 112.231C309.468 112.47 309.177 112.787 308.948 113.183C308.718 113.578 308.573 114.024 308.513 114.52L307.516 122.709L303.078 122.169ZM321.211 124.74C319.762 124.563 318.414 124.218 317.167 123.703C315.942 123.171 314.847 122.484 313.882 121.641L316.354 118.709C316.658 119.028 317.014 119.333 317.422 119.624C317.832 119.896 318.264 120.15 318.719 120.387C319.176 120.604 319.647 120.792 320.131 120.952C320.618 121.091 321.089 121.189 321.546 121.245C321.903 121.288 322.225 121.297 322.51 121.271C322.795 121.246 323.034 121.184 323.227 121.087C323.44 120.992 323.606 120.871 323.725 120.724C323.846 120.558 323.921 120.355 323.95 120.117C323.989 119.799 323.91 119.538 323.713 119.333C323.516 119.127 323.208 118.929 322.788 118.736C322.391 118.527 321.884 118.304 321.268 118.068C320.672 117.834 319.964 117.526 319.144 117.144C318.667 116.925 318.202 116.687 317.75 116.431C317.3 116.154 316.906 115.834 316.567 115.471C316.251 115.089 316.012 114.657 315.849 114.174C315.686 113.691 315.643 113.132 315.721 112.496C315.81 111.762 316.029 111.124 316.377 110.582C316.747 110.022 317.216 109.566 317.783 109.212C318.37 108.86 319.054 108.621 319.835 108.494C320.618 108.348 321.486 108.333 322.439 108.449C323.591 108.589 324.701 108.906 325.769 109.398C326.86 109.874 327.793 110.481 328.569 111.22L326.115 114.004C325.617 113.46 324.958 112.997 324.138 112.615C323.341 112.215 322.545 111.967 321.751 111.871C321.413 111.83 321.112 111.823 320.846 111.851C320.601 111.882 320.391 111.947 320.218 112.047C320.047 112.127 319.912 112.241 319.814 112.39C319.735 112.542 319.684 112.707 319.663 112.886C319.634 113.124 319.688 113.342 319.825 113.54C319.964 113.718 320.184 113.896 320.485 114.074C320.786 114.252 321.157 114.428 321.599 114.602C322.041 114.777 322.542 114.969 323.101 115.178C323.737 115.417 324.369 115.685 324.997 115.983C325.628 116.262 326.19 116.612 326.683 117.035C327.175 117.457 327.556 117.967 327.826 118.564C328.118 119.144 328.215 119.841 328.115 120.655C328.028 121.369 327.789 122.015 327.396 122.592C327.026 123.151 326.537 123.605 325.931 123.955C325.324 124.304 324.619 124.55 323.816 124.694C323.012 124.838 322.144 124.853 321.211 124.74Z" fill="black"/>
<rect x="0.981689" y="151.461" width="331" height="64" rx="32" transform="rotate(-4 0.981689 151.461)" fill="#EAF66E"/>
<path d="M46.1883 191.405L44.7234 170.456L52.654 169.902C53.8112 169.821 54.8805 169.916 55.8618 170.188C56.8632 170.459 57.7246 170.88 58.4462 171.451C59.1664 172.002 59.7467 172.704 60.1872 173.555C60.6263 174.386 60.8821 175.321 60.9546 176.358L60.9714 176.598C61.0453 177.655 60.9234 178.636 60.6057 179.54C60.2881 180.445 59.8017 181.231 59.1466 181.898C58.5116 182.564 57.727 183.1 56.7931 183.506C55.8791 183.911 54.8335 184.154 53.6564 184.237L50.3944 184.465L50.8569 191.078L46.1883 191.405ZM49.9873 180.794L52.98 180.585C53.5387 180.546 54.0319 180.431 54.4596 180.241C54.906 180.029 55.269 179.773 55.5487 179.473C55.8271 179.153 56.0314 178.778 56.1617 178.347C56.292 177.917 56.3411 177.473 56.309 177.014L56.2944 176.804C56.2609 176.326 56.1511 175.902 55.965 175.534C55.7988 175.165 55.557 174.861 55.2396 174.623C54.9208 174.364 54.5471 174.18 54.1183 174.07C53.6882 173.939 53.1938 173.894 52.6352 173.933L49.5228 174.15L49.9873 180.794ZM64.8563 190.1L63.3496 168.552L67.8087 168.24L68.3591 176.111C69.0086 175.364 69.7889 174.768 70.7001 174.323C71.6099 173.859 72.6035 173.589 73.6809 173.514C75.4366 173.391 76.8302 173.825 77.8618 174.815C78.892 175.786 79.4734 177.219 79.606 179.114L80.2986 189.02L75.8395 189.332L75.2138 180.383C75.1385 179.306 74.8532 178.524 74.3581 178.037C73.8615 177.531 73.1344 177.311 72.1768 177.378C71.5982 177.418 71.085 177.534 70.6373 177.726C70.1896 177.918 69.8173 178.184 69.5204 178.526C69.2235 178.868 69.0006 179.264 68.8517 179.716C68.7228 180.166 68.6779 180.67 68.7169 181.229L69.3155 189.788L64.8563 190.1ZM91.7112 188.552C90.4942 188.638 89.353 188.517 88.2876 188.19C87.2222 187.864 86.2868 187.388 85.4812 186.763C84.6941 186.116 84.0577 185.329 83.5717 184.4C83.0858 183.472 82.8037 182.449 82.7256 181.332L82.6838 180.733C82.6056 179.616 82.7426 178.564 83.0946 177.577C83.4466 176.59 83.968 175.731 84.6587 175.001C85.3681 174.25 86.2275 173.639 87.2371 173.167C88.2466 172.696 89.3599 172.417 90.577 172.332L90.8463 172.313C92.0633 172.228 93.2045 172.349 94.2699 172.675C95.3353 173.002 96.2615 173.488 97.0485 174.135C97.8541 174.76 98.4998 175.537 98.9858 176.466C99.4717 177.394 99.7538 178.417 99.8319 179.534L99.8737 180.133C99.9519 181.25 99.8149 182.302 99.4629 183.289C99.1109 184.276 98.5802 185.145 97.8709 185.896C97.1802 186.626 96.33 187.227 95.3204 187.699C94.3109 188.17 93.1976 188.449 91.9805 188.534L91.7112 188.552ZM91.5088 185.229L91.7183 185.214C92.277 185.175 92.778 185.029 93.2216 184.778C93.6837 184.505 94.0703 184.157 94.3816 183.734C94.6915 183.292 94.9167 182.785 95.0572 182.214C95.2162 181.621 95.272 180.986 95.2246 180.307L95.2037 180.008C95.1562 179.33 95.0132 178.718 94.7747 178.174C94.5546 177.607 94.2611 177.137 93.894 176.761C93.5255 176.366 93.0942 176.076 92.6 175.89C92.1244 175.682 91.6073 175.598 91.0487 175.637L90.8392 175.652C90.2805 175.691 89.7702 175.847 89.3081 176.12C88.8645 176.371 88.4878 176.719 88.178 177.161C87.8667 177.584 87.6315 178.092 87.4725 178.684C87.312 179.257 87.2555 179.882 87.303 180.561L87.3239 180.86C87.3713 181.538 87.515 182.16 87.755 182.724C87.9936 183.269 88.2971 183.739 88.6656 184.134C89.0326 184.509 89.454 184.801 89.9296 185.008C90.4238 185.194 90.9502 185.268 91.5088 185.229ZM103.58 187.392L102.492 171.83L106.023 171.583C106.165 171.894 106.304 172.295 106.438 172.787C106.572 173.259 106.65 173.664 106.674 174.003C107.386 173.011 108.235 172.25 109.221 171.72C110.226 171.189 111.247 170.887 112.285 170.814L112.375 170.808C114.15 170.684 115.554 171.117 116.586 172.107C117.616 173.078 118.197 174.511 118.33 176.406L119.022 186.312L114.563 186.624L113.938 177.676C113.864 176.618 113.588 175.835 113.112 175.327C112.635 174.819 111.908 174.6 110.93 174.668L110.811 174.676C110.272 174.714 109.78 174.849 109.335 175.08C108.91 175.31 108.55 175.606 108.255 175.968C107.959 176.329 107.738 176.756 107.592 177.247C107.466 177.737 107.423 178.271 107.464 178.85L108.039 187.08L103.58 187.392ZM130.196 185.861C128.999 185.945 127.878 185.833 126.834 185.525C125.79 185.217 124.885 184.749 124.119 184.121C123.352 183.473 122.736 182.684 122.27 181.754C121.804 180.825 121.53 179.781 121.449 178.624L121.414 178.115C121.334 176.978 121.461 175.916 121.793 174.931C122.145 173.944 122.655 173.076 123.325 172.328C123.993 171.559 124.802 170.951 125.753 170.504C126.723 170.035 127.787 169.76 128.944 169.679L129.213 169.66C130.31 169.584 131.33 169.693 132.273 169.988C133.235 170.261 134.067 170.694 134.77 171.287C135.493 171.878 136.075 172.599 136.515 173.45C136.954 174.282 137.209 175.206 137.281 176.224L137.435 178.438L125.854 179.248C125.95 179.763 126.122 180.212 126.369 180.595C126.616 180.979 126.93 181.308 127.31 181.582C127.689 181.836 128.123 182.027 128.613 182.153C129.123 182.277 129.657 182.32 130.216 182.281L130.425 182.267C131.363 182.201 132.198 181.962 132.932 181.55C133.684 181.137 134.282 180.654 134.725 180.101L137.134 182.73C136.781 183.135 136.358 183.526 135.863 183.901C135.386 184.255 134.857 184.573 134.275 184.854C133.692 185.116 133.085 185.329 132.455 185.493C131.847 185.676 131.233 185.789 130.615 185.832L130.196 185.861ZM125.753 176.519L133.025 176.01C132.972 175.533 132.831 175.101 132.604 174.716C132.395 174.31 132.121 173.978 131.783 173.721C131.462 173.443 131.087 173.238 130.657 173.108C130.246 172.956 129.79 172.898 129.292 172.933L129.232 172.937C128.773 172.969 128.339 173.08 127.932 173.269C127.542 173.436 127.199 173.681 126.9 174.002C126.601 174.304 126.346 174.673 126.136 175.108C125.944 175.523 125.817 175.993 125.753 176.519ZM147.385 184.689C145.928 184.791 144.539 184.708 143.217 184.44C141.914 184.15 140.708 183.683 139.601 183.038L141.472 179.69C141.83 179.945 142.238 180.178 142.693 180.386C143.148 180.575 143.62 180.742 144.112 180.889C144.602 181.015 145.1 181.11 145.605 181.175C146.11 181.22 146.591 181.226 147.05 181.194C147.409 181.169 147.726 181.117 148.002 181.038C148.277 180.958 148.5 180.852 148.671 180.72C148.862 180.586 149.002 180.436 149.091 180.27C149.178 180.083 149.213 179.87 149.196 179.631C149.174 179.312 149.047 179.07 148.815 178.906C148.583 178.741 148.242 178.605 147.794 178.496C147.364 178.366 146.824 178.243 146.174 178.128C145.545 178.012 144.791 177.844 143.914 177.624C143.404 177.5 142.902 177.354 142.409 177.188C141.915 177.002 141.468 176.763 141.066 176.47C140.683 176.156 140.366 175.777 140.115 175.334C139.863 174.89 139.715 174.349 139.67 173.711C139.619 172.973 139.712 172.305 139.951 171.706C140.208 171.087 140.582 170.55 141.071 170.094C141.581 169.638 142.207 169.273 142.95 169.001C143.691 168.708 144.541 168.529 145.498 168.462C146.655 168.381 147.805 168.481 148.948 168.762C150.109 169.021 151.14 169.44 152.043 170.019L150.161 173.218C149.569 172.778 148.834 172.449 147.957 172.229C147.098 171.989 146.27 171.896 145.472 171.952C145.132 171.976 144.835 172.026 144.58 172.104C144.345 172.181 144.152 172.285 144 172.416C143.848 172.527 143.737 172.665 143.669 172.83C143.62 172.994 143.602 173.165 143.614 173.345C143.631 173.584 143.725 173.788 143.898 173.957C144.068 174.105 144.318 174.238 144.647 174.355C144.976 174.473 145.374 174.575 145.842 174.663C146.309 174.75 146.837 174.844 147.425 174.943C148.095 175.056 148.766 175.2 149.44 175.373C150.112 175.527 150.73 175.764 151.294 176.086C151.858 176.407 152.329 176.835 152.707 177.37C153.104 177.884 153.331 178.55 153.388 179.368C153.438 180.086 153.326 180.766 153.05 181.406C152.792 182.026 152.399 182.565 151.869 183.023C151.34 183.481 150.695 183.857 149.933 184.15C149.172 184.444 148.323 184.624 147.385 184.689ZM164.194 183.153L163.106 167.591L166.637 167.344C166.779 167.655 166.917 168.056 167.052 168.548C167.185 169.02 167.264 169.426 167.287 169.765C168 168.773 168.849 168.012 169.834 167.482C170.84 166.95 171.861 166.648 172.899 166.576L172.988 166.569C174.764 166.445 176.168 166.878 177.199 167.869C178.23 168.839 178.811 170.272 178.943 172.168L179.636 182.073L175.177 182.385L174.551 173.437C174.477 172.38 174.202 171.597 173.726 171.089C173.249 170.581 172.522 170.361 171.544 170.429L171.424 170.438C170.886 170.476 170.394 170.61 169.949 170.842C169.524 171.072 169.164 171.368 168.868 171.729C168.573 172.091 168.352 172.517 168.206 173.009C168.08 173.499 168.037 174.033 168.077 174.611L168.653 182.841L164.194 183.153ZM188.655 181.774C186.919 181.895 185.546 181.48 184.538 180.528C183.527 179.556 182.957 178.132 182.826 176.257L182.127 166.261L186.586 165.949L187.216 174.957C187.288 175.995 187.553 176.768 188.009 177.278C188.485 177.766 189.181 177.978 190.099 177.913L190.159 177.909C190.697 177.872 191.18 177.748 191.606 177.537C192.031 177.307 192.381 177.012 192.657 176.652C192.951 176.27 193.161 175.825 193.285 175.315C193.43 174.803 193.481 174.239 193.437 173.62L192.87 165.51L197.329 165.198L198.418 180.76L194.886 181.007C194.744 180.696 194.607 180.305 194.473 179.833C194.36 179.36 194.282 178.954 194.238 178.616C193.618 179.502 192.837 180.228 191.894 180.795C190.951 181.362 189.902 181.686 188.744 181.767L188.655 181.774ZM202.421 180.48L201.333 164.918L204.864 164.671C205.005 164.962 205.13 165.324 205.241 165.758C205.35 166.171 205.426 166.547 205.47 166.884C206.034 166.063 206.729 165.393 207.555 164.874C208.399 164.334 209.32 164.029 210.318 163.959L210.348 163.957C211.465 163.879 212.419 164.053 213.211 164.478C214.001 164.884 214.626 165.512 215.087 166.362C215.647 165.481 216.348 164.76 217.191 164.2C218.054 163.639 219.014 163.321 220.072 163.247L220.102 163.245C221.758 163.129 223.061 163.559 224.011 164.535C224.962 165.511 225.502 166.927 225.631 168.783L226.33 178.778L221.871 179.09L221.229 169.902C221.19 169.344 221.108 168.888 220.983 168.536C220.877 168.163 220.715 167.863 220.499 167.638C220.303 167.411 220.051 167.258 219.745 167.179C219.439 167.1 219.086 167.075 218.687 167.103L218.657 167.105C218.24 167.154 217.857 167.271 217.509 167.456C217.16 167.621 216.866 167.862 216.627 168.179C216.409 168.495 216.236 168.888 216.108 169.358C215.999 169.807 215.967 170.341 216.01 170.959L216.606 179.488L212.147 179.8L211.503 170.582C211.465 170.044 211.383 169.588 211.257 169.216C211.15 168.843 210.99 168.553 210.775 168.348C210.579 168.121 210.317 167.969 209.991 167.891C209.685 167.813 209.332 167.787 208.933 167.815L208.903 167.817C208.486 167.866 208.102 167.973 207.753 168.138C207.423 168.301 207.14 168.552 206.903 168.889C206.665 169.207 206.492 169.6 206.384 170.068C206.275 170.517 206.242 171.041 206.284 171.639L206.88 180.168L202.421 180.48ZM239.517 178.217C238.419 178.294 237.398 178.165 236.452 177.83C235.507 177.495 234.679 176.991 233.971 176.319C233.953 176.641 233.918 176.994 233.865 177.379C233.81 177.744 233.741 178.049 233.658 178.296L230.127 178.543L228.62 156.995L233.079 156.684L233.602 164.165C234.2 163.542 234.907 163.042 235.723 162.664C236.538 162.286 237.425 162.063 238.383 161.997L238.562 161.984C239.639 161.909 240.641 162.039 241.567 162.375C242.511 162.69 243.337 163.174 244.044 163.826C244.75 164.458 245.315 165.231 245.74 166.143C246.184 167.055 246.445 168.059 246.522 169.156L246.58 169.994C246.657 171.091 246.539 172.122 246.225 173.086C245.932 174.049 245.48 174.903 244.871 175.647C244.26 176.372 243.509 176.965 242.619 177.429C241.748 177.87 240.774 178.129 239.696 178.204L239.517 178.217ZM238.207 174.97L238.447 174.954C239.005 174.915 239.506 174.769 239.95 174.518C240.412 174.245 240.799 173.897 241.11 173.474C241.421 173.051 241.648 172.564 241.79 172.013C241.95 171.441 242.007 170.825 241.961 170.167L241.924 169.628C241.877 168.97 241.736 168.378 241.499 167.853C241.28 167.307 240.987 166.847 240.62 166.471C240.253 166.096 239.822 165.815 239.328 165.629C238.853 165.422 238.335 165.338 237.777 165.377L237.537 165.394C236.979 165.433 236.468 165.589 236.006 165.862C235.563 166.113 235.185 166.45 234.874 166.873C234.563 167.296 234.327 167.794 234.167 168.366C234.025 168.917 233.977 169.522 234.023 170.181L234.06 170.719C234.107 171.378 234.239 171.98 234.457 172.526C234.695 173.051 234.997 173.501 235.364 173.876C235.731 174.251 236.152 174.543 236.628 174.75C237.122 174.936 237.648 175.009 238.207 174.97ZM257.648 176.949C256.451 177.033 255.33 176.921 254.286 176.613C253.242 176.305 252.338 175.837 251.572 175.209C250.805 174.561 250.188 173.772 249.722 172.842C249.256 171.912 248.983 170.869 248.902 169.712L248.866 169.203C248.787 168.066 248.913 167.004 249.245 166.019C249.597 165.032 250.108 164.164 250.777 163.415C251.445 162.647 252.255 162.039 253.206 161.592C254.176 161.123 255.239 160.848 256.396 160.767L256.666 160.748C257.763 160.671 258.783 160.78 259.726 161.075C260.687 161.349 261.519 161.782 262.223 162.374C262.945 162.965 263.527 163.687 263.968 164.538C264.407 165.369 264.662 166.294 264.733 167.311L264.888 169.526L253.306 170.336C253.402 170.85 253.574 171.299 253.821 171.683C254.069 172.067 254.382 172.396 254.763 172.67C255.141 172.924 255.575 173.114 256.065 173.24C256.575 173.365 257.11 173.408 257.668 173.369L257.878 173.354C258.816 173.289 259.651 173.05 260.384 172.638C261.137 172.224 261.735 171.741 262.177 171.189L264.586 173.817C264.234 174.223 263.81 174.614 263.315 174.989C262.839 175.343 262.31 175.661 261.728 175.942C261.145 176.203 260.538 176.416 259.908 176.581C259.299 176.763 258.686 176.877 258.067 176.92L257.648 176.949ZM253.205 167.606L260.478 167.098C260.424 166.62 260.284 166.189 260.056 165.804C259.848 165.397 259.574 165.066 259.235 164.809C258.915 164.53 258.54 164.326 258.11 164.196C257.698 164.044 257.243 163.986 256.744 164.021L256.684 164.025C256.225 164.057 255.792 164.167 255.384 164.356C254.995 164.524 254.651 164.768 254.353 165.09C254.053 165.392 253.798 165.76 253.588 166.196C253.396 166.61 253.269 167.08 253.205 167.606ZM268.587 175.853L267.499 160.291L271.06 160.042C271.181 160.335 271.297 160.697 271.407 161.131C271.518 161.564 271.604 161.939 271.666 162.255C272.216 161.515 272.916 160.915 273.766 160.455C274.616 159.994 275.589 159.726 276.687 159.649L277.076 159.622L277.369 163.811C277.205 163.763 277.012 163.726 276.79 163.702C276.587 163.676 276.386 163.67 276.187 163.684C275.549 163.728 274.986 163.848 274.498 164.042C274.03 164.235 273.637 164.493 273.319 164.816C273.019 165.118 272.794 165.485 272.644 165.916C272.494 166.348 272.436 166.813 272.471 167.312L273.047 175.541L268.587 175.853ZM286.878 174.935C285.422 175.037 284.033 174.954 282.711 174.685C281.407 174.395 280.202 173.928 279.094 173.284L280.965 169.935C281.324 170.191 281.731 170.423 282.187 170.632C282.641 170.821 283.114 170.988 283.605 171.134C284.095 171.26 284.593 171.356 285.099 171.421C285.603 171.466 286.085 171.472 286.544 171.44C286.903 171.415 287.22 171.363 287.495 171.283C287.77 171.204 287.993 171.098 288.164 170.966C288.356 170.832 288.495 170.682 288.584 170.515C288.671 170.329 288.706 170.116 288.69 169.876C288.667 169.557 288.54 169.316 288.308 169.151C288.076 168.987 287.736 168.851 287.287 168.742C286.857 168.611 286.317 168.489 285.668 168.374C285.038 168.257 284.284 168.089 283.407 167.87C282.897 167.745 282.396 167.6 281.903 167.434C281.409 167.248 280.961 167.009 280.559 166.716C280.177 166.402 279.859 166.023 279.608 165.58C279.356 165.136 279.208 164.595 279.164 163.957C279.112 163.218 279.206 162.55 279.444 161.952C279.702 161.333 280.075 160.795 280.565 160.34C281.074 159.883 281.7 159.519 282.443 159.246C283.184 158.954 284.034 158.774 284.992 158.707C286.149 158.626 287.299 158.726 288.441 159.007C289.602 159.267 290.634 159.686 291.536 160.264L289.655 163.464C289.063 163.024 288.328 162.694 287.45 162.475C286.592 162.234 285.763 162.142 284.965 162.198C284.626 162.221 284.329 162.272 284.073 162.35C283.838 162.427 283.645 162.53 283.494 162.661C283.341 162.772 283.231 162.91 283.162 163.075C283.113 163.239 283.095 163.411 283.108 163.591C283.124 163.83 283.219 164.034 283.391 164.202C283.562 164.351 283.812 164.484 284.141 164.601C284.47 164.718 284.868 164.821 285.335 164.908C285.802 164.996 286.33 165.089 286.918 165.189C287.588 165.302 288.26 165.446 288.933 165.619C289.606 165.773 290.224 166.01 290.788 166.331C291.351 166.653 291.822 167.081 292.201 167.616C292.597 168.13 292.824 168.795 292.882 169.613C292.932 170.332 292.819 171.011 292.543 171.652C292.286 172.271 291.892 172.81 291.363 173.268C290.834 173.726 290.188 174.102 289.427 174.396C288.665 174.69 287.816 174.87 286.878 174.935Z" fill="black"/>
</svg>
