<svg width="312" height="213" viewBox="0 0 312 213" fill="none" xmlns="http://www.w3.org/2000/svg">
<g filter="url(#filter0_d_462_5366)">
<rect x="14" y="49.5488" width="257" height="54.9994" rx="27.4997" fill="#242424"/>
<g clip-path="url(#clip0_462_5366)">
<path d="M44.7915 74.6595C44.7915 75.7573 45.0077 76.8443 45.4278 77.8585C45.8479 78.8727 46.4636 79.7942 47.2399 80.5704C48.0161 81.3467 48.9376 81.9624 49.9518 82.3825C50.966 82.8026 52.053 83.0188 53.1508 83.0188C54.2485 83.0188 55.3355 82.8026 56.3497 82.3825C57.3639 81.9624 58.2854 81.3467 59.0616 80.5704C59.8379 79.7942 60.4536 78.8727 60.8737 77.8585C61.2938 76.8443 61.51 75.7573 61.51 74.6595C61.51 73.5618 61.2938 72.4748 60.8737 71.4606C60.4536 70.4464 59.8379 69.5249 59.0616 68.7487C58.2854 67.9724 57.3639 67.3567 56.3497 66.9366C55.3355 66.5165 54.2485 66.3003 53.1508 66.3003C52.053 66.3003 50.966 66.5165 49.9518 66.9366C48.9376 67.3567 48.0161 67.9724 47.2399 68.7487C46.4636 69.5249 45.8479 70.4464 45.4278 71.4606C45.0077 72.4748 44.7915 73.5618 44.7915 74.6595Z" stroke="white" stroke-width="1.79127" stroke-linecap="round" stroke-linejoin="round"/>
<path d="M66.2864 87.7959L59.1213 80.6309" stroke="white" stroke-width="1.79127" stroke-linecap="round" stroke-linejoin="round"/>
</g>
<path d="M80.8284 84.5483V73.595H83.2981V75.4964H83.3497C83.5908 74.8488 83.987 74.3356 84.5381 73.9567C85.0892 73.5778 85.7333 73.3884 86.4704 73.3884C87.2419 73.3884 87.8929 73.5813 88.4234 73.967C88.9607 74.3459 89.3293 74.8867 89.5291 75.5894H89.5911C89.8528 74.9143 90.2868 74.3804 90.893 73.9877C91.5062 73.5882 92.2088 73.3884 93.001 73.3884C94.0826 73.3884 94.9471 73.7225 95.5947 74.3907C96.2491 75.0589 96.5764 75.9407 96.5764 77.036V84.5483H94.0034V77.6664C94.0034 76.9913 93.8311 76.4711 93.4867 76.106C93.1492 75.7409 92.6669 75.5584 92.04 75.5584C91.42 75.5584 90.9172 75.765 90.5314 76.1784C90.1456 76.5917 89.9527 77.1256 89.9527 77.78V84.5483H87.4521V77.532C87.4521 76.9258 87.2764 76.447 86.9251 76.0957C86.5806 75.7375 86.1087 75.5584 85.5094 75.5584C84.8894 75.5584 84.3831 75.7754 83.9904 76.2094C83.5977 76.6365 83.4014 77.1807 83.4014 77.842V84.5483H80.8284ZM99.821 88.6197C99.263 88.6197 98.9255 88.6059 98.8084 88.5783V86.5427C98.9255 86.5702 99.1735 86.584 99.5524 86.584C100.083 86.584 100.496 86.4738 100.792 86.2533C101.089 86.0329 101.309 85.6712 101.454 85.1683C101.454 85.1614 101.478 85.0616 101.526 84.8687C101.581 84.6758 101.605 84.5725 101.598 84.5587L97.7027 73.595H100.513L103.097 82.3577H103.138L105.721 73.595H108.429L104.471 84.9823C104.003 86.3394 103.424 87.2832 102.735 87.8137C102.046 88.351 101.075 88.6197 99.821 88.6197ZM113.44 84.724C112.056 84.724 110.95 84.2142 110.123 83.1947C109.304 82.1751 108.894 80.7974 108.894 79.0614C108.894 77.3323 109.304 75.9579 110.123 74.9384C110.95 73.9188 112.056 73.409 113.44 73.409C114.212 73.409 114.894 73.5916 115.486 73.9567C116.086 74.3218 116.533 74.8144 116.83 75.4344H116.892V69.6374H119.465V84.5483H116.943V82.678H116.902C116.599 83.3049 116.141 83.8043 115.528 84.1763C114.921 84.5415 114.226 84.724 113.44 84.724ZM114.215 75.5274C113.389 75.5274 112.734 75.8477 112.252 76.4884C111.77 77.1221 111.529 77.9832 111.529 79.0717C111.529 80.167 111.766 81.0316 112.242 81.6653C112.724 82.2991 113.382 82.616 114.215 82.616C115.028 82.616 115.679 82.2957 116.168 81.655C116.657 81.0144 116.902 80.1532 116.902 79.0717C116.902 77.997 116.657 77.1394 116.168 76.4987C115.679 75.8511 115.028 75.5274 114.215 75.5274ZM130.335 83.2463C129.378 84.259 128.089 84.7653 126.471 84.7653C124.852 84.7653 123.564 84.259 122.606 83.2463C121.648 82.2268 121.17 80.8352 121.17 79.0717C121.17 77.315 121.652 75.9269 122.616 74.9074C123.581 73.8809 124.865 73.3677 126.471 73.3677C128.083 73.3677 129.367 73.8809 130.325 74.9074C131.289 75.9269 131.772 77.315 131.772 79.0717C131.772 80.8352 131.293 82.2268 130.335 83.2463ZM124.507 81.7687C124.989 82.4093 125.644 82.7297 126.471 82.7297C127.297 82.7297 127.952 82.4093 128.434 81.7687C128.916 81.128 129.157 80.229 129.157 79.0717C129.157 77.9212 128.916 77.0257 128.434 76.385C127.952 75.7375 127.297 75.4137 126.471 75.4137C125.651 75.4137 124.996 75.7375 124.507 76.385C124.025 77.0257 123.784 77.9212 123.784 79.0717C123.784 80.229 124.025 81.128 124.507 81.7687ZM133.425 84.5483V73.595H135.895V75.4964H135.946C136.187 74.8488 136.583 74.3356 137.135 73.9567C137.686 73.5778 138.33 73.3884 139.067 73.3884C139.838 73.3884 140.489 73.5813 141.02 73.967C141.557 74.3459 141.926 74.8867 142.126 75.5894H142.188C142.449 74.9143 142.883 74.3804 143.49 73.9877C144.103 73.5882 144.805 73.3884 145.598 73.3884C146.679 73.3884 147.544 73.7225 148.191 74.3907C148.846 75.0589 149.173 75.9407 149.173 77.036V84.5483H146.6V77.6664C146.6 76.9913 146.428 76.4711 146.083 76.106C145.746 75.7409 145.263 75.5584 144.637 75.5584C144.017 75.5584 143.514 75.765 143.128 76.1784C142.742 76.5917 142.549 77.1256 142.549 77.78V84.5483H140.049V77.532C140.049 76.9258 139.873 76.447 139.522 76.0957C139.177 75.7375 138.705 75.5584 138.106 75.5584C137.486 75.5584 136.98 75.7754 136.587 76.2094C136.194 76.6365 135.998 77.1807 135.998 77.842V84.5483H133.425ZM155.239 82.7813C155.976 82.7813 156.596 82.5643 157.099 82.1303C157.608 81.6895 157.863 81.1418 157.863 80.4874V79.6504L155.332 79.8054C154.712 79.8467 154.229 80.0017 153.885 80.2704C153.547 80.5321 153.379 80.88 153.379 81.314C153.379 81.7618 153.547 82.12 153.885 82.3887C154.229 82.6505 154.681 82.7813 155.239 82.7813ZM154.464 84.724C153.396 84.724 152.517 84.4175 151.829 83.8043C151.147 83.1912 150.806 82.3956 150.806 81.4173C150.806 80.446 151.164 79.6779 151.88 79.113C152.604 78.5481 153.633 78.2244 154.97 78.1417L157.863 77.9764V77.191C157.863 76.6193 157.681 76.1749 157.316 75.858C156.957 75.5411 156.458 75.3827 155.817 75.3827C155.218 75.3827 154.729 75.517 154.35 75.7857C153.971 76.0544 153.74 76.4195 153.658 76.881H151.271C151.326 75.8408 151.77 74.9969 152.604 74.3494C153.444 73.6949 154.55 73.3677 155.921 73.3677C157.278 73.3677 158.363 73.6984 159.176 74.3597C159.995 75.021 160.405 75.9028 160.405 77.005V84.5483H157.925V82.802H157.874C157.564 83.3876 157.095 83.856 156.468 84.2073C155.841 84.5518 155.173 84.724 154.464 84.724ZM162.544 84.5483V73.595H165.117V84.5483H162.544ZM164.838 71.7557C164.563 72.0244 164.225 72.1587 163.825 72.1587C163.426 72.1587 163.088 72.0244 162.813 71.7557C162.537 71.4802 162.399 71.1495 162.399 70.7637C162.399 70.3711 162.537 70.0404 162.813 69.7717C163.088 69.4962 163.426 69.3584 163.825 69.3584C164.225 69.3584 164.563 69.4962 164.838 69.7717C165.121 70.0404 165.262 70.3711 165.262 70.7637C165.262 71.1495 165.121 71.4802 164.838 71.7557ZM167.277 84.5483V73.595H169.746V75.4757H169.798C170.101 74.8144 170.542 74.3011 171.121 73.936C171.706 73.5709 172.412 73.3884 173.239 73.3884C174.438 73.3884 175.368 73.75 176.029 74.4734C176.697 75.1967 177.031 76.1956 177.031 77.47V84.5483H174.458V77.9867C174.458 77.2014 174.272 76.602 173.9 76.1887C173.535 75.7754 172.991 75.5687 172.268 75.5687C171.531 75.5687 170.942 75.8098 170.501 76.292C170.067 76.7743 169.85 77.4115 169.85 78.2037V84.5483H167.277ZM180.896 84.662C180.476 84.662 180.121 84.5208 179.832 84.2383C179.549 83.949 179.408 83.5942 179.408 83.174C179.408 82.7607 179.549 82.4093 179.832 82.12C180.121 81.8307 180.476 81.686 180.896 81.686C181.309 81.686 181.657 81.8307 181.94 82.12C182.229 82.4093 182.374 82.7607 182.374 83.174C182.374 83.5942 182.229 83.949 181.94 84.2383C181.657 84.5208 181.309 84.662 180.896 84.662ZM193.937 77.501H191.508C191.398 76.8879 191.136 76.3954 190.723 76.0234C190.31 75.6445 189.772 75.455 189.111 75.455C188.298 75.455 187.651 75.7788 187.168 76.4264C186.686 77.067 186.445 77.9488 186.445 79.0717C186.445 80.2084 186.686 81.097 187.168 81.7377C187.651 82.3715 188.305 82.6883 189.132 82.6883C189.779 82.6883 190.31 82.5161 190.723 82.1717C191.136 81.8203 191.402 81.3312 191.519 80.7044H193.947C193.844 81.9306 193.351 82.9157 192.469 83.6597C191.595 84.3968 190.472 84.7653 189.101 84.7653C187.489 84.7653 186.207 84.259 185.257 83.2463C184.306 82.2268 183.831 80.8352 183.831 79.0717C183.831 77.3288 184.306 75.9441 185.257 74.9177C186.207 73.8844 187.482 73.3677 189.08 73.3677C190.485 73.3677 191.622 73.7604 192.49 74.5457C193.365 75.3241 193.847 76.3093 193.937 77.501ZM204.198 83.2463C203.24 84.259 201.952 84.7653 200.333 84.7653C198.714 84.7653 197.426 84.259 196.468 83.2463C195.511 82.2268 195.032 80.8352 195.032 79.0717C195.032 77.315 195.514 75.9269 196.479 74.9074C197.443 73.8809 198.728 73.3677 200.333 73.3677C201.945 73.3677 203.23 73.8809 204.187 74.9074C205.152 75.9269 205.634 77.315 205.634 79.0717C205.634 80.8352 205.155 82.2268 204.198 83.2463ZM198.37 81.7687C198.852 82.4093 199.506 82.7297 200.333 82.7297C201.16 82.7297 201.814 82.4093 202.296 81.7687C202.779 81.128 203.02 80.229 203.02 79.0717C203.02 77.9212 202.779 77.0257 202.296 76.385C201.814 75.7375 201.16 75.4137 200.333 75.4137C199.513 75.4137 198.859 75.7375 198.37 76.385C197.887 77.0257 197.646 77.9212 197.646 79.0717C197.646 80.229 197.887 81.128 198.37 81.7687ZM207.287 84.5483V73.595H209.757V75.4964H209.809C210.05 74.8488 210.446 74.3356 210.997 73.9567C211.548 73.5778 212.192 73.3884 212.929 73.3884C213.701 73.3884 214.352 73.5813 214.882 73.967C215.42 74.3459 215.788 74.8867 215.988 75.5894H216.05C216.312 74.9143 216.746 74.3804 217.352 73.9877C217.965 73.5882 218.668 73.3884 219.46 73.3884C220.542 73.3884 221.406 73.7225 222.054 74.3907C222.708 75.0589 223.035 75.9407 223.035 77.036V84.5483H220.462V77.6664C220.462 76.9913 220.29 76.4711 219.946 76.106C219.608 75.7409 219.126 75.5584 218.499 75.5584C217.879 75.5584 217.376 75.765 216.99 76.1784C216.605 76.5917 216.412 77.1256 216.412 77.78V84.5483H213.911V77.532C213.911 76.9258 213.735 76.447 213.384 76.0957C213.04 75.7375 212.568 75.5584 211.968 75.5584C211.348 75.5584 210.842 75.7754 210.449 76.2094C210.057 76.6365 209.86 77.1807 209.86 77.842V84.5483H207.287Z" fill="white"/>
</g>
<g filter="url(#filter1_d_462_5366)">
<rect x="91.4404" y="154.053" width="93.6093" height="45.9473" rx="22.9736" fill="#FFEE7C" shape-rendering="crispEdges"/>
<path d="M125.683 183.9C125.213 183.9 124.817 183.742 124.494 183.427C124.178 183.103 124.02 182.707 124.02 182.237C124.02 181.775 124.178 181.383 124.494 181.06C124.817 180.736 125.213 180.575 125.683 180.575C126.145 180.575 126.533 180.736 126.849 181.06C127.172 181.383 127.334 181.775 127.334 182.237C127.334 182.707 127.172 183.103 126.849 183.427C126.533 183.742 126.145 183.9 125.683 183.9ZM140.254 175.898H137.541C137.418 175.213 137.125 174.663 136.663 174.247C136.201 173.824 135.601 173.612 134.862 173.612C133.954 173.612 133.23 173.974 132.691 174.698C132.153 175.414 131.883 176.399 131.883 177.653C131.883 178.924 132.153 179.917 132.691 180.632C133.23 181.341 133.961 181.695 134.885 181.695C135.609 181.695 136.201 181.502 136.663 181.117C137.125 180.725 137.421 180.178 137.552 179.478H140.266C140.15 180.848 139.6 181.949 138.615 182.78C137.637 183.604 136.382 184.015 134.851 184.015C133.049 184.015 131.618 183.45 130.555 182.318C129.493 181.179 128.962 179.624 128.962 177.653C128.962 175.706 129.493 174.159 130.555 173.012C131.618 171.857 133.042 171.28 134.827 171.28C136.398 171.28 137.668 171.719 138.638 172.596C139.615 173.466 140.154 174.567 140.254 175.898ZM151.719 182.318C150.65 183.45 149.21 184.015 147.401 184.015C145.592 184.015 144.153 183.45 143.083 182.318C142.013 181.179 141.478 179.624 141.478 177.653C141.478 175.691 142.017 174.14 143.094 173C144.172 171.853 145.608 171.28 147.401 171.28C149.202 171.28 150.638 171.853 151.708 173C152.786 174.14 153.324 175.691 153.324 177.653C153.324 179.624 152.789 181.179 151.719 182.318ZM145.207 180.667C145.746 181.383 146.478 181.741 147.401 181.741C148.325 181.741 149.056 181.383 149.595 180.667C150.134 179.951 150.403 178.947 150.403 177.653C150.403 176.368 150.134 175.367 149.595 174.651C149.056 173.928 148.325 173.566 147.401 173.566C146.485 173.566 145.754 173.928 145.207 174.651C144.669 175.367 144.399 176.368 144.399 177.653C144.399 178.947 144.669 179.951 145.207 180.667Z" fill="black"/>
</g>
<g filter="url(#filter2_d_462_5366)">
<rect x="183.348" y="118.315" width="80.9639" height="40.4763" rx="20.2382" fill="#F27AFF" shape-rendering="crispEdges"/>
<path d="M215.632 144.831C215.216 144.831 214.866 144.692 214.58 144.412C214.301 144.127 214.162 143.776 214.162 143.361C214.162 142.953 214.301 142.605 214.58 142.32C214.866 142.034 215.216 141.891 215.632 141.891C216.04 141.891 216.384 142.034 216.663 142.32C216.949 142.605 217.092 142.953 217.092 143.361C217.092 143.776 216.949 144.127 216.663 144.412C216.384 144.692 216.04 144.831 215.632 144.831ZM219.552 144.719V133.897H222.094V144.719H219.552ZM221.818 132.08C221.546 132.345 221.213 132.478 220.818 132.478C220.423 132.478 220.09 132.345 219.817 132.08C219.545 131.808 219.409 131.481 219.409 131.1C219.409 130.712 219.545 130.385 219.817 130.12C220.09 129.847 220.423 129.711 220.818 129.711C221.213 129.711 221.546 129.847 221.818 130.12C222.097 130.385 222.237 130.712 222.237 131.1C222.237 131.481 222.097 131.808 221.818 132.08ZM232.834 143.432C231.888 144.433 230.615 144.933 229.016 144.933C227.416 144.933 226.144 144.433 225.198 143.432C224.252 142.425 223.779 141.05 223.779 139.308C223.779 137.572 224.255 136.201 225.208 135.194C226.161 134.179 227.43 133.672 229.016 133.672C230.609 133.672 231.878 134.179 232.824 135.194C233.777 136.201 234.253 137.572 234.253 139.308C234.253 141.05 233.78 142.425 232.834 143.432ZM227.076 141.972C227.553 142.605 228.199 142.922 229.016 142.922C229.833 142.922 230.479 142.605 230.956 141.972C231.432 141.34 231.67 140.451 231.67 139.308C231.67 138.171 231.432 137.286 230.956 136.653C230.479 136.014 229.833 135.694 229.016 135.694C228.206 135.694 227.559 136.014 227.076 136.653C226.6 137.286 226.362 138.171 226.362 139.308C226.362 140.451 226.6 141.34 227.076 141.972Z" fill="black"/>
</g>
<g filter="url(#filter3_d_462_5366)">
<rect x="54.6897" y="6" width="71.177" height="35.5836" rx="17.7918" fill="#91DAF9" shape-rendering="crispEdges"/>
<path d="M83.3134 29.3653C82.9484 29.3653 82.6403 29.2427 82.389 28.9973C82.1436 28.746 82.021 28.4379 82.021 28.0729C82.021 27.7139 82.1436 27.4088 82.389 27.1574C82.6403 26.9061 82.9484 26.7805 83.3134 26.7805C83.6724 26.7805 83.9746 26.9061 84.2199 27.1574C84.4712 27.4088 84.5968 27.7139 84.5968 28.0729C84.5968 28.4379 84.4712 28.746 84.2199 28.9973C83.9746 29.2427 83.6724 29.3653 83.3134 29.3653ZM90.1794 27.7319C90.8196 27.7319 91.3581 27.5434 91.7949 27.1664C92.2377 26.7835 92.4591 26.3078 92.4591 25.7394V25.0124L90.2601 25.147C89.7216 25.1829 89.3028 25.3175 89.0036 25.5509C88.7104 25.7783 88.5638 26.0804 88.5638 26.4574C88.5638 26.8463 88.7104 27.1574 89.0036 27.3908C89.3028 27.6182 89.6947 27.7319 90.1794 27.7319ZM89.5062 29.4192C88.5788 29.4192 87.8159 29.1529 87.2176 28.6204C86.6252 28.0879 86.329 27.3968 86.329 26.5471C86.329 25.7035 86.6402 25.0363 87.2625 24.5457C87.8907 24.055 88.7852 23.7738 89.946 23.702L92.4591 23.5584V22.8763C92.4591 22.3797 92.3005 21.9938 91.9834 21.7185C91.6722 21.4433 91.2384 21.3057 90.682 21.3057C90.1614 21.3057 89.7366 21.4223 89.4075 21.6557C89.0784 21.889 88.878 22.2062 88.8062 22.6071H86.7329C86.7808 21.7036 87.1667 20.9706 87.8907 20.4082C88.6207 19.8397 89.581 19.5555 90.7717 19.5555C91.9505 19.5555 92.8929 19.8427 93.5989 20.4171C94.3109 20.9915 94.6669 21.7574 94.6669 22.7148V29.2666H92.5129V27.7498H92.468C92.1988 28.2584 91.7919 28.6653 91.2474 28.9704C90.7029 29.2696 90.1225 29.4192 89.5062 29.4192ZM96.5248 29.2666V19.753H98.7596V29.2666H96.5248ZM98.5173 18.1554C98.2779 18.3887 97.9847 18.5054 97.6377 18.5054C97.2907 18.5054 96.9975 18.3887 96.7581 18.1554C96.5188 17.9161 96.3991 17.6289 96.3991 17.2938C96.3991 16.9527 96.5188 16.6655 96.7581 16.4322C96.9975 16.1928 97.2907 16.0732 97.6377 16.0732C97.9847 16.0732 98.2779 16.1928 98.5173 16.4322C98.7626 16.6655 98.8852 16.9527 98.8852 17.2938C98.8852 17.6289 98.7626 17.9161 98.5173 18.1554Z" fill="black"/>
</g>
<g filter="url(#filter4_d_462_5366)">
<rect x="168.573" y="20.2334" width="67.6182" height="34.5905" rx="17.2953" fill="#D1AEF4" shape-rendering="crispEdges"/>
<path d="M191.119 41.4759C190.807 41.4759 190.544 41.3712 190.329 41.1616C190.12 40.9469 190.015 40.6837 190.015 40.3719C190.015 40.0652 190.12 39.8045 190.329 39.5898C190.544 39.3751 190.807 39.2678 191.119 39.2678C191.426 39.2678 191.684 39.3751 191.893 39.5898C192.108 39.8045 192.215 40.0652 192.215 40.3719C192.215 40.6837 192.108 40.9469 191.893 41.1616C191.684 41.3712 191.426 41.4759 191.119 41.4759ZM194.017 41.3916V33.2645H195.85V34.6599H195.888C196.113 34.1692 196.44 33.7884 196.869 33.5175C197.304 33.2466 197.828 33.1111 198.441 33.1111C199.331 33.1111 200.021 33.3795 200.511 33.9162C201.007 34.4529 201.255 35.194 201.255 36.1396V41.3916H199.346V36.523C199.346 35.9403 199.208 35.4956 198.932 35.1889C198.661 34.8822 198.257 34.7289 197.72 34.7289C197.173 34.7289 196.736 34.9078 196.409 35.2656C196.087 35.6234 195.926 36.0962 195.926 36.684V41.3916H194.017ZM206.292 34.5755C205.761 34.5755 205.316 34.7595 204.958 35.1276C204.605 35.4905 204.409 35.9582 204.368 36.5306H208.163C208.143 35.9531 207.961 35.4828 207.619 35.1199C207.276 34.757 206.834 34.5755 206.292 34.5755ZM208.171 38.9611H209.957C209.834 39.7329 209.443 40.3591 208.784 40.8396C208.125 41.3149 207.317 41.5526 206.361 41.5526C205.145 41.5526 204.189 41.1795 203.494 40.4332C202.799 39.6818 202.451 38.657 202.451 37.3587C202.451 36.0706 202.796 35.0381 203.486 34.2612C204.181 33.4842 205.114 33.0958 206.285 33.0958C207.435 33.0958 208.347 33.4664 209.022 34.2075C209.696 34.9436 210.034 35.9301 210.034 37.167V37.7881H204.352V37.9031C204.352 38.5573 204.536 39.0838 204.905 39.4825C205.278 39.8812 205.776 40.0805 206.4 40.0805C206.839 40.0805 207.217 39.9809 207.534 39.7815C207.856 39.577 208.068 39.3036 208.171 38.9611ZM211.797 31.363H213.706V33.2645H215.24V34.7365H213.706V38.9611C213.706 39.2934 213.786 39.5387 213.944 39.6972C214.103 39.8556 214.35 39.9348 214.688 39.9348C214.913 39.9348 215.094 39.9221 215.232 39.8965V41.3533C215.002 41.4044 214.672 41.4299 214.243 41.4299C213.364 41.4299 212.735 41.2613 212.357 40.9239C211.984 40.5866 211.797 40.0217 211.797 39.2295V34.7365H210.632V33.2645H211.797V31.363Z" fill="black"/>
</g>
<g filter="url(#filter5_d_462_5366)">
<rect x="15.5425" y="118.087" width="75.6256" height="37.5233" rx="18.7616" fill="#8378FF" shape-rendering="crispEdges"/>
<path d="M41.1373 142.114C40.799 142.114 40.5135 142 40.2806 141.773C40.0533 141.54 39.9396 141.255 39.9396 140.916C39.9396 140.584 40.0533 140.301 40.2806 140.068C40.5135 139.835 40.799 139.719 41.1373 139.719C41.47 139.719 41.75 139.835 41.9773 140.068C42.2102 140.301 42.3266 140.584 42.3266 140.916C42.3266 141.255 42.2102 141.54 41.9773 141.773C41.75 142 41.47 142.114 41.1373 142.114ZM50.8767 140.974C50.106 141.79 49.0691 142.197 47.7661 142.197C46.463 142.197 45.4262 141.79 44.6554 140.974C43.8847 140.154 43.4993 139.034 43.4993 137.614C43.4993 136.2 43.8875 135.083 44.6637 134.263C45.44 133.436 46.4741 133.023 47.7661 133.023C49.0635 133.023 50.0976 133.436 50.8684 134.263C51.6446 135.083 52.0328 136.2 52.0328 137.614C52.0328 139.034 51.6474 140.154 50.8767 140.974ZM46.1858 139.785C46.5739 140.301 47.1007 140.559 47.7661 140.559C48.4314 140.559 48.9582 140.301 49.3463 139.785C49.7345 139.269 49.9285 138.546 49.9285 137.614C49.9285 136.688 49.7345 135.968 49.3463 135.452C48.9582 134.931 48.4314 134.67 47.7661 134.67C47.1062 134.67 46.5795 134.931 46.1858 135.452C45.7977 135.968 45.6036 136.688 45.6036 137.614C45.6036 138.546 45.7977 139.269 46.1858 139.785ZM53.3635 142.022V133.206H55.3513V134.745H55.3929C55.5426 134.207 55.8004 133.791 56.1664 133.497C56.5379 133.203 56.9843 133.057 57.5055 133.057C57.6884 133.057 57.9047 133.084 58.1542 133.14V135.011C57.949 134.933 57.669 134.895 57.3142 134.895C56.7264 134.895 56.2662 135.072 55.9335 135.427C55.6008 135.782 55.4345 136.27 55.4345 136.891V142.022H53.3635ZM62.7786 140.384C63.4439 140.384 63.9735 140.134 64.3671 139.635C64.7608 139.131 64.9577 138.449 64.9577 137.589C64.9577 136.73 64.758 136.045 64.3588 135.535C63.9651 135.019 63.4384 134.762 62.7786 134.762C62.1243 134.762 61.6031 135.017 61.2149 135.527C60.8323 136.037 60.641 136.724 60.641 137.589C60.641 138.46 60.8323 139.145 61.2149 139.644C61.6031 140.137 62.1243 140.384 62.7786 140.384ZM62.7702 145.349C61.689 145.349 60.7852 145.1 60.0588 144.601C59.338 144.107 58.9249 143.47 58.8196 142.688H60.8739C60.9848 143.026 61.2177 143.298 61.5726 143.503C61.9274 143.714 62.3488 143.819 62.8368 143.819C63.5021 143.819 64.0206 143.647 64.3921 143.303C64.7691 142.965 64.9577 142.51 64.9577 141.939V140.451H64.9077C64.6749 140.933 64.3117 141.318 63.8182 141.607C63.3303 141.889 62.773 142.031 62.1464 142.031C61.0486 142.031 60.1697 141.632 59.5099 140.833C58.8501 140.029 58.5202 138.945 58.5202 137.581C58.5202 136.189 58.8501 135.089 59.5099 134.279C60.1697 133.464 61.0624 133.057 62.188 133.057C62.809 133.057 63.3635 133.206 63.8515 133.506C64.3394 133.8 64.7109 134.204 64.966 134.72H64.9992V133.206H67.0286V141.881C67.0286 142.935 66.6405 143.775 65.8642 144.401C65.088 145.033 64.0566 145.349 62.7702 145.349Z" fill="white"/>
</g>
<defs>
<filter id="filter0_d_462_5366" x="0.363637" y="32.5034" width="311.545" height="109.545" filterUnits="userSpaceOnUse" color-interpolation-filters="sRGB">
<feFlood flood-opacity="0" result="BackgroundImageFix"/>
<feColorMatrix in="SourceAlpha" type="matrix" values="0 0 0 0 0 0 0 0 0 0 0 0 0 0 0 0 0 0 127 0" result="hardAlpha"/>
<feOffset dx="13.6364" dy="10.2273"/>
<feGaussianBlur stdDeviation="13.6364"/>
<feColorMatrix type="matrix" values="0 0 0 0 0.120833 0 0 0 0 0.120833 0 0 0 0 0.120833 0 0 0 0.25 0"/>
<feBlend mode="normal" in2="BackgroundImageFix" result="effect1_dropShadow_462_5366"/>
<feBlend mode="normal" in="SourceGraphic" in2="effect1_dropShadow_462_5366" result="shape"/>
</filter>
<filter id="filter1_d_462_5366" x="82.4266" y="148.043" width="111.637" height="63.975" filterUnits="userSpaceOnUse" color-interpolation-filters="sRGB">
<feFlood flood-opacity="0" result="BackgroundImageFix"/>
<feColorMatrix in="SourceAlpha" type="matrix" values="0 0 0 0 0 0 0 0 0 0 0 0 0 0 0 0 0 0 127 0" result="hardAlpha"/>
<feOffset dy="3.00462"/>
<feGaussianBlur stdDeviation="4.50693"/>
<feComposite in2="hardAlpha" operator="out"/>
<feColorMatrix type="matrix" values="0 0 0 0 0.4 0 0 0 0 0.383333 0 0 0 0 0.383333 0 0 0 0.08 0"/>
<feBlend mode="normal" in2="BackgroundImageFix" result="effect1_dropShadow_462_5366"/>
<feBlend mode="normal" in="SourceGraphic" in2="effect1_dropShadow_462_5366" result="shape"/>
</filter>
<filter id="filter2_d_462_5366" x="174.334" y="112.306" width="98.9916" height="58.5038" filterUnits="userSpaceOnUse" color-interpolation-filters="sRGB">
<feFlood flood-opacity="0" result="BackgroundImageFix"/>
<feColorMatrix in="SourceAlpha" type="matrix" values="0 0 0 0 0 0 0 0 0 0 0 0 0 0 0 0 0 0 127 0" result="hardAlpha"/>
<feOffset dy="3.00462"/>
<feGaussianBlur stdDeviation="4.50693"/>
<feComposite in2="hardAlpha" operator="out"/>
<feColorMatrix type="matrix" values="0 0 0 0 0.4 0 0 0 0 0.383333 0 0 0 0 0.383333 0 0 0 0.18 0"/>
<feBlend mode="normal" in2="BackgroundImageFix" result="effect1_dropShadow_462_5366"/>
<feBlend mode="normal" in="SourceGraphic" in2="effect1_dropShadow_462_5366" result="shape"/>
</filter>
<filter id="filter3_d_462_5366" x="45.6758" y="-0.00924373" width="89.2047" height="53.6112" filterUnits="userSpaceOnUse" color-interpolation-filters="sRGB">
<feFlood flood-opacity="0" result="BackgroundImageFix"/>
<feColorMatrix in="SourceAlpha" type="matrix" values="0 0 0 0 0 0 0 0 0 0 0 0 0 0 0 0 0 0 127 0" result="hardAlpha"/>
<feOffset dy="3.00462"/>
<feGaussianBlur stdDeviation="4.50693"/>
<feComposite in2="hardAlpha" operator="out"/>
<feColorMatrix type="matrix" values="0 0 0 0 0.4 0 0 0 0 0.383333 0 0 0 0 0.383333 0 0 0 0.18 0"/>
<feBlend mode="normal" in2="BackgroundImageFix" result="effect1_dropShadow_462_5366"/>
<feBlend mode="normal" in="SourceGraphic" in2="effect1_dropShadow_462_5366" result="shape"/>
</filter>
<filter id="filter4_d_462_5366" x="159.559" y="14.2242" width="85.6459" height="52.6181" filterUnits="userSpaceOnUse" color-interpolation-filters="sRGB">
<feFlood flood-opacity="0" result="BackgroundImageFix"/>
<feColorMatrix in="SourceAlpha" type="matrix" values="0 0 0 0 0 0 0 0 0 0 0 0 0 0 0 0 0 0 127 0" result="hardAlpha"/>
<feOffset dy="3.00462"/>
<feGaussianBlur stdDeviation="4.50693"/>
<feComposite in2="hardAlpha" operator="out"/>
<feColorMatrix type="matrix" values="0 0 0 0 0.4 0 0 0 0 0.383333 0 0 0 0 0.383333 0 0 0 0.18 0"/>
<feBlend mode="normal" in2="BackgroundImageFix" result="effect1_dropShadow_462_5366"/>
<feBlend mode="normal" in="SourceGraphic" in2="effect1_dropShadow_462_5366" result="shape"/>
</filter>
<filter id="filter5_d_462_5366" x="6.52861" y="112.078" width="93.6532" height="55.5512" filterUnits="userSpaceOnUse" color-interpolation-filters="sRGB">
<feFlood flood-opacity="0" result="BackgroundImageFix"/>
<feColorMatrix in="SourceAlpha" type="matrix" values="0 0 0 0 0 0 0 0 0 0 0 0 0 0 0 0 0 0 127 0" result="hardAlpha"/>
<feOffset dy="3.00462"/>
<feGaussianBlur stdDeviation="4.50693"/>
<feComposite in2="hardAlpha" operator="out"/>
<feColorMatrix type="matrix" values="0 0 0 0 0.4 0 0 0 0 0.383333 0 0 0 0 0.383333 0 0 0 0.18 0"/>
<feBlend mode="normal" in2="BackgroundImageFix" result="effect1_dropShadow_462_5366"/>
<feBlend mode="normal" in="SourceGraphic" in2="effect1_dropShadow_462_5366" result="shape"/>
</filter>
<clipPath id="clip0_462_5366">
<rect width="28.6603" height="28.6603" fill="white" transform="translate(41.209 62.7183)"/>
</clipPath>
</defs>
</svg>
