<svg width="290" height="186" viewBox="0 0 290 186" fill="none" xmlns="http://www.w3.org/2000/svg">
<rect width="290" height="186" rx="24.7675" fill="#4E24CB"/>
<path d="M51.5102 48.1836V33.0135H54.3491V45.6697H60.6122V48.1836H51.5102ZM67.6715 48.3786C66.8047 48.3786 66.0101 48.2414 65.2877 47.9669C64.5653 47.6779 63.9368 47.2878 63.4023 46.7966C62.8677 46.2909 62.4487 45.6914 62.1453 44.9979C61.8564 44.2899 61.7119 43.5242 61.7119 42.7007V42.3973C61.7119 41.5593 61.8564 40.7936 62.1453 40.1001C62.4487 39.4066 62.8677 38.8143 63.4023 38.323C63.9368 37.8174 64.5653 37.4273 65.2877 37.1528C66.0101 36.8638 66.8047 36.7193 67.6715 36.7193H67.8449C68.7118 36.7193 69.5064 36.8638 70.2288 37.1528C70.9656 37.4273 71.5941 37.8174 72.1142 38.323C72.6488 38.8143 73.0605 39.4066 73.3495 40.1001C73.6529 40.7936 73.8046 41.5593 73.8046 42.3973V42.7007C73.8046 43.5242 73.6529 44.2899 73.3495 44.9979C73.0605 45.6914 72.6488 46.2909 72.1142 46.7966C71.5941 47.2878 70.9656 47.6779 70.2288 47.9669C69.5064 48.2414 68.7118 48.3786 67.8449 48.3786H67.6715ZM67.6932 46.2548H67.8233C68.2856 46.2548 68.7118 46.1681 69.1019 45.9948C69.492 45.8069 69.8243 45.5541 70.0988 45.2363C70.3877 44.9184 70.6117 44.5428 70.7706 44.1093C70.9295 43.6615 71.009 43.1775 71.009 42.6574V42.4406C71.009 41.9205 70.9295 41.4437 70.7706 41.0103C70.6117 40.5624 70.3877 40.1796 70.0988 39.8617C69.8243 39.5439 69.492 39.2983 69.1019 39.1249C68.7118 38.9371 68.2856 38.8432 67.8233 38.8432H67.6932C67.2309 38.8432 66.8047 38.9371 66.4146 39.1249C66.0245 39.2983 65.685 39.5439 65.396 39.8617C65.1215 40.1796 64.9048 40.5624 64.7459 41.0103C64.6014 41.4437 64.5292 41.9205 64.5292 42.4406V42.6574C64.5292 43.1775 64.6014 43.6615 64.7459 44.1093C64.9048 44.5428 65.1215 44.9184 65.396 45.2363C65.685 45.5541 66.0245 45.8069 66.4146 45.9948C66.8047 46.1681 67.2309 46.2548 67.6932 46.2548ZM79.4729 48.4003C78.895 48.4003 78.3604 48.3208 77.8692 48.1619C77.3924 47.9885 76.9807 47.7574 76.6339 47.4684C76.2872 47.1795 76.0127 46.8255 75.8104 46.4065C75.6226 45.9875 75.5287 45.5324 75.5287 45.0412V44.8895C75.5287 43.6759 76.0921 42.7657 77.219 42.1589C78.346 41.5377 80.0508 41.227 82.3335 41.227H83.2437V40.7286C83.2437 40.1796 83.0415 39.7389 82.6369 39.4066C82.2324 39.0743 81.6545 38.9082 80.9032 38.9082H80.8382C80.2603 38.9082 79.6463 39.0093 78.9961 39.2116C78.346 39.4138 77.7392 39.6956 77.1757 40.0568L76.0705 38.1063C76.7784 37.6729 77.5513 37.3262 78.3893 37.0661C79.2273 36.806 80.0941 36.676 80.9899 36.676H81.1199C81.7845 36.676 82.3985 36.7699 82.962 36.9577C83.5399 37.1311 84.0384 37.3912 84.4573 37.7379C84.8763 38.0702 85.2014 38.4964 85.4326 39.0165C85.6637 39.5222 85.7793 40.1073 85.7793 40.7719V45.8647C85.7793 46.2548 85.8154 46.6521 85.8877 47.0567C85.9744 47.4468 86.0683 47.8224 86.1694 48.1836H83.6122C83.5399 48.0102 83.4749 47.808 83.4171 47.5768C83.3738 47.3312 83.3376 47.0856 83.3088 46.84C82.8175 47.3167 82.2468 47.6996 81.5967 47.9885C80.961 48.2631 80.2531 48.4003 79.4729 48.4003ZM80.0147 46.2332C80.6359 46.2332 81.2283 46.1103 81.7917 45.8647C82.3697 45.6191 82.8537 45.2796 83.2437 44.8462V42.9608H82.4852C80.9971 42.9608 79.8991 43.1125 79.1912 43.4159C78.4832 43.7193 78.1293 44.1671 78.1293 44.7595V44.8462C78.1293 45.0484 78.1726 45.2363 78.2593 45.4096C78.346 45.583 78.476 45.7275 78.6494 45.8431C78.8227 45.9586 79.0178 46.0526 79.2345 46.1248C79.4657 46.197 79.7257 46.2332 80.0147 46.2332ZM93.7748 48.3786C92.9946 48.3786 92.2722 48.2414 91.6076 47.9669C90.943 47.6924 90.3723 47.3023 89.8955 46.7966C89.4188 46.2909 89.0431 45.6914 88.7686 44.9979C88.4941 44.3044 88.3569 43.5387 88.3569 42.7007V42.3973C88.3569 41.5593 88.4941 40.7936 88.7686 40.1001C89.0431 39.4066 89.4188 38.807 89.8955 38.3014C90.3723 37.7957 90.943 37.4056 91.6076 37.1311C92.2722 36.8566 92.9946 36.7193 93.7748 36.7193H93.8831C94.6344 36.7193 95.3279 36.8494 95.9636 37.1094C96.6137 37.3695 97.17 37.7379 97.6323 38.2147V32.5801H100.32V48.1836H98.1957C98.1235 47.9958 98.0585 47.7574 98.0007 47.4684C97.9429 47.1795 97.8996 46.9122 97.8707 46.6666C97.3795 47.2012 96.7943 47.6201 96.1153 47.9235C95.4362 48.2269 94.6922 48.3786 93.8831 48.3786H93.7748ZM94.3165 46.2332H94.4682C94.945 46.2332 95.3712 46.1465 95.7469 45.9731C96.137 45.7997 96.4692 45.5613 96.7438 45.2579C97.0327 44.9401 97.2494 44.5644 97.3939 44.131C97.5528 43.6831 97.6323 43.1919 97.6323 42.6574V42.4406C97.6323 41.9061 97.5528 41.4221 97.3939 40.9886C97.2494 40.5408 97.0327 40.1651 96.7438 39.8617C96.4692 39.5439 96.137 39.2983 95.7469 39.1249C95.3712 38.9515 94.945 38.8648 94.4682 38.8648H94.3165C93.8542 38.8648 93.428 38.9515 93.0379 39.1249C92.6623 39.2983 92.33 39.5439 92.041 39.8617C91.7665 40.1651 91.5498 40.5408 91.3909 40.9886C91.2464 41.4221 91.1742 41.9061 91.1742 42.4406V42.6574C91.1742 43.1919 91.2464 43.6831 91.3909 44.131C91.5498 44.5644 91.7665 44.9401 92.041 45.2579C92.33 45.5613 92.6623 45.7997 93.0379 45.9731C93.428 46.1465 93.8542 46.2332 94.3165 46.2332ZM107.772 48.4003C106.775 48.4003 105.822 48.2631 104.912 47.9885C104.016 47.714 103.207 47.3095 102.485 46.7749L103.828 44.8462C104.088 45.0629 104.377 45.2579 104.695 45.4313C105.013 45.5902 105.338 45.7275 105.67 45.8431C106.017 45.9586 106.364 46.0526 106.71 46.1248C107.072 46.1826 107.426 46.2115 107.772 46.2115C108.09 46.2115 108.365 46.1826 108.596 46.1248C108.841 46.067 109.044 45.9875 109.203 45.8864C109.376 45.7853 109.506 45.6552 109.593 45.4963C109.679 45.3374 109.723 45.164 109.723 44.9762C109.723 44.7017 109.643 44.4922 109.484 44.3477C109.325 44.1888 109.094 44.0516 108.791 43.936C108.488 43.8059 108.119 43.6904 107.686 43.5892C107.252 43.4736 106.768 43.3292 106.234 43.1558C105.829 43.0402 105.425 42.9102 105.02 42.7657C104.63 42.6212 104.283 42.4334 103.98 42.2022C103.676 41.9711 103.431 41.6894 103.243 41.3571C103.055 41.0103 102.961 40.5913 102.961 40.1001C102.961 39.58 103.062 39.1104 103.265 38.6915C103.481 38.258 103.778 37.8968 104.153 37.6079C104.529 37.3189 104.977 37.095 105.497 36.9361C106.031 36.7771 106.624 36.6977 107.274 36.6977C108.083 36.6977 108.892 36.8205 109.701 37.0661C110.51 37.3117 111.218 37.6657 111.825 38.128L110.546 40.0134C110.098 39.6667 109.564 39.3922 108.943 39.1899C108.321 38.9876 107.715 38.8865 107.122 38.8865C106.833 38.8865 106.58 38.9154 106.364 38.9732C106.161 39.031 105.988 39.1104 105.844 39.2116C105.714 39.2983 105.612 39.4066 105.54 39.5366C105.468 39.6667 105.432 39.8112 105.432 39.9701C105.432 40.1723 105.49 40.3385 105.605 40.4685C105.721 40.5986 105.887 40.7214 106.104 40.8369C106.335 40.9525 106.624 41.0609 106.971 41.162C107.317 41.2631 107.722 41.3715 108.184 41.4871C108.661 41.6027 109.145 41.7399 109.636 41.8988C110.127 42.0433 110.568 42.2456 110.958 42.5056C111.363 42.7513 111.688 43.0691 111.933 43.4592C112.179 43.8348 112.302 44.3188 112.302 44.9112C112.302 45.4458 112.193 45.9298 111.977 46.3632C111.76 46.7966 111.449 47.165 111.045 47.4684C110.655 47.7718 110.178 48.003 109.614 48.1619C109.065 48.3208 108.451 48.4003 107.772 48.4003ZM120.351 48.1836V36.9144H123.038V48.1836H120.351ZM121.673 35.159C121.21 35.159 120.828 35.029 120.524 34.7689C120.235 34.5089 120.091 34.1621 120.091 33.7287C120.091 33.2952 120.235 32.9413 120.524 32.6668C120.828 32.3923 121.21 32.255 121.673 32.255C122.15 32.255 122.54 32.3923 122.843 32.6668C123.146 32.9413 123.298 33.2952 123.298 33.7287C123.298 34.1621 123.146 34.5089 122.843 34.7689C122.54 35.029 122.15 35.159 121.673 35.159ZM126.298 48.1836V36.9144H128.422C128.494 37.1311 128.559 37.4128 128.617 37.7596C128.689 38.0919 128.739 38.3808 128.768 38.6264C129.303 37.9907 129.931 37.514 130.654 37.1961C131.376 36.8638 132.12 36.6977 132.886 36.6977H132.951C134.295 36.6977 135.306 37.0733 135.985 37.8246C136.678 38.5614 137.025 39.6161 137.025 40.9886V48.1836H134.338V41.5521C134.338 40.7286 134.157 40.1073 133.796 39.6883C133.435 39.2549 132.857 39.0382 132.062 39.0382H131.976C131.528 39.0382 131.116 39.1104 130.74 39.2549C130.379 39.3994 130.069 39.6089 129.809 39.8834C129.549 40.1579 129.346 40.483 129.202 40.8586C129.057 41.2198 128.985 41.6316 128.985 42.0939V48.1836H126.298ZM145.832 48.1836V32.5801H148.519V48.1836H145.832ZM156.937 48.3786C156.07 48.3786 155.282 48.2414 154.574 47.9669C153.866 47.6924 153.252 47.3095 152.732 46.8183C152.227 46.3271 151.829 45.7419 151.54 45.0629C151.251 44.3694 151.107 43.6037 151.107 42.7657V42.4623C151.107 41.6388 151.251 40.8731 151.54 40.1651C151.829 39.4572 152.234 38.8504 152.754 38.3447C153.274 37.839 153.881 37.4417 154.574 37.1528C155.282 36.8638 156.048 36.7193 156.872 36.7193H157.002C157.782 36.7193 158.497 36.8494 159.147 37.1094C159.812 37.3695 160.382 37.7307 160.859 38.193C161.336 38.6553 161.704 39.2044 161.964 39.84C162.239 40.4613 162.376 41.1548 162.376 41.9205V43.3725H153.773V43.3942C153.83 43.7987 153.946 44.1744 154.119 44.5211C154.307 44.8534 154.546 45.1424 154.834 45.388C155.123 45.6191 155.456 45.7997 155.831 45.9298C156.221 46.0598 156.648 46.1248 157.11 46.1248H157.197C157.905 46.1248 158.548 45.9875 159.125 45.713C159.718 45.4241 160.18 45.0773 160.512 44.6728L161.986 46.2982C161.726 46.616 161.408 46.905 161.033 47.165C160.671 47.4251 160.274 47.6418 159.841 47.8152C159.422 47.9885 158.981 48.1258 158.519 48.2269C158.056 48.3281 157.587 48.3786 157.11 48.3786H156.937ZM153.859 41.5738H159.819C159.79 41.1548 159.696 40.7792 159.537 40.4469C159.393 40.1146 159.19 39.8328 158.93 39.6017C158.685 39.3561 158.389 39.1682 158.042 39.0382C157.695 38.8937 157.319 38.8215 156.915 38.8215H156.872C156.482 38.8215 156.12 38.8865 155.788 39.0165C155.456 39.1466 155.152 39.3344 154.878 39.58C154.618 39.8112 154.401 40.1001 154.228 40.4469C154.054 40.7792 153.932 41.1548 153.859 41.5738ZM169.21 48.4003C168.213 48.4003 167.26 48.2631 166.35 47.9885C165.454 47.714 164.645 47.3095 163.922 46.7749L165.266 44.8462C165.526 45.0629 165.815 45.2579 166.133 45.4313C166.451 45.5902 166.776 45.7275 167.108 45.8431C167.455 45.9586 167.802 46.0526 168.148 46.1248C168.51 46.1826 168.864 46.2115 169.21 46.2115C169.528 46.2115 169.803 46.1826 170.034 46.1248C170.279 46.067 170.482 45.9875 170.641 45.8864C170.814 45.7853 170.944 45.6552 171.031 45.4963C171.117 45.3374 171.161 45.164 171.161 44.9762C171.161 44.7017 171.081 44.4922 170.922 44.3477C170.763 44.1888 170.532 44.0516 170.229 43.936C169.925 43.8059 169.557 43.6904 169.124 43.5892C168.69 43.4736 168.206 43.3292 167.672 43.1558C167.267 43.0402 166.863 42.9102 166.458 42.7657C166.068 42.6212 165.721 42.4334 165.418 42.2022C165.114 41.9711 164.869 41.6894 164.681 41.3571C164.493 41.0103 164.399 40.5913 164.399 40.1001C164.399 39.58 164.5 39.1104 164.703 38.6915C164.919 38.258 165.216 37.8968 165.591 37.6079C165.967 37.3189 166.415 37.095 166.935 36.9361C167.469 36.7771 168.062 36.6977 168.712 36.6977C169.521 36.6977 170.33 36.8205 171.139 37.0661C171.948 37.3117 172.656 37.6657 173.263 38.128L171.984 40.0134C171.536 39.6667 171.002 39.3922 170.381 39.1899C169.759 38.9876 169.153 38.8865 168.56 38.8865C168.271 38.8865 168.018 38.9154 167.802 38.9732C167.599 39.031 167.426 39.1104 167.282 39.2116C167.152 39.2983 167.05 39.4066 166.978 39.5366C166.906 39.6667 166.87 39.8112 166.87 39.9701C166.87 40.1723 166.928 40.3385 167.043 40.4685C167.159 40.5986 167.325 40.7214 167.542 40.8369C167.773 40.9525 168.062 41.0609 168.408 41.162C168.755 41.2631 169.16 41.3715 169.622 41.4871C170.099 41.6027 170.583 41.7399 171.074 41.8988C171.565 42.0433 172.006 42.2456 172.396 42.5056C172.801 42.7513 173.126 43.0691 173.371 43.4592C173.617 43.8348 173.74 44.3188 173.74 44.9112C173.74 45.4458 173.631 45.9298 173.415 46.3632C173.198 46.7966 172.887 47.165 172.483 47.4684C172.093 47.7718 171.616 48.003 171.052 48.1619C170.503 48.3208 169.889 48.4003 169.21 48.4003ZM180.279 48.4003C179.282 48.4003 178.328 48.2631 177.418 47.9885C176.523 47.714 175.713 47.3095 174.991 46.7749L176.335 44.8462C176.595 45.0629 176.884 45.2579 177.202 45.4313C177.519 45.5902 177.844 45.7275 178.177 45.8431C178.524 45.9586 178.87 46.0526 179.217 46.1248C179.578 46.1826 179.932 46.2115 180.279 46.2115C180.597 46.2115 180.871 46.1826 181.102 46.1248C181.348 46.067 181.55 45.9875 181.709 45.8864C181.883 45.7853 182.013 45.6552 182.099 45.4963C182.186 45.3374 182.229 45.164 182.229 44.9762C182.229 44.7017 182.15 44.4922 181.991 44.3477C181.832 44.1888 181.601 44.0516 181.297 43.936C180.994 43.8059 180.626 43.6904 180.192 43.5892C179.759 43.4736 179.275 43.3292 178.74 43.1558C178.336 43.0402 177.931 42.9102 177.527 42.7657C177.137 42.6212 176.79 42.4334 176.486 42.2022C176.183 41.9711 175.937 41.6894 175.75 41.3571C175.562 41.0103 175.468 40.5913 175.468 40.1001C175.468 39.58 175.569 39.1104 175.771 38.6915C175.988 38.258 176.284 37.8968 176.66 37.6079C177.035 37.3189 177.483 37.095 178.003 36.9361C178.538 36.7771 179.13 36.6977 179.78 36.6977C180.59 36.6977 181.399 36.8205 182.208 37.0661C183.017 37.3117 183.725 37.6657 184.331 38.128L183.053 40.0134C182.605 39.6667 182.07 39.3922 181.449 39.1899C180.828 38.9876 180.221 38.8865 179.629 38.8865C179.34 38.8865 179.087 38.9154 178.87 38.9732C178.668 39.031 178.495 39.1104 178.35 39.2116C178.22 39.2983 178.119 39.4066 178.047 39.5366C177.975 39.6667 177.938 39.8112 177.938 39.9701C177.938 40.1723 177.996 40.3385 178.112 40.4685C178.227 40.5986 178.393 40.7214 178.61 40.8369C178.841 40.9525 179.13 41.0609 179.477 41.162C179.824 41.2631 180.228 41.3715 180.691 41.4871C181.167 41.6027 181.651 41.7399 182.143 41.8988C182.634 42.0433 183.075 42.2456 183.465 42.5056C183.869 42.7513 184.194 43.0691 184.44 43.4592C184.685 43.8348 184.808 44.3188 184.808 44.9112C184.808 45.4458 184.7 45.9298 184.483 46.3632C184.266 46.7966 183.956 47.165 183.551 47.4684C183.161 47.7718 182.684 48.003 182.121 48.1619C181.572 48.3208 180.958 48.4003 180.279 48.4003ZM196.693 48.292C196.173 48.292 195.696 48.2342 195.263 48.1186C194.829 47.9885 194.454 47.7863 194.136 47.5118C193.833 47.2228 193.587 46.8616 193.399 46.4282C193.226 45.9803 193.139 45.4458 193.139 44.8245V39.0815H191.665V37.2611C191.868 37.1889 192.099 37.1239 192.359 37.0661C192.633 37.0083 192.893 36.965 193.139 36.9361V34.3138L195.826 33.9887V36.9144H199.337V39.0815H195.805V44.3261C195.805 44.9473 195.942 45.3807 196.216 45.6264C196.505 45.8575 196.91 45.9731 197.43 45.9731C197.575 45.9731 197.741 45.9731 197.929 45.9731C198.116 45.9586 198.297 45.9442 198.47 45.9298C198.658 45.9009 198.839 45.872 199.012 45.8431C199.2 45.8142 199.344 45.7781 199.446 45.7347V47.8585C199.113 48.003 198.673 48.1114 198.124 48.1836C197.589 48.2558 197.112 48.292 196.693 48.292ZM201.683 48.1836V32.5801H204.37V38.3664C204.876 37.8463 205.468 37.4417 206.147 37.1528C206.84 36.8494 207.599 36.6977 208.422 36.6977C209.708 36.6977 210.691 37.0733 211.37 37.8246C212.063 38.5614 212.41 39.6161 212.41 40.9886V48.1836H209.723V41.5521C209.723 40.6997 209.528 40.0712 209.138 39.6667C208.762 39.2477 208.184 39.0382 207.404 39.0382C206.942 39.0382 206.523 39.1104 206.147 39.2549C205.771 39.3849 205.446 39.5728 205.172 39.8184C204.912 40.064 204.709 40.3674 204.565 40.7286C204.435 41.0898 204.37 41.4943 204.37 41.9422V48.1836H201.683ZM218.602 48.4003C218.025 48.4003 217.49 48.3208 216.999 48.1619C216.522 47.9885 216.11 47.7574 215.764 47.4684C215.417 47.1795 215.142 46.8255 214.94 46.4065C214.752 45.9875 214.658 45.5324 214.658 45.0412V44.8895C214.658 43.6759 215.222 42.7657 216.349 42.1589C217.476 41.5377 219.18 41.227 221.463 41.227H222.373V40.7286C222.373 40.1796 222.171 39.7389 221.767 39.4066C221.362 39.0743 220.784 38.9082 220.033 38.9082H219.968C219.39 38.9082 218.776 39.0093 218.126 39.2116C217.476 39.4138 216.869 39.6956 216.305 40.0568L215.2 38.1063C215.908 37.6729 216.681 37.3262 217.519 37.0661C218.357 36.806 219.224 36.676 220.119 36.676H220.25C220.914 36.676 221.528 36.7699 222.092 36.9577C222.67 37.1311 223.168 37.3912 223.587 37.7379C224.006 38.0702 224.331 38.4964 224.562 39.0165C224.793 39.5222 224.909 40.1073 224.909 40.7719V45.8647C224.909 46.2548 224.945 46.6521 225.017 47.0567C225.104 47.4468 225.198 47.8224 225.299 48.1836H222.742C222.67 48.0102 222.604 47.808 222.547 47.5768C222.503 47.3312 222.467 47.0856 222.438 46.84C221.947 47.3167 221.376 47.6996 220.726 47.9885C220.091 48.2631 219.383 48.4003 218.602 48.4003ZM219.144 46.2332C219.766 46.2332 220.358 46.1103 220.921 45.8647C221.499 45.6191 221.983 45.2796 222.373 44.8462V42.9608H221.615C220.127 42.9608 219.029 43.1125 218.321 43.4159C217.613 43.7193 217.259 44.1671 217.259 44.7595V44.8462C217.259 45.0484 217.302 45.2363 217.389 45.4096C217.476 45.583 217.606 45.7275 217.779 45.8431C217.952 45.9586 218.147 46.0526 218.364 46.1248C218.595 46.197 218.855 46.2332 219.144 46.2332ZM228.158 48.1836V36.9144H230.282C230.354 37.1311 230.419 37.4128 230.477 37.7596C230.549 38.0919 230.6 38.3808 230.629 38.6264C231.163 37.9907 231.792 37.514 232.514 37.1961C233.237 36.8638 233.981 36.6977 234.746 36.6977H234.811C236.155 36.6977 237.166 37.0733 237.845 37.8246C238.539 38.5614 238.886 39.6161 238.886 40.9886V48.1836H236.198V41.5521C236.198 40.7286 236.018 40.1073 235.657 39.6883C235.295 39.2549 234.718 39.0382 233.923 39.0382H233.836C233.388 39.0382 232.977 39.1104 232.601 39.2549C232.24 39.3994 231.929 39.6089 231.669 39.8834C231.409 40.1579 231.207 40.483 231.062 40.8586C230.918 41.2198 230.846 41.6316 230.846 42.0939V48.1836H228.158Z" fill="white"/>
<path d="M213.013 114.216C213.013 114.216 227.761 88.013 229.777 82.7723C225.343 83.5786 218.918 84.7103 218.893 84.788C219.708 82.5054 227.207 67.4536 227.358 67.4536C224.022 67.4536 216.631 67.4536 213.295 67.4536L212.279 72.289L205.993 100.107L218.086 94.463L213.013 114.216Z" fill="url(#paint0_linear_462_5636)"/>
<path d="M85.2445 82.4161C87.7708 82.4161 90.037 83.0849 92.0432 84.4223C94.0493 85.7226 95.6097 87.543 96.7242 89.8835C97.8387 92.1869 98.396 94.7875 98.396 97.6853C98.396 103.147 96.8914 107.326 93.8821 110.224C90.8729 113.084 86.1361 114.515 79.6718 114.515C76.1053 114.515 73.2446 114.032 71.0899 113.066C68.9351 112.1 67.2819 110.837 66.1302 109.276C64.9785 107.679 63.9383 105.636 63.0095 103.147L69.4738 99.1342C69.9939 100.695 70.6069 101.921 71.3128 102.812C72.0558 103.667 73.0775 104.298 74.3778 104.707C75.7152 105.116 77.4799 105.32 79.6718 105.32C83.1269 105.32 85.5788 104.67 87.0277 103.369C88.4766 102.032 89.2011 100.137 89.2011 97.6853C89.2011 95.6791 88.6252 94.1002 87.4736 92.9485C86.3219 91.7968 84.6501 91.221 82.4581 91.221C80.6749 91.221 78.9102 91.5739 77.1641 92.2798C75.418 92.9485 73.4118 94.0445 71.1456 95.5677L64.2355 94.6203L65.9073 69.3761H96.3341V78.571H73.6533L72.8731 86.4842C74.7307 85.3697 76.1796 84.5709 77.2198 84.0879C78.2601 83.5678 79.4117 83.1592 80.6749 82.862C81.938 82.5647 83.4612 82.4161 85.2445 82.4161ZM125.443 114.515C122.434 114.515 119.257 113.66 115.914 111.951C112.57 110.205 109.747 107.605 107.443 104.15C105.14 100.657 103.988 96.4779 103.988 91.6111C103.988 86.7443 105.14 82.6019 107.443 79.184C109.747 75.7289 112.57 73.1469 115.914 71.438C119.257 69.6919 122.434 68.8188 125.443 68.8188C128.452 68.8188 131.703 69.6919 135.195 71.438C138.725 73.1469 141.715 75.7289 144.167 79.184C146.656 82.639 147.901 86.7814 147.901 91.6111C147.901 96.4779 146.656 100.639 144.167 104.094C141.715 107.549 138.725 110.15 135.195 111.896C131.703 113.642 128.452 114.515 125.443 114.515ZM125.443 104.986C127.746 104.986 129.883 104.428 131.852 103.314C133.858 102.199 135.455 100.639 136.644 98.6326C137.87 96.5893 138.483 94.2488 138.483 91.6111C138.483 89.0105 137.87 86.7071 136.644 84.7009C135.455 82.6576 133.858 81.0973 131.852 80.0199C129.883 78.9054 127.746 78.3481 125.443 78.3481C123.103 78.3481 121.022 78.9054 119.202 80.0199C117.381 81.0973 115.951 82.639 114.911 84.6452C113.908 86.6514 113.406 88.9733 113.406 91.6111C113.406 94.286 113.908 96.6451 114.911 98.6884C115.951 100.695 117.381 102.255 119.202 103.369C121.022 104.447 123.103 104.986 125.443 104.986ZM174.912 114.515C171.902 114.515 168.726 113.66 165.382 111.951C162.039 110.205 159.215 107.605 156.912 104.15C154.608 100.657 153.457 96.4779 153.457 91.6111C153.457 86.7443 154.608 82.6019 156.912 79.184C159.215 75.7289 162.039 73.1469 165.382 71.438C168.726 69.6919 171.902 68.8188 174.912 68.8188C177.921 68.8188 181.172 69.6919 184.664 71.438C188.193 73.1469 191.184 75.7289 193.636 79.184C196.125 82.639 197.369 86.7814 197.369 91.6111C197.369 96.4779 196.125 100.639 193.636 104.094C191.184 107.549 188.193 110.15 184.664 111.896C181.172 113.642 177.921 114.515 174.912 114.515ZM174.912 104.986C177.215 104.986 179.351 104.428 181.32 103.314C183.326 102.199 184.924 100.639 186.113 98.6326C187.339 96.5893 187.952 94.2488 187.952 91.6111C187.952 89.0105 187.339 86.7071 186.113 84.7009C184.924 82.6576 183.326 81.0973 181.32 80.0199C179.351 78.9054 177.215 78.3481 174.912 78.3481C172.571 78.3481 170.491 78.9054 168.67 80.0199C166.85 81.0973 165.419 82.639 164.379 84.6452C163.376 86.6514 162.875 88.9733 162.875 91.6111C162.875 94.286 163.376 96.6451 164.379 98.6884C165.419 100.695 166.85 102.255 168.67 103.369C170.491 104.447 172.571 104.986 174.912 104.986Z" fill="url(#paint1_linear_462_5636)"/>
<path d="M76.6269 151.816V140.547H80.051C80.1377 140.793 80.2099 141.096 80.2677 141.457C80.34 141.819 80.3833 142.122 80.3978 142.368C80.8601 141.746 81.4163 141.241 82.0665 140.851C82.7166 140.461 83.4101 140.265 84.1469 140.265C84.9127 140.265 85.57 140.446 86.1191 140.807C86.6681 141.154 87.0943 141.645 87.3977 142.281C87.86 141.674 88.409 141.183 89.0447 140.807C89.6949 140.432 90.3883 140.244 91.1252 140.244C92.2954 140.244 93.2057 140.641 93.8558 141.436C94.5204 142.23 94.8527 143.314 94.8527 144.686V151.795H90.54V145.467C90.54 145.091 90.5112 144.788 90.4534 144.556C90.41 144.325 90.3378 144.145 90.2366 144.015C90.1355 143.885 90.0055 143.798 89.8466 143.755C89.6876 143.711 89.507 143.69 89.3048 143.69C89.1025 143.704 88.9147 143.755 88.7413 143.841C88.5679 143.928 88.4162 144.065 88.2862 144.253C88.1706 144.441 88.0767 144.679 88.0045 144.968C87.9322 145.243 87.8961 145.575 87.8961 145.965V151.816H83.5835V145.488C83.5835 145.113 83.5546 144.809 83.4968 144.578C83.4535 144.347 83.3812 144.166 83.2801 144.036C83.179 143.906 83.0489 143.82 82.89 143.776C82.7311 143.733 82.5505 143.711 82.3482 143.711C82.1459 143.726 81.9581 143.776 81.7847 143.863C81.6114 143.95 81.4597 144.087 81.3296 144.275C81.2141 144.463 81.1202 144.701 81.0479 144.99C80.9757 145.264 80.9396 145.597 80.9396 145.987V151.816H76.6269ZM96.9863 151.816V140.547H101.299V151.816H96.9863ZM99.0885 139.464C98.3805 139.464 97.8098 139.283 97.3764 138.922C96.943 138.561 96.7263 138.069 96.7263 137.448C96.7263 136.841 96.943 136.35 97.3764 135.975C97.8098 135.584 98.3805 135.389 99.0885 135.389C99.8253 135.389 100.418 135.584 100.866 135.975C101.328 136.35 101.559 136.841 101.559 137.448C101.559 138.069 101.328 138.561 100.866 138.922C100.418 139.283 99.8253 139.464 99.0885 139.464ZM104.118 151.816V136.213H108.431V151.816H104.118ZM110.7 151.816V136.213H115.013V151.816H110.7ZM117.473 151.816V140.547H121.785V151.816H117.473ZM119.575 139.464C118.867 139.464 118.296 139.283 117.863 138.922C117.429 138.561 117.213 138.069 117.213 137.448C117.213 136.841 117.429 136.35 117.863 135.975C118.296 135.584 118.867 135.389 119.575 135.389C120.312 135.389 120.904 135.584 121.352 135.975C121.814 136.35 122.045 136.841 122.045 137.448C122.045 138.069 121.814 138.561 121.352 138.922C120.904 139.283 120.312 139.464 119.575 139.464ZM129.083 152.12C127.927 152.12 126.865 151.997 125.897 151.751C124.929 151.506 124.005 151.13 123.123 150.624L125.03 147.59C125.233 147.778 125.485 147.959 125.789 148.132C126.107 148.291 126.439 148.436 126.786 148.566C127.147 148.681 127.515 148.775 127.891 148.847C128.267 148.92 128.613 148.956 128.931 148.956C129.09 148.956 129.227 148.949 129.343 148.934C129.459 148.905 129.552 148.869 129.625 148.826C129.711 148.768 129.776 148.703 129.82 148.631C129.863 148.558 129.885 148.472 129.885 148.371C129.885 148.197 129.812 148.074 129.668 148.002C129.524 147.93 129.285 147.858 128.953 147.785C128.635 147.699 128.216 147.598 127.696 147.482C127.19 147.352 126.562 147.143 125.81 146.854C125.522 146.738 125.247 146.601 124.987 146.442C124.727 146.268 124.496 146.066 124.293 145.835C124.106 145.589 123.954 145.308 123.838 144.99C123.737 144.672 123.687 144.311 123.687 143.906C123.687 143.343 123.795 142.837 124.012 142.389C124.243 141.927 124.561 141.544 124.965 141.241C125.384 140.923 125.883 140.677 126.461 140.504C127.053 140.33 127.718 140.244 128.454 140.244C129.35 140.244 130.224 140.374 131.077 140.634C131.929 140.88 132.688 141.248 133.352 141.739L131.358 144.513C131.012 144.181 130.542 143.906 129.95 143.69C129.357 143.473 128.779 143.365 128.216 143.365C128.043 143.365 127.898 143.379 127.783 143.408C127.681 143.437 127.595 143.473 127.523 143.516C127.465 143.56 127.421 143.617 127.393 143.69C127.364 143.747 127.349 143.812 127.349 143.885C127.349 144.044 127.414 144.174 127.544 144.275C127.689 144.361 127.877 144.441 128.108 144.513C128.339 144.585 128.606 144.658 128.91 144.73C129.227 144.788 129.552 144.86 129.885 144.947C130.333 145.062 130.788 145.199 131.25 145.358C131.712 145.517 132.131 145.734 132.507 146.008C132.897 146.283 133.208 146.622 133.439 147.027C133.684 147.417 133.807 147.908 133.807 148.501C133.807 149.035 133.692 149.526 133.461 149.974C133.229 150.422 132.904 150.805 132.485 151.123C132.081 151.441 131.59 151.686 131.012 151.86C130.434 152.033 129.791 152.12 129.083 152.12ZM141.077 152.12C140.152 152.12 139.307 151.983 138.541 151.708C137.775 151.434 137.118 151.051 136.569 150.559C136.02 150.054 135.594 149.447 135.29 148.739C134.987 148.031 134.835 147.236 134.835 146.355V145.922C134.835 145.113 134.987 144.361 135.29 143.668C135.608 142.974 136.034 142.375 136.569 141.869C137.118 141.363 137.761 140.973 138.498 140.699C139.235 140.41 140.029 140.265 140.882 140.265H141.207C142.016 140.265 142.767 140.396 143.461 140.656C144.169 140.916 144.775 141.277 145.281 141.739C145.787 142.187 146.184 142.722 146.473 143.343C146.762 143.95 146.906 144.614 146.906 145.337V147.179H138.931V147.2C138.975 147.475 139.061 147.72 139.191 147.937C139.321 148.139 139.487 148.313 139.69 148.457C139.892 148.602 140.13 148.71 140.405 148.782C140.679 148.855 140.983 148.891 141.315 148.891H141.554C142.16 148.891 142.724 148.782 143.244 148.566C143.764 148.349 144.205 148.089 144.566 147.785L146.365 150.581C146.09 150.783 145.765 150.978 145.389 151.166C145.014 151.354 144.609 151.52 144.176 151.665C143.742 151.795 143.302 151.903 142.854 151.99C142.406 152.076 141.972 152.12 141.554 152.12H141.077ZM139.04 144.925H142.875C142.861 144.665 142.803 144.426 142.702 144.21C142.615 143.993 142.493 143.805 142.334 143.646C142.189 143.487 142.009 143.365 141.792 143.278C141.59 143.177 141.358 143.126 141.098 143.126H141.012C140.781 143.126 140.564 143.169 140.362 143.256C140.159 143.328 139.971 143.444 139.798 143.603C139.625 143.747 139.473 143.935 139.343 144.166C139.213 144.383 139.112 144.636 139.04 144.925ZM154.063 152.076C153.196 152.076 152.402 151.939 151.679 151.665C150.957 151.376 150.336 150.978 149.815 150.473C149.295 149.967 148.891 149.375 148.602 148.696C148.313 148.002 148.168 147.258 148.168 146.464V145.813C148.168 145.033 148.313 144.304 148.602 143.625C148.905 142.946 149.317 142.36 149.837 141.869C150.372 141.378 150.993 140.995 151.701 140.721C152.409 140.432 153.175 140.287 153.998 140.287H154.193C155.233 140.287 156.172 140.475 157.01 140.851C157.863 141.226 158.6 141.79 159.221 142.541L156.295 144.751C155.977 144.217 155.674 143.849 155.385 143.646C155.096 143.444 154.764 143.343 154.388 143.343H154.301C154.027 143.343 153.781 143.401 153.565 143.516C153.362 143.632 153.189 143.805 153.045 144.036C152.9 144.253 152.792 144.528 152.719 144.86C152.647 145.192 152.611 145.582 152.611 146.03V146.334C152.611 146.752 152.654 147.128 152.741 147.46C152.828 147.778 152.943 148.046 153.088 148.262C153.247 148.479 153.427 148.645 153.63 148.761C153.846 148.876 154.085 148.934 154.345 148.934H154.54C154.915 148.934 155.255 148.819 155.558 148.587C155.876 148.342 156.18 147.959 156.469 147.439L159.329 149.844C158.722 150.596 158 151.159 157.162 151.535C156.339 151.896 155.378 152.076 154.28 152.076H154.063ZM166.372 152.12C165.447 152.12 164.595 151.975 163.815 151.686C163.034 151.397 162.355 151.007 161.777 150.516C161.2 150.01 160.744 149.411 160.412 148.717C160.094 148.024 159.935 147.28 159.935 146.485V145.878C159.935 145.069 160.094 144.325 160.412 143.646C160.744 142.953 161.2 142.36 161.777 141.869C162.355 141.363 163.034 140.966 163.815 140.677C164.595 140.388 165.447 140.244 166.372 140.244H166.632C167.557 140.244 168.409 140.388 169.189 140.677C169.984 140.966 170.663 141.363 171.226 141.869C171.804 142.36 172.252 142.953 172.57 143.646C172.902 144.325 173.068 145.069 173.068 145.878V146.485C173.068 147.28 172.902 148.024 172.57 148.717C172.252 149.411 171.804 150.01 171.226 150.516C170.663 151.007 169.984 151.397 169.189 151.686C168.409 151.975 167.557 152.12 166.632 152.12H166.372ZM166.372 149.172H166.632C166.906 149.172 167.159 149.1 167.39 148.956C167.636 148.811 167.845 148.616 168.019 148.371C168.207 148.111 168.351 147.807 168.452 147.46C168.553 147.114 168.604 146.738 168.604 146.334V146.03C168.604 145.626 168.553 145.25 168.452 144.903C168.351 144.556 168.207 144.26 168.019 144.015C167.845 143.755 167.636 143.552 167.39 143.408C167.159 143.263 166.906 143.191 166.632 143.191H166.372C166.097 143.191 165.837 143.263 165.592 143.408C165.36 143.552 165.151 143.755 164.963 144.015C164.79 144.26 164.653 144.556 164.551 144.903C164.45 145.25 164.4 145.626 164.4 146.03V146.334C164.4 146.738 164.45 147.114 164.551 147.46C164.653 147.807 164.79 148.111 164.963 148.371C165.151 148.616 165.36 148.811 165.592 148.956C165.837 149.1 166.097 149.172 166.372 149.172ZM174.784 151.816V140.547H178.208C178.295 140.793 178.374 141.111 178.446 141.501C178.533 141.891 178.576 142.209 178.576 142.454C179.198 141.689 179.891 141.132 180.657 140.786C181.437 140.439 182.174 140.265 182.867 140.265H182.932C184.16 140.265 185.121 140.656 185.815 141.436C186.523 142.216 186.876 143.292 186.876 144.665V151.816H182.564V145.64C182.564 144.975 182.434 144.491 182.174 144.188C181.928 143.87 181.553 143.711 181.047 143.711H180.982C180.693 143.711 180.433 143.776 180.202 143.906C179.97 144.036 179.768 144.21 179.595 144.426C179.436 144.643 179.313 144.896 179.226 145.185C179.14 145.474 179.096 145.784 179.096 146.117V151.816H174.784ZM193.752 152.12C192.986 152.12 192.278 151.983 191.628 151.708C190.992 151.419 190.436 151.029 189.959 150.538C189.497 150.032 189.129 149.433 188.854 148.739C188.594 148.046 188.464 147.294 188.464 146.485V145.878C188.464 145.069 188.594 144.318 188.854 143.625C189.129 142.931 189.497 142.339 189.959 141.847C190.436 141.342 190.992 140.952 191.628 140.677C192.278 140.388 192.986 140.244 193.752 140.244H193.925C194.546 140.244 195.124 140.338 195.659 140.526C196.208 140.713 196.699 140.981 197.133 141.327V136.213H201.445V151.816H198.021C197.949 151.657 197.884 151.455 197.826 151.21C197.783 150.964 197.747 150.726 197.718 150.494C197.241 151 196.677 151.397 196.027 151.686C195.392 151.975 194.691 152.12 193.925 152.12H193.752ZM194.9 149.172H195.16C195.435 149.172 195.688 149.1 195.919 148.956C196.165 148.811 196.374 148.616 196.547 148.371C196.735 148.111 196.88 147.807 196.981 147.46C197.082 147.114 197.133 146.738 197.133 146.334V146.03C197.133 145.626 197.082 145.25 196.981 144.903C196.88 144.556 196.735 144.26 196.547 144.015C196.374 143.755 196.165 143.552 195.919 143.408C195.688 143.263 195.435 143.191 195.16 143.191H194.9C194.626 143.191 194.366 143.263 194.12 143.408C193.889 143.552 193.68 143.755 193.492 144.015C193.318 144.26 193.181 144.556 193.08 144.903C192.979 145.25 192.928 145.626 192.928 146.03V146.334C192.928 146.738 192.979 147.114 193.08 147.46C193.181 147.807 193.318 148.111 193.492 148.371C193.68 148.616 193.889 148.811 194.12 148.956C194.366 149.1 194.626 149.172 194.9 149.172ZM208.743 152.12C207.587 152.12 206.525 151.997 205.557 151.751C204.589 151.506 203.664 151.13 202.783 150.624L204.69 147.59C204.892 147.778 205.145 147.959 205.449 148.132C205.767 148.291 206.099 148.436 206.446 148.566C206.807 148.681 207.175 148.775 207.551 148.847C207.926 148.92 208.273 148.956 208.591 148.956C208.75 148.956 208.887 148.949 209.003 148.934C209.118 148.905 209.212 148.869 209.285 148.826C209.371 148.768 209.436 148.703 209.48 148.631C209.523 148.558 209.545 148.472 209.545 148.371C209.545 148.197 209.472 148.074 209.328 148.002C209.183 147.93 208.945 147.858 208.613 147.785C208.295 147.699 207.876 147.598 207.356 147.482C206.85 147.352 206.222 147.143 205.47 146.854C205.181 146.738 204.907 146.601 204.647 146.442C204.387 146.268 204.156 146.066 203.953 145.835C203.766 145.589 203.614 145.308 203.498 144.99C203.397 144.672 203.347 144.311 203.347 143.906C203.347 143.343 203.455 142.837 203.672 142.389C203.903 141.927 204.221 141.544 204.625 141.241C205.044 140.923 205.543 140.677 206.12 140.504C206.713 140.33 207.377 140.244 208.114 140.244C209.01 140.244 209.884 140.374 210.737 140.634C211.589 140.88 212.347 141.248 213.012 141.739L211.018 144.513C210.672 144.181 210.202 143.906 209.61 143.69C209.017 143.473 208.439 143.365 207.876 143.365C207.703 143.365 207.558 143.379 207.442 143.408C207.341 143.437 207.255 143.473 207.182 143.516C207.125 143.56 207.081 143.617 207.052 143.69C207.023 143.747 207.009 143.812 207.009 143.885C207.009 144.044 207.074 144.174 207.204 144.275C207.349 144.361 207.536 144.441 207.768 144.513C207.999 144.585 208.266 144.658 208.569 144.73C208.887 144.788 209.212 144.86 209.545 144.947C209.992 145.062 210.448 145.199 210.91 145.358C211.372 145.517 211.791 145.734 212.167 146.008C212.557 146.283 212.868 146.622 213.099 147.027C213.344 147.417 213.467 147.908 213.467 148.501C213.467 149.035 213.352 149.526 213.12 149.974C212.889 150.422 212.564 150.805 212.145 151.123C211.741 151.441 211.249 151.686 210.672 151.86C210.094 152.033 209.451 152.12 208.743 152.12Z" fill="white"/>
<defs>
<linearGradient id="paint0_linear_462_5636" x1="204.509" y1="100.094" x2="232.569" y2="98.5608" gradientUnits="userSpaceOnUse">
<stop stop-color="#CA55F3"/>
<stop offset="0.322917" stop-color="#FF53A5"/>
<stop offset="0.786458" stop-color="#FF763C"/>
<stop offset="1" stop-color="#FFF859"/>
</linearGradient>
<linearGradient id="paint1_linear_462_5636" x1="51.4881" y1="106.61" x2="210.579" y2="74.2816" gradientUnits="userSpaceOnUse">
<stop stop-color="#CA55F3"/>
<stop offset="0.322917" stop-color="#FF53A5"/>
<stop offset="0.786458" stop-color="#FF763C"/>
<stop offset="1" stop-color="#FFF859"/>
</linearGradient>
</defs>
</svg>
