<svg width="96" height="96" viewBox="0 0 96 96" fill="none" xmlns="http://www.w3.org/2000/svg">
<path d="M48 0.000976562C35.2725 0.000976562 23.0549 5.06127 14.0625 14.0597C5.06073 23.0618 0.00250909 35.2703 0 48.001C0 60.7262 5.06247 72.9437 14.0625 81.9422C23.0549 90.9407 35.2725 96.001 48 96.001C60.7275 96.001 72.9451 90.9407 81.9375 81.9422C90.9375 72.9437 96 60.7262 96 48.001C96 35.2757 90.9375 23.0582 81.9375 14.0597C72.9451 5.06127 60.7275 0.000976562 48 0.000976562Z" fill="url(#paint0_linear_462_5594)"/>
<path d="M21.7262 47.4932C35.7212 41.3972 45.0512 37.3778 49.7162 35.4361C63.0512 29.8914 65.8186 28.9284 67.6262 28.8958C68.0237 28.8894 68.9086 28.9876 69.4862 29.4544C69.9662 29.8483 70.1012 30.3807 70.1686 30.7546C70.2286 31.1281 70.3112 31.9794 70.2437 32.6438C69.5237 40.2338 66.3962 58.6524 64.8062 67.1536C64.1387 70.7506 62.8112 71.9566 61.5286 72.0744C58.7386 72.3309 56.6237 70.2324 53.9237 68.4632C49.7012 65.6934 47.3162 63.9698 43.2137 61.2677C38.4737 58.1446 41.5486 56.4278 44.2486 53.6229C44.9537 52.8886 57.2386 41.7174 57.4712 40.7041C57.5012 40.5774 57.5312 40.1049 57.2462 39.8558C56.9686 39.6061 56.5562 39.6917 56.2562 39.7592C55.8286 39.8552 49.0862 44.3161 36.0062 53.1414C34.0937 54.4569 32.3612 55.0981 30.8012 55.0644C29.0912 55.0276 25.7912 54.0954 23.3386 53.2989C20.3386 52.3217 17.9462 51.8049 18.1562 50.1452C18.2612 49.2812 19.4537 48.3969 21.7262 47.4932Z" fill="white"/>
<defs>
<linearGradient id="paint0_linear_462_5594" x1="48" y1="0.000976562" x2="48" y2="96.001" gradientUnits="userSpaceOnUse">
<stop stop-color="#2AABEE"/>
<stop offset="1" stop-color="#229ED9"/>
</linearGradient>
</defs>
</svg>
