<svg width="450" height="255" viewBox="0 0 450 255" fill="none" xmlns="http://www.w3.org/2000/svg">
<g filter="url(#filter0_d_462_5544)">
<rect x="30" y="27.3042" width="160.415" height="73.4906" rx="15.8044" fill="#2D2D32"/>
</g>
<path d="M121.852 56.0656C122.624 56.4659 123.203 56.9306 123.589 57.4595C123.99 57.9742 124.19 58.6604 124.19 59.5182C124.19 60.862 123.704 61.9057 122.732 62.6491C121.759 63.3782 120.423 63.7428 118.721 63.7428C117.077 63.7428 115.755 63.3711 114.754 62.6276C113.753 61.8842 113.253 60.8478 113.253 59.5182C113.253 58.6604 113.446 57.967 113.832 57.4381C114.232 56.9091 114.819 56.4516 115.591 56.0656V55.9798C114.976 55.5652 114.511 55.1292 114.197 54.6717C113.896 54.2142 113.746 53.5924 113.746 52.8061C113.746 51.934 113.961 51.1834 114.39 50.5544C114.819 49.911 115.405 49.425 116.148 49.0961C116.906 48.7673 117.764 48.6029 118.721 48.6029C119.679 48.6029 120.53 48.7673 121.273 49.0961C122.031 49.425 122.624 49.911 123.053 50.5544C123.482 51.1834 123.697 51.934 123.697 52.8061C123.697 53.5924 123.539 54.2142 123.225 54.6717C122.925 55.1292 122.467 55.5652 121.852 55.9798V56.0656ZM116.684 53.0848C116.684 53.6138 116.877 54.0641 117.263 54.4358C117.649 54.7932 118.135 54.972 118.721 54.972C119.308 54.972 119.794 54.7932 120.18 54.4358C120.566 54.0641 120.759 53.6138 120.759 53.0848V52.8489C120.759 52.32 120.566 51.8768 120.18 51.5194C119.794 51.1477 119.308 50.9618 118.721 50.9618C118.135 50.9618 117.649 51.1477 117.263 51.5194C116.877 51.8768 116.684 52.32 116.684 52.8489V53.0848ZM116.448 59.411C116.448 60.0114 116.663 60.4903 117.092 60.8478C117.521 61.2052 118.064 61.3839 118.721 61.3839C119.379 61.3839 119.922 61.2052 120.351 60.8478C120.78 60.4903 120.995 60.0114 120.995 59.411V59.0679C120.995 58.4674 120.78 57.9885 120.351 57.6311C119.922 57.2737 119.379 57.095 118.721 57.095C118.064 57.095 117.521 57.2737 117.092 57.6311C116.663 57.9885 116.448 58.4674 116.448 59.0679V59.411ZM137.299 58.5961C137.299 59.5539 137.07 60.426 136.613 61.2123C136.155 61.9986 135.533 62.6205 134.747 63.078C133.961 63.5212 133.096 63.7428 132.152 63.7428H131.53C130.587 63.7428 129.722 63.5212 128.936 63.078C128.149 62.6205 127.527 61.9986 127.07 61.2123C126.627 60.426 126.405 59.5539 126.405 58.5961V53.7711C126.405 52.8132 126.627 51.9411 127.07 51.1548C127.527 50.3685 128.149 49.7466 128.936 49.2891C129.722 48.8317 130.587 48.6029 131.53 48.6029H132.152C133.096 48.6029 133.961 48.8317 134.747 49.2891C135.533 49.7466 136.155 50.3685 136.613 51.1548C137.07 51.9411 137.299 52.8132 137.299 53.7711V58.5961ZM134.125 53.4065C134.125 52.7632 133.904 52.2199 133.46 51.7767C133.031 51.3335 132.495 51.1119 131.852 51.1119C131.209 51.1119 130.665 51.3335 130.222 51.7767C129.793 52.2199 129.579 52.7632 129.579 53.4065V58.9392C129.579 59.5825 129.793 60.1258 130.222 60.569C130.665 61.0122 131.209 61.2338 131.852 61.2338C132.495 61.2338 133.031 61.0122 133.46 60.569C133.904 60.1258 134.125 59.5825 134.125 58.9392V53.4065ZM150.43 58.5961C150.43 59.5539 150.201 60.426 149.743 61.2123C149.286 61.9986 148.664 62.6205 147.878 63.078C147.091 63.5212 146.226 63.7428 145.283 63.7428H144.661C143.717 63.7428 142.852 63.5212 142.066 63.078C141.28 62.6205 140.658 61.9986 140.2 61.2123C139.757 60.426 139.536 59.5539 139.536 58.5961V53.7711C139.536 52.8132 139.757 51.9411 140.2 51.1548C140.658 50.3685 141.28 49.7466 142.066 49.2891C142.852 48.8317 143.717 48.6029 144.661 48.6029H145.283C146.226 48.6029 147.091 48.8317 147.878 49.2891C148.664 49.7466 149.286 50.3685 149.743 51.1548C150.201 51.9411 150.43 52.8132 150.43 53.7711V58.5961ZM147.256 53.4065C147.256 52.7632 147.034 52.2199 146.591 51.7767C146.162 51.3335 145.626 51.1119 144.983 51.1119C144.339 51.1119 143.796 51.3335 143.353 51.7767C142.924 52.2199 142.709 52.7632 142.709 53.4065V58.9392C142.709 59.5825 142.924 60.1258 143.353 60.569C143.796 61.0122 144.339 61.2338 144.983 61.2338C145.626 61.2338 146.162 61.0122 146.591 60.569C147.034 60.1258 147.256 59.5825 147.256 58.9392V53.4065ZM159.1 56.9234H163.474V59.1965H159.1V63.5283H156.848V59.1965H152.495V56.9234H156.848V52.5702H159.1V56.9234Z" fill="white"/>
<path d="M110.77 74.5514C111.344 74.5514 111.844 74.6782 112.271 74.9317C112.698 75.1785 113.028 75.5355 113.262 76.0025C113.495 76.4628 113.612 77.0066 113.612 77.6337V78.3342C113.612 78.9613 113.495 79.5084 113.262 79.9754C113.028 80.4358 112.698 80.7927 112.271 81.0462C111.844 81.2931 111.344 81.4165 110.77 81.4165H108.388V74.5514H110.77ZM109.369 75.4421V80.5258H110.77C111.364 80.5258 111.821 80.3424 112.141 79.9754C112.468 79.6018 112.631 79.0547 112.631 78.3342V77.6337C112.631 76.9265 112.471 76.3861 112.151 76.0125C111.837 75.6322 111.377 75.4421 110.77 75.4421H109.369ZM117.063 76.2026C117.737 76.2026 118.237 76.3361 118.564 76.6029C118.897 76.8698 119.064 77.2567 119.064 77.7638V80.4158C119.064 80.5358 119.091 80.6259 119.144 80.686C119.198 80.7393 119.264 80.766 119.344 80.766C119.498 80.766 119.651 80.7193 119.805 80.6259V81.3164C119.578 81.4499 119.321 81.5166 119.034 81.5166C118.747 81.5166 118.534 81.4365 118.394 81.2764C118.254 81.1096 118.177 80.8828 118.164 80.5959C117.75 81.2097 117.153 81.5166 116.372 81.5166C115.812 81.5166 115.391 81.3965 115.111 81.1563C114.838 80.9095 114.701 80.5225 114.701 79.9954C114.701 79.5818 114.808 79.2582 115.021 79.0247C115.235 78.7845 115.588 78.6111 116.082 78.5043C116.576 78.3976 117.256 78.3442 118.123 78.3442V77.8739C118.123 77.5336 118.023 77.2968 117.823 77.1633C117.623 77.0232 117.333 76.9532 116.953 76.9532C116.592 76.9532 116.312 77.0232 116.112 77.1633C115.912 77.3034 115.812 77.5003 115.812 77.7538V77.8739H114.891C114.878 77.7805 114.871 77.6704 114.871 77.5436C114.871 77.3101 114.964 77.09 115.151 76.8831C115.338 76.6763 115.592 76.5129 115.912 76.3928C116.232 76.266 116.586 76.2026 116.973 76.2026H117.063ZM118.123 79.0748C117.423 79.0748 116.893 79.1115 116.532 79.1848C116.179 79.2516 115.942 79.355 115.822 79.4951C115.702 79.6352 115.642 79.8287 115.642 80.0755C115.642 80.5358 115.992 80.766 116.692 80.766C116.939 80.766 117.173 80.706 117.393 80.5859C117.613 80.4591 117.79 80.2823 117.923 80.0555C118.057 79.8287 118.123 79.5685 118.123 79.2749V79.0748ZM121.866 74.2111V75.0818H120.885V74.2111H121.866ZM121.846 76.3027V81.4165H120.905V76.3027H121.846ZM124.485 74.2111V81.4165H123.545V74.2111H124.485ZM128.444 81.2164C128.217 81.7768 128.007 82.2038 127.814 82.4973C127.62 82.7975 127.423 83.001 127.223 83.1078C127.023 83.2212 126.79 83.2779 126.523 83.2779C126.276 83.2779 126.042 83.2312 125.822 83.1378V82.3672C126.042 82.4606 126.209 82.5073 126.323 82.5073C126.596 82.5073 126.823 82.4139 127.003 82.2271C127.19 82.047 127.343 81.7601 127.463 81.3665L125.472 76.3027H126.473L127.944 80.0755H127.984L129.435 76.3027H130.356L128.444 81.2164ZM138.901 74.5514L136.459 81.4165H135.408L132.966 74.5514H134.017L135.948 80.0855H136.008L137.95 74.5514H138.901ZM140.737 74.2111V75.0818H139.757V74.2111H140.737ZM140.717 76.3027V81.4165H139.777V76.3027H140.717ZM144.328 76.2026C144.708 76.2026 145.045 76.2627 145.338 76.3828C145.639 76.5028 145.869 76.6696 146.029 76.8831C146.196 77.0966 146.279 77.3335 146.279 77.5937L146.269 77.7738H145.338V77.6837C145.338 77.1967 144.961 76.9532 144.208 76.9532C143.46 76.9532 143.087 77.1767 143.087 77.6237C143.087 77.8305 143.194 77.9839 143.407 78.084C143.62 78.1774 143.947 78.2675 144.388 78.3542C144.808 78.441 145.152 78.531 145.418 78.6244C145.692 78.7178 145.922 78.8646 146.109 79.0648C146.302 79.2649 146.399 79.5351 146.399 79.8754C146.399 80.4224 146.212 80.8327 145.839 81.1063C145.465 81.3798 144.928 81.5166 144.228 81.5166H144.077C143.657 81.5166 143.29 81.4532 142.977 81.3264C142.663 81.193 142.42 81.0162 142.246 80.796C142.079 80.5692 141.999 80.3157 142.006 80.0355V79.8153H142.937V79.9154C142.937 80.4825 143.414 80.766 144.368 80.766C144.648 80.766 144.898 80.7026 145.118 80.5759C145.345 80.4491 145.459 80.2757 145.459 80.0555C145.459 79.8687 145.395 79.7219 145.268 79.6152C145.148 79.5084 144.998 79.4284 144.818 79.375C144.638 79.3216 144.388 79.2682 144.067 79.2149C143.654 79.1348 143.32 79.0547 143.067 78.9747C142.813 78.888 142.596 78.7445 142.416 78.5444C142.236 78.3442 142.146 78.0707 142.146 77.7238C142.146 77.2501 142.333 76.8798 142.706 76.6129C143.08 76.3394 143.59 76.2026 144.238 76.2026H144.328ZM148.683 74.2111V75.0818H147.702V74.2111H148.683ZM148.663 76.3027V81.4165H147.722V76.3027H148.663ZM151.422 76.3027H152.613V77.0533H151.422V80.1055C151.422 80.3457 151.469 80.5192 151.563 80.6259C151.656 80.7327 151.799 80.786 151.993 80.786C152.166 80.786 152.373 80.736 152.613 80.6359V81.3364C152.373 81.4565 152.063 81.5166 151.683 81.5166C151.289 81.5166 150.989 81.3998 150.782 81.1663C150.582 80.9328 150.482 80.5625 150.482 80.0555V77.0533H149.921V76.3027H150.512L150.832 74.6715H151.422V76.3027ZM155.823 76.2026C156.537 76.2026 157.107 76.4228 157.534 76.8631C157.961 77.3034 158.174 77.9072 158.174 78.6745V79.0447C158.174 79.812 157.964 80.4158 157.544 80.8561C157.124 81.2964 156.55 81.5166 155.823 81.5166C155.096 81.5166 154.522 81.2964 154.101 80.8561C153.681 80.4158 153.471 79.812 153.471 79.0447V78.6745C153.471 77.9072 153.684 77.3034 154.111 76.8631C154.538 76.4228 155.109 76.2026 155.823 76.2026ZM155.823 76.9532C155.376 76.9532 155.029 77.1066 154.782 77.4135C154.535 77.7204 154.412 78.1708 154.412 78.7645V78.9547C154.412 79.5351 154.532 79.9821 154.772 80.2957C155.019 80.6092 155.369 80.766 155.823 80.766C156.263 80.766 156.607 80.6126 156.853 80.3057C157.107 79.9921 157.234 79.5418 157.234 78.9547V78.7645C157.234 78.1841 157.11 77.7371 156.863 77.4235C156.623 77.11 156.276 76.9532 155.823 76.9532ZM161.829 76.2026C162.303 76.2026 162.673 76.3561 162.94 76.663C163.207 76.9632 163.341 77.3435 163.341 77.8038L163.31 78.1841H162.48V77.9639C162.48 77.7638 162.43 77.587 162.33 77.4335C162.23 77.2801 162.103 77.1633 161.949 77.0833C161.796 76.9965 161.643 76.9532 161.489 76.9532C161.169 76.9532 160.919 77.0799 160.739 77.3335C160.558 77.587 160.468 77.9306 160.468 78.3642V81.4165H159.528V76.3027H160.198L160.338 77.0633C160.378 76.9298 160.468 76.7964 160.608 76.663C160.749 76.5295 160.922 76.4195 161.129 76.3327C161.342 76.246 161.576 76.2026 161.829 76.2026ZM166.385 76.2026C166.765 76.2026 167.102 76.2627 167.396 76.3828C167.696 76.5028 167.926 76.6696 168.086 76.8831C168.253 77.0966 168.337 77.3335 168.337 77.5937L168.327 77.7738H167.396V77.6837C167.396 77.1967 167.019 76.9532 166.265 76.9532C165.518 76.9532 165.144 77.1767 165.144 77.6237C165.144 77.8305 165.251 77.9839 165.464 78.084C165.678 78.1774 166.005 78.2675 166.445 78.3542C166.865 78.441 167.209 78.531 167.476 78.6244C167.749 78.7178 167.98 78.8646 168.166 79.0648C168.36 79.2649 168.457 79.5351 168.457 79.8754C168.457 80.4224 168.27 80.8327 167.896 81.1063C167.523 81.3798 166.986 81.5166 166.285 81.5166H166.135C165.715 81.5166 165.348 81.4532 165.034 81.3264C164.721 81.193 164.477 81.0162 164.304 80.796C164.137 80.5692 164.057 80.3157 164.063 80.0355V79.8153H164.994V79.9154C164.994 80.4825 165.471 80.766 166.425 80.766C166.705 80.766 166.956 80.7026 167.176 80.5759C167.403 80.4491 167.516 80.2757 167.516 80.0555C167.516 79.8687 167.453 79.7219 167.326 79.6152C167.206 79.5084 167.056 79.4284 166.875 79.375C166.695 79.3216 166.445 79.2682 166.125 79.2149C165.711 79.1348 165.378 79.0547 165.124 78.9747C164.871 78.888 164.654 78.7445 164.474 78.5444C164.294 78.3442 164.203 78.0707 164.203 77.7238C164.203 77.2501 164.39 76.8798 164.764 76.6129C165.138 76.3394 165.648 76.2026 166.295 76.2026H166.385Z" fill="white"/>
<g clip-path="url(#clip0_462_5544)">
<path d="M63.1892 55.7527C63.1892 57.2198 63.772 58.6268 64.8094 59.6641C65.8467 60.7015 67.2537 61.2843 68.7208 61.2843C70.1878 61.2843 71.5948 60.7015 72.6322 59.6641C73.6695 58.6268 74.2523 57.2198 74.2523 55.7527C74.2523 54.2857 73.6695 52.8787 72.6322 51.8413C71.5948 50.804 70.1878 50.2212 68.7208 50.2212C67.2537 50.2212 65.8467 50.804 64.8094 51.8413C63.772 52.8787 63.1892 54.2857 63.1892 55.7527Z" stroke="#FCE670" stroke-width="2.17311" stroke-linecap="round" stroke-linejoin="round"/>
<path d="M58.4482 75.5079V72.6104C58.4482 71.0735 59.1698 69.5995 60.4541 68.5127C61.7385 67.426 63.4805 66.8154 65.2968 66.8154H72.1454C73.9618 66.8154 75.7037 67.426 76.9881 68.5127C78.2725 69.5995 78.994 71.0735 78.994 72.6104V75.5079" stroke="#FCE670" stroke-width="2.17311" stroke-linecap="round" stroke-linejoin="round"/>
</g>
<g filter="url(#filter1_d_462_5544)">
<rect x="203.047" y="145.837" width="160.415" height="73.4906" rx="15.8044" fill="#2E2E35"/>
</g>
<path d="M303.627 169.685C302.097 171.643 300.853 173.616 299.895 175.603C298.938 177.591 298.459 179.613 298.459 181.672C298.459 182.287 298.466 182.68 298.48 182.852H294.877C294.877 180.779 295.356 178.749 296.314 176.761C297.272 174.774 298.487 172.837 299.96 170.95H292.99V168.141H303.627V169.685ZM306.764 185.94C306.907 185.253 307.136 184.224 307.45 182.852H306.099V179.699H309.23V182.337L308.33 185.94H306.764ZM317.236 170.5C316.607 170.5 316.064 170.714 315.607 171.143C315.149 171.572 314.92 172.101 314.92 172.73V174.81C315.306 174.395 315.764 174.081 316.293 173.866C316.822 173.652 317.365 173.545 317.923 173.545C318.809 173.545 319.61 173.73 320.324 174.102C321.054 174.46 321.625 174.981 322.04 175.668C322.469 176.34 322.683 177.126 322.683 178.027C322.683 179.042 322.447 179.928 321.976 180.686C321.518 181.443 320.882 182.03 320.067 182.444C319.267 182.859 318.373 183.066 317.387 183.066H317.086C316.114 183.066 315.221 182.852 314.406 182.423C313.591 181.979 312.948 181.365 312.476 180.578C312.004 179.792 311.768 178.899 311.768 177.898V173.094C311.768 172.136 312.004 171.264 312.476 170.478C312.948 169.692 313.584 169.07 314.384 168.612C315.185 168.155 316.064 167.926 317.022 167.926H317.322C318.266 167.926 319.124 168.119 319.896 168.505C320.668 168.891 321.275 169.456 321.718 170.199C322.162 170.928 322.383 171.793 322.383 172.794H319.424C319.424 172.165 319.217 171.629 318.802 171.186C318.402 170.728 317.88 170.5 317.236 170.5ZM319.574 177.962C319.574 177.319 319.345 176.79 318.888 176.375C318.445 175.946 317.887 175.732 317.215 175.732C316.572 175.732 316.028 175.946 315.585 176.375C315.142 176.79 314.92 177.319 314.92 177.962V178.391C314.92 179.034 315.142 179.571 315.585 179.999C316.043 180.414 316.607 180.621 317.279 180.621C317.923 180.621 318.466 180.414 318.909 179.999C319.352 179.571 319.574 179.034 319.574 178.391V177.962Z" fill="white"/>
<path d="M282.65 193.875V194.765H280.499V200.74H279.518V194.765H277.366V193.875H282.65ZM284.693 193.534V194.405H283.712V193.534H284.693ZM284.673 195.626V200.74H283.732V195.626H284.673ZM291.726 195.526C292.253 195.526 292.663 195.679 292.957 195.986C293.25 196.293 293.397 196.73 293.397 197.297V200.74H292.456V197.467C292.456 196.673 292.15 196.276 291.536 196.276C291.322 196.276 291.122 196.34 290.935 196.467C290.755 196.593 290.608 196.767 290.495 196.987C290.388 197.2 290.335 197.437 290.335 197.697V200.74H289.394V197.467C289.394 196.673 289.087 196.276 288.473 196.276C288.26 196.276 288.06 196.34 287.873 196.467C287.693 196.593 287.546 196.767 287.433 196.987C287.326 197.2 287.273 197.437 287.273 197.697V200.74H286.332V195.626H287.012L287.143 196.376C287.529 195.809 288.067 195.526 288.754 195.526C289.428 195.526 289.895 195.809 290.155 196.376C290.382 196.056 290.625 195.836 290.885 195.716C291.145 195.589 291.426 195.526 291.726 195.526ZM297.062 195.526C297.482 195.526 297.852 195.616 298.173 195.796C298.5 195.97 298.753 196.22 298.933 196.547C299.113 196.874 299.203 197.254 299.203 197.687V198.398H295.631C295.644 198.938 295.771 199.355 296.011 199.649C296.251 199.942 296.608 200.089 297.082 200.089C297.502 200.089 297.812 199.966 298.012 199.719C298.213 199.472 298.313 199.179 298.313 198.838H299.203C299.203 199.239 299.11 199.589 298.923 199.889C298.743 200.189 298.489 200.423 298.163 200.59C297.842 200.756 297.475 200.84 297.062 200.84H297.022C296.301 200.84 295.731 200.61 295.31 200.149C294.897 199.682 294.69 199.062 294.69 198.288V198.088C294.69 197.581 294.783 197.134 294.97 196.747C295.157 196.36 295.424 196.06 295.771 195.846C296.118 195.633 296.525 195.526 296.992 195.526H297.062ZM297.012 196.276C296.631 196.276 296.321 196.393 296.081 196.627C295.848 196.86 295.704 197.207 295.651 197.667H298.273V197.547C298.273 197.167 298.156 196.86 297.922 196.627C297.696 196.393 297.392 196.276 297.012 196.276ZM307.718 193.875V194.765H305.566V200.74H304.585V194.765H302.434V193.875H307.718ZM310.059 195.526C310.773 195.526 311.344 195.746 311.771 196.186C312.198 196.627 312.411 197.23 312.411 197.998V198.368C312.411 199.135 312.201 199.739 311.781 200.179C311.36 200.62 310.787 200.84 310.059 200.84C309.332 200.84 308.759 200.62 308.338 200.179C307.918 199.739 307.708 199.135 307.708 198.368V197.998C307.708 197.23 307.921 196.627 308.348 196.186C308.775 195.746 309.346 195.526 310.059 195.526ZM310.059 196.276C309.612 196.276 309.266 196.43 309.019 196.737C308.772 197.044 308.648 197.494 308.648 198.088V198.278C308.648 198.858 308.769 199.305 309.009 199.619C309.256 199.932 309.606 200.089 310.059 200.089C310.5 200.089 310.843 199.936 311.09 199.629C311.344 199.315 311.471 198.865 311.471 198.278V198.088C311.471 197.507 311.347 197.06 311.1 196.747C310.86 196.433 310.513 196.276 310.059 196.276ZM318.82 193.775C319.353 193.775 319.82 193.885 320.221 194.105C320.621 194.325 320.928 194.642 321.141 195.056C321.361 195.462 321.472 195.946 321.472 196.507H320.491C320.491 195.926 320.347 195.476 320.061 195.156C319.774 194.829 319.36 194.665 318.82 194.665C318.219 194.665 317.762 194.852 317.449 195.226C317.135 195.593 316.978 196.136 316.978 196.857V197.758C316.978 198.471 317.132 199.015 317.439 199.389C317.745 199.762 318.199 199.949 318.8 199.949C319.36 199.949 319.787 199.789 320.081 199.469C320.381 199.149 320.531 198.702 320.531 198.128H321.472C321.472 198.682 321.361 199.162 321.141 199.569C320.928 199.976 320.621 200.289 320.221 200.51C319.82 200.73 319.353 200.84 318.82 200.84C317.932 200.84 317.238 200.57 316.738 200.029C316.244 199.482 315.997 198.725 315.997 197.758V196.857C315.997 195.896 316.244 195.142 316.738 194.595C317.238 194.048 317.932 193.775 318.82 193.775ZM323.824 193.534V200.74H322.883V193.534H323.824ZM326.482 193.534V194.405H325.501V193.534H326.482ZM326.462 195.626V200.74H325.521V195.626H326.462ZM330.122 195.526C330.529 195.526 330.893 195.616 331.213 195.796C331.54 195.97 331.794 196.216 331.974 196.537C332.154 196.857 332.244 197.224 332.244 197.637H331.313C331.313 197.224 331.206 196.894 330.993 196.647C330.786 196.4 330.486 196.276 330.092 196.276C329.679 196.276 329.348 196.417 329.102 196.697C328.861 196.97 328.741 197.347 328.741 197.828V198.368C328.741 198.948 328.861 199.382 329.102 199.669C329.342 199.949 329.682 200.089 330.122 200.089C330.529 200.089 330.833 199.969 331.033 199.729C331.24 199.482 331.343 199.152 331.343 198.738H332.244C332.244 199.379 332.05 199.889 331.663 200.269C331.283 200.65 330.773 200.84 330.132 200.84H330.052C329.599 200.84 329.202 200.736 328.861 200.53C328.521 200.316 328.258 200.019 328.071 199.639C327.891 199.259 327.801 198.815 327.801 198.308V198.068C327.801 197.561 327.894 197.117 328.081 196.737C328.268 196.35 328.531 196.053 328.871 195.846C329.212 195.633 329.602 195.526 330.042 195.526H330.122ZM334.505 193.534V198.478L336.787 195.626H337.817L335.846 198.108L337.948 200.74H336.807L335.276 198.838L334.505 199.639V200.74H333.564V193.534H334.505Z" fill="white"/>
<g clip-path="url(#clip1_462_5544)">
<path d="M231.627 182.846C231.627 184.178 231.89 185.497 232.399 186.727C232.909 187.958 233.656 189.075 234.598 190.017C235.539 190.959 236.657 191.706 237.888 192.215C239.118 192.725 240.437 192.987 241.769 192.987C243.1 192.987 244.419 192.725 245.649 192.215C246.88 191.706 247.998 190.959 248.94 190.017C249.881 189.075 250.628 187.958 251.138 186.727C251.647 185.497 251.91 184.178 251.91 182.846C251.91 181.515 251.647 180.196 251.138 178.965C250.628 177.735 249.881 176.617 248.94 175.675C247.998 174.734 246.88 173.987 245.649 173.477C244.419 172.967 243.1 172.705 241.769 172.705C240.437 172.705 239.118 172.967 237.888 173.477C236.657 173.987 235.539 174.734 234.598 175.675C233.656 176.617 232.909 177.735 232.399 178.965C231.89 180.196 231.627 181.515 231.627 182.846Z" stroke="#FFEE7C" stroke-width="2.17311" stroke-linecap="round" stroke-linejoin="round"/>
<path d="M241.768 178.5V182.846H244.666" stroke="#FFEE7C" stroke-width="2.17311" stroke-linecap="round" stroke-linejoin="round"/>
<path d="M234.525 169.808L230.541 172.705" stroke="#FFEE7C" stroke-width="2.17311" stroke-linecap="round" stroke-linejoin="round"/>
<path d="M249.012 169.808L252.996 172.705" stroke="#FFEE7C" stroke-width="2.17311" stroke-linecap="round" stroke-linejoin="round"/>
</g>
<g filter="url(#filter2_d_462_5544)">
<rect x="203.462" y="21" width="219.538" height="104.421" rx="15.757" fill="#0A0A0B"/>
</g>
<line opacity="0.2" x1="226.617" y1="107.261" x2="309.06" y2="107.261" stroke="white" stroke-width="0.617721" stroke-linecap="round"/>
<line opacity="0.2" x1="226.617" y1="90.3669" x2="309.06" y2="90.3669" stroke="white" stroke-width="0.617721" stroke-linecap="round"/>
<line opacity="0.2" x1="226.617" y1="74.1755" x2="309.06" y2="74.1755" stroke="white" stroke-width="0.617721" stroke-linecap="round"/>
<line opacity="0.2" x1="226.617" y1="57.282" x2="309.06" y2="57.282" stroke="white" stroke-width="0.617721" stroke-linecap="round"/>
<line opacity="0.2" x1="226.617" y1="40.3865" x2="309.06" y2="40.3865" stroke="white" stroke-width="0.617721" stroke-linecap="round"/>
<path d="M227.717 106.867C233.08 93.2838 239.281 89.744 246.071 89.744C251.977 89.744 248.138 78.5455 253.453 78.5455C256.996 78.5455 260.997 82.1132 264.968 82.0745C268.938 82.0357 269.397 76.1748 276.778 76.1748C285.932 76.1748 282.683 57.5908 288.293 57.5908C292.722 57.5908 290.95 68.5052 297.741 68.5052C303.055 68.5052 303.941 60.5407 308.665 60.5407" stroke="#6B3CF7" stroke-width="1.23544" stroke-linecap="round" stroke-linejoin="round"/>
<path d="M227.716 106.867C232.694 93.312 238.852 95.6252 245.154 95.6252C250.634 95.6252 250.464 86.4542 255.395 86.4542C258.683 86.4542 262.505 87.9721 266.19 87.9334C269.875 87.8948 270.689 79.3541 277.538 79.3541C286.033 79.3541 282.297 68.9998 287.503 68.9998C291.612 68.9998 290.335 71.3665 296.637 71.3665C301.568 71.3665 304.985 61.8145 309.369 61.8145" stroke="#FCE670" stroke-width="1.23544" stroke-linecap="round" stroke-linejoin="round"/>
<path d="M339.156 68.0074H342.952V59.0205H339.133V56.9852C339.987 56.9243 340.955 56.7108 342.038 56.3449C343.12 55.9638 344.141 55.5065 345.102 54.9729H346.314V68.0074H350.041V70.7744H339.156V68.0074ZM353.524 74.0674C353.677 73.3356 353.921 72.2379 354.256 70.7744H352.815V67.4129H356.154V70.2256L355.193 74.0674H353.524ZM358.997 70.0884C358.997 69.0822 359.165 68.2895 359.5 67.7102C359.851 67.1156 360.339 66.5744 360.964 66.0866L365.423 62.5878C366.002 62.1457 366.399 61.696 366.612 61.2386C366.841 60.766 366.955 60.2782 366.955 59.7751C366.955 59.211 366.772 58.7232 366.406 58.3116C366.041 57.8847 365.492 57.6713 364.76 57.6713C364.165 57.6713 363.67 57.8085 363.274 58.0829C362.892 58.3421 362.61 58.6546 362.428 59.0205C362.245 59.3863 362.153 59.7065 362.153 59.9809C362.153 60.2553 362.161 60.4611 362.176 60.5983H359.043C359.028 60.4764 359.02 60.3315 359.02 60.1638C359.02 59.3406 359.203 58.5326 359.569 57.7399C359.935 56.9319 360.56 56.2535 361.444 55.7047C362.328 55.1406 363.487 54.8586 364.92 54.8586H365.263C366.361 54.8586 367.298 55.0872 368.076 55.5446C368.869 56.0019 369.463 56.6041 369.859 57.3511C370.256 58.0829 370.454 58.868 370.454 59.7065C370.454 60.6059 370.279 61.4063 369.928 62.1076C369.593 62.7936 369.006 63.4873 368.167 64.1885C367.207 64.9965 366.048 65.9112 364.691 66.9327C364.539 67.0546 364.348 67.2223 364.12 67.4357C363.891 67.6492 363.777 67.7864 363.777 67.8474H370.5V70.7744H358.997V70.0884ZM379.334 60.9871C379.7 60.4383 380.043 59.7675 380.363 58.9747C380.698 58.182 380.957 57.4502 381.14 56.7794H382.604V64.4172H384.708V67.1156H382.604V70.7744H379.334V67.1156H372.428V64.3943C373.205 63.1595 373.998 61.6274 374.806 59.798C375.629 57.9533 376.247 56.3068 376.658 54.8586H379.882C379.654 55.8952 379.242 57.0538 378.648 58.3344C378.053 59.5998 377.413 60.7889 376.727 61.9018C376.056 63.0147 375.477 63.8531 374.989 64.4172H379.334V60.9871ZM398.481 65.5149C398.481 66.5363 398.237 67.4662 397.749 68.3047C397.261 69.1432 396.598 69.8064 395.76 70.2942C394.921 70.7668 393.999 71.0031 392.993 71.0031H392.329C391.323 71.0031 390.401 70.7668 389.562 70.2942C388.724 69.8064 388.061 69.1432 387.573 68.3047C387.1 67.4662 386.864 66.5363 386.864 65.5149V60.3696C386.864 59.3482 387.1 58.4183 387.573 57.5798C388.061 56.7413 388.724 56.0782 389.562 55.5903C390.401 55.1025 391.323 54.8586 392.329 54.8586H392.993C393.999 54.8586 394.921 55.1025 395.76 55.5903C396.598 56.0782 397.261 56.7413 397.749 57.5798C398.237 58.4183 398.481 59.3482 398.481 60.3696V65.5149ZM395.096 59.9809C395.096 59.2949 394.86 58.7156 394.387 58.243C393.93 57.7704 393.358 57.5341 392.672 57.5341C391.986 57.5341 391.407 57.7704 390.934 58.243C390.477 58.7156 390.248 59.2949 390.248 59.9809V65.8807C390.248 66.5668 390.477 67.1461 390.934 67.6187C391.407 68.0913 391.986 68.3276 392.672 68.3276C393.358 68.3276 393.93 68.0913 394.387 67.6187C394.86 67.1461 395.096 66.5668 395.096 65.8807V59.9809Z" fill="white"/>
<path d="M358.009 85.2249C358.813 85.2249 359.443 85.4028 359.898 85.7585C360.361 86.1142 360.592 86.6194 360.592 87.2739V87.4019H359.546V87.2419C359.546 86.9004 359.407 86.6371 359.13 86.4522C358.852 86.2672 358.486 86.1747 358.031 86.1747C357.526 86.1747 357.131 86.2601 356.846 86.4308C356.569 86.5945 356.43 86.8328 356.43 87.1458C356.43 87.3806 356.508 87.5727 356.665 87.7221C356.828 87.8715 357.028 87.9889 357.262 88.0742C357.504 88.1596 357.835 88.2557 358.255 88.3624C358.795 88.5047 359.233 88.6434 359.567 88.7786C359.902 88.9137 360.186 89.1165 360.421 89.3868C360.663 89.6572 360.784 90.0165 360.784 90.4647C360.784 91.2615 360.538 91.8449 360.048 92.2148C359.564 92.5776 358.881 92.7591 357.999 92.7591C357.116 92.7591 356.43 92.5741 355.939 92.2041C355.455 91.8271 355.213 91.2828 355.213 90.5714L355.224 90.358H356.27L356.259 90.5821C356.259 90.9947 356.412 91.3042 356.718 91.5105C357.031 91.7097 357.462 91.8093 358.009 91.8093C358.543 91.8093 358.963 91.7132 359.269 91.5212C359.582 91.322 359.738 91.0516 359.738 90.7101C359.738 90.4398 359.653 90.2228 359.482 90.0592C359.318 89.8884 359.108 89.7568 358.852 89.6643C358.603 89.5718 358.262 89.4687 357.828 89.3548C357.294 89.2125 356.867 89.0774 356.547 88.9493C356.227 88.8213 355.953 88.6256 355.726 88.3624C355.498 88.092 355.384 87.7399 355.384 87.3059C355.384 86.6016 355.622 86.0787 356.099 85.7372C356.576 85.3957 357.213 85.2249 358.009 85.2249ZM364.38 87.0925C365.098 87.0925 365.632 87.2348 365.98 87.5193C366.336 87.8039 366.514 88.2165 366.514 88.7572V91.5852C366.514 91.7132 366.543 91.8093 366.599 91.8733C366.656 91.9302 366.727 91.9587 366.813 91.9587C366.976 91.9587 367.14 91.9089 367.304 91.8093V92.5456C367.062 92.6879 366.788 92.7591 366.482 92.7591C366.176 92.7591 365.948 92.6737 365.799 92.5029C365.65 92.3251 365.568 92.0832 365.554 91.7773C365.113 92.4318 364.476 92.7591 363.643 92.7591C363.046 92.7591 362.598 92.631 362.299 92.3749C362.007 92.1117 361.861 91.699 361.861 91.137C361.861 90.6959 361.975 90.3508 362.203 90.1018C362.43 89.8457 362.807 89.6608 363.334 89.5469C363.86 89.4331 364.586 89.3762 365.511 89.3762V88.8746C365.511 88.5118 365.404 88.2592 365.191 88.1169C364.977 87.9675 364.668 87.8928 364.262 87.8928C363.878 87.8928 363.579 87.9675 363.366 88.1169C363.153 88.2663 363.046 88.4762 363.046 88.7466V88.8746H362.064C362.05 88.775 362.043 88.6576 362.043 88.5225C362.043 88.2734 362.142 88.0387 362.341 87.8181C362.541 87.5976 362.811 87.4233 363.153 87.2952C363.494 87.1601 363.871 87.0925 364.284 87.0925H364.38ZM365.511 90.1552C364.764 90.1552 364.198 90.1943 363.814 90.2726C363.437 90.3437 363.185 90.454 363.056 90.6034C362.928 90.7528 362.864 90.9591 362.864 91.2224C362.864 91.7132 363.238 91.9587 363.985 91.9587C364.248 91.9587 364.497 91.8947 364.732 91.7666C364.967 91.6314 365.155 91.4429 365.297 91.201C365.44 90.9591 365.511 90.6817 365.511 90.3686V90.1552ZM369.523 84.9688V92.6523H368.52V84.9688H369.523ZM373.52 87.0925C373.969 87.0925 374.363 87.1885 374.705 87.3806C375.053 87.5656 375.324 87.8324 375.516 88.181C375.708 88.5296 375.804 88.9351 375.804 89.3975V90.1552H371.994C372.009 90.7315 372.144 91.1761 372.4 91.4891C372.656 91.8022 373.037 91.9587 373.542 91.9587C373.99 91.9587 374.321 91.8271 374.534 91.5638C374.748 91.3006 374.854 90.9876 374.854 90.6247H375.804C375.804 91.0516 375.704 91.4251 375.505 91.7453C375.313 92.0654 375.043 92.3144 374.694 92.4923C374.353 92.6701 373.961 92.7591 373.52 92.7591H373.478C372.709 92.7591 372.101 92.5136 371.653 92.0227C371.212 91.5247 370.991 90.8631 370.991 90.0378V89.8244C370.991 89.2837 371.091 88.807 371.29 88.3944C371.489 87.9818 371.774 87.6616 372.144 87.434C372.514 87.2063 372.948 87.0925 373.446 87.0925H373.52ZM373.467 87.8928C373.061 87.8928 372.731 88.0173 372.475 88.2663C372.226 88.5153 372.073 88.8853 372.016 89.3762H374.812V89.2481C374.812 88.8426 374.687 88.5153 374.438 88.2663C374.196 88.0173 373.872 87.8928 373.467 87.8928ZM379.343 87.0925C379.749 87.0925 380.108 87.1565 380.421 87.2846C380.741 87.4126 380.987 87.5905 381.158 87.8181C381.335 88.0458 381.424 88.2983 381.424 88.5758L381.414 88.7679H380.421V88.6719C380.421 88.1525 380.019 87.8928 379.215 87.8928C378.419 87.8928 378.02 88.1312 378.02 88.6078C378.02 88.8284 378.134 88.992 378.362 89.0987C378.589 89.1983 378.938 89.2944 379.407 89.3868C379.856 89.4793 380.222 89.5754 380.507 89.675C380.798 89.7746 381.044 89.9311 381.243 90.1445C381.449 90.358 381.552 90.6461 381.552 91.0089C381.552 91.5923 381.353 92.0298 380.955 92.3215C380.556 92.6132 379.984 92.7591 379.237 92.7591H379.077C378.628 92.7591 378.237 92.6915 377.903 92.5563C377.568 92.414 377.309 92.2255 377.124 91.9907C376.946 91.7488 376.861 91.4785 376.868 91.1797V90.9449H377.86V91.0516C377.86 91.6563 378.369 91.9587 379.386 91.9587C379.685 91.9587 379.952 91.8911 380.186 91.7559C380.428 91.6208 380.549 91.4358 380.549 91.201C380.549 91.0018 380.482 90.8453 380.347 90.7315C380.218 90.6176 380.058 90.5323 379.866 90.4753C379.674 90.4184 379.407 90.3615 379.066 90.3046C378.625 90.2192 378.269 90.1339 377.999 90.0485C377.728 89.956 377.497 89.803 377.305 89.5896C377.113 89.3762 377.017 89.0845 377.017 88.7145C377.017 88.2094 377.216 87.8146 377.615 87.53C378.013 87.2383 378.557 87.0925 379.247 87.0925H379.343Z" fill="white"/>
<rect x="80.5232" y="118.684" width="109.474" height="126.316" rx="16.8421" fill="#0E0E10"/>
<path d="M116.723 202.077H120.517V193.096H116.7V191.062C117.554 191.001 118.521 190.788 119.603 190.422C120.684 190.041 121.705 189.584 122.665 189.051H123.876V202.077H127.601V204.842H116.723V202.077ZM130.213 204.157C130.213 203.151 130.381 202.359 130.716 201.78C131.066 201.186 131.554 200.645 132.179 200.158L136.635 196.661C137.214 196.219 137.61 195.77 137.823 195.313C138.052 194.841 138.166 194.353 138.166 193.85C138.166 193.287 137.983 192.799 137.617 192.388C137.252 191.961 136.703 191.748 135.972 191.748C135.378 191.748 134.883 191.885 134.487 192.159C134.106 192.418 133.824 192.73 133.641 193.096C133.458 193.462 133.367 193.782 133.367 194.056C133.367 194.33 133.375 194.536 133.39 194.673H130.259C130.244 194.551 130.236 194.406 130.236 194.239C130.236 193.416 130.419 192.609 130.785 191.816C131.15 191.009 131.775 190.331 132.658 189.782C133.542 189.219 134.7 188.937 136.132 188.937H136.475C137.572 188.937 138.509 189.165 139.286 189.623C140.078 190.08 140.672 190.681 141.068 191.428C141.464 192.159 141.662 192.944 141.662 193.782C141.662 194.681 141.487 195.48 141.137 196.181C140.802 196.867 140.215 197.56 139.377 198.261C138.417 199.068 137.259 199.982 135.904 201.003C135.751 201.125 135.561 201.293 135.332 201.506C135.104 201.719 134.989 201.856 134.989 201.917H141.708V204.842H130.213V204.157ZM144.709 202.077H148.502V193.096H144.686V191.062C145.539 191.001 146.506 190.788 147.588 190.422C148.67 190.041 149.691 189.584 150.65 189.051H151.862V202.077H155.587V204.842H144.709V202.077Z" fill="white"/>
<path d="M116.205 216.311C116.852 216.311 117.382 216.464 117.794 216.77C118.214 217.075 118.424 217.495 118.424 218.028C118.424 218.504 118.296 218.91 118.04 219.244C117.791 219.578 117.482 219.781 117.112 219.852V219.905C117.453 220.04 117.734 220.275 117.954 220.609C118.175 220.943 118.285 221.345 118.285 221.814C118.285 222.205 118.306 222.5 118.349 222.699C118.392 222.898 118.448 223.037 118.52 223.115C118.591 223.193 118.694 223.254 118.829 223.296V223.595C118.672 223.659 118.505 223.691 118.328 223.691C117.986 223.691 117.72 223.591 117.528 223.392C117.336 223.186 117.24 222.802 117.24 222.241C117.24 221.665 117.119 221.217 116.877 220.897C116.643 220.57 116.348 220.406 115.992 220.406H114.136V223.627H113.091V216.311H116.205ZM114.136 217.26V219.457H116.216C116.522 219.457 116.792 219.354 117.027 219.148C117.261 218.942 117.378 218.686 117.378 218.38V218.337C117.378 218.025 117.272 217.769 117.058 217.57C116.845 217.363 116.564 217.26 116.216 217.26H114.136ZM122.263 218.071C122.711 218.071 123.106 218.167 123.447 218.359C123.796 218.544 124.066 218.81 124.258 219.159C124.45 219.507 124.546 219.912 124.546 220.374V221.131H120.738C120.753 221.707 120.888 222.152 121.144 222.465C121.4 222.777 121.78 222.934 122.285 222.934C122.733 222.934 123.063 222.802 123.277 222.539C123.49 222.276 123.597 221.963 123.597 221.601H124.546C124.546 222.027 124.446 222.401 124.247 222.72C124.055 223.04 123.785 223.289 123.437 223.467C123.095 223.645 122.704 223.734 122.263 223.734H122.221C121.453 223.734 120.845 223.488 120.397 222.998C119.956 222.5 119.736 221.839 119.736 221.014V220.801C119.736 220.261 119.835 219.784 120.035 219.372C120.234 218.959 120.518 218.64 120.888 218.412C121.257 218.185 121.691 218.071 122.189 218.071H122.263ZM122.21 218.871C121.805 218.871 121.474 218.995 121.218 219.244C120.969 219.493 120.817 219.862 120.76 220.353H123.554V220.225C123.554 219.82 123.429 219.493 123.181 219.244C122.939 218.995 122.615 218.871 122.21 218.871ZM127.88 218.071C128.691 218.071 129.302 218.394 129.714 219.041L130.066 218.177H130.45V225.547H129.448V222.934C129.284 223.168 129.06 223.36 128.776 223.51C128.499 223.659 128.196 223.734 127.869 223.734C127.173 223.734 126.632 223.492 126.248 223.008C125.864 222.518 125.672 221.857 125.672 221.025V220.908C125.672 220.019 125.868 219.326 126.259 218.828C126.65 218.323 127.19 218.071 127.88 218.071ZM128.072 218.871C127.589 218.871 127.233 219.038 127.006 219.372C126.785 219.706 126.675 220.214 126.675 220.897C126.675 221.594 126.789 222.109 127.016 222.443C127.251 222.77 127.603 222.934 128.072 222.934C128.541 222.934 128.89 222.767 129.117 222.433C129.345 222.098 129.458 221.586 129.458 220.897C129.458 220.2 129.341 219.688 129.106 219.361C128.879 219.034 128.534 218.871 128.072 218.871ZM136.774 222.561C136.774 222.688 136.803 222.784 136.86 222.848C136.917 222.905 136.988 222.934 137.073 222.934C137.229 222.934 137.389 222.884 137.553 222.784V223.52C137.332 223.663 137.108 223.734 136.881 223.734C136.497 223.734 136.227 223.655 136.07 223.499C135.921 223.343 135.839 223.122 135.825 222.838C135.633 223.122 135.384 223.343 135.079 223.499C134.78 223.655 134.435 223.734 134.044 223.734C133.497 223.734 133.045 223.574 132.69 223.254C132.341 222.927 132.167 222.457 132.167 221.846V218.177H133.17V221.665C133.17 222.511 133.554 222.934 134.321 222.934C134.57 222.934 134.805 222.866 135.025 222.731C135.253 222.596 135.434 222.415 135.569 222.187C135.704 221.953 135.772 221.697 135.772 221.419V218.177H136.774V222.561ZM140.999 218.071C141.447 218.071 141.842 218.167 142.183 218.359C142.531 218.544 142.802 218.81 142.993 219.159C143.185 219.507 143.281 219.912 143.281 220.374V221.131H139.474C139.488 221.707 139.624 222.152 139.879 222.465C140.135 222.777 140.516 222.934 141.021 222.934C141.468 222.934 141.799 222.802 142.012 222.539C142.226 222.276 142.332 221.963 142.332 221.601H143.281C143.281 222.027 143.182 222.401 142.983 222.72C142.791 223.04 142.521 223.289 142.172 223.467C141.831 223.645 141.44 223.734 140.999 223.734H140.957C140.189 223.734 139.581 223.488 139.133 222.998C138.692 222.5 138.472 221.839 138.472 221.014V220.801C138.472 220.261 138.571 219.784 138.77 219.372C138.969 218.959 139.254 218.64 139.624 218.412C139.993 218.185 140.427 218.071 140.925 218.071H140.999ZM140.946 218.871C140.541 218.871 140.21 218.995 139.954 219.244C139.705 219.493 139.552 219.862 139.496 220.353H142.29V220.225C142.29 219.82 142.165 219.493 141.916 219.244C141.675 218.995 141.351 218.871 140.946 218.871ZM146.818 218.071C147.224 218.071 147.583 218.135 147.896 218.263C148.216 218.391 148.461 218.568 148.631 218.796C148.809 219.023 148.898 219.276 148.898 219.553L148.887 219.745H147.896V219.649C147.896 219.13 147.494 218.871 146.69 218.871C145.894 218.871 145.496 219.109 145.496 219.585C145.496 219.806 145.61 219.969 145.837 220.076C146.065 220.175 146.413 220.271 146.882 220.364C147.33 220.456 147.697 220.552 147.981 220.652C148.272 220.751 148.518 220.908 148.717 221.121C148.923 221.334 149.026 221.622 149.026 221.985C149.026 222.568 148.827 223.005 148.429 223.296C148.031 223.588 147.458 223.734 146.712 223.734H146.552C146.104 223.734 145.713 223.666 145.379 223.531C145.045 223.389 144.785 223.2 144.6 222.966C144.423 222.724 144.337 222.454 144.344 222.155V221.921H145.336V222.027C145.336 222.632 145.844 222.934 146.861 222.934C147.16 222.934 147.426 222.866 147.661 222.731C147.903 222.596 148.024 222.411 148.024 222.177C148.024 221.978 147.956 221.821 147.821 221.707C147.693 221.594 147.533 221.508 147.341 221.451C147.149 221.395 146.882 221.338 146.541 221.281C146.1 221.195 145.745 221.11 145.475 221.025C145.205 220.932 144.974 220.78 144.782 220.566C144.59 220.353 144.494 220.061 144.494 219.692C144.494 219.187 144.693 218.792 145.091 218.508C145.489 218.216 146.033 218.071 146.722 218.071H146.818ZM151.609 218.177H152.878V218.977H151.609V222.23C151.609 222.486 151.659 222.671 151.758 222.784C151.858 222.898 152.01 222.955 152.217 222.955C152.401 222.955 152.622 222.902 152.878 222.795V223.542C152.622 223.67 152.291 223.734 151.886 223.734C151.467 223.734 151.147 223.609 150.926 223.36C150.713 223.112 150.606 222.717 150.606 222.177V218.977H150.009V218.177H150.638L150.98 216.439H151.609V218.177ZM156.202 218.071C156.607 218.071 156.966 218.135 157.279 218.263C157.599 218.391 157.844 218.568 158.015 218.796C158.193 219.023 158.282 219.276 158.282 219.553L158.271 219.745H157.279V219.649C157.279 219.13 156.877 218.871 156.074 218.871C155.278 218.871 154.88 219.109 154.88 219.585C154.88 219.806 154.993 219.969 155.221 220.076C155.448 220.175 155.797 220.271 156.266 220.364C156.714 220.456 157.08 220.552 157.364 220.652C157.656 220.751 157.901 220.908 158.1 221.121C158.306 221.334 158.41 221.622 158.41 221.985C158.41 222.568 158.21 223.005 157.812 223.296C157.414 223.588 156.842 223.734 156.095 223.734H155.935C155.487 223.734 155.096 223.666 154.762 223.531C154.428 223.389 154.169 223.2 153.984 222.966C153.806 222.724 153.721 222.454 153.728 222.155V221.921H154.72V222.027C154.72 222.632 155.228 222.934 156.245 222.934C156.543 222.934 156.81 222.866 157.044 222.731C157.286 222.596 157.407 222.411 157.407 222.177C157.407 221.978 157.34 221.821 157.204 221.707C157.076 221.594 156.916 221.508 156.725 221.451C156.533 221.395 156.266 221.338 155.925 221.281C155.484 221.195 155.128 221.11 154.858 221.025C154.588 220.932 154.357 220.78 154.165 220.566C153.973 220.353 153.877 220.061 153.877 219.692C153.877 219.187 154.076 218.792 154.474 218.508C154.872 218.216 155.416 218.071 156.106 218.071H156.202Z" fill="white"/>
<g clip-path="url(#clip2_462_5544)">
<path d="M129.084 150.264H141.435" stroke="#6B3CF7" stroke-width="2.31579" stroke-linecap="round" stroke-linejoin="round"/>
<path d="M129.084 156.439H138.348" stroke="#6B3CF7" stroke-width="2.31579" stroke-linecap="round" stroke-linejoin="round"/>
<path d="M130.628 164.158H125.997C124.768 164.158 123.59 163.671 122.722 162.802C121.853 161.933 121.365 160.755 121.365 159.527V147.176C121.365 145.948 121.853 144.77 122.722 143.901C123.59 143.032 124.768 142.544 125.997 142.544H144.523C145.752 142.544 146.93 143.032 147.798 143.901C148.667 144.77 149.155 145.948 149.155 147.176V159.527C149.155 160.755 148.667 161.933 147.798 162.802C146.93 163.671 145.752 164.158 144.523 164.158H139.892L135.26 168.79L130.628 164.158Z" stroke="#6B3CF7" stroke-width="2.31579" stroke-linecap="round" stroke-linejoin="round"/>
</g>
<defs>
<filter id="filter0_d_462_5544" x="0.94719" y="4.36777" width="218.521" height="131.596" filterUnits="userSpaceOnUse" color-interpolation-filters="sRGB">
<feFlood flood-opacity="0" result="BackgroundImageFix"/>
<feColorMatrix in="SourceAlpha" type="matrix" values="0 0 0 0 0 0 0 0 0 0 0 0 0 0 0 0 0 0 127 0" result="hardAlpha"/>
<feMorphology radius="1.5291" operator="erode" in="SourceAlpha" result="effect1_dropShadow_462_5544"/>
<feOffset dy="6.11638"/>
<feGaussianBlur stdDeviation="15.291"/>
<feColorMatrix type="matrix" values="0 0 0 0 0.0235294 0 0 0 0 0.0470588 0 0 0 0 0.231373 0 0 0 0.08 0"/>
<feBlend mode="normal" in2="BackgroundImageFix" result="effect1_dropShadow_462_5544"/>
<feBlend mode="normal" in="SourceGraphic" in2="effect1_dropShadow_462_5544" result="shape"/>
</filter>
<filter id="filter1_d_462_5544" x="173.995" y="122.901" width="218.521" height="131.596" filterUnits="userSpaceOnUse" color-interpolation-filters="sRGB">
<feFlood flood-opacity="0" result="BackgroundImageFix"/>
<feColorMatrix in="SourceAlpha" type="matrix" values="0 0 0 0 0 0 0 0 0 0 0 0 0 0 0 0 0 0 127 0" result="hardAlpha"/>
<feMorphology radius="1.5291" operator="erode" in="SourceAlpha" result="effect1_dropShadow_462_5544"/>
<feOffset dy="6.11638"/>
<feGaussianBlur stdDeviation="15.291"/>
<feColorMatrix type="matrix" values="0 0 0 0 0.0235294 0 0 0 0 0.0470588 0 0 0 0 0.231373 0 0 0 0.08 0"/>
<feBlend mode="normal" in2="BackgroundImageFix" result="effect1_dropShadow_462_5544"/>
<feBlend mode="normal" in="SourceGraphic" in2="effect1_dropShadow_462_5544" result="shape"/>
</filter>
<filter id="filter2_d_462_5544" x="177.191" y="0.259582" width="272.08" height="156.963" filterUnits="userSpaceOnUse" color-interpolation-filters="sRGB">
<feFlood flood-opacity="0" result="BackgroundImageFix"/>
<feColorMatrix in="SourceAlpha" type="matrix" values="0 0 0 0 0 0 0 0 0 0 0 0 0 0 0 0 0 0 127 0" result="hardAlpha"/>
<feMorphology radius="1.38269" operator="erode" in="SourceAlpha" result="effect1_dropShadow_462_5544"/>
<feOffset dy="5.53078"/>
<feGaussianBlur stdDeviation="13.8269"/>
<feColorMatrix type="matrix" values="0 0 0 0 0.0235294 0 0 0 0 0.0470588 0 0 0 0 0.231373 0 0 0 0.08 0"/>
<feBlend mode="normal" in2="BackgroundImageFix" result="effect1_dropShadow_462_5544"/>
<feBlend mode="normal" in="SourceGraphic" in2="effect1_dropShadow_462_5544" result="shape"/>
</filter>
<clipPath id="clip0_462_5544">
<rect width="34.7698" height="34.7698" fill="white" transform="translate(51.3359 45.4795)"/>
</clipPath>
<clipPath id="clip1_462_5544">
<rect width="34.7698" height="34.7698" fill="white" transform="translate(224.384 164.013)"/>
</clipPath>
<clipPath id="clip2_462_5544">
<rect width="37.0526" height="37.0526" fill="white" transform="translate(116.734 136.369)"/>
</clipPath>
</defs>
</svg>
