<svg width="96" height="96" viewBox="0 0 96 96" fill="none" xmlns="http://www.w3.org/2000/svg">
<g clip-path="url(#clip0_462_5597)">
<path d="M48.0007 96.001C74.5104 96.001 96.0007 74.5106 96.0007 48.001C96.0007 21.4913 74.5104 0.000976562 48.0007 0.000976562C21.4911 0.000976562 0.000732422 21.4913 0.000732422 48.001C0.000732422 74.5106 21.4911 96.001 48.0007 96.001Z" fill="#FF4A00"/>
<path d="M54.0034 48.0103C54.0037 49.7395 53.6915 51.4546 53.0819 53.0728C51.4622 53.6849 49.7452 53.999 48.0137 54H47.9931C46.2639 54.0001 44.5489 53.6879 42.9306 53.0784C42.3185 51.4588 42.0044 49.7418 42.0034 48.0103V47.9897C42.0036 46.2605 42.3158 44.5455 42.925 42.9272C44.5446 42.315 46.2616 42.0009 47.9931 42H48.0137C49.7449 41.9993 51.4619 42.3118 53.0819 42.9225C53.6916 44.5407 54.0038 46.2558 54.0034 47.985V48.0056V48.0103ZM71.6697 43.9997H57.6597L67.5662 34.0941C66.7882 33.0028 65.9205 31.9783 64.9722 31.0312C64.0249 30.0843 63.0004 29.2179 61.9094 28.4409L52.0037 38.3438V24.3337C50.6862 24.1124 49.3526 24.0008 48.0165 24H47.9912C46.6552 24.0008 45.3216 24.1124 44.004 24.3337V38.3438L34.0975 28.4372C33.0063 29.2153 31.9818 30.083 31.0347 31.0312C30.0881 31.9779 29.222 33.0018 28.4453 34.0922L38.3472 43.9997H24.3372C24.3372 43.9997 24.0034 46.6313 24.0034 47.9916V48.0084C24.004 49.346 24.1156 50.6812 24.3372 52.0003H38.3472L28.4406 61.9059C29.9984 64.0931 31.9103 66.005 34.0975 67.5628L44.0031 57.6562V71.6663C45.3194 71.8873 46.6518 71.999 47.9865 72H48.0212C49.3557 71.9989 50.6877 71.8872 52.0037 71.6663V57.6562L61.9094 67.5628C63.0006 66.7847 64.0251 65.917 64.9722 64.9688C65.9194 64.0215 66.7861 62.997 67.5634 61.9059L57.6597 52.0003H71.6697C71.8908 50.684 72.0024 49.3516 72.0034 48.0169V47.9822C72.0023 46.6478 71.8907 45.3157 71.6697 43.9997Z" fill="white"/>
</g>
<defs>
<clipPath id="clip0_462_5597">
<rect width="96" height="96" fill="white" transform="translate(0 0.000976562)"/>
</clipPath>
</defs>
</svg>
