<svg width="40" height="40" viewBox="0 0 40 40" fill="none" xmlns="http://www.w3.org/2000/svg">
<g opacity="0.6" clip-path="url(#clip0_462_5649)">
<path d="M21.6667 24.5417C21.6667 15.9733 28.1533 7.01 38.3333 5L39.9733 8.54333C36.2817 9.935 33.035 14.78 32.6733 18.12C36.825 18.7733 40 22.365 40 26.7017C40 32.005 35.6933 35 31.335 35C26.31 35 21.6667 31.1583 21.6667 24.5417ZM0 24.5417C0 15.9733 6.48667 7.01 16.6667 5L18.3067 8.54333C14.615 9.935 11.3683 14.78 11.0067 18.12C15.1583 18.7733 18.3333 22.365 18.3333 26.7017C18.3333 32.005 14.0267 35 9.66833 35C4.64333 35 0 31.1583 0 24.5417Z" fill="#387FF1"/>
</g>
<defs>
<clipPath id="clip0_462_5649">
<rect width="40" height="40" fill="white" transform="matrix(-1 0 0 -1 40 40)"/>
</clipPath>
</defs>
</svg>
