<svg width="60" height="60" viewBox="0 0 60 60" fill="none" xmlns="http://www.w3.org/2000/svg">
<mask id="mask0_511_7100" style="mask-type:alpha" maskUnits="userSpaceOnUse" x="0" y="0" width="60" height="60">
<rect width="60" height="60" rx="10" fill="#8378FF"/>
</mask>
<g mask="url(#mask0_511_7100)">
<circle cx="30" cy="30" r="40.3125" fill="url(#paint0_linear_511_7100)"/>
<path d="M36.6445 30C36.6445 26.3086 33.6914 23.3555 30 23.3555C26.3086 23.3555 23.3555 26.3086 23.3555 30C23.3555 33.6914 26.3086 36.6445 30 36.6445C33.6914 36.6445 36.6445 33.6914 36.6445 30ZM40.0898 30C40.0898 35.6602 35.6602 40.0898 30 40.0898C24.3398 40.0898 19.9102 35.6602 19.9102 30C19.9102 24.3398 24.3398 19.9102 30 19.9102C35.6602 19.9102 40.0898 24.3398 40.0898 30ZM42.7969 19.418C42.7969 20.8945 41.8125 21.8789 40.3359 21.8789C38.8594 21.8789 37.875 20.8945 37.875 19.418C37.875 17.9414 38.8594 16.957 40.3359 16.957C41.8125 16.957 42.7969 18.1875 42.7969 19.418ZM30 13.7578C27.0469 13.7578 20.8945 13.5117 18.4336 14.4961C16.7109 15.2344 15.2344 16.7109 14.7422 18.4336C13.7578 20.8945 14.0039 27.0469 14.0039 30C14.0039 32.9531 13.7578 39.1055 14.7422 41.5664C15.2344 43.2891 16.7109 44.7656 18.4336 45.2578C20.8945 46.2422 27.293 45.9961 30 45.9961C32.707 45.9961 39.1055 46.2422 41.5664 45.2578C43.2891 44.5195 44.5195 43.2891 45.2578 41.5664C46.2422 38.8594 45.9961 32.707 45.9961 30C45.9961 27.293 46.2422 20.8945 45.2578 18.4336C44.7656 16.7109 43.2891 15.2344 41.5664 14.7422C39.1055 13.5117 32.9531 13.7578 30 13.7578ZM49.6875 30V38.1211C49.6875 41.0742 48.7031 44.0273 46.4883 46.4883C44.2734 48.7031 41.3203 49.6875 38.1211 49.6875H21.8789C18.9258 49.6875 15.9727 48.7031 13.5117 46.4883C11.543 44.2734 10.3125 41.3203 10.3125 38.1211V21.8789C10.3125 18.6797 11.543 15.7266 13.5117 13.5117C15.9727 11.543 18.9258 10.3125 21.8789 10.3125H38.1211C41.0742 10.3125 44.0273 11.2969 46.4883 13.5117C48.457 15.7266 49.6875 18.6797 49.6875 21.8789V30Z" fill="white"/>
</g>
<defs>
<linearGradient id="paint0_linear_511_7100" x1="-0.975948" y1="-1.46095" x2="47.7716" y2="74.6331" gradientUnits="userSpaceOnUse">
<stop stop-color="#7A31FB"/>
<stop offset="0.547327" stop-color="#EC2089"/>
<stop offset="1" stop-color="#F2DF36"/>
</linearGradient>
</defs>
</svg>
