<svg width="65" height="60" viewBox="0 0 65 60" fill="none" xmlns="http://www.w3.org/2000/svg">
<rect x="0.5" width="64" height="60" rx="10" fill="black"/>
<path d="M40.1106 25.308C42.435 26.8649 45.2827 27.7811 48.3582 27.7811V22.2356C47.7761 22.2357 47.1956 22.1788 46.6261 22.0658V26.4308C43.5508 26.4308 40.7035 25.5148 38.3786 23.958V35.2746C38.3786 40.9359 33.4807 45.5249 27.4394 45.5249C25.1853 45.5249 23.09 44.8863 21.3496 43.7911C23.3361 45.6944 26.1063 46.875 29.171 46.875C35.2128 46.875 40.1108 42.286 40.1108 36.6245V25.308H40.1106ZM42.2474 19.7133C41.0594 18.4972 40.2793 16.9257 40.1106 15.1882V14.475H38.4692C38.8823 16.6832 40.2916 18.5698 42.2472 19.7133H42.2474ZM25.1707 39.4469C24.507 38.6316 24.1482 37.634 24.1498 36.6083C24.1498 34.0191 26.3901 31.9197 29.154 31.9197C29.669 31.9195 30.1809 31.9936 30.6719 32.1395V26.47C30.0982 26.3964 29.5192 26.365 28.9405 26.3766V30.7893C28.4494 30.6434 27.9372 30.5693 27.4219 30.5697C24.6581 30.5697 22.418 32.6689 22.418 35.2584C22.418 37.0895 23.5377 38.6747 25.1707 39.4469Z" fill="#FF004F"/>
<path d="M38.3784 23.9578C40.7035 25.5147 43.5505 26.4307 46.6259 26.4307V22.0657C44.9093 21.723 43.3896 20.8825 42.247 19.7133C40.2913 18.5697 38.8821 16.6831 38.469 14.475H34.1577V36.6243C34.1478 39.2065 31.9115 41.2972 29.1536 41.2972C27.5285 41.2972 26.0846 40.5714 25.1703 39.4468C23.5375 38.6747 22.4177 37.0894 22.4177 35.2585C22.4177 32.6693 24.6578 30.5699 27.4216 30.5699C27.9511 30.5699 28.4615 30.6471 28.9402 30.7894V26.3767C23.005 26.4916 18.2317 31.0357 18.2317 36.6244C18.2317 39.4143 19.4203 41.9434 21.3495 43.7913C23.09 44.8863 25.1851 45.5251 27.4394 45.5251C33.4808 45.5251 38.3785 40.9358 38.3785 35.2746V23.958H38.3784V23.9578Z" fill="white"/>
<path d="M46.6262 22.0656V20.8855C45.0781 20.8877 43.5607 20.4815 42.2473 19.7133C43.4099 20.906 44.9408 21.7284 46.6262 22.0658V22.0656ZM38.4691 14.4749C38.4298 14.2639 38.3995 14.0515 38.3785 13.8382V13.125H32.4256V35.2745C32.4161 37.8565 30.1798 39.9473 27.4217 39.9473C26.6398 39.9483 25.8686 39.777 25.1704 39.4471C26.0848 40.5715 27.5286 41.2972 29.1537 41.2972C31.9115 41.2972 34.1481 39.2066 34.1578 36.6244V14.475H38.4691V14.4749ZM28.9407 26.3766V25.1201C28.4433 25.0564 27.9418 25.0245 27.4398 25.0247C21.3977 25.0247 16.5 29.6139 16.5 35.2745C16.5 38.8236 18.4249 41.9513 21.3499 43.7911C19.4207 41.9433 18.2321 39.4141 18.2321 36.6243C18.2321 31.0357 23.0052 26.4916 28.9407 26.3767V26.3766Z" fill="#00F2EA"/>
</svg>
