<svg width="60" height="60" viewBox="0 0 60 60" fill="none" xmlns="http://www.w3.org/2000/svg">
<path d="M59.9757 15.3136C59.9757 13.4686 59.82 11.631 59.3794 9.83468C58.5882 6.5627 56.7226 4.06323 53.9308 2.22757C52.4946 1.29007 50.914 0.714409 49.2341 0.410659C47.944 0.184909 46.6381 0.0607502 45.3286 0.0394093C45.2311 0.0300002 45.1242 0.00940909 45.0155 0H14.9583C14.5777 0.03 14.197 0.0487499 13.8164 0.0674999C11.9509 0.174409 10.0966 0.369409 8.33789 1.0725C4.99861 2.39073 2.58552 4.69514 1.17934 8.01586C0.691841 9.13902 0.44625 10.3297 0.271841 11.541C0.125591 12.5179 0.046841 13.5042 0.0187501 14.4905C0.0187501 14.5692 0 14.6461 0 14.7248V45.2827L0.0580907 46.3383C0.185591 48.3803 0.448091 50.4016 1.30868 52.2766C2.93052 55.8224 5.6548 58.1549 9.39532 59.2781C10.4397 59.6006 11.5347 59.7468 12.6278 59.8443C14.0152 59.9813 15.4008 60 16.7882 60H44.3649C45.6736 60 46.9823 59.9118 48.291 59.7468C50.3515 59.4825 52.2846 58.8768 54.034 57.7255C56.1046 56.384 57.7373 54.4658 58.7307 52.2072C59.1994 51.1516 59.4638 50.0303 59.6588 48.8959C59.9419 47.2065 60 45.4964 60 43.7883C59.9907 34.2948 60 24.8033 59.9906 15.3099L59.9757 15.3136ZM43.9205 25.2833V39.5619C43.9205 40.6063 43.7742 41.632 43.3055 42.5788C42.5837 44.0526 41.4119 44.9808 39.8388 45.4308C38.9673 45.6805 38.069 45.8247 37.1632 45.8602C36.0241 45.9276 34.9 45.5736 34.0049 44.8659C33.1098 44.1581 32.5062 43.1459 32.309 42.022C32.1283 41.0107 32.2845 39.968 32.7536 39.0541C33.2227 38.1403 33.9788 37.4056 34.9058 36.963C35.7064 36.573 36.5763 36.3387 37.4444 36.1624C38.3913 35.958 39.3382 35.7723 40.2756 35.5568C40.9694 35.4011 41.4175 34.9811 41.5543 34.2667C41.5937 34.1111 41.603 33.9442 41.603 33.7885V20.1756C41.5997 20.0203 41.577 19.866 41.5355 19.7163C41.4381 19.3356 41.1644 19.1106 40.7744 19.1294C40.3731 19.1481 39.9831 19.2175 39.5931 19.2962C37.6882 19.6675 35.7852 20.0481 33.8896 20.4381L24.6423 22.3038C24.603 22.3132 24.5543 22.3338 24.5148 22.3338C23.8212 22.5288 23.5774 22.8419 23.5474 23.5638C23.538 23.6707 23.5474 23.7795 23.5474 23.8863C23.538 30.391 23.5474 36.8955 23.538 43.3982C23.538 44.4539 23.4199 45.4889 23.0018 46.4639C22.3081 48.0653 21.0781 49.0722 19.4188 49.5503C18.5416 49.8057 17.6358 49.9499 16.7226 49.9797C14.3302 50.0678 12.3371 48.4759 11.9284 46.1227C11.5759 44.092 12.504 41.9038 14.8083 40.9269C15.7064 40.5556 16.6345 40.3512 17.5813 40.1562L19.73 39.7175C20.6862 39.5131 21.185 38.9075 21.2337 37.9306V15.3511C21.2337 15.038 21.2731 14.7267 21.3406 14.423C21.5168 13.7104 22.0249 13.2998 22.7074 13.1329C23.343 12.966 23.9974 12.8498 24.6405 12.7129C26.476 12.3417 28.3023 11.9703 30.1378 11.6085L35.8114 10.4553C37.4913 10.1234 39.16 9.78218 40.84 9.45027C41.3875 9.34343 41.9443 9.22527 42.4993 9.18593C43.2699 9.11843 43.808 9.60593 43.8867 10.3878C43.9055 10.5734 43.9167 10.7591 43.9167 10.9448V25.2721L43.9205 25.2833Z" fill="url(#paint0_linear_511_7134)"/>
<defs>
<linearGradient id="paint0_linear_511_7134" x1="30" y1="0" x2="30" y2="60" gradientUnits="userSpaceOnUse">
<stop stop-color="#EE546B"/>
<stop offset="1" stop-color="#ED213A"/>
</linearGradient>
</defs>
</svg>
