<svg width="60" height="60" viewBox="0 0 60 60" fill="none" xmlns="http://www.w3.org/2000/svg">
<path d="M13.14 0H46.86C54.1172 0 60 5.8828 60 13.14V46.86C60 54.1172 54.1172 60 46.86 60H13.14C5.8828 60 0 54.1172 0 46.86V13.14C0 5.8828 5.8828 0 13.14 0Z" fill="#151515"/>
<path d="M33.2303 27.3479L45.8706 12.6818H42.8753L31.8997 25.4162L23.1335 12.6818H13.0227L26.2789 31.9384L13.0227 47.3181H16.0182L27.6088 33.8702L36.8665 47.3181H46.9772L33.2295 27.3479H33.2303ZM29.1275 32.1081L27.7844 30.1906L17.0976 14.9326H21.6985L30.3229 27.2463L31.666 29.1638L42.8767 45.1697H38.2757L29.1275 32.1088V32.1081Z" fill="white"/>
</svg>
