<svg width="60" height="60" viewBox="0 0 60 60" fill="none" xmlns="http://www.w3.org/2000/svg">
<g clip-path="url(#clip0_511_7119)">
<rect width="60" height="60" rx="10" fill="#F20000"/>
<path d="M0.000244141 25.5944C0.000244141 18.292 0.000244141 14.6408 2.50504 11.8895C5.00984 9.13827 8.32974 8.82614 14.9696 8.202C19.2801 7.7968 24.3619 7.5 30.0002 7.5C35.6386 7.5 40.7204 7.7968 45.0308 8.202C51.6707 8.82614 54.9907 9.13827 57.4954 11.8895C60.0002 14.6408 60.0002 18.292 60.0002 25.5944V34.3109C60.0002 41.7423 60.0002 45.458 57.4728 48.2147C54.9454 50.9714 51.5401 51.2676 44.7296 51.8598C40.4673 52.2305 35.4832 52.5 30.0002 52.5C24.5173 52.5 19.5332 52.2305 15.2709 51.8598C8.46038 51.2676 5.05511 50.9714 2.52768 48.2147C0.000244141 45.458 0.000244141 41.7423 0.000244141 34.3109V25.5944Z" fill="#F20000"/>
<path d="M40.5688 29.9659L24.4097 39.2727V20.6591L40.5688 29.9659Z" fill="white"/>
</g>
<defs>
<clipPath id="clip0_511_7119">
<rect width="60" height="60" rx="10" fill="white"/>
</clipPath>
</defs>
</svg>
