<svg width="60" height="60" viewBox="0 0 60 60" fill="none" xmlns="http://www.w3.org/2000/svg">
<path d="M49.0909 0H10.9091C4.88417 0 0 4.88417 0 10.9091V49.0909C0 55.1158 4.88417 60 10.9091 60H49.0909C55.1158 60 60 55.1158 60 49.0909V10.9091C60 4.88417 55.1158 0 49.0909 0Z" fill="#8A42F2"/>
<path d="M31.4071 36.3458L26.0361 41.8348V36.9181V36.0999H25.2179H21.3407V14.9318H46.0225V30.0839L40.4997 36.0999H31.9919H31.6477L31.4071 36.3458Z" fill="white" stroke="black" stroke-width="1.75262"/>
<path d="M20.5435 14.1136V36.9181H25.2298V43.8409L31.9906 36.9181H40.8408L35.0245 43.2591H26.1743L19.4134 50.1818V43.2591H14.7272V20.4546L20.5435 14.1136Z" fill="black"/>
<path d="M31.0911 20.0454H33.7502V28.8409H31.0911V20.0454Z" fill="black"/>
<path d="M37.9092 20.0454H40.5683V28.8409H37.9092V20.0454Z" fill="black"/>
</svg>
