<svg width="60" height="60" viewBox="0 0 60 60" fill="none" xmlns="http://www.w3.org/2000/svg">
<rect width="60" height="60" rx="10" fill="#FF1ED3"/>
<path fill-rule="evenodd" clip-rule="evenodd" d="M29.1776 36.2089C29.4903 35.6631 29.8905 35.1979 30.3505 34.8209L30.515 35.0109L30.6795 35.2008L30.8234 35.367L30.9879 35.5569L31.1524 35.7469C30.7946 36.0359 30.4835 36.395 30.2411 36.8182C29.1942 38.6454 29.8267 40.9747 31.654 42.0215C32.0374 42.2411 32.4529 42.3981 32.8786 42.471L32.8802 42.4712C33.9878 42.6682 35.1213 42.3744 35.9838 41.6509L35.9845 41.6504C36.3362 41.3574 36.6288 41.0075 36.8574 40.6085C37.5487 39.4018 37.5076 37.9762 36.8738 36.8456H37.159H37.4394H37.6802H37.9541H38.2256C38.7747 38.225 38.7141 39.8331 37.9209 41.2178C37.6199 41.7432 37.228 42.2016 36.777 42.5853L36.7763 42.5859L36.7752 42.5869C35.6373 43.5362 34.1358 43.9271 32.6726 43.6691C32.0961 43.5711 31.55 43.3744 31.0448 43.085C28.6353 41.7046 27.7972 38.6184 29.1776 36.2089ZM34.4125 34.9987C34.7659 35.081 35.1134 35.2155 35.4444 35.4052C35.6997 35.5514 35.9316 35.7227 36.139 35.9141L36.1759 35.6117L36.2118 35.3173L36.2428 35.0635L36.2775 34.7796L36.3116 34.4998C36.2278 34.4449 36.1418 34.3922 36.0537 34.3417C35.38 33.9557 34.6534 33.7432 33.9259 33.69L34.0227 33.9503L34.1207 34.214L34.2077 34.4478L34.3089 34.7201L34.4125 34.9987Z" fill="white"/>
<path d="M32.9101 40.4927C33.4904 40.6781 33.9696 40.4622 34.2446 39.9822C34.7893 39.0315 33.4482 38.3122 33.7231 37.8322C33.8553 37.6014 34.0374 37.5832 34.2774 37.7207C34.4897 37.8423 34.5898 38.01 34.6793 38.2819L35.2864 38.078L35.2864 38.078C35.2667 38.0054 35.247 37.9328 35.222 37.8695C35.1352 37.6358 34.9995 37.4233 34.7714 37.2436L35.0623 36.7359L34.5731 36.4556L34.2769 36.9725C34.2677 36.9672 34.2532 36.9712 34.244 36.9659C33.8179 36.8322 33.4022 36.9373 33.126 37.2695C33.0798 37.3288 33.0335 37.3881 32.9912 37.462C32.4783 38.3573 33.8036 39.1043 33.5074 39.6212C33.3752 39.8519 33.1825 39.8887 32.9056 39.73C32.6656 39.5926 32.497 39.3733 32.3496 39.0314L31.7555 39.3409L31.7502 39.3501C31.7581 39.3791 31.766 39.4082 31.7831 39.4425C31.9081 39.7593 32.1585 40.0499 32.4103 40.2309L32.1247 40.7293L32.6139 41.0096L32.9101 40.4927Z" fill="white"/>
<path fill-rule="evenodd" clip-rule="evenodd" d="M34.5325 36.4323C34.5454 36.4098 34.574 36.4021 34.5965 36.4149L35.0857 36.6952C35.1081 36.7081 35.1159 36.7367 35.103 36.7592L34.832 37.2322C35.0488 37.4124 35.1806 37.6233 35.2659 37.8527C35.2918 37.9184 35.312 37.9929 35.3314 38.0643L35.3318 38.0657L35.3318 38.0657C35.3383 38.0897 35.325 38.1145 35.3015 38.1224L34.6943 38.3263C34.6824 38.3303 34.6695 38.3294 34.6584 38.3238C34.6472 38.3182 34.6387 38.3084 34.6348 38.2965C34.5472 38.0299 34.4523 37.8748 34.2542 37.7613C34.1382 37.6948 34.0444 37.671 33.9681 37.6845C33.8941 37.6975 33.8256 37.7477 33.7639 37.8555C33.7078 37.9534 33.7298 38.0684 33.8068 38.2152C33.8575 38.3119 33.9271 38.4135 34.0026 38.5239C34.0422 38.5817 34.0834 38.642 34.1244 38.7052C34.3584 39.0656 34.5721 39.505 34.2854 40.0055C34.1435 40.2531 33.9474 40.4351 33.7094 40.5305C33.4808 40.622 33.2173 40.6321 32.9322 40.5485L32.6547 41.0329C32.6418 41.0554 32.6132 41.0631 32.5907 41.0503L32.1015 40.77C32.0791 40.7571 32.0713 40.7285 32.0842 40.706L32.349 40.2438C32.1032 40.0576 31.8636 39.7728 31.7403 39.4615C31.7217 39.4238 31.713 39.3917 31.7053 39.3632L31.705 39.3624C31.7018 39.3504 31.7034 39.3376 31.7096 39.3268L31.7149 39.3176C31.7194 39.3098 31.726 39.3034 31.7339 39.2993L32.328 38.9899C32.3396 38.9838 32.3531 38.9829 32.3654 38.9873C32.3776 38.9916 32.3875 39.0009 32.3927 39.0129C32.5378 39.3494 32.701 39.5587 32.929 39.6894C33.0632 39.7663 33.1688 39.7909 33.2524 39.7755C33.3339 39.7606 33.4051 39.7057 33.4669 39.5979C33.5292 39.4891 33.5099 39.3642 33.4373 39.2118C33.3846 39.1009 33.3081 38.9842 33.2254 38.858C33.1937 38.8096 33.1611 38.7599 33.1285 38.7086C32.8984 38.3454 32.6794 37.9122 32.9507 37.4387C32.9946 37.3619 33.0426 37.3004 33.0885 37.2415L33.0892 37.2406C33.0895 37.2403 33.0898 37.2399 33.0901 37.2395C33.3786 36.8924 33.8127 36.7831 34.2533 36.9197L34.5325 36.4323ZM34.5905 36.5196L34.3177 36.9958C34.306 37.0163 34.2811 37.0246 34.2598 37.0161C34.2593 37.0161 34.2587 37.016 34.2579 37.016L34.2574 37.016C34.2547 37.0158 34.2496 37.0155 34.2443 37.0147C34.2397 37.0139 34.2335 37.0125 34.2268 37.0096C33.8184 36.8826 33.4247 36.984 33.1626 37.2989C33.1164 37.3582 33.0723 37.4149 33.032 37.4852C32.7903 37.9071 32.9774 38.295 33.2077 38.6584C33.238 38.7063 33.2693 38.7539 33.3002 38.8012C33.3843 38.9295 33.4663 39.0545 33.522 39.1715C33.5986 39.3325 33.6339 39.4948 33.5482 39.6445C33.4777 39.7675 33.3865 39.8463 33.2693 39.8677C33.1543 39.8888 33.0251 39.8525 32.8824 39.7707C32.6418 39.6329 32.4721 39.4176 32.327 39.0961L31.8042 39.3684C31.8095 39.3857 31.8157 39.4027 31.8251 39.4216C31.8257 39.4228 31.8263 39.424 31.8268 39.4253C31.948 39.7325 32.192 40.0162 32.4377 40.1928C32.4572 40.2069 32.463 40.2333 32.451 40.2542L32.1888 40.712L32.5967 40.9456L32.8695 40.4694C32.8805 40.4502 32.9034 40.4413 32.9244 40.4481C33.2057 40.5379 33.4593 40.5296 33.6745 40.4434C33.8899 40.3572 34.0709 40.1913 34.204 39.9589C34.462 39.5086 34.2775 39.113 34.0458 38.7562C34.008 38.6979 33.9685 38.6402 33.9296 38.5834C33.852 38.4698 33.777 38.3601 33.7238 38.2587C33.6437 38.1059 33.6012 37.951 33.6826 37.8089C33.753 37.6859 33.8417 37.6116 33.9518 37.5922C34.0596 37.5732 34.1769 37.609 34.3008 37.68C34.515 37.8027 34.6208 37.9704 34.7088 38.2226L35.2297 38.0477C35.2138 37.99 35.1977 37.9353 35.1785 37.8867L35.1782 37.8858C35.0939 37.659 34.9629 37.454 34.7425 37.2804C34.7243 37.266 34.7193 37.2404 34.7309 37.2203L34.9984 36.7532L34.5905 36.5196Z" fill="white"/>
<path fill-rule="evenodd" clip-rule="evenodd" d="M39.1305 27.7005L39.9854 35.0403C40.1169 36.169 39.3489 37.1791 38.2223 37.4025C37.9905 37.4485 37.7929 37.4455 37.2777 37.3707C36.9568 37.2726 36.2174 36.9083 35.9506 36.2491C35.7372 35.7217 35.5116 34.7517 35.4255 34.3326L34.7286 30.8371C34.5524 30.1122 34.0333 29.517 33.3384 29.2435C33.1052 29.1518 32.8507 29.1574 32.6219 29.2594C32.393 29.3615 32.2189 29.5471 32.1317 29.7819C31.8593 30.5144 32.0408 31.3449 32.5938 31.8977C32.5938 31.8977 33.9492 33.2564 34.7255 34.037C35.056 34.4441 35.3265 35.0778 35.2551 35.71C35.1968 36.2306 34.9557 36.7054 34.5623 37.0622C34.1494 37.4367 33.6303 37.6226 33.112 37.6226C32.559 37.6226 32.0069 37.4107 31.586 36.9902L31.4314 36.8358L30.4804 35.8855L26.8957 32.3032C26.2381 31.646 25.7356 30.8728 25.4023 30.0051L24.2872 27.1016L24.1646 27.2241C24.0442 27.3444 23.8864 27.4046 23.7286 27.4046C23.5708 27.4046 23.413 27.3444 23.2926 27.2241L20.1534 24.0872C20.0377 23.9717 19.9728 23.815 19.9728 23.6516C19.9728 23.4881 20.0377 23.3315 20.1534 23.2159L26.9404 16.4337C27.1812 16.1931 27.5716 16.1931 27.8124 16.4337L30.9517 19.5706C31.0673 19.6861 31.1322 19.8428 31.1322 20.0062C31.1322 20.1697 31.0673 20.3264 30.9517 20.4419L30.6738 20.7196L31.5609 21.606L37.2073 24.857L37.3256 24.9317C38.0974 25.4791 38.9966 26.6775 39.1305 27.7005ZM27.3764 17.7408L21.4614 23.6516L23.7286 25.917L29.6436 20.0062L27.3764 17.7408ZM37.9655 36.1965L38.0098 36.1886C38.4866 36.1052 38.8164 35.6635 38.7605 35.1828L37.9067 27.8517C37.832 27.2816 37.2044 26.353 36.6095 25.935L30.8747 22.6331C30.8279 22.6061 30.7847 22.5732 30.7465 22.5349L29.8018 21.5909L25.2418 26.1477L26.5536 29.5636C26.8245 30.2689 27.233 30.8976 27.7678 31.4319L32.4579 36.1188C32.8072 36.4677 33.3675 36.4815 33.7335 36.1496C33.9228 35.978 34.0304 35.743 34.0366 35.4877C34.0428 35.2324 33.9466 34.9923 33.7659 34.8117L31.7218 32.7689C30.8288 31.8766 30.5359 30.5357 30.9757 29.3527C31.1792 28.8052 31.5853 28.3723 32.119 28.1341C32.6529 27.8959 33.2464 27.8827 33.7904 28.0968C34.8635 28.5192 35.6636 29.4408 35.9308 30.5621C35.9326 30.5695 35.9342 30.577 35.9357 30.5845L36.9107 35.4748C37.007 35.9574 37.4799 36.2806 37.9655 36.1965Z" fill="white"/>
</svg>
