<svg width="60" height="60" viewBox="0 0 60 60" fill="none" xmlns="http://www.w3.org/2000/svg">
<rect width="60" height="60" rx="10" fill="#D1E751"/>
<path d="M33.6859 25.6732V27.6878" stroke="black" stroke-width="1.61852" stroke-linecap="round" stroke-linejoin="round"/>
<path d="M33.6859 31.7172V33.7319" stroke="black" stroke-width="1.61852" stroke-linecap="round" stroke-linejoin="round"/>
<path d="M33.6859 37.7614V39.776" stroke="black" stroke-width="1.61852" stroke-linecap="round" stroke-linejoin="round"/>
<path d="M21.4835 25.6732H38.5667C39.2139 25.6732 39.8347 25.8854 40.2923 26.2633C40.75 26.6411 41.0071 27.1535 41.0071 27.6878V30.7099C40.3599 30.7099 39.7392 30.9222 39.2815 31.3C38.8238 31.6778 38.5667 32.1903 38.5667 32.7246C38.5667 33.2589 38.8238 33.7714 39.2815 34.1492C39.7392 34.527 40.3599 34.7393 41.0071 34.7393V37.7613C41.0071 38.2957 40.75 38.8081 40.2923 39.186C39.8347 39.5638 39.2139 39.776 38.5667 39.776H21.4835C20.8362 39.776 20.2154 39.5638 19.7578 39.186C19.3001 38.8081 19.043 38.2957 19.043 37.7613V34.7393C19.6902 34.7393 20.311 34.527 20.7686 34.1492C21.2263 33.7714 21.4835 33.2589 21.4835 32.7246C21.4835 32.1903 21.2263 31.6778 20.7686 31.3C20.311 30.9222 19.6902 30.7099 19.043 30.7099V27.6878C19.043 27.1535 19.3001 26.6411 19.7578 26.2633C20.2154 25.8854 20.8362 25.6732 21.4835 25.6732Z" stroke="black" stroke-width="1.61852" stroke-linecap="round" stroke-linejoin="round"/>
<path d="M39.8437 25.6054L38.6282 21.6845C38.4628 21.0575 38.0113 20.5333 37.373 20.2274C36.7346 19.9216 35.9618 19.859 35.2245 20.0535L21.0645 25.6054" stroke="black" stroke-width="1.61852" stroke-linecap="round" stroke-linejoin="round"/>
</svg>
