<svg width="60" height="60" viewBox="0 0 60 60" fill="none" xmlns="http://www.w3.org/2000/svg">
<rect width="60" height="60" rx="10" fill="#8378FF"/>
<path d="M30.1505 16.5174L42.0921 23.267V36.7331L30.1505 43.4827L18.2089 36.7331V23.267L30.1505 16.5174ZM18.1166 36.6809C18.1168 36.681 18.1169 36.6811 18.1171 36.6812L18.1166 36.6809L18.0273 36.839L18.1166 36.6809ZM42.1843 36.6809L42.1839 36.6812L42.1843 36.6809Z" stroke="white" stroke-width="1.81568"/>
<path d="M27.2721 26.6481V33.7246H25.9896L22.9342 29.2707H22.8828V33.7246H21.3979V26.6481H22.701L25.7324 31.0986H25.7941V26.6481H27.2721Z" fill="white"/>
<path d="M28.4989 33.7246V26.6481H33.1488V27.8817H29.9837V29.5679H32.8402V30.8014H29.9837V33.7246H28.4989Z" fill="white"/>
<path d="M33.8801 27.8817V26.6481H39.6479V27.8817H37.4978V33.7246H36.0301V27.8817H33.8801Z" fill="white"/>
</svg>
