<svg width="60" height="60" viewBox="0 0 60 60" fill="none" xmlns="http://www.w3.org/2000/svg">
<rect width="60" height="60" rx="10" fill="#D1E751"/>
<path d="M17.0508 32.304C17.2189 31.7708 17.5319 31.3708 18.0999 31.2028C18.152 31.1912 18.1984 31.0462 18.1984 30.9593C18.21 29.9044 18.3549 28.8785 18.6563 27.87C19.6242 24.6474 21.5717 22.1899 24.5682 20.6771C28.5792 18.6427 32.5842 18.8224 36.3806 21.2393C39.2787 23.0825 41.029 25.7718 41.6203 29.1741C41.7362 29.8291 41.7594 30.4898 41.8347 31.1796C41.8753 31.1912 41.9564 31.2201 42.0376 31.2549C42.565 31.4578 42.9302 31.9504 42.936 32.5184C42.9418 34.0776 42.9476 35.6367 42.936 37.19C42.9302 37.9552 42.3274 38.5232 41.5217 38.5463C41.2493 38.5579 40.9827 38.5463 40.7045 38.5463C40.6871 38.7608 40.6755 38.9521 40.6349 39.1433C40.4552 39.9953 39.7713 40.6155 38.9019 40.6966C38.5715 40.7314 38.2237 40.7314 37.8934 40.7082C37.2384 40.6677 36.7921 40.2098 36.74 39.5548C36.7342 39.4853 36.7342 39.4215 36.7342 39.352C36.7342 36.3554 36.7342 33.3531 36.7342 30.3565C36.7342 29.4581 37.2094 28.9944 38.1137 28.9944C38.4498 28.9944 38.7976 28.9771 39.1222 29.0408C40.0089 29.2147 40.6233 29.9508 40.6755 30.8549C40.6813 30.9419 40.6871 31.0346 40.6929 31.1447C40.7856 31.1447 40.861 31.1447 40.9885 31.1447C40.8957 27.4701 39.4699 24.4446 36.4907 22.3C32.7755 19.628 28.7646 19.373 24.7131 21.5117C20.7197 23.6273 18.9345 27.7251 19.0156 31.1447C19.1026 31.1447 19.1837 31.1447 19.2707 31.1447C19.2997 30.9129 19.3112 30.6985 19.3576 30.4898C19.5663 29.632 20.2966 29.0466 21.1833 29.006C21.4616 28.9944 21.7398 29.0002 22.0122 29.0002C22.7077 29.0118 23.1946 29.4871 23.2352 30.1826C23.241 30.3449 23.241 30.5014 23.241 30.6637C23.241 33.5617 23.241 36.4597 23.241 39.3578C23.241 39.7577 23.1598 40.1228 22.8468 40.3837C22.6904 40.5112 22.4875 40.6619 22.302 40.6735C21.8036 40.7082 21.2819 40.743 20.795 40.6445C19.9256 40.4822 19.3402 39.7345 19.2881 38.8477C19.2823 38.7608 19.2765 38.6681 19.2707 38.5463C18.2969 38.6333 17.387 38.5753 17.0508 37.4161C17.0508 35.7121 17.0508 34.008 17.0508 32.304ZM22.4469 34.8716C22.4469 33.9153 22.4469 32.9531 22.4469 31.9852C22.4469 31.4404 22.4469 30.8897 22.4469 30.3449C22.4469 29.9276 22.3252 29.8117 21.9021 29.8059C21.6992 29.8059 21.4963 29.7943 21.2935 29.8117C21.1312 29.8233 20.9573 29.8464 20.8066 29.9102C20.3313 30.1189 20.1169 30.5072 20.1169 31.0172C20.1169 33.5791 20.1169 36.1352 20.1169 38.697C20.1169 38.7434 20.1227 38.7956 20.1227 38.8477C20.1691 39.381 20.5632 39.8157 21.0964 39.8852C21.3456 39.92 21.6007 39.9142 21.8557 39.9142C22.3368 39.9142 22.4527 39.7983 22.4527 39.3114C22.4469 37.8392 22.4469 36.3496 22.4469 34.8716ZM37.5456 34.8485C37.5456 36.3612 37.5456 37.8798 37.5456 39.3926C37.5456 39.7751 37.6789 39.9142 38.0615 39.92C38.2644 39.92 38.4672 39.92 38.6701 39.92C39.0004 39.9142 39.296 39.8099 39.5337 39.578C39.8061 39.3056 39.8756 38.9752 39.8756 38.6043C39.8698 36.112 39.8756 33.6197 39.8756 31.1274C39.8756 31.0462 39.8756 30.9593 39.8698 30.8781C39.8235 30.2927 39.3714 29.8522 38.7744 29.8175C38.5658 29.8059 38.3571 29.8117 38.1368 29.8117C37.6441 29.8117 37.5398 29.9102 37.5398 30.3971C37.5456 31.8809 37.5456 33.3646 37.5456 34.8485ZM19.2881 37.7349C19.2881 35.8164 19.2881 33.9095 19.2881 31.9852C18.9867 31.9852 18.6911 31.9736 18.3955 31.991C18.0767 32.0142 17.8622 32.2344 17.8622 32.5532C17.8564 34.0949 17.8564 35.6309 17.8622 37.1726C17.8622 37.474 18.0651 37.7059 18.3665 37.7349C18.6737 37.758 18.9693 37.7349 19.2881 37.7349ZM40.6813 37.7522C40.9711 37.7522 41.2262 37.758 41.4812 37.7522C41.9043 37.7407 42.1303 37.5088 42.1303 37.0857C42.1303 36.6684 42.1303 36.2395 42.1303 35.8222C42.1303 34.7615 42.1303 33.7008 42.1303 32.6402C42.1303 32.2055 41.9159 31.991 41.4812 31.9794C41.313 31.9736 41.145 31.991 40.9769 31.9736C40.745 31.9446 40.6813 32.0316 40.6813 32.2634C40.6871 33.9964 40.6871 35.7295 40.6871 37.4624C40.6813 37.5494 40.6813 37.6305 40.6813 37.7522Z" fill="#4361D1" stroke="black" stroke-miterlimit="10"/>
</svg>
