<svg width="60" height="60" viewBox="0 0 60 60" fill="none" xmlns="http://www.w3.org/2000/svg">
<rect width="60" height="60" rx="10" fill="#91DAF9"/>
<path d="M29.9688 16.9958C33.3248 16.9958 36.673 16.9958 40.0289 16.9958C41.8157 16.9958 42.9964 18.1766 42.9964 19.9633C42.9964 24.1893 42.9964 28.4154 42.9964 32.6414C42.9964 34.4282 41.8157 35.6089 40.0289 35.6089C33.3248 35.6089 26.6129 35.6089 19.9087 35.6089C18.122 35.6089 16.9412 34.4282 16.9412 32.6414C16.9412 28.4154 16.9412 24.1893 16.9412 19.9633C16.9412 18.1766 18.122 16.9958 19.9087 16.9958C23.2569 16.9958 26.6129 16.9958 29.9688 16.9958ZM29.9378 33.7523C33.3092 33.7523 36.6807 33.7523 40.06 33.7523C40.7747 33.7523 41.1398 33.3949 41.1398 32.6802C41.1398 28.4309 41.1398 24.1893 41.1398 19.94C41.1398 19.2098 40.7825 18.8524 40.0522 18.8524C33.3326 18.8524 26.6206 18.8524 19.9009 18.8524C19.1707 18.8524 18.8056 19.2098 18.8056 19.94C18.8056 24.1738 18.8056 28.4154 18.8056 32.6492C18.8056 33.3949 19.1552 33.7445 19.9087 33.7445C23.2491 33.7523 26.5973 33.7523 29.9378 33.7523Z" fill="black"/>
<path d="M24.2666 41.1945C24.0801 41.4974 23.9325 41.7926 23.7228 42.049C22.4255 43.626 19.9628 43.3075 19.0928 41.4586C18.9996 41.2644 18.9141 41.1711 18.6889 41.1945C18.4325 41.2177 18.1684 41.2022 17.9042 41.2022C17.3605 41.1945 16.9487 40.7983 16.9487 40.2778C16.9487 39.7573 17.3527 39.3533 17.8965 39.3456C18.1839 39.3378 18.4791 39.3378 18.7665 39.3456C18.9297 39.3533 18.9996 39.2912 19.0617 39.1436C19.5744 38.0793 20.4212 37.4812 21.6098 37.4889C22.7828 37.4967 23.6296 38.087 24.1267 39.1436C24.22 39.3456 24.3443 39.3456 24.5151 39.3456C30.3026 39.3456 36.0824 39.3456 41.8698 39.3456C42.0252 39.3456 42.1806 39.3456 42.3282 39.3844C42.7632 39.5009 43.0351 39.9127 42.9962 40.3477C42.9574 40.7905 42.5923 41.1556 42.1417 41.1945C42.0329 41.2022 41.932 41.2022 41.8232 41.2022C36.0746 41.2022 30.3337 41.2022 24.5851 41.2022C24.4608 41.1945 24.3443 41.1945 24.2666 41.1945ZM21.5865 39.3378C21.0816 39.3378 20.662 39.7573 20.662 40.2622C20.662 40.7672 21.0738 41.1945 21.5787 41.1945C22.0914 41.2022 22.5264 40.7672 22.5187 40.2545C22.5187 39.7495 22.0914 39.3301 21.5865 39.3378Z" fill="black"/>
<path d="M34.5676 26.2791C34.5443 27.0016 34.2335 27.5454 33.6198 27.9261C32.1205 28.8505 30.629 29.7827 29.1219 30.7071C28.9199 30.8314 28.6868 30.9168 28.4538 30.9635C27.3585 31.1966 26.2787 30.3731 26.2631 29.2544C26.232 27.289 26.2243 25.3158 26.2631 23.3504C26.2942 21.9288 27.8712 21.152 29.1296 21.9055C30.1085 22.4959 31.0718 23.1018 32.0429 23.7078C32.5944 24.0496 33.146 24.3836 33.6975 24.7332C34.2646 25.0983 34.5365 25.6266 34.5676 26.2791ZM28.112 29.1379C29.6579 28.1824 31.165 27.2502 32.6954 26.2946C31.1417 25.3314 29.6424 24.407 28.112 23.4592C28.112 25.3702 28.112 27.2269 28.112 29.1379Z" fill="black"/>
</svg>
