<svg width="60" height="60" viewBox="0 0 60 60" fill="none" xmlns="http://www.w3.org/2000/svg">
<rect width="60" height="60" rx="10" fill="#91DAF9"/>
<path fill-rule="evenodd" clip-rule="evenodd" d="M17.8837 40.8485C17.2134 40.8485 16.6699 40.3064 16.6699 39.6377V38.6668C16.6699 36.0617 18.3193 33.831 20.633 32.975C19.6798 32.1388 19.0928 30.903 19.0928 29.493C19.0928 26.8923 21.0897 24.8839 23.6986 24.8839C26.3075 24.8839 28.3044 26.8923 28.3044 29.493C28.3044 30.903 27.7175 32.1388 26.7643 32.975C29.078 33.831 30.7273 36.0617 30.7273 38.6668V39.6377C30.7273 40.3064 30.1839 40.8485 29.5136 40.8485H17.8837ZM25.2549 33.8473C25.0624 33.8239 24.8665 33.8119 24.6678 33.8119H22.7295C22.5308 33.8119 22.3349 33.8239 22.1424 33.8473C19.824 34.1291 18.0051 36.0577 17.8895 38.427C17.8857 38.5065 17.8837 38.5864 17.8837 38.6668V39.6377H29.5136V38.6668C29.5136 38.5864 29.5116 38.5065 29.5077 38.427C29.3922 36.0577 27.5733 34.1291 25.2549 33.8473ZM25.0859 32.6154C26.2888 32.104 27.0907 30.9293 27.0907 29.493C27.0907 27.5559 25.6321 26.0946 23.6986 26.0946C21.7652 26.0946 20.3066 27.5559 20.3066 29.493C20.3066 30.9293 21.1085 32.104 22.3113 32.6154C22.4459 32.6726 22.5854 32.7215 22.7295 32.7616C23.0343 32.8464 23.3592 32.8914 23.6986 32.8914C24.0381 32.8914 24.3629 32.8464 24.6678 32.7616C24.8118 32.7215 24.9514 32.6726 25.0859 32.6154Z" fill="black"/>
<path fill-rule="evenodd" clip-rule="evenodd" d="M18.9412 29.4929C18.9412 26.8089 21.0056 24.7324 23.6985 24.7324C26.3913 24.7324 28.4558 26.8089 28.4558 29.4929C28.4558 30.8555 27.9235 32.0636 27.0441 32.9222C29.2954 33.8581 30.8787 36.0825 30.8787 38.6667V39.6377C30.8787 40.3904 30.2671 40.9999 29.5134 40.9999H17.8836C17.1299 40.9999 16.5183 40.3904 16.5183 39.6377V38.6667C16.5183 36.0825 18.1017 33.8581 20.3529 32.9222C19.4735 32.0636 18.9412 30.8555 18.9412 29.4929ZM23.6985 25.0353C21.1736 25.0353 19.2441 26.9756 19.2441 29.4929C19.2441 30.8597 19.8126 32.054 20.7327 32.8611C20.7729 32.8963 20.7915 32.95 20.7818 33.0025C20.7721 33.055 20.7355 33.0985 20.6854 33.117C18.4293 33.9517 16.8213 36.127 16.8213 38.6667V39.6377C16.8213 40.2223 17.2965 40.6969 17.8836 40.6969H29.5134C30.1005 40.6969 30.5757 40.2223 30.5757 39.6377V38.6667C30.5757 36.127 28.9678 33.9517 26.7116 33.117C26.6615 33.0985 26.6249 33.055 26.6152 33.0025C26.6055 32.95 26.6242 32.8963 26.6643 32.8611C27.5844 32.054 28.1528 30.8597 28.1528 29.4929C28.1528 26.9756 26.2234 25.0353 23.6985 25.0353ZM20.155 29.4929C20.155 27.4725 21.6811 25.9431 23.6985 25.9431C25.7159 25.9431 27.242 27.4725 27.242 29.4929C27.242 30.9886 26.4051 32.2191 25.1451 32.7548C25.0044 32.8146 24.8586 32.8657 24.7082 32.9075C24.3899 32.996 24.0514 33.0428 23.6985 33.0428C23.3456 33.0428 23.0071 32.996 22.6888 32.9075C22.5384 32.8657 22.3925 32.8146 22.2519 32.7548C20.9919 32.2191 20.155 30.9886 20.155 29.4929ZM23.6985 26.246C21.849 26.246 20.4579 27.6392 20.4579 29.4929C20.4579 30.8699 21.2248 31.9889 22.3704 32.476C22.4989 32.5306 22.6322 32.5773 22.7699 32.6156C23.0613 32.6966 23.3725 32.7399 23.6985 32.7399C24.0245 32.7399 24.3357 32.6966 24.6271 32.6156C24.7648 32.5773 24.8981 32.5306 25.0266 32.476C26.1721 31.9889 26.939 30.8699 26.939 29.4929C26.939 27.6392 25.548 26.246 23.6985 26.246ZM22.124 33.6969C22.3225 33.6728 22.5245 33.6604 22.7293 33.6604H24.6677C24.8725 33.6604 25.0745 33.6728 25.273 33.6969C27.6643 33.9875 29.5397 35.9762 29.6589 38.4196C29.6629 38.5015 29.6649 38.5839 29.6649 38.6667V39.6377C29.6649 39.7213 29.5971 39.7892 29.5134 39.7892H17.8836C17.7999 39.7892 17.7321 39.7213 17.7321 39.6377V38.6667C17.7321 38.5839 17.7341 38.5015 17.7381 38.4196C17.8573 35.9762 19.7327 33.9875 22.124 33.6969ZM22.7293 33.9633C22.5368 33.9633 22.347 33.975 22.1605 33.9976C19.915 34.2706 18.1527 36.1391 18.0407 38.4344C18.037 38.5113 18.0351 38.5888 18.0351 38.6667V39.4862H29.3619V38.6667C29.3619 38.5888 29.36 38.5113 29.3563 38.4344C29.2443 36.1391 27.482 34.2706 25.2365 33.9976C25.05 33.975 24.8602 33.9633 24.6677 33.9633H22.7293Z" fill="black"/>
<path fill-rule="evenodd" clip-rule="evenodd" d="M32.2652 20.3652C31.786 20.3652 31.3266 20.5555 30.9878 20.8942C30.649 21.233 30.4586 21.6924 30.4586 22.1715V31.1638L32.6405 28.9821C32.7543 28.8683 32.9087 28.8043 33.0697 28.8043H40.3099C40.7891 28.8043 41.2486 28.614 41.5873 28.2752C41.9261 27.9365 42.1165 27.477 42.1165 26.9979V22.1715C42.1165 21.6924 41.9261 21.233 41.5873 20.8942C41.2486 20.5555 40.7891 20.3652 40.3099 20.3652H32.2652ZM30.1295 20.036C30.6959 19.4697 31.4641 19.1515 32.2652 19.1515H40.3099C41.111 19.1515 41.8792 19.4697 42.4456 20.036C43.012 20.6024 43.3302 21.3706 43.3302 22.1715V26.9979C43.3302 27.7989 43.012 28.5671 42.4456 29.1334C41.8792 29.6998 41.111 30.018 40.3099 30.018H33.321L30.2809 33.0579C30.1073 33.2314 29.8463 33.2833 29.6195 33.1894C29.3927 33.0954 29.2449 32.8742 29.2449 32.6288V22.1715C29.2449 21.3706 29.5631 20.6024 30.1295 20.036Z" fill="black"/>
<path fill-rule="evenodd" clip-rule="evenodd" d="M30.0225 19.9289C30.6173 19.3341 31.4241 19 32.2653 19H40.3101C41.1513 19 41.958 19.3341 42.5529 19.9289C43.1477 20.5237 43.4818 21.3304 43.4818 22.1715V26.9979C43.4818 27.839 43.1477 28.6457 42.5529 29.2405C41.958 29.8353 41.1513 30.1694 40.3101 30.1694H33.3839L30.3881 33.1649C30.1712 33.3818 29.845 33.4466 29.5617 33.3293C29.2783 33.2119 29.0935 32.9354 29.0935 32.6287V22.1715C29.0935 21.3304 29.4277 20.5237 30.0225 19.9289ZM32.2653 19.3029C31.5044 19.3029 30.7747 19.6051 30.2367 20.1431C29.6987 20.6811 29.3964 21.4107 29.3964 22.1715V32.6287C29.3964 32.8129 29.5074 32.9789 29.6776 33.0494C29.8478 33.1199 30.0436 33.081 30.1739 32.9507L33.214 29.9108C33.2424 29.8824 33.281 29.8665 33.3212 29.8665H40.3101C41.0709 29.8665 41.8006 29.5643 42.3386 29.0263C42.8766 28.4883 43.1789 27.7587 43.1789 26.9979V22.1715C43.1789 21.4107 42.8766 20.6811 42.3386 20.1431C41.8006 19.6051 41.0709 19.3029 40.3101 19.3029H32.2653ZM32.2653 20.5166C31.8263 20.5166 31.4054 20.691 31.095 21.0013C30.7846 21.3117 30.6102 21.7326 30.6102 22.1715V30.798L32.5335 28.8749C32.6757 28.7327 32.8686 28.6528 33.0698 28.6528H40.3101C40.749 28.6528 41.17 28.4784 41.4803 28.1681C41.7907 27.8578 41.9651 27.4368 41.9651 26.9979V22.1715C41.9651 21.7326 41.7907 21.3117 41.4803 21.0013C41.17 20.691 40.749 20.5166 40.3101 20.5166H32.2653ZM30.8808 20.7871C31.248 20.4199 31.746 20.2137 32.2653 20.2137H40.3101C40.8294 20.2137 41.3274 20.4199 41.6946 20.7871C42.0618 21.1543 42.2681 21.6522 42.2681 22.1715V26.9979C42.2681 27.5172 42.0618 28.0151 41.6946 28.3823C41.3274 28.7495 40.8294 28.9558 40.3101 28.9558H33.0698C32.949 28.9558 32.8331 29.0037 32.7478 29.0891L30.5659 31.2708C30.5225 31.3141 30.4574 31.3271 30.4008 31.3037C30.3442 31.2802 30.3073 31.225 30.3073 31.1637V22.1715C30.3073 21.6522 30.5136 21.1543 30.8808 20.7871Z" fill="black"/>
<path fill-rule="evenodd" clip-rule="evenodd" d="M32.4628 22.9759C32.4628 22.6408 32.7345 22.3691 33.0696 22.3691H39.5055C39.8406 22.3691 40.1123 22.6408 40.1123 22.9759C40.1123 23.3111 39.8406 23.5827 39.5055 23.5827H33.0696C32.7345 23.5827 32.4628 23.3111 32.4628 22.9759Z" fill="black"/>
<path fill-rule="evenodd" clip-rule="evenodd" d="M32.3114 22.9759C32.3114 22.5571 32.6509 22.2176 33.0698 22.2176H39.5056C39.9244 22.2176 40.264 22.5571 40.264 22.9759C40.264 23.3947 39.9244 23.7342 39.5056 23.7342H33.0698C32.6509 23.7342 32.3114 23.3947 32.3114 22.9759ZM33.0698 22.5205C32.8183 22.5205 32.6144 22.7244 32.6144 22.9759C32.6144 23.2273 32.8183 23.4312 33.0698 23.4312H39.5056C39.7571 23.4312 39.961 23.2273 39.961 22.9759C39.961 22.7244 39.7571 22.5205 39.5056 22.5205H33.0698Z" fill="black"/>
<path fill-rule="evenodd" clip-rule="evenodd" d="M32.4628 26.1935C32.4628 25.8584 32.7345 25.5867 33.0696 25.5867H37.8965C38.2317 25.5867 38.5034 25.8584 38.5034 26.1935C38.5034 26.5286 38.2317 26.8003 37.8965 26.8003H33.0696C32.7345 26.8003 32.4628 26.5286 32.4628 26.1935Z" fill="black"/>
<path fill-rule="evenodd" clip-rule="evenodd" d="M32.3114 26.1935C32.3114 25.7747 32.6509 25.4352 33.0698 25.4352H37.8966C38.3155 25.4352 38.655 25.7747 38.655 26.1935C38.655 26.6123 38.3155 26.9518 37.8966 26.9518H33.0698C32.6509 26.9518 32.3114 26.6123 32.3114 26.1935ZM33.0698 25.7382C32.8183 25.7382 32.6144 25.942 32.6144 26.1935C32.6144 26.445 32.8183 26.6489 33.0698 26.6489H37.8966C38.1481 26.6489 38.352 26.445 38.352 26.1935C38.352 25.942 38.1481 25.7382 37.8966 25.7382H33.0698Z" fill="black"/>
</svg>
