<svg width="60" height="60" viewBox="0 0 60 60" fill="none" xmlns="http://www.w3.org/2000/svg">
<rect width="60" height="60" rx="10" fill="#FEC800"/>
<path d="M32.4145 26.2817H29.3893C28.9079 26.2817 28.4462 26.473 28.1059 26.8134C27.7654 27.1538 27.5742 27.6155 27.5742 28.0968C27.5742 28.5782 27.7654 29.0399 28.1059 29.3803C28.4462 29.7207 28.9079 29.912 29.3893 29.912H30.5994C31.0808 29.912 31.5425 30.1032 31.8829 30.4436C32.2233 30.784 32.4145 31.2457 32.4145 31.7271C32.4145 32.2085 32.2233 32.6702 31.8829 33.0105C31.5425 33.351 31.0808 33.5422 30.5994 33.5422H27.5742" stroke="black" stroke-width="1.23582" stroke-linecap="round" stroke-linejoin="round"/>
<path d="M29.9929 33.5422V34.7523M29.9929 25.0717V26.2817" stroke="black" stroke-width="1.23582" stroke-linecap="round" stroke-linejoin="round"/>
<path d="M29.3751 39.1292L26.343 41.5537L29.2565 43.8708" stroke="black" stroke-width="1.4" stroke-linecap="round" stroke-linejoin="round"/>
<path d="M38.2859 21.7502C40.3593 23.8519 41.639 26.7384 41.639 29.9239C41.639 36.3518 36.4281 41.5627 30.0001 41.5627C28.2366 41.5627 26.3762 41.5627 26.3762 41.5627" stroke="black" stroke-width="1.4" stroke-linecap="round"/>
<path d="M30.6248 20.7417L33.6569 18.3171L30.7434 16" stroke="black" stroke-width="1.4" stroke-linecap="round" stroke-linejoin="round"/>
<path d="M21.7144 38.1206C19.6411 36.019 18.3613 33.1324 18.3613 29.947C18.3613 23.519 23.5722 18.3081 30.0002 18.3081C31.7637 18.3081 33.6241 18.3081 33.6241 18.3081" stroke="black" stroke-width="1.4" stroke-linecap="round"/>
</svg>
