<svg width="60" height="60" viewBox="0 0 60 60" fill="none" xmlns="http://www.w3.org/2000/svg">
<rect width="60" height="60" rx="10" fill="#91DAF9"/>
<path d="M41.139 30.6527V26.3333C41.139 25.4128 40.3928 24.6666 39.4723 24.6666H19.639C18.7185 24.6666 17.9723 25.4128 17.9723 26.3333V40.9166C17.9723 41.8371 18.7185 42.5833 19.639 42.5833H39.4723C40.3928 42.5833 41.139 41.8371 41.139 40.9166V36.625" stroke="black" stroke-width="1.4"/>
<path d="M21.8333 24.6528L24.6686 22.9913L33.2651 18.003C34.0613 17.541 35.0812 17.8119 35.5431 18.608L35.9479 19.3055M35.9479 19.3055L26.4305 24.6528M35.9479 19.3055L36.8863 20.9435M39.0555 24.6838L38.3523 23.4491L36.8863 20.9435M36.8863 20.9435L30.5278 24.6528" stroke="black" stroke-width="1.4"/>
<path d="M36.418 30.9167C37.1111 30.9167 39.7016 30.9167 41.196 30.9167C41.7943 30.9167 42.2778 31.4017 42.2778 32V35.4722C42.2778 36.0705 41.794 36.5556 41.1957 36.5556C39.7273 36.5556 37.1972 36.5556 36.418 36.5556C35.2977 36.5556 34.1667 35.5278 34.1667 33.625C34.1667 31.7222 35.427 30.9167 36.418 30.9167Z" stroke="black" stroke-width="1.4"/>
<path d="M37 34.8056C37.5829 34.8056 38.0555 34.333 38.0555 33.75C38.0555 33.167 37.5829 32.6945 37 32.6945C36.417 32.6945 35.9444 33.167 35.9444 33.75C35.9444 34.333 36.417 34.8056 37 34.8056Z" fill="black"/>
</svg>
