<svg width="60" height="60" viewBox="0 0 60 60" fill="none" xmlns="http://www.w3.org/2000/svg">
<rect width="60" height="60" rx="10" fill="#FF1ED3"/>
<path d="M33.4206 21.4935L34.057 21.2969L35.181 22.4109C35.4091 22.6369 35.7102 22.7743 36.0305 22.7982L37.3279 22.8954L39.7873 39.5108L33.1957 40.9349L20.3386 38.5294C20.8247 35.0365 22.1321 26.8186 22.4593 24.7696C24.2786 24.2314 31.0844 22.2158 33.4206 21.4935ZM33.4206 21.4935C33.4207 21.4934 33.4206 21.4935 33.4206 21.4935ZM39.9246 39.4812L39.9242 39.4813" stroke="white" stroke-width="1.5" stroke-miterlimit="4.97955"/>
<path d="M24.75 24C25.1 22.5 26.1 19.0496 28.5 18.6C31.0463 18.1231 30.9 20.5503 30.9 22.2001" stroke="white" stroke-width="1.5"/>
<path d="M27.6 22.9498C27.9 21.4496 28.65 19.7225 30.3 19.1995C31.2 18.9608 32.22 19.4095 33 21.4496" stroke="white" stroke-width="1.5"/>
<path d="M29.2031 26.4C30.3384 26.4 30.9 26.709 30.9 26.709L30.069 29.0549C29.5647 28.8207 29.0123 28.695 28.4511 28.6867C27.144 28.6867 27.0783 29.4648 27.0783 29.6625C27.0783 30.734 30.0176 31.1439 30.0176 33.6542C30.0176 35.6287 28.6995 36.9 26.9228 36.9C24.7903 36.9 23.7 35.6392 23.7 35.6392L24.2703 33.8456C25.1406 34.4052 26.9463 35.2114 27.2075 33.9601C27.2075 32.5629 24.7958 32.5005 24.7958 30.2035C24.7958 28.2705 26.2561 26.4 29.2031 26.4Z" fill="white"/>
<path d="M33.9 21.15L33.15 41.25" stroke="white" stroke-width="1.5"/>
</svg>
