<svg width="60" height="60" viewBox="0 0 60 60" fill="none" xmlns="http://www.w3.org/2000/svg">
<rect width="60" height="60" rx="9.375" fill="#FF1ED3"/>
<path fill-rule="evenodd" clip-rule="evenodd" d="M29.996 19.4864C27.8842 19.4864 26.1632 21.2056 26.1632 23.3154C26.1632 25.4251 27.884 27.144 29.996 27.144C32.1082 27.144 33.8292 25.425 33.8292 23.3154C33.8292 21.2057 32.108 19.4864 29.996 19.4864ZM31.5548 28.6299C33.8552 27.9557 35.5397 25.8284 35.5397 23.3154C35.5397 20.262 33.0527 17.7777 29.996 17.7777C26.9394 17.7777 24.4527 20.262 24.4527 23.3154C24.4527 25.8284 26.137 27.9557 28.4373 28.6299C28.9319 28.7749 29.4551 28.8527 29.996 28.8527C30.537 28.8527 31.0602 28.7749 31.5548 28.6299ZM31.7014 30.3594C31.1457 30.3031 30.5764 30.2736 29.996 30.2736C29.4156 30.2736 28.8464 30.3031 28.2907 30.3594C22.3606 30.9593 18.2462 34.5959 18.2462 37.7624C18.2462 41.682 24.0268 42.2222 29.996 42.2222C36.243 42.2222 41.7462 41.682 41.7462 37.7624C41.7462 34.5959 37.6318 30.9593 31.7014 30.3594ZM22.6691 34.1407C20.7144 35.4431 19.9567 36.8639 19.9567 37.7624C19.9567 38.2622 20.1167 38.5838 20.42 38.8692C20.778 39.2061 21.4005 39.5422 22.3802 39.8172C24.3538 40.3714 26.8665 40.5135 29.996 40.5135C33.1256 40.5135 35.6384 40.3714 37.612 39.8172C38.5919 39.5421 39.2143 39.2061 39.5724 38.8691C39.8757 38.5838 40.0357 38.2622 40.0357 37.7624C40.0357 36.8639 39.278 35.4431 37.3233 34.1407C35.4514 32.8935 33.054 31.9822 29.996 31.9822C26.9383 31.9822 24.541 32.8935 22.6691 34.1407Z" fill="white"/>
</svg>
