<svg width="60" height="60" viewBox="0 0 60 60" fill="none" xmlns="http://www.w3.org/2000/svg">
<rect width="60" height="60" rx="10" fill="#91DAF9"/>
<path fill-rule="evenodd" clip-rule="evenodd" d="M17.9927 24.1384C17.7136 24.1384 17.4955 24.3773 17.4955 24.6528V37.2572C17.4955 37.5327 17.7136 37.7716 17.9927 37.7716H22.4773V40.6898L26.8782 37.7716H36.3118C36.5909 37.7716 36.8091 37.5327 36.8091 37.2572V24.6561C36.8083 24.5189 36.7561 24.3874 36.6636 24.2904C36.5707 24.193 36.4447 24.1382 36.3133 24.1384L17.9927 24.1384ZM38.3045 24.6528V37.2572C38.3045 38.409 37.4108 39.3468 36.3118 39.3468H27.3098L21.9572 42.8959C21.5335 43.1769 20.9818 42.8561 20.9818 42.3287V39.3468H17.9927C16.8937 39.3468 16 38.409 16 37.2572V24.6528C16 23.501 16.8937 22.5632 17.9927 22.5632H36.3118C36.8391 22.5627 37.3451 22.7824 37.7187 23.1741C38.0923 23.5659 38.303 24.0977 38.3045 24.6528Z" fill="black"/>
<path fill-rule="evenodd" clip-rule="evenodd" d="M23.2227 19.0895C23.2227 18.8139 23.441 18.5751 23.7198 18.5751L42.009 18.5751C42.1403 18.575 42.2662 18.6297 42.359 18.7271C42.4515 18.8241 42.5037 18.9554 42.5045 19.0925V31.694C42.5045 31.9697 42.2863 32.2084 42.0075 32.2084H39.2591V33.7835H42.0075C43.1064 33.7835 44 32.8457 44 31.694V19.0895C43.9984 18.5344 43.7877 18.0026 43.4142 17.6109C43.0406 17.2191 42.5347 16.9994 42.0075 17H23.7198C22.6209 17 21.7273 17.9378 21.7273 19.0895V21.5578H23.2227V19.0895Z" fill="black"/>
<path d="M23.5609 31.53H21.1447V34.1589H19.8862V27.7259H23.8629V28.7995H21.1447V30.4608H23.5609V31.53Z" fill="black"/>
<path d="M27.2355 32.8334H25.029L24.6096 34.1589H23.2714L25.545 27.7259H26.7111L28.9973 34.1589H27.6592L27.2355 32.8334ZM25.3688 31.7598H26.8957L26.1281 29.3518L25.3688 31.7598Z" fill="black"/>
<path d="M34.4841 31.0882C34.4841 31.6891 34.3918 32.2119 34.2072 32.6567C34.0226 33.0985 33.7668 33.4534 33.4396 33.7215L34.4547 34.5609L33.6535 35.3076L32.3531 34.2075C32.2049 34.234 32.0511 34.2472 31.8917 34.2472C31.3855 34.2472 30.9339 34.1191 30.5368 33.8629C30.1397 33.6066 29.8321 33.2413 29.6139 32.7671C29.3958 32.2899 29.2853 31.7421 29.2825 31.1235V30.8054C29.2825 30.1721 29.3902 29.6154 29.6055 29.1353C29.8237 28.6522 30.1299 28.2826 30.5242 28.0263C30.9213 27.7671 31.3743 27.6375 31.8833 27.6375C32.3923 27.6375 32.8439 27.7671 33.2382 28.0263C33.6353 28.2826 33.9415 28.6522 34.1569 29.1353C34.375 29.6154 34.4841 30.1706 34.4841 30.801V31.0882ZM33.2089 30.7966C33.2089 30.122 33.0942 29.6095 32.8649 29.259C32.6356 28.9085 32.3084 28.7332 31.8833 28.7332C31.461 28.7332 31.1352 28.907 30.9059 29.2546C30.6766 29.5992 30.5605 30.1058 30.5577 30.7745V31.0882C30.5577 31.745 30.6724 32.2546 30.9017 32.6169C31.131 32.9792 31.461 33.1603 31.8917 33.1603C32.314 33.1603 32.6384 32.9866 32.8649 32.639C33.0914 32.2885 33.2061 31.7789 33.2089 31.1103V30.7966Z" fill="black"/>
</svg>
