<svg width="60" height="60" viewBox="0 0 60 60" fill="none" xmlns="http://www.w3.org/2000/svg">
<rect width="60" height="60" rx="10" fill="#91DAF9"/>
<path d="M18.2189 19.2898C17.1831 19.2898 16.3295 20.1436 16.3295 21.1798V38.8202C16.3295 39.8563 17.1831 40.7102 18.2189 40.7102H42.7811C43.8169 40.7102 44.6705 39.8563 44.6705 38.8202V21.1798C44.6705 20.1436 43.8169 19.2898 42.7811 19.2898H18.2189ZM18.2189 20.5498H42.7811C43.1408 20.5498 43.4109 20.8199 43.4109 21.1798V36.2411L37.8903 30.1969C37.7631 30.0616 37.5737 29.9873 37.3884 30C37.2293 30.0088 37.0746 30.0809 36.9653 30.1969L32.4583 34.981L25.934 27.6867C25.7947 27.528 25.5718 27.4473 25.3632 27.48C25.2244 27.5025 25.0939 27.573 24.9991 27.6768L17.5891 35.6406V21.1798C17.5891 20.8199 17.8592 20.5498 18.2189 20.5498ZM32.7043 23.6999C31.3204 23.6999 30.1851 24.8356 30.1851 26.2199C30.1851 27.6043 31.3204 28.74 32.7043 28.74C34.0881 28.74 35.2235 27.6043 35.2235 26.2199C35.2235 24.8356 34.0881 23.6999 32.7043 23.6999ZM32.7043 24.9599C33.4074 24.9599 33.9639 25.5166 33.9639 26.2199C33.9639 26.9233 33.4074 27.48 32.7043 27.48C32.0012 27.48 31.4447 26.9233 31.4447 26.2199C31.4447 25.5166 32.0012 24.9599 32.7043 24.9599ZM25.4518 29.0451L34.761 39.4502H18.2189C17.8592 39.4502 17.5891 39.1801 17.5891 38.8202V37.4912L25.4518 29.0451ZM37.4179 31.5553L43.4109 38.1114V38.8202C43.4109 39.1801 43.1408 39.4502 42.7811 39.4502H36.4536L33.3046 35.926L37.4179 31.5553Z" fill="black"/>
<path fill-rule="evenodd" clip-rule="evenodd" d="M16 21.169C16 19.9568 16.996 18.9602 18.2074 18.9602H42.7926C44.004 18.9602 45 19.9568 45 21.169V38.831C45 40.0431 44.004 41.0398 42.7926 41.0398H18.2074C16.996 41.0398 16 40.0431 16 38.831V21.169ZM18.2074 19.5931C17.3453 19.5931 16.6325 20.3063 16.6325 21.169V38.831C16.6325 39.6936 17.3453 40.4069 18.2074 40.4069H42.7926C43.6547 40.4069 44.3675 39.6936 44.3675 38.831V21.169C44.3675 20.3063 43.6547 19.5931 42.7926 19.5931H18.2074ZM18.2074 20.8547C18.022 20.8547 17.8933 20.9834 17.8933 21.169V34.843L24.7605 27.4605C24.7609 27.4601 24.7612 27.4597 24.7616 27.4594C24.9045 27.3034 25.0991 27.1984 25.3077 27.1645L25.3086 27.1644L25.3094 27.1642C25.6247 27.1148 25.9553 27.2343 26.1662 27.4738C26.1666 27.4742 26.1669 27.4746 26.1673 27.475L32.4662 34.5193L36.7412 29.9801L36.7412 29.98C36.9057 29.8055 37.1358 29.6979 37.3754 29.6841C37.6547 29.6657 37.9358 29.7763 38.1276 29.9803L38.1291 29.982L43.1067 35.4332V21.169C43.1067 20.9834 42.978 20.8547 42.7926 20.8547H18.2074ZM17.2608 21.169C17.2608 20.6339 17.6726 20.2218 18.2074 20.2218H42.7926C43.3274 20.2218 43.7392 20.6339 43.7392 21.169V37.0642L37.6656 30.4126C37.6031 30.347 37.5068 30.3095 37.4165 30.3157L37.4144 30.3158L37.4124 30.316C37.3342 30.3203 37.2554 30.3569 37.2015 30.4141C37.2015 30.4142 37.2015 30.4142 37.2014 30.4142L32.4541 35.4549L25.693 27.8938L25.6921 27.8927C25.6243 27.8154 25.5098 27.7738 25.4082 27.7894C25.3399 27.8007 25.274 27.8364 25.2274 27.8875L25.2264 27.8885L17.2608 36.4519V21.169ZM29.8686 26.2153C29.8686 24.6545 31.1466 23.3757 32.7064 23.3757C34.2662 23.3757 35.5442 24.6545 35.5442 26.2153C35.5442 27.7761 34.2662 29.0549 32.7064 29.0549C31.1466 29.0549 29.8686 27.7761 29.8686 26.2153ZM32.7064 24.0086C31.4959 24.0086 30.5011 25.0041 30.5011 26.2153C30.5011 27.4266 31.4959 28.422 32.7064 28.422C33.9169 28.422 34.9117 27.4266 34.9117 26.2153C34.9117 25.0041 33.9169 24.0086 32.7064 24.0086ZM32.7064 25.2702C32.1772 25.2702 31.7618 25.6859 31.7618 26.2153C31.7618 26.7448 32.1772 27.1604 32.7064 27.1604C33.2355 27.1604 33.6509 26.7448 33.6509 26.2153C33.6509 25.6859 33.2355 25.2702 32.7064 25.2702ZM31.1293 26.2153C31.1293 25.3363 31.8279 24.6373 32.7064 24.6373C33.5848 24.6373 34.2834 25.3363 34.2834 26.2153C34.2834 27.0943 33.5848 27.7933 32.7064 27.7933C31.8279 27.7933 31.1293 27.0943 31.1293 26.2153ZM25.4517 28.5747L35.4724 39.7782H18.2074C17.6726 39.7782 17.2608 39.3661 17.2608 38.831V37.3759L25.4517 28.5747ZM17.8933 37.6249V38.831C17.8933 39.0165 18.022 39.1453 18.2074 39.1453H34.0575L25.4424 29.5133L17.8933 37.6249ZM37.4278 31.092L43.7392 37.9985V38.831C43.7392 39.3661 43.3274 39.7782 42.7926 39.7782H36.3177L32.8781 35.9277L37.4278 31.092ZM33.7363 35.9388L36.6006 39.1453H42.7926C42.978 39.1453 43.1067 39.0165 43.1067 38.831V38.2442L37.4211 32.0225L33.7363 35.9388Z" fill="black"/>
</svg>
