<svg width="60" height="60" viewBox="0 0 60 60" fill="none" xmlns="http://www.w3.org/2000/svg">
<rect width="60" height="60" rx="10" fill="#F27AFF"/>
<path d="M16 23.195C16 21.9827 16.9827 21 18.195 21H40.8764C42.0887 21 43.0714 21.9827 43.0714 23.195V35.4745C43.0714 36.6867 42.0887 37.6694 40.8764 37.6694H26.428C26.2919 37.6694 26.1671 37.7449 26.1039 37.8655L24.0159 41.8501C23.8771 42.115 23.4965 42.1105 23.3639 41.8425L21.4007 37.8731C21.339 37.7484 21.2119 37.6694 21.0728 37.6694H18.195C16.9827 37.6694 16 36.6867 16 35.4745V23.195Z" stroke="white" stroke-width="1.82915"/>
<circle cx="24.5" cy="29.5" r="1.5" fill="white"/>
<circle cx="29.5" cy="29.5" r="1.5" fill="white"/>
<circle cx="34.5" cy="29.5" r="1.5" fill="white"/>
</svg>
