<svg width="60" height="60" viewBox="0 0 60 60" fill="none" xmlns="http://www.w3.org/2000/svg">
<rect width="60" height="60" rx="10" fill="#91DAF9"/>
<rect width="30" height="30" transform="translate(15 15)" fill="#91DAF9"/>
<path d="M20.7589 18.8125H38.9732C39.0127 18.8125 39.0446 18.8445 39.0446 18.8839V40.3125C39.0446 40.3519 39.0127 40.3839 38.9732 40.3839H20.7589C20.7195 40.3839 20.6875 40.3519 20.6875 40.3125V18.8839C20.6875 18.8445 20.7195 18.8125 20.7589 18.8125Z" stroke="black" stroke-width="2"/>
<path d="M23.9733 23.0982H35.759C35.7984 23.0982 35.8304 23.1302 35.8304 23.1696V25.3125C35.8304 25.3519 35.7984 25.3839 35.759 25.3839H23.9733C23.9338 25.3839 23.9019 25.3519 23.9019 25.3125V23.1696C23.9019 23.1302 23.9338 23.0982 23.9733 23.0982Z" stroke="black" stroke-width="2"/>
<path d="M23.9733 28.4553H35.759C35.7984 28.4553 35.8304 28.4873 35.8304 28.5267V30.6696C35.8304 30.709 35.7984 30.741 35.759 30.741H23.9733C23.9338 30.741 23.9019 30.709 23.9019 30.6696V28.5267C23.9019 28.4873 23.9338 28.4553 23.9733 28.4553Z" stroke="black" stroke-width="2"/>
<path d="M23.9733 33.8125H35.759C35.7984 33.8125 35.8304 33.8445 35.8304 33.8839V36.0268C35.8304 36.0662 35.7984 36.0982 35.759 36.0982H23.9733C23.9338 36.0982 23.9019 36.0662 23.9019 36.0268V33.8839C23.9019 33.8445 23.9338 33.8125 23.9733 33.8125Z" stroke="black" stroke-width="2"/>
</svg>
