<svg width="60" height="60" viewBox="0 0 60 60" fill="none" xmlns="http://www.w3.org/2000/svg">
<rect width="60" height="60" rx="10" fill="#D1E751"/>
<path d="M20.85 20.7C20.85 19.623 21.723 18.75 22.8 18.75H37.2C38.2769 18.75 39.15 19.623 39.15 20.7V39.3C39.15 40.377 38.2769 41.25 37.2 41.25H22.8C21.723 41.25 20.85 40.377 20.85 39.3V20.7Z" stroke="black" stroke-width="1.5"/>
<path d="M20.1 36C20.1 35.3372 20.6372 34.8 21.3 34.8H38.7C39.3627 34.8 39.9 35.3372 39.9 36V39.3C39.9 40.7912 38.6911 42 37.2 42H22.8C21.3088 42 20.1 40.7912 20.1 39.3V36Z" fill="black"/>
</svg>
