<svg width="60" height="60" viewBox="0 0 60 60" fill="none" xmlns="http://www.w3.org/2000/svg">
<rect width="60" height="60" rx="10" fill="#FEC800"/>
<g clip-path="url(#clip0_511_6776)">
<path fill-rule="evenodd" clip-rule="evenodd" d="M27.3456 17.4511C28.8623 17.1026 30.4327 17.0562 31.9672 17.3146C33.5018 17.5729 34.9704 18.1311 36.2893 18.957C37.6082 19.783 38.7515 20.8607 39.6538 22.1285C40.5562 23.3963 41.2001 24.8294 41.5486 26.346C41.8971 27.8627 41.9435 29.4331 41.6851 30.9677C41.4267 32.5022 40.8686 33.9709 40.0427 35.2897C39.2167 36.6086 38.139 37.7519 36.8712 38.6543C35.6034 39.5567 34.1703 40.2005 32.6536 40.549C32.25 40.6418 31.8475 40.3897 31.7547 39.9861C31.662 39.5824 31.914 39.1799 32.3177 39.0871C33.6423 38.7827 34.8941 38.2204 36.0014 37.4322C37.1087 36.6441 38.05 35.6455 38.7714 34.4936C39.4928 33.3417 39.9803 32.0589 40.206 30.7186C40.4316 29.3783 40.3911 28.0066 40.0867 26.682C39.7823 25.3573 39.22 24.1056 38.4318 22.9983C37.6436 21.891 36.6451 20.9497 35.4932 20.2283C34.3412 19.5069 33.0585 19.0194 31.7182 18.7937C30.3779 18.568 29.0062 18.6086 27.6816 18.913C27.2779 19.0058 26.8754 18.7537 26.7826 18.35C26.6899 17.9463 26.9419 17.5439 27.3456 17.4511Z" fill="black"/>
<path fill-rule="evenodd" clip-rule="evenodd" d="M29.4624 40.1118C29.4146 40.5233 29.0422 40.818 28.6308 40.7701C27.2472 40.6092 25.892 40.2044 24.6306 39.5632C24.2614 39.3756 24.1142 38.9241 24.3018 38.5548C24.4895 38.1856 24.941 38.0384 25.3103 38.2261C26.412 38.786 27.5956 39.1396 28.8041 39.2802C29.2156 39.328 29.5103 39.7004 29.4624 40.1118ZM22.3578 37.0847C22.0536 37.3658 21.5791 37.3472 21.298 37.043C20.3525 36.0201 19.5873 34.8305 19.0472 33.5227C18.8891 33.1399 19.0713 32.7013 19.4541 32.5432C19.837 32.3851 20.2755 32.5673 20.4336 32.9502C20.9053 34.0924 21.5736 35.1314 22.3995 36.0248C22.6806 36.329 22.662 36.8035 22.3578 37.0847ZM18.9355 30.1617C18.5216 30.1771 18.1735 29.854 18.1581 29.4401C18.1064 28.0481 18.2999 26.647 18.7413 25.3027C18.8706 24.9092 19.2943 24.6949 19.6879 24.8241C20.0814 24.9533 20.2957 25.3771 20.1665 25.7707C19.7809 26.9448 19.6119 28.1685 19.6571 29.3843C19.6725 29.7983 19.3494 30.1463 18.9355 30.1617ZM20.8446 22.6787C20.5204 22.421 20.4665 21.9491 20.7243 21.6249C21.5911 20.5346 22.6502 19.5971 23.8604 18.864C24.2147 18.6494 24.6759 18.7626 24.8905 19.1169C25.1051 19.4712 24.9919 19.9323 24.6376 20.147C23.5806 20.7872 22.6556 21.6061 21.8984 22.5584C21.6406 22.8826 21.1688 22.9365 20.8446 22.6787Z" fill="black"/>
<path d="M30.0001 24.1998V33.7998" stroke="black" stroke-width="1.5" stroke-linecap="round"/>
<path d="M34.8002 29L25.2002 29" stroke="black" stroke-width="1.5" stroke-linecap="round"/>
</g>
<defs>
<clipPath id="clip0_511_6776">
<rect width="30" height="30" fill="white" transform="translate(15 14)"/>
</clipPath>
</defs>
</svg>
