<svg width="60" height="60" viewBox="0 0 60 60" fill="none" xmlns="http://www.w3.org/2000/svg">
<rect width="60" height="60" rx="10" fill="#FF1ED3"/>
<path fill-rule="evenodd" clip-rule="evenodd" d="M26.8629 18.7054C26.8629 18.1383 27.3226 17.6786 27.8897 17.6786H33.6529C34.22 17.6786 34.6797 18.1383 34.6797 18.7054C34.6797 19.2725 34.22 19.7322 33.6529 19.7322H27.8897C27.3226 19.7322 26.8629 19.2725 26.8629 18.7054ZM30.187 24.7331C30.754 24.7331 31.2137 25.1928 31.2137 25.7599V31.5647C31.2137 32.1318 30.754 32.5915 30.187 32.5915C29.6199 32.5915 29.1602 32.1318 29.1602 31.5647V25.7599C29.1602 25.1928 29.6199 24.7331 30.187 24.7331ZM37.9989 19.929C37.8058 19.736 37.5439 19.6278 37.271 19.6283C36.998 19.6288 36.7365 19.738 36.5442 19.9317L35.0443 21.4425C33.566 20.6944 31.8963 20.2733 30.1309 20.2733C24.0742 20.2733 19.1785 25.2155 19.1785 31.2974C19.1785 37.3793 24.0742 42.3214 30.1309 42.3214C36.1863 42.3214 41.0833 37.3794 41.0833 31.2974C41.0833 28.8423 40.285 26.5725 38.9356 24.7396L40.1448 23.5216C40.5433 23.1202 40.5422 22.472 40.1422 22.072L37.9989 19.929ZM37.5669 23.2034C37.3278 22.9808 37.0788 22.7687 36.8206 22.568L37.2755 22.1098L37.9666 22.8008L37.5669 23.2034ZM21.2321 31.2974C21.2321 26.3356 25.2223 22.3269 30.1309 22.3269C31.8012 22.3269 33.3616 22.7898 34.6958 23.5953C35.4795 24.0684 36.1856 24.6601 36.7894 25.346C38.1834 26.9295 39.0297 29.012 39.0297 31.2974C39.0297 36.259 35.0383 40.2679 30.1309 40.2679C25.2223 40.2679 21.2321 36.2591 21.2321 31.2974Z" fill="white"/>
</svg>
