<svg width="60" height="60" viewBox="0 0 60 60" fill="none" xmlns="http://www.w3.org/2000/svg">
<rect width="60" height="60" rx="10" fill="#91DAF9"/>
<path d="M36.5285 19.5231C36.2741 20.1298 35.7388 20.4239 35.4009 20.5811C34.9988 20.7704 34.5247 20.8013 34.0755 20.6342C33.6288 20.468 33.2871 20.1336 33.1015 19.7257C32.9442 19.3843 32.771 18.7821 32.8932 18.2826M28.1775 26.087L29.8821 21.3836L28.1138 21.1235C28.0095 21.1071 27.9348 21.0093 27.9511 20.9034L28.2917 18.428C28.302 18.331 28.3821 18.2543 28.4796 18.2514L32.8217 18.1385C32.848 18.1343 32.8765 18.1392 32.9032 18.1492C32.9153 18.1537 32.929 18.1616 32.9403 18.1686C33.4942 18.4951 34.0654 18.7664 34.6515 18.9816C35.2415 19.2011 35.8503 19.3688 36.4803 19.4855C36.5145 19.4898 36.5501 19.5059 36.582 19.5317L39.8257 22.4722C39.8933 22.5366 39.9105 22.641 39.8589 22.7227L38.5347 24.8406C38.4795 24.9321 38.3624 24.9586 38.2725 24.9027L36.7558 23.9407L36.0323 25.937" stroke="black" stroke-width="1.2"/>
<path d="M22.1892 22.1543L22.0619 21.7227C21.8417 21.7876 21.7056 22.008 21.7463 22.234L22.1892 22.1543ZM27.1139 25.1578L27.4809 24.8973C27.3706 24.7419 27.1742 24.6728 26.9909 24.7249C26.8075 24.7771 26.6769 24.9391 26.6648 25.1294L27.1139 25.1578ZM27.2998 26.1973C27.4437 26.4 27.7245 26.4477 27.9272 26.3039C28.1299 26.16 28.1776 25.8791 28.0338 25.6764L27.2998 26.1973ZM27.9119 19.998L22.0619 21.7227L22.3164 22.586L28.1664 20.8613L27.9119 19.998ZM21.7463 22.234L22.4963 26.4035L23.3821 26.2441L22.6321 22.0747L21.7463 22.234ZM27.4894 26.3521L27.5631 25.1861L26.6648 25.1294L26.5912 26.2955L27.4894 26.3521ZM26.7469 25.4182L27.2998 26.1973L28.0338 25.6764L27.4809 24.8973L26.7469 25.4182Z" fill="black"/>
<path d="M26.089 21.137L26.389 22.637" stroke="black" stroke-width="1.2" stroke-linecap="round" stroke-linejoin="round"/>
<path d="M24.1393 21.5869C24.1393 21.5869 24.5124 23.191 24.1442 23.9447C23.776 24.6983 22.7893 25.3369 22.7893 25.3369" stroke="black" stroke-width="1.2" stroke-linecap="round" stroke-linejoin="round"/>
<path d="M39.589 25.9369H20.389V39.1869C20.389 40.6505 21.5747 41.8369 23.0373 41.8369H36.9408C38.4034 41.8369 39.589 40.6505 39.589 39.1869V25.9369Z" stroke="black" stroke-width="1.2" stroke-linecap="round" stroke-linejoin="round"/>
<path d="M34.1891 30.137C34.1891 31.2509 33.7466 32.3192 32.9589 33.1068C32.1713 33.8945 31.103 34.337 29.9891 34.337C28.8752 34.337 27.8069 33.8945 27.0192 33.1068C26.2316 32.3192 25.7891 31.2509 25.7891 30.137" stroke="black" stroke-width="1.2" stroke-linecap="round" stroke-linejoin="round"/>
</svg>
