<svg width="60" height="60" viewBox="0 0 60 60" fill="none" xmlns="http://www.w3.org/2000/svg">
<rect width="60" height="60" rx="10" fill="#FEC800"/>
<g clip-path="url(#clip0_511_7003)">
<mask id="mask0_511_7003" style="mask-type:luminance" maskUnits="userSpaceOnUse" x="13" y="13" width="34" height="34">
<path d="M47 13H13V47H47V13Z" fill="white"/>
</mask>
<g mask="url(#mask0_511_7003)">
<path d="M43.4891 29.4396L41.0911 27.0443L41.9867 23.7256C42.0445 23.5236 42.0156 23.3216 41.9001 23.1196C41.7845 22.9465 41.6111 22.8022 41.4378 22.7444L38.1153 21.9075L37.2196 18.5888C37.1041 18.1848 36.6707 17.9251 36.2662 18.0405L32.9726 18.9352L30.5746 16.511C30.2568 16.1936 29.7656 16.1936 29.4767 16.511L27.0787 18.9063L23.7273 18.0405C23.3228 17.9251 22.8895 18.156 22.7739 18.5888L21.9071 21.8787L18.5846 22.7733C18.1801 22.8888 17.9201 23.3216 18.0357 23.7256L18.9313 27.0155L16.5045 29.4107C16.36 29.555 16.2733 29.757 16.2733 29.9591C16.2733 30.1611 16.36 30.3631 16.5045 30.5074L18.9024 32.9026L18.0357 36.2502C17.9779 36.4522 18.0068 36.6542 18.1224 36.8562C18.2379 37.0294 18.4113 37.1737 18.5846 37.2314L21.8782 38.0683L22.7739 41.387C22.8895 41.791 23.3228 42.0507 23.7273 41.9353L27.0209 41.0407L29.4478 43.4648C29.5923 43.6091 29.7945 43.6957 29.9968 43.6957C30.199 43.6957 30.4012 43.6091 30.5457 43.4648L32.9437 41.0695L36.2662 41.9641C36.4685 42.0219 36.6707 41.993 36.8729 41.8776C37.0463 41.7622 37.1907 41.589 37.2485 41.4158L38.0864 38.0971L41.4089 37.2025C41.6111 37.1448 41.7845 37.0294 41.8712 36.8274C41.9867 36.6542 42.0156 36.4233 41.9578 36.2213L41.0622 32.9315L43.4891 30.5074C43.8069 30.2477 43.8069 29.757 43.4891 29.4396ZM39.6465 32.1811C39.4443 32.3832 39.3576 32.6718 39.4443 32.9315L40.2532 35.9039L37.2774 36.7119C37.0174 36.7985 36.7863 37.0005 36.7285 37.2602L35.9195 40.2327L32.9437 39.4246C32.6837 39.3381 32.3948 39.4246 32.1925 39.6266L29.9679 41.8199L27.7721 39.6266C27.6276 39.4823 27.4254 39.3958 27.2232 39.3958C27.1654 39.3958 27.0787 39.3958 27.0209 39.4246L24.0451 40.2327L23.2362 37.2602C23.1495 37.0005 22.9472 36.7696 22.6872 36.7119L19.7114 35.9039L20.5204 32.9315C20.5782 32.6718 20.5204 32.3832 20.3181 32.1811L18.1512 29.9591L20.347 27.7658C20.5493 27.5638 20.6359 27.2752 20.5493 27.0155L19.7403 24.0431L22.7161 23.2351C22.9761 23.1485 23.2073 22.9465 23.265 22.6867L24.074 19.7143L27.0498 20.5224C27.3098 20.6089 27.5988 20.5224 27.801 20.3203L30.0257 18.156L32.2214 20.3492C32.4236 20.5512 32.7126 20.6378 32.9726 20.5512L35.9484 19.7432L36.7574 22.7156C36.844 22.9753 37.0463 23.2062 37.3063 23.2639L40.2821 24.0719L39.4732 27.0443C39.3865 27.3041 39.4732 27.5927 39.6754 27.7947L41.8423 29.9591L39.6465 32.1811Z" fill="black"/>
<path fill-rule="evenodd" clip-rule="evenodd" d="M29.3862 16.4248C29.7271 16.0528 30.2991 16.0599 30.6625 16.4228L30.6627 16.423L33.0098 18.7957L36.2316 17.9206C36.2319 17.9205 36.2322 17.9204 36.2325 17.9203C36.7076 17.7853 37.2062 18.0893 37.3393 18.5545L37.3395 18.5554L38.2164 21.8044L41.4725 22.6246L41.4769 22.6261C41.6819 22.6943 41.876 22.8593 42.0035 23.0504L42.0059 23.0539L42.0081 23.0577C42.1382 23.2851 42.1744 23.5213 42.1066 23.759C42.1065 23.7593 42.1065 23.7596 42.1064 23.7599L41.2301 27.0071L43.5769 29.3513C43.9365 29.7105 43.9519 30.2848 43.5728 30.5998L41.2013 32.9686L42.0775 36.187C42.0776 36.1873 42.0777 36.1876 42.0777 36.1879C42.1433 36.4181 42.1131 36.6823 41.9809 36.887C41.8737 37.127 41.6658 37.2589 41.4428 37.3225L41.4419 37.3227L38.1891 38.1986L37.368 41.4509L37.3666 41.4553C37.2982 41.6601 37.1331 41.854 36.9418 41.9814L36.9382 41.9838L36.9345 41.9859C36.7068 42.1159 36.4705 42.152 36.2326 42.0844C36.2323 42.0843 36.232 42.0842 36.2316 42.0841L32.9806 41.2087L30.6336 43.553C30.4667 43.7198 30.2331 43.8204 29.9964 43.8204C29.7598 43.8204 29.5262 43.7198 29.3593 43.553L26.9836 41.18L23.7612 42.0552C23.761 42.0553 23.7608 42.0554 23.7606 42.0555C23.2854 42.1906 22.7867 41.8866 22.6536 41.4213L22.6533 41.4204L21.7765 38.1712L18.5492 37.3512L18.5449 37.3497C18.3399 37.2815 18.1458 37.1166 18.0182 36.9255L18.0158 36.9219L18.0137 36.9182C17.8837 36.6909 17.8475 36.4549 17.9149 36.2174L18.7634 32.9404L16.4159 30.5956C16.249 30.4289 16.1482 30.1955 16.1482 29.9591C16.1482 29.7226 16.249 29.4892 16.4159 29.3225L16.4162 29.3222L18.7914 26.9779L17.9154 23.7599C17.9153 23.7597 17.9152 23.7594 17.9152 23.7592C17.7798 23.2843 18.0844 22.7862 18.55 22.6533L18.551 22.6531L21.8046 21.777L22.6529 18.5571L22.653 18.5567C22.7866 18.0561 23.2895 17.7868 23.7597 17.9201L27.0406 18.7677L29.3862 16.4248ZM30.4858 16.5991C30.2143 16.3281 29.8058 16.3345 29.5687 16.595L29.5667 16.5972L27.1162 19.0449L23.6942 18.1609L23.6927 18.1605C23.3545 18.064 22.9916 18.2563 22.8942 18.6207C22.8942 18.6208 22.8942 18.6209 22.8941 18.621L22.0091 21.9804L18.6177 22.8935C18.2751 22.9918 18.0602 23.3586 18.1554 23.6913L18.1556 23.6921L19.0706 27.0531L16.5923 29.499C16.5922 29.4991 16.5921 29.4992 16.5921 29.4992C16.4702 29.6211 16.3978 29.7916 16.3978 29.9591C16.3978 30.1266 16.4703 30.2972 16.5923 30.4191L19.0408 32.8648L18.1558 36.283L18.1554 36.2845C18.1082 36.4493 18.1292 36.6156 18.2282 36.7905C18.3308 36.9426 18.4802 37.0638 18.6197 37.1117L21.9794 37.9653L22.8935 41.3527C22.8936 41.353 22.8937 41.3532 22.8938 41.3535C22.9921 41.6955 23.3594 41.9105 23.6927 41.8153L23.6935 41.8151L27.0577 40.9014L29.5357 43.3765C29.6577 43.4984 29.8286 43.5709 29.9964 43.5709C30.1643 43.5709 30.3352 43.4984 30.4572 43.3765L32.9062 40.9303L36.2983 41.8437L36.2992 41.8439L36.3002 41.8442C36.4653 41.8913 36.6318 41.8703 36.807 41.7714C36.9592 41.669 37.0805 41.5198 37.1284 41.3805L37.983 37.9957L41.3743 37.0826C41.3746 37.0825 41.3748 37.0824 41.3751 37.0823C41.553 37.0314 41.6887 36.9353 41.7561 36.7782L41.7606 36.7677L41.767 36.7581C41.8605 36.6181 41.8861 36.4256 41.8375 36.2556L41.8373 36.2549L40.9225 32.8944L43.405 30.4147L43.4098 30.4108C43.661 30.2054 43.675 29.802 43.4006 29.5279L40.9514 27.0816L41.8661 23.6922L41.8664 23.6913C41.9136 23.5265 41.8925 23.3602 41.7935 23.1853C41.691 23.0333 41.5416 22.9121 41.4022 22.8642L38.0135 22.0107L37.0993 18.6231C37.0992 18.6229 37.0992 18.6226 37.0991 18.6223C37.0007 18.2803 36.6335 18.0654 36.3002 18.1605L36.2994 18.1607L32.9347 19.0746L30.4861 16.5993C30.486 16.5992 30.4859 16.5991 30.4858 16.5991ZM30.0265 17.9808L32.3093 20.2609C32.4837 20.4351 32.7246 20.5022 32.9328 20.4329L32.9362 20.4317L36.0357 19.5901L36.8765 22.6793C36.9543 22.9095 37.129 23.0968 37.333 23.1421L37.3359 23.1427L40.435 23.9843L39.5923 27.0805L39.5912 27.0839C39.5219 27.2917 39.5889 27.5322 39.7633 27.7064L42.0179 29.9585L39.7347 32.2691L39.7344 32.2694C39.56 32.4436 39.493 32.6842 39.5623 32.892L39.5634 32.8953L40.4061 35.9916L37.3133 36.8314C37.0828 36.9092 36.8953 37.0837 36.85 37.2873L36.8493 37.2902L36.0068 40.3857L32.9073 39.5441L32.9039 39.543C32.6957 39.4737 32.4548 39.5407 32.2804 39.7149L32.2798 39.7155L29.967 41.9957L27.6836 39.7149C27.5616 39.593 27.3907 39.5205 27.2228 39.5205C27.1933 39.5205 27.1632 39.5206 27.1341 39.5235C27.1038 39.5265 27.0853 39.5318 27.0764 39.5362L27.0653 39.5418L23.9571 40.3857L23.1164 37.2965C23.0385 37.0663 22.8639 36.879 22.6599 36.8337L22.657 36.8331L19.5579 35.9916L20.3988 32.9016C20.4479 32.677 20.396 32.4356 20.2296 32.2694L20.229 32.2688L17.9755 29.9579L20.2585 27.6776C20.4329 27.5034 20.4999 27.2628 20.4306 27.055L20.4294 27.0516L19.5868 23.9554L22.6796 23.1156C22.9101 23.0378 23.0976 22.8633 23.1429 22.6596L23.1435 22.6568L23.986 19.5612L27.0856 20.4029L27.0889 20.404C27.2971 20.4733 27.5381 20.4063 27.7125 20.2321L27.7131 20.2315L30.0265 17.9808ZM30.0242 18.3312L27.8889 20.4086C27.8887 20.4088 27.8885 20.409 27.8883 20.4092C27.6591 20.6378 27.3242 20.7437 27.0136 20.6419L24.1613 19.8674L23.3859 22.7168C23.3148 23.0301 23.0423 23.2578 22.7552 23.3534L22.7519 23.3545L19.8932 24.1308L20.6685 26.9795C20.7705 27.2902 20.6641 27.6251 20.4349 27.8541L18.3263 29.9602L20.406 32.0929C20.4062 32.0931 20.4064 32.0933 20.4066 32.0935C20.6435 32.3306 20.7072 32.6648 20.6419 32.9585L20.6412 32.9614L19.8643 35.8162L22.7169 36.5908C23.0305 36.6618 23.2585 36.9339 23.3542 37.2208L23.3553 37.2241L24.1325 40.0796L26.9776 39.307C27.0229 39.2871 27.0711 39.2791 27.1093 39.2752C27.1517 39.271 27.193 39.271 27.2211 39.271H27.2228C27.4595 39.271 27.6931 39.3717 27.86 39.5384L29.9681 41.6441L32.104 39.5384C32.1041 39.5382 32.1043 39.5381 32.1044 39.538C32.3336 39.3093 32.6686 39.2033 32.9793 39.3051L35.8315 40.0796L36.607 37.2301C36.6781 36.9168 36.9506 36.6891 37.2376 36.5936L37.241 36.5925L40.0997 35.8162L39.3244 32.9675C39.2224 32.657 39.3286 32.3222 39.5577 32.0932C39.5578 32.0931 39.5579 32.093 39.558 32.0929L41.666 29.9596L39.5869 27.8829C39.3576 27.654 39.2513 27.319 39.3533 27.0084L40.1286 24.1596L37.276 23.385C36.9624 23.314 36.7344 23.0419 36.6387 22.7551L36.6375 22.7518L35.8604 19.8963L33.0082 20.6707C32.6973 20.7726 32.3621 20.6664 32.1329 20.4375L30.0242 18.3312Z" fill="black"/>
<path d="M26.9642 29.3508C28.2762 29.3508 29.3257 28.3022 29.3257 26.9914C29.3257 25.6806 28.2762 24.632 26.9642 24.632C25.6523 24.632 24.6028 25.6806 24.6028 26.9914C24.6028 28.3022 25.6815 29.3508 26.9642 29.3508ZM26.9642 26.1758C27.4016 26.1758 27.7514 26.5253 27.7514 26.9622C27.7514 27.3992 27.4016 27.7488 26.9642 27.7488C26.5269 27.7488 26.1771 27.3992 26.1771 26.9622C26.1771 26.5253 26.5269 26.1758 26.9642 26.1758Z" fill="black"/>
<path d="M33.0283 30.6326C31.7164 30.6326 30.6669 31.6812 30.6669 32.992C30.6669 34.3028 31.7164 35.3515 33.0283 35.3515C34.3403 35.3515 35.3898 34.3028 35.3898 32.992C35.3898 31.6812 34.3111 30.6326 33.0283 30.6326ZM33.0283 33.8076C32.591 33.8076 32.2412 33.4581 32.2412 33.0211C32.2412 32.5842 32.591 32.2347 33.0283 32.2347C33.4656 32.2347 33.8155 32.5842 33.8155 33.0211C33.8155 33.4581 33.4656 33.8076 33.0283 33.8076Z" fill="black"/>
<path d="M34.4857 25.5059C34.165 25.1855 33.6694 25.1855 33.3779 25.5059L25.5063 33.3416C25.1856 33.662 25.1856 34.1572 25.5063 34.4485C25.652 34.5941 25.8561 34.6815 26.0602 34.6815C26.2643 34.6815 26.4683 34.5941 26.6141 34.4485L34.4566 26.6128C34.7773 26.3215 34.7773 25.8264 34.4857 25.5059Z" fill="black"/>
</g>
</g>
<defs>
<clipPath id="clip0_511_7003">
<rect width="30" height="30" fill="white" transform="translate(15 15)"/>
</clipPath>
</defs>
</svg>
