<svg width="60" height="60" viewBox="0 0 60 60" fill="none" xmlns="http://www.w3.org/2000/svg">
<rect width="60" height="60" rx="10" fill="#FEC800"/>
<path d="M25.082 38.679L33.207 20.554C33.4188 20.0815 33.9735 19.8702 34.446 20.082C34.8791 20.2762 35.0927 20.7584 34.9622 21.2014L34.918 21.321L26.793 39.446C26.5812 39.9184 26.0265 40.1298 25.554 39.918C25.1209 39.7238 24.9073 39.2415 25.0378 38.7986L25.082 38.679ZM17.7746 29.3371L23.0871 24.0246C23.4532 23.6585 24.0468 23.6585 24.4129 24.0246C24.7457 24.3574 24.776 24.8782 24.5037 25.2453L24.4129 25.3504L19.7633 30L24.4129 34.6496C24.779 35.0157 24.779 35.6093 24.4129 35.9754C24.0801 36.3082 23.5592 36.3385 23.1922 36.0662L23.0871 35.9754L17.7746 30.6629C17.4418 30.3301 17.4115 29.8092 17.6838 29.4422L17.7746 29.3371ZM35.5871 24.0246C35.9199 23.6917 36.4408 23.6615 36.8078 23.9338L36.9129 24.0246L42.2254 29.3371C42.5582 29.6699 42.5885 30.1907 42.3162 30.5578L42.2254 30.6629L36.9129 35.9754C36.5468 36.3415 35.9532 36.3415 35.5871 35.9754C35.2543 35.6426 35.224 35.1217 35.4963 34.7547L35.5871 34.6496L40.2367 30L35.5871 25.3504C35.221 24.9843 35.221 24.3907 35.5871 24.0246Z" fill="black"/>
</svg>
