<svg width="60" height="60" viewBox="0 0 60 60" fill="none" xmlns="http://www.w3.org/2000/svg">
<rect width="60" height="60" rx="10" fill="#8378FF"/>
<path d="M17.0713 23.195C17.0713 21.9827 18.054 21 19.2663 21H39.8049C41.0171 21 41.9999 21.9827 41.9999 23.195V35.4745C41.9999 36.6867 41.0171 37.6694 39.8049 37.6694H26.6997C26.5593 37.6694 26.4312 37.7498 26.3702 37.8763L24.4847 41.7839C24.3499 42.0631 23.9507 42.0586 23.8223 41.7765L22.0493 37.8836C21.9899 37.7532 21.8597 37.6694 21.7164 37.6694H19.2663C18.054 37.6694 17.0713 36.6867 17.0713 35.4745V23.195Z" stroke="white" stroke-width="1.82915"/>
<circle cx="24.5" cy="29.5" r="1.5" fill="white"/>
<circle cx="29.5" cy="29.5" r="1.5" fill="white"/>
<circle cx="34.5" cy="29.5" r="1.5" fill="white"/>
</svg>
