<svg width="60" height="60" viewBox="0 0 60 60" fill="none" xmlns="http://www.w3.org/2000/svg">
<rect width="60" height="60" rx="10" fill="#91DAF9"/>
<path d="M18.739 24.6039C18.739 23.6926 19.4777 22.9539 20.389 22.9539H39.589C40.5003 22.9539 41.239 23.6926 41.239 24.6039V26.8566C41.2358 26.8585 41.2322 26.8604 41.2284 26.8623C40.1714 27.369 39.439 28.4502 39.439 29.7039C39.439 30.9575 40.1714 32.0387 41.2284 32.5455C41.2322 32.5473 41.2358 32.5492 41.239 32.5512V34.8039C41.239 35.7151 40.5003 36.4539 39.589 36.4539H20.389C19.4777 36.4539 18.739 35.7151 18.739 34.8039V32.5512C18.7423 32.5492 18.7458 32.5473 18.7496 32.5455C19.8066 32.0387 20.539 30.9575 20.539 29.7039C20.539 28.4502 19.8066 27.369 18.7496 26.8623C18.7458 26.8604 18.7423 26.8585 18.739 26.8566V24.6039Z" stroke="black" stroke-width="1.50815"/>
<path fill-rule="evenodd" clip-rule="evenodd" d="M22.3409 20.8853C22.5364 20.4283 23.0654 20.2163 23.5223 20.4117L29.2754 22.8723L32.1564 22.4731L24.1122 19.0326C22.8935 18.5114 21.483 19.0768 20.9618 20.2955L20.0532 22.4198C19.9455 22.6715 20.0285 22.9594 20.2089 23.1653L21.9431 23.1092C21.8535 22.9158 21.7481 22.7295 21.6278 22.5526L22.3409 20.8853ZM35.8667 40.3744L27.5168 36.8031L30.2026 36.3204L36.4565 38.9953C36.9135 39.1907 37.4425 38.9787 37.6379 38.5217L38.351 36.8544C38.1843 36.6092 38.0462 36.3459 37.9391 36.0704L39.7699 36.2417C39.9503 36.4476 40.0333 36.7355 39.9257 36.9872L39.0171 39.1116C38.4959 40.3303 37.0853 40.8956 35.8667 40.3744Z" fill="black"/>
<path d="M24.2889 35.7039V23.7039" stroke="black" stroke-width="1.50815" stroke-linecap="round" stroke-dasharray="1.81 3.02"/>
<path d="M29.9891 28.5039C30.6518 28.5039 31.1891 27.9666 31.1891 27.3039C31.1891 26.6411 30.6518 26.1039 29.9891 26.1039C29.3263 26.1039 28.7891 26.6411 28.7891 27.3039C28.7891 27.9666 29.3263 28.5039 29.9891 28.5039Z" stroke="black" stroke-width="1.20652"/>
<path d="M34.7892 33.3038C35.452 33.3038 35.9892 32.7666 35.9892 32.1038C35.9892 31.4411 35.452 30.9038 34.7892 30.9038C34.1265 30.9038 33.5892 31.4411 33.5892 32.1038C33.5892 32.7666 34.1265 33.3038 34.7892 33.3038Z" stroke="black" stroke-width="1.20652"/>
<path d="M35.0764 26.9904L29.6764 32.3904" stroke="black" stroke-width="1.20652" stroke-linecap="round"/>
</svg>
