<svg width="60" height="60" viewBox="0 0 60 60" fill="none" xmlns="http://www.w3.org/2000/svg">
<rect width="60" height="60" rx="10" fill="#D1E751"/>
<path fill-rule="evenodd" clip-rule="evenodd" d="M17.5635 20.4722C17.5635 19.9966 17.9481 19.6111 18.4226 19.6111H41.1488C41.6233 19.6111 42.0079 19.9966 42.0079 20.4722C42.0079 20.9478 41.6233 21.3333 41.1488 21.3333H18.4226C17.9481 21.3333 17.5635 20.9478 17.5635 20.4722Z" fill="black"/>
<path fill-rule="evenodd" clip-rule="evenodd" d="M17.5635 39.5556C17.5635 39.08 17.9481 38.6945 18.4226 38.6945H41.1488C41.6233 38.6945 42.0079 39.08 42.0079 39.5556C42.0079 40.0312 41.6233 40.4167 41.1488 40.4167H18.4226C17.9481 40.4167 17.5635 40.0312 17.5635 39.5556Z" fill="black"/>
<path fill-rule="evenodd" clip-rule="evenodd" d="M29.7858 35.4722C29.3715 35.4722 29.0358 35.1364 29.0358 34.7222V25.5555C29.0358 25.1413 29.3715 24.8055 29.7858 24.8055C30.2 24.8055 30.5358 25.1413 30.5358 25.5555V34.7222C30.5358 35.1364 30.2 35.4722 29.7858 35.4722Z" fill="black"/>
<path fill-rule="evenodd" clip-rule="evenodd" d="M26.9255 33.0563C27.1858 32.796 27.6079 32.796 27.8683 33.0563L29.7858 34.9738L31.7033 33.0563C31.9636 32.796 32.3857 32.796 32.6461 33.0563C32.9064 33.3167 32.9064 33.7388 32.6461 33.9992L30.2572 36.3881C29.9968 36.6484 29.5747 36.6484 29.3144 36.3881L26.9255 33.9992C26.6651 33.7388 26.6651 33.3167 26.9255 33.0563Z" fill="black"/>
<path fill-rule="evenodd" clip-rule="evenodd" d="M32.6461 26.9714C32.3857 27.2318 31.9636 27.2318 31.7033 26.9714L29.7858 25.0539L27.8683 26.9714C27.6079 27.2318 27.1858 27.2318 26.9255 26.9714C26.6651 26.7111 26.6651 26.289 26.9255 26.0286L29.3144 23.6397C29.5747 23.3794 29.9968 23.3794 30.2572 23.6397L32.6461 26.0286C32.9064 26.289 32.9064 26.7111 32.6461 26.9714Z" fill="black"/>
</svg>
