<svg width="100" height="100" viewBox="0 0 100 100" fill="none" xmlns="http://www.w3.org/2000/svg">
<rect width="100" height="100" rx="15.625" fill="#D1E751"/>
<g clip-path="url(#clip0_264_7175)">
<path d="M43.2434 56.25L55.1482 43.75" stroke="black" stroke-width="4.0625" stroke-linecap="round" stroke-linejoin="round"/>
<path d="M47.2107 37.5001L48.1293 36.3834C49.9901 34.4299 52.5137 33.3326 55.1449 33.3328C57.7762 33.333 60.2996 34.4307 62.1601 36.3844C64.0206 38.3382 65.0657 40.988 65.0655 43.7508C65.0653 46.5136 64.0198 49.1632 62.1591 51.1167L61.0996 52.0834" stroke="black" stroke-width="4.0625" stroke-linecap="round" stroke-linejoin="round"/>
<path d="M51.1887 62.5001L50.401 63.6126C48.5186 65.5671 45.978 66.6634 43.3306 66.6634C40.6832 66.6634 38.1426 65.5671 36.2602 63.6126C35.3323 62.6493 34.5957 61.5022 34.0929 60.2379C33.5902 58.9736 33.3313 57.6171 33.3313 56.247C33.3313 54.8769 33.5902 53.5204 34.0929 52.256C34.5957 50.9917 35.3323 49.8447 36.2602 48.8813L37.2998 47.9167" stroke="black" stroke-width="4.0625" stroke-linecap="round" stroke-linejoin="round"/>
</g>
<defs>
<clipPath id="clip0_264_7175">
<rect width="47.619" height="50" fill="white" transform="translate(25.3906 25)"/>
</clipPath>
</defs>
</svg>
