<svg width="132" height="24" viewBox="0 0 132 24" fill="none" xmlns="http://www.w3.org/2000/svg">
<path d="M39.6119 14.9855C39.6119 9.8676 39.6119 5.00169 39.6119 0.077617C41.3498 0.077617 42.9678 0.077617 44.6458 0.077617C44.6458 7.89022 44.6458 15.6834 44.6458 23.6124C43.2875 23.6124 41.9291 23.6511 40.5707 23.5736C40.2511 23.5542 39.8916 23.1277 39.6718 22.8175C36.5556 18.4363 33.4394 14.055 30.3232 9.69313C30.1434 9.44111 29.9436 9.18909 29.5841 8.70444C29.5841 13.8224 29.5841 18.6495 29.5841 23.5348C27.8262 23.5348 26.1682 23.5348 24.4503 23.5348C24.4503 15.7416 24.4503 7.92899 24.4503 0.0194587C25.8286 0.0194587 27.2269 -0.0193135 28.6052 0.0582309C28.8649 0.077617 29.1845 0.426567 29.3843 0.678586C32.5804 5.15678 35.7566 9.65435 38.9527 14.1325C39.0726 14.3458 39.2723 14.559 39.6119 14.9855Z" fill="black"/>
<path d="M102.096 0.0387458C103.874 0.0387458 105.452 0.0387458 107.11 0.0387458C107.11 7.87073 107.11 15.6639 107.11 23.5929C105.732 23.5929 104.373 23.6316 103.035 23.5735C102.755 23.5541 102.436 23.2245 102.256 22.9725C99.0798 18.5331 95.9236 14.0743 92.7475 9.61548C92.5876 9.38285 92.3879 9.1696 92.0483 8.78188C92.0483 13.8029 92.0483 18.63 92.0483 23.5347C90.2705 23.5347 88.5925 23.5347 86.8746 23.5347C86.8746 15.7221 86.8746 7.92889 86.8746 0.0387458C88.2929 0.0387458 89.6912 -2.64253e-05 91.0695 0.077518C91.3292 0.0969041 91.6488 0.445854 91.8286 0.717259C95.0047 5.15668 98.1609 9.61548 101.337 14.0743C101.517 14.3263 101.717 14.5589 102.096 14.7528C102.096 9.8675 102.096 5.00159 102.096 0.0387458Z" fill="black"/>
<path d="M111.605 0.0388824C113.323 0.0388824 114.941 0.0388824 116.679 0.0388824C116.679 3.48961 116.679 6.90156 116.679 10.3329C116.758 10.3717 116.838 10.3911 116.918 10.4298C117.797 9.42176 118.676 8.41368 119.535 7.38622C121.433 5.11804 123.311 2.84987 125.268 0.601079C125.548 0.290902 126.087 0.0582685 126.507 0.0388824C128.225 -0.019276 129.962 0.0194963 131.98 0.0194963C128.884 3.6447 125.927 7.09542 122.931 10.6237C125.907 14.8693 128.904 19.1536 132.02 23.593C129.923 23.593 127.985 23.6124 126.047 23.5736C125.808 23.5736 125.548 23.2247 125.368 22.9726C123.331 20.026 121.313 17.0793 119.196 14.0163C118.377 14.9856 117.597 15.8773 116.878 16.8079C116.719 17.0211 116.739 17.4088 116.739 17.719C116.719 19.6382 116.739 21.5575 116.739 23.5348C115.001 23.5348 113.343 23.5348 111.625 23.5348C111.605 15.7222 111.605 7.92903 111.605 0.0388824Z" fill="black"/>
<path d="M-7.19712e-05 0.0581055C1.77777 0.0581055 3.37584 0.0581055 5.13371 0.0581055C5.13371 0.891708 5.13371 1.68654 5.13371 2.48137C5.13371 6.39736 5.15368 10.3327 5.11373 14.2487C5.09375 16.2455 5.5532 17.9709 7.47087 18.9596C10.5471 20.5298 15.0217 19.134 14.9818 14.7334C14.9418 10.2358 14.9818 5.71885 14.9818 1.22127C14.9818 0.872322 14.9818 0.523372 14.9818 0.0968777C16.6997 0.0968777 18.3777 0.0968777 20.1555 0.0968777C20.1555 0.445828 20.1555 0.794777 20.1555 1.14373C20.1555 5.73823 20.0756 10.3521 20.1755 14.9466C20.2754 20.084 16.7796 23.1857 12.3849 23.8061C9.06894 24.2714 5.91276 23.9999 3.1561 21.9838C1.13855 20.5104 0.0398796 18.5137 0.0199038 16.0516C-0.0200478 10.9919 -7.19712e-05 5.9321 -7.19712e-05 0.872322C-7.19712e-05 0.620302 -7.19712e-05 0.387669 -7.19712e-05 0.0581055Z" fill="black"/>
<path d="M58.549 0.0388184C60.2469 0.0388184 61.8649 0.0388184 63.6028 0.0388184C63.6028 6.51378 63.6028 12.95 63.6028 19.5025C67.1186 19.5025 70.5144 19.5025 73.9902 19.5025C73.9902 20.8789 73.9902 22.1584 73.9902 23.5154C68.8764 23.5154 63.7626 23.5154 58.549 23.5154C58.549 15.7416 58.549 7.92896 58.549 0.0388184Z" fill="black"/>
<path d="M54.1543 23.5542C52.4764 23.5542 50.8583 23.5542 49.1604 23.5542C49.1604 15.7416 49.1604 7.9484 49.1604 0.0776367C50.7784 0.0776367 52.4165 0.0776367 54.1543 0.0776367C54.1543 7.85146 54.1543 15.6447 54.1543 23.5542Z" fill="black"/>
<path d="M77.506 0.0388184C79.2239 0.0388184 80.8419 0.0388184 82.5399 0.0388184C82.5399 7.85142 82.5399 15.6446 82.5399 23.5154C80.9019 23.5154 79.2439 23.5154 77.506 23.5154C77.506 15.7222 77.506 7.92896 77.506 0.0388184Z" fill="black"/>
</svg>
