<svg width="133" height="24" viewBox="0 0 133 24" fill="none" xmlns="http://www.w3.org/2000/svg">
<g clip-path="url(#clip0_264_6890)">
<path d="M40.1119 14.9857C40.1119 9.86772 40.1119 5.00181 40.1119 0.0777391C41.8498 0.0777391 43.4679 0.0777391 45.1458 0.0777391C45.1458 7.89034 45.1458 15.6836 45.1458 23.6125C43.7875 23.6125 42.4291 23.6512 41.0708 23.5737C40.7512 23.5543 40.3916 23.1278 40.1719 22.8176C37.0556 18.4364 33.9394 14.0551 30.8232 9.69325C30.6434 9.44123 30.4437 9.18921 30.0841 8.70456C30.0841 13.8225 30.0841 18.6496 30.0841 23.5349C28.3262 23.5349 26.6682 23.5349 24.9503 23.5349C24.9503 15.7417 24.9503 7.92911 24.9503 0.0195807C26.3286 0.0195807 27.727 -0.0191915 29.1053 0.058353C29.365 0.0777391 29.6846 0.426689 29.8843 0.678708C33.0805 5.1569 36.2566 9.65448 39.4527 14.1327C39.5726 14.3459 39.7723 14.5592 40.1119 14.9857Z" fill="white"/>
<path d="M102.596 0.0388679C104.374 0.0388679 105.952 0.0388679 107.61 0.0388679C107.61 7.87085 107.61 15.6641 107.61 23.593C106.232 23.593 104.873 23.6318 103.535 23.5736C103.255 23.5542 102.936 23.2246 102.756 22.9726C99.5798 18.5332 96.4237 14.0744 93.2475 9.6156C93.0877 9.38297 92.888 9.16972 92.5484 8.782C92.5484 13.803 92.5484 18.6301 92.5484 23.5348C90.7705 23.5348 89.0926 23.5348 87.3746 23.5348C87.3746 15.7222 87.3746 7.92901 87.3746 0.0388679C88.7929 0.0388679 90.1912 9.5645e-05 91.5695 0.0776401C91.8292 0.0970262 92.1489 0.445976 92.3286 0.717382C95.5048 5.1568 98.661 9.6156 101.837 14.0744C102.017 14.3264 102.217 14.5591 102.596 14.7529C102.596 9.86762 102.596 5.00171 102.596 0.0388679Z" fill="white"/>
<path d="M112.105 0.0387603C113.823 0.0387603 115.441 0.0387603 117.179 0.0387603C117.179 3.48949 117.179 6.90144 117.179 10.3328C117.259 10.3716 117.339 10.3909 117.418 10.4297C118.297 9.42163 119.176 8.41356 120.035 7.38609C121.933 5.11792 123.811 2.84975 125.768 0.600957C126.048 0.29078 126.587 0.0581464 127.007 0.0387603C128.725 -0.019398 130.463 0.0193742 132.48 0.0193742C129.384 3.64458 126.428 7.0953 123.431 10.6236C126.408 14.8691 129.404 19.1535 132.52 23.5929C130.423 23.5929 128.485 23.6123 126.547 23.5735C126.308 23.5735 126.048 23.2245 125.868 22.9725C123.831 20.0258 121.813 17.0791 119.696 14.0161C118.877 14.9854 118.098 15.8772 117.378 16.8077C117.219 17.021 117.239 17.4087 117.239 17.7189C117.219 19.6381 117.239 21.5573 117.239 23.5347C115.501 23.5347 113.843 23.5347 112.125 23.5347C112.105 15.7221 112.105 7.92891 112.105 0.0387603Z" fill="white"/>
<path d="M0.499989 0.0582275C2.27783 0.0582275 3.8759 0.0582275 5.63377 0.0582275C5.63377 0.89183 5.63377 1.68666 5.63377 2.48149C5.63377 6.39748 5.65374 10.3329 5.61379 14.2489C5.59381 16.2456 6.05326 17.971 7.97093 18.9597C11.0472 20.53 15.5218 19.1342 15.4818 14.7335C15.4419 10.2359 15.4818 5.71897 15.4818 1.22139C15.4818 0.872444 15.4818 0.523494 15.4818 0.0969997C17.1997 0.0969997 18.8777 0.0969997 20.6556 0.0969997C20.6556 0.44595 20.6556 0.7949 20.6556 1.14385C20.6556 5.73836 20.5757 10.3522 20.6755 14.9468C20.7754 20.0841 17.2797 23.1859 12.885 23.8062C9.569 24.2715 6.41282 24.0001 3.65616 21.9839C1.63861 20.5106 0.539941 18.5138 0.519965 16.0518C0.480013 10.992 0.499989 5.93222 0.499989 0.872444C0.499989 0.620425 0.499989 0.387791 0.499989 0.0582275Z" fill="white"/>
<path d="M59.0491 0.0388184C60.747 0.0388184 62.3651 0.0388184 64.1029 0.0388184C64.1029 6.51378 64.1029 12.95 64.1029 19.5025C67.6187 19.5025 71.0146 19.5025 74.4904 19.5025C74.4904 20.8789 74.4904 22.1584 74.4904 23.5154C69.3766 23.5154 64.2628 23.5154 59.0491 23.5154C59.0491 15.7416 59.0491 7.92896 59.0491 0.0388184Z" fill="white"/>
<path d="M54.6543 23.5542C52.9764 23.5542 51.3583 23.5542 49.6604 23.5542C49.6604 15.7416 49.6604 7.9484 49.6604 0.0776367C51.2784 0.0776367 52.9165 0.0776367 54.6543 0.0776367C54.6543 7.85146 54.6543 15.6447 54.6543 23.5542Z" fill="white"/>
<path d="M78.0061 0.0388184C79.724 0.0388184 81.3421 0.0388184 83.04 0.0388184C83.04 7.85142 83.04 15.6446 83.04 23.5154C81.402 23.5154 79.744 23.5154 78.0061 23.5154C78.0061 15.7222 78.0061 7.92896 78.0061 0.0388184Z" fill="white"/>
</g>
<defs>
<clipPath id="clip0_264_6890">
<rect width="132" height="24" fill="white" transform="translate(0.5)"/>
</clipPath>
</defs>
</svg>
