<svg width="13" height="13" viewBox="0 0 13 13" fill="none" xmlns="http://www.w3.org/2000/svg">
<path d="M6.28113 1.84231C6.40937 1.44763 6.96774 1.44763 7.09598 1.84231L7.9389 4.43655C7.99625 4.61306 8.16074 4.73256 8.34633 4.73256H11.0741C11.4891 4.73256 11.6616 5.26361 11.3259 5.50753L9.11909 7.11086C8.96894 7.21995 8.90611 7.41331 8.96346 7.58982L9.80638 10.1841C9.93462 10.5787 9.48289 10.9069 9.14715 10.663L6.94036 9.05969C6.79021 8.9506 6.5869 8.9506 6.43675 9.05969L4.22996 10.663C3.89422 10.9069 3.44249 10.5787 3.57073 10.1841L4.41365 7.58982C4.471 7.41331 4.40817 7.21995 4.25803 7.11086L2.05124 5.50753C1.7155 5.2636 1.88805 4.73256 2.30304 4.73256H5.03078C5.21638 4.73256 5.38086 4.61306 5.43821 4.43655L6.28113 1.84231Z" fill="#5D5DFF"/>
</svg>
