<svg width="463" height="270" viewBox="0 0 463 270" fill="none" xmlns="http://www.w3.org/2000/svg">
<g filter="url(#filter0_d_687_7328)">
<rect x="30.9998" y="24.5" width="163.5" height="79.5" rx="16.4063" fill="#2F2F32"/>
</g>
<g clip-path="url(#clip0_687_7328)">
<path d="M61.3411 55.7963C61.3411 57.695 62.0953 59.516 63.4379 60.8585C64.7805 62.2011 66.6014 62.9554 68.5002 62.9554C70.3989 62.9554 72.2198 62.2011 73.5624 60.8585C74.905 59.516 75.6593 57.695 75.6593 55.7963C75.6593 53.8976 74.905 52.0766 73.5624 50.7341C72.2198 49.3915 70.3989 48.6372 68.5002 48.6372C66.6014 48.6372 64.7805 49.3915 63.4379 50.7341C62.0953 52.0766 61.3411 53.8976 61.3411 55.7963Z" stroke="#FCE670" stroke-width="2.8125" stroke-linecap="round" stroke-linejoin="round"/>
<path d="M55.2051 81.3638V77.6138C55.2051 75.6246 56.1389 73.717 57.8012 72.3105C59.4634 70.9039 61.7179 70.1138 64.0687 70.1138H72.9324C75.2831 70.1138 77.5376 70.9039 79.1999 72.3105C80.8622 73.717 81.796 75.6246 81.796 77.6138V81.3638" stroke="#FCE670" stroke-width="2.8125" stroke-linecap="round" stroke-linejoin="round"/>
</g>
<path d="M112.262 73.5892C113.119 74.0336 113.762 74.5495 114.191 75.1368C114.635 75.7083 114.857 76.4702 114.857 77.4226C114.857 78.9146 114.318 80.0734 113.238 80.8988C112.159 81.7083 110.675 82.1131 108.786 82.1131C106.96 82.1131 105.492 81.7004 104.381 80.875C103.27 80.0496 102.714 78.8988 102.714 77.4226C102.714 76.4702 102.929 75.7003 103.357 75.113C103.802 74.5257 104.452 74.0178 105.31 73.5892V73.4939C104.627 73.0336 104.111 72.5495 103.762 72.0415C103.429 71.5336 103.262 70.8431 103.262 69.9701C103.262 69.0018 103.5 68.1685 103.976 67.4701C104.452 66.7558 105.103 66.2161 105.929 65.851C106.77 65.4859 107.722 65.3034 108.786 65.3034C109.849 65.3034 110.794 65.4859 111.619 65.851C112.46 66.2161 113.119 66.7558 113.595 67.4701C114.072 68.1685 114.31 69.0018 114.31 69.9701C114.31 70.8431 114.135 71.5336 113.786 72.0415C113.453 72.5495 112.945 73.0336 112.262 73.4939V73.5892ZM106.524 70.2796C106.524 70.8669 106.738 71.3669 107.167 71.7796C107.595 72.1765 108.135 72.3749 108.786 72.3749C109.437 72.3749 109.976 72.1765 110.405 71.7796C110.833 71.3669 111.048 70.8669 111.048 70.2796V70.0177C111.048 69.4304 110.833 68.9383 110.405 68.5415C109.976 68.1288 109.437 67.9224 108.786 67.9224C108.135 67.9224 107.595 68.1288 107.167 68.5415C106.738 68.9383 106.524 69.4304 106.524 70.0177V70.2796ZM106.262 77.3035C106.262 77.9702 106.5 78.5019 106.976 78.8988C107.452 79.2956 108.056 79.494 108.786 79.494C109.516 79.494 110.119 79.2956 110.595 78.8988C111.072 78.5019 111.31 77.9702 111.31 77.3035V76.9226C111.31 76.2559 111.072 75.7241 110.595 75.3273C110.119 74.9305 109.516 74.7321 108.786 74.7321C108.056 74.7321 107.452 74.9305 106.976 75.3273C106.5 75.7241 106.262 76.2559 106.262 76.9226V77.3035ZM129.412 76.3987C129.412 77.4622 129.158 78.4305 128.65 79.3035C128.143 80.1766 127.452 80.8671 126.579 81.375C125.706 81.8671 124.746 82.1131 123.698 82.1131H123.008C121.96 82.1131 121 81.8671 120.127 81.375C119.254 80.8671 118.563 80.1766 118.055 79.3035C117.563 78.4305 117.317 77.4622 117.317 76.3987V71.0415C117.317 69.978 117.563 69.0098 118.055 68.1367C118.563 67.2637 119.254 66.5732 120.127 66.0653C121 65.5573 121.96 65.3034 123.008 65.3034H123.698C124.746 65.3034 125.706 65.5573 126.579 66.0653C127.452 66.5732 128.143 67.2637 128.65 68.1367C129.158 69.0098 129.412 69.978 129.412 71.0415V76.3987ZM125.889 70.6368C125.889 69.9225 125.642 69.3193 125.15 68.8272C124.674 68.3351 124.079 68.0891 123.365 68.0891C122.65 68.0891 122.047 68.3351 121.555 68.8272C121.079 69.3193 120.841 69.9225 120.841 70.6368V76.7797C120.841 77.494 121.079 78.0972 121.555 78.5892C122.047 79.0813 122.65 79.3273 123.365 79.3273C124.079 79.3273 124.674 79.0813 125.15 78.5892C125.642 78.0972 125.889 77.494 125.889 76.7797V70.6368ZM143.991 76.3987C143.991 77.4622 143.737 78.4305 143.229 79.3035C142.721 80.1766 142.031 80.8671 141.158 81.375C140.285 81.8671 139.325 82.1131 138.277 82.1131H137.586C136.539 82.1131 135.578 81.8671 134.705 81.375C133.832 80.8671 133.142 80.1766 132.634 79.3035C132.142 78.4305 131.896 77.4622 131.896 76.3987V71.0415C131.896 69.978 132.142 69.0098 132.634 68.1367C133.142 67.2637 133.832 66.5732 134.705 66.0653C135.578 65.5573 136.539 65.3034 137.586 65.3034H138.277C139.325 65.3034 140.285 65.5573 141.158 66.0653C142.031 66.5732 142.721 67.2637 143.229 68.1367C143.737 69.0098 143.991 69.978 143.991 71.0415V76.3987ZM140.467 70.6368C140.467 69.9225 140.221 69.3193 139.729 68.8272C139.253 68.3351 138.658 68.0891 137.944 68.0891C137.229 68.0891 136.626 68.3351 136.134 68.8272C135.658 69.3193 135.42 69.9225 135.42 70.6368V76.7797C135.42 77.494 135.658 78.0972 136.134 78.5892C136.626 79.0813 137.229 79.3273 137.944 79.3273C138.658 79.3273 139.253 79.0813 139.729 78.5892C140.221 78.0972 140.467 77.494 140.467 76.7797V70.6368ZM153.618 74.5416H158.475V77.0654H153.618V81.875H151.118V77.0654H146.284V74.5416H151.118V69.7082H153.618V74.5416Z" fill="white"/>
<path d="M105.167 46.8777C105.804 46.8777 106.359 47.0184 106.833 47.2999C107.307 47.574 107.674 47.9703 107.933 48.4888C108.193 48.9999 108.322 49.6036 108.322 50.2999V51.0777C108.322 51.774 108.193 52.3815 107.933 52.9C107.674 53.4111 107.307 53.8074 106.833 54.0889C106.359 54.363 105.804 54.5 105.167 54.5H102.522V46.8777H105.167ZM103.611 47.8666V53.5111H105.167C105.826 53.5111 106.333 53.3074 106.689 52.9C107.052 52.4852 107.233 51.8777 107.233 51.0777V50.2999C107.233 49.5148 107.056 48.9147 106.7 48.4999C106.352 48.0777 105.841 47.8666 105.167 47.8666H103.611ZM112.154 48.711C112.902 48.711 113.457 48.8592 113.82 49.1555C114.191 49.4518 114.376 49.8814 114.376 50.4444V53.3889C114.376 53.5222 114.405 53.6222 114.465 53.6889C114.524 53.7481 114.598 53.7778 114.687 53.7778C114.857 53.7778 115.028 53.7259 115.198 53.6222V54.3889C114.946 54.537 114.661 54.6111 114.342 54.6111C114.024 54.6111 113.787 54.5222 113.631 54.3444C113.476 54.1593 113.391 53.9074 113.376 53.5889C112.916 54.2704 112.254 54.6111 111.387 54.6111C110.765 54.6111 110.298 54.4778 109.987 54.2111C109.683 53.937 109.531 53.5074 109.531 52.9222C109.531 52.4629 109.65 52.1037 109.887 51.8444C110.124 51.5777 110.516 51.3851 111.065 51.2666C111.613 51.1481 112.368 51.0888 113.331 51.0888V50.5666C113.331 50.1888 113.22 49.9259 112.998 49.7777C112.776 49.6222 112.454 49.5444 112.031 49.5444C111.631 49.5444 111.32 49.6222 111.098 49.7777C110.876 49.9333 110.765 50.1518 110.765 50.4333V50.5666H109.742C109.728 50.4629 109.72 50.3407 109.72 50.1999C109.72 49.9407 109.824 49.6962 110.031 49.4666C110.239 49.237 110.52 49.0555 110.876 48.9222C111.231 48.7814 111.624 48.711 112.054 48.711H112.154ZM113.331 51.9C112.554 51.9 111.965 51.9407 111.565 52.0222C111.172 52.0963 110.909 52.2111 110.776 52.3666C110.642 52.5222 110.576 52.737 110.576 53.0111C110.576 53.5222 110.965 53.7778 111.742 53.7778C112.016 53.7778 112.276 53.7111 112.52 53.5778C112.765 53.437 112.961 53.2407 113.109 52.9889C113.257 52.737 113.331 52.4481 113.331 52.1222V51.9ZM117.486 46.4999V47.4666H116.398V46.4999H117.486ZM117.464 48.8222V54.5H116.42V48.8222H117.464ZM120.395 46.4999V54.5H119.351V46.4999H120.395ZM124.79 54.2778C124.539 54.9 124.305 55.3741 124.09 55.7C123.876 56.0334 123.657 56.2593 123.435 56.3778C123.213 56.5037 122.953 56.5667 122.657 56.5667C122.383 56.5667 122.124 56.5148 121.879 56.4111V55.5556C122.124 55.6593 122.309 55.7111 122.435 55.7111C122.739 55.7111 122.99 55.6074 123.19 55.4C123.398 55.2 123.568 54.8815 123.701 54.4444L121.49 48.8222H122.601L124.235 53.0111H124.279L125.89 48.8222H126.913L124.79 54.2778ZM136.4 46.8777L133.689 54.5H132.522L129.811 46.8777H130.978L133.122 53.0222H133.189L135.345 46.8777H136.4ZM138.439 46.4999V47.4666H137.351V46.4999H138.439ZM138.417 48.8222V54.5H137.373V48.8222H138.417ZM142.426 48.711C142.848 48.711 143.222 48.7777 143.548 48.911C143.881 49.0444 144.137 49.2296 144.315 49.4666C144.5 49.7036 144.592 49.9666 144.592 50.2555L144.581 50.4555H143.548V50.3555C143.548 49.8148 143.129 49.5444 142.292 49.5444C141.463 49.5444 141.048 49.7925 141.048 50.2888C141.048 50.5185 141.166 50.6888 141.404 50.8C141.641 50.9037 142.004 51.0037 142.492 51.1C142.959 51.1963 143.341 51.2963 143.637 51.4C143.941 51.5037 144.196 51.6666 144.404 51.8889C144.618 52.1111 144.726 52.4111 144.726 52.7889C144.726 53.3963 144.518 53.8518 144.104 54.1556C143.689 54.4593 143.092 54.6111 142.315 54.6111H142.148C141.681 54.6111 141.274 54.5407 140.926 54.4C140.578 54.2518 140.307 54.0555 140.115 53.8111C139.929 53.5592 139.841 53.2778 139.848 52.9666V52.7222H140.881V52.8333C140.881 53.4629 141.411 53.7778 142.47 53.7778C142.781 53.7778 143.059 53.7074 143.304 53.5667C143.555 53.4259 143.681 53.2333 143.681 52.9889C143.681 52.7815 143.611 52.6185 143.47 52.5C143.337 52.3815 143.17 52.2926 142.97 52.2333C142.77 52.174 142.492 52.1148 142.137 52.0555C141.678 51.9666 141.307 51.8777 141.026 51.7889C140.744 51.6926 140.504 51.5333 140.304 51.3111C140.104 51.0888 140.004 50.7851 140.004 50.3999C140.004 49.874 140.211 49.4629 140.626 49.1666C141.041 48.8629 141.607 48.711 142.326 48.711H142.426ZM147.261 46.4999V47.4666H146.172V46.4999H147.261ZM147.239 48.8222V54.5H146.194V48.8222H147.239ZM150.303 48.8222H151.625V49.6555H150.303V53.0444C150.303 53.3111 150.355 53.5037 150.459 53.6222C150.562 53.7407 150.722 53.8 150.936 53.8C151.129 53.8 151.359 53.7444 151.625 53.6333V54.4111C151.359 54.5444 151.014 54.6111 150.592 54.6111C150.155 54.6111 149.822 54.4815 149.592 54.2222C149.37 53.963 149.259 53.5518 149.259 52.9889V49.6555H148.636V48.8222H149.292L149.647 47.011H150.303V48.8222ZM155.189 48.711C155.981 48.711 156.615 48.9555 157.089 49.4444C157.563 49.9333 157.8 50.6037 157.8 51.4555V51.8666C157.8 52.7185 157.567 53.3889 157.1 53.8778C156.633 54.3667 155.996 54.6111 155.189 54.6111C154.381 54.6111 153.744 54.3667 153.278 53.8778C152.811 53.3889 152.578 52.7185 152.578 51.8666V51.4555C152.578 50.6037 152.815 49.9333 153.289 49.4444C153.763 48.9555 154.396 48.711 155.189 48.711ZM155.189 49.5444C154.692 49.5444 154.307 49.7148 154.033 50.0555C153.759 50.3962 153.622 50.8963 153.622 51.5555V51.7666C153.622 52.4111 153.755 52.9074 154.022 53.2555C154.296 53.6037 154.685 53.7778 155.189 53.7778C155.678 53.7778 156.059 53.6074 156.333 53.2667C156.615 52.9185 156.755 52.4185 156.755 51.7666V51.5555C156.755 50.9111 156.618 50.4148 156.344 50.0666C156.078 49.7185 155.692 49.5444 155.189 49.5444ZM161.858 48.711C162.384 48.711 162.795 48.8814 163.091 49.2222C163.388 49.5555 163.536 49.9777 163.536 50.4888L163.502 50.9111H162.58V50.6666C162.58 50.4444 162.525 50.2481 162.413 50.0777C162.302 49.9073 162.162 49.7777 161.991 49.6888C161.821 49.5925 161.65 49.5444 161.48 49.5444C161.125 49.5444 160.847 49.6851 160.647 49.9666C160.447 50.2481 160.347 50.6296 160.347 51.1111V54.5H159.302V48.8222H160.047L160.202 49.6666C160.247 49.5185 160.347 49.3703 160.502 49.2222C160.658 49.074 160.85 48.9518 161.08 48.8555C161.317 48.7592 161.576 48.711 161.858 48.711Z" fill="white"/>
<g filter="url(#filter1_d_687_7328)">
<rect x="112.982" y="88.6289" width="216.804" height="147.371" rx="16.4063" fill="#0A0A0B"/>
</g>
<line opacity="0.2" x1="146.583" y1="205.299" x2="315.692" y2="205.299" stroke="white" stroke-width="0.719833" stroke-linecap="round"/>
<line opacity="0.2" x1="146.583" y1="185.794" x2="315.692" y2="185.794" stroke="white" stroke-width="0.719833" stroke-linecap="round"/>
<line opacity="0.2" x1="146.583" y1="166.289" x2="315.692" y2="166.289" stroke="white" stroke-width="0.719833" stroke-linecap="round"/>
<line opacity="0.2" x1="146.583" y1="146.784" x2="315.692" y2="146.784" stroke="white" stroke-width="0.719833" stroke-linecap="round"/>
<line opacity="0.2" x1="146.583" y1="127.279" x2="315.692" y2="127.279" stroke="white" stroke-width="0.719833" stroke-linecap="round"/>
<path d="M126.774 144.8C127.095 144.8 127.381 144.867 127.631 145.001C127.885 145.135 128.082 145.325 128.221 145.57C128.365 145.81 128.437 146.088 128.437 146.405H127.731C127.731 146.107 127.645 145.872 127.472 145.699C127.299 145.527 127.067 145.44 126.774 145.44C126.601 145.44 126.44 145.483 126.292 145.57C126.148 145.656 126.033 145.774 125.946 145.922C125.86 146.066 125.817 146.225 125.817 146.398V147.175C126.114 146.858 126.486 146.7 126.932 146.7C127.22 146.7 127.484 146.767 127.724 146.901C127.969 147.036 128.161 147.221 128.3 147.456C128.444 147.686 128.516 147.94 128.516 148.219C128.516 148.545 128.444 148.835 128.3 149.09C128.156 149.339 127.954 149.534 127.695 149.673C127.436 149.812 127.143 149.882 126.817 149.882C126.491 149.882 126.198 149.812 125.939 149.673C125.68 149.529 125.476 149.33 125.327 149.075C125.183 148.816 125.111 148.526 125.111 148.204V146.462C125.111 146.165 125.186 145.889 125.334 145.635C125.483 145.375 125.685 145.171 125.939 145.023C126.198 144.874 126.476 144.8 126.774 144.8ZM126.817 147.341C126.534 147.341 126.296 147.432 126.105 147.614C125.913 147.792 125.817 148.017 125.817 148.291C125.817 148.564 125.913 148.792 126.105 148.975C126.296 149.152 126.534 149.241 126.817 149.241C127.1 149.241 127.335 149.155 127.523 148.982C127.715 148.804 127.811 148.574 127.811 148.291C127.811 148.008 127.715 147.78 127.523 147.607C127.335 147.429 127.1 147.341 126.817 147.341ZM131.224 144.8C131.527 144.8 131.802 144.872 132.052 145.015C132.306 145.159 132.508 145.359 132.657 145.613C132.805 145.867 132.88 146.153 132.88 146.47V148.219C132.88 148.531 132.808 148.814 132.664 149.068C132.52 149.318 132.321 149.517 132.066 149.666C131.817 149.81 131.536 149.882 131.224 149.882H131.131C130.814 149.882 130.528 149.81 130.274 149.666C130.024 149.517 129.83 149.315 129.691 149.061C129.552 148.807 129.482 148.526 129.482 148.219V146.47C129.482 146.148 129.554 145.86 129.698 145.606C129.847 145.351 130.046 145.155 130.296 145.015C130.545 144.872 130.824 144.8 131.131 144.8H131.224ZM131.181 145.44C130.903 145.44 130.668 145.534 130.476 145.721C130.284 145.903 130.188 146.134 130.188 146.412V148.269C130.188 148.547 130.284 148.78 130.476 148.967C130.668 149.15 130.903 149.241 131.181 149.241C131.469 149.241 131.707 149.147 131.894 148.96C132.081 148.773 132.174 148.543 132.174 148.269V146.412C132.174 146.138 132.081 145.908 131.894 145.721C131.707 145.534 131.469 145.44 131.181 145.44ZM134.674 144.627V148.183L136.315 146.131H137.057L135.638 147.916L137.15 149.81H136.33L135.228 148.442L134.674 149.018V149.81H133.997V144.627H134.674Z" fill="white"/>
<path d="M126.76 164.305C127.071 164.305 127.35 164.362 127.595 164.478C127.839 164.593 128.029 164.754 128.163 164.96C128.298 165.162 128.365 165.389 128.365 165.644C128.365 165.917 128.295 166.143 128.156 166.32C128.022 166.493 127.83 166.637 127.58 166.752L127.587 166.774C127.861 166.86 128.077 167.007 128.235 167.213C128.398 167.415 128.48 167.674 128.48 167.99C128.48 168.259 128.406 168.499 128.257 168.71C128.108 168.921 127.902 169.087 127.638 169.207C127.374 169.327 127.081 169.387 126.76 169.387H126.673C126.15 169.387 125.733 169.257 125.421 168.998C125.114 168.734 124.96 168.374 124.96 167.918V167.861H125.665V167.94C125.665 168.204 125.754 168.406 125.932 168.545C126.109 168.679 126.364 168.746 126.695 168.746C127.036 168.746 127.299 168.679 127.487 168.545C127.679 168.406 127.775 168.197 127.775 167.918C127.775 167.391 127.405 167.127 126.666 167.127H126.126V166.479H126.68C126.973 166.479 127.208 166.412 127.386 166.277C127.568 166.143 127.659 165.951 127.659 165.701C127.659 165.457 127.571 165.269 127.393 165.14C127.22 165.01 126.988 164.946 126.695 164.946C126.421 164.946 126.2 165.013 126.033 165.147C125.865 165.281 125.781 165.469 125.781 165.709V165.773H125.075V165.644C125.075 165.38 125.145 165.147 125.284 164.946C125.428 164.739 125.622 164.581 125.867 164.47C126.117 164.36 126.392 164.305 126.695 164.305H126.76ZM131.224 164.305C131.527 164.305 131.802 164.377 132.052 164.521C132.306 164.665 132.508 164.864 132.657 165.118C132.805 165.373 132.88 165.658 132.88 165.975V167.724C132.88 168.036 132.808 168.319 132.664 168.574C132.52 168.823 132.321 169.022 132.066 169.171C131.817 169.315 131.536 169.387 131.224 169.387H131.131C130.814 169.387 130.528 169.315 130.274 169.171C130.024 169.022 129.83 168.821 129.691 168.566C129.552 168.312 129.482 168.031 129.482 167.724V165.975C129.482 165.653 129.554 165.365 129.698 165.111C129.847 164.857 130.046 164.66 130.296 164.521C130.545 164.377 130.824 164.305 131.131 164.305H131.224ZM131.181 164.946C130.903 164.946 130.668 165.039 130.476 165.226C130.284 165.409 130.188 165.639 130.188 165.917V167.774C130.188 168.053 130.284 168.286 130.476 168.473C130.668 168.655 130.903 168.746 131.181 168.746C131.469 168.746 131.707 168.653 131.894 168.466C132.081 168.278 132.174 168.048 132.174 167.774V165.917C132.174 165.644 132.081 165.413 131.894 165.226C131.707 165.039 131.469 164.946 131.181 164.946ZM134.674 164.132V167.688L136.315 165.637H137.057L135.638 167.422L137.15 169.315H136.33L135.228 167.947L134.674 168.523V169.315H133.997V164.132H134.674Z" fill="white"/>
<path d="M127.256 188.179H128.552V188.82H125.255V188.179H126.551V184.825H125.241V184.364C125.812 184.306 126.392 184.146 126.983 183.882H127.256V188.179ZM131.224 183.81C131.527 183.81 131.802 183.882 132.052 184.026C132.306 184.17 132.508 184.369 132.657 184.623C132.805 184.878 132.88 185.163 132.88 185.48V187.229C132.88 187.541 132.808 187.824 132.664 188.078C132.52 188.328 132.321 188.527 132.066 188.676C131.817 188.82 131.536 188.892 131.224 188.892H131.131C130.814 188.892 130.528 188.82 130.274 188.676C130.024 188.527 129.83 188.326 129.691 188.071C129.552 187.817 129.482 187.536 129.482 187.229V185.48C129.482 185.158 129.554 184.87 129.698 184.616C129.847 184.362 130.046 184.165 130.296 184.026C130.545 183.882 130.824 183.81 131.131 183.81H131.224ZM131.181 184.45C130.903 184.45 130.668 184.544 130.476 184.731C130.284 184.914 130.188 185.144 130.188 185.422V187.279C130.188 187.558 130.284 187.79 130.476 187.978C130.668 188.16 130.903 188.251 131.181 188.251C131.469 188.251 131.707 188.158 131.894 187.97C132.081 187.783 132.174 187.553 132.174 187.279V185.422C132.174 185.149 132.081 184.918 131.894 184.731C131.707 184.544 131.469 184.45 131.181 184.45ZM134.674 183.637V187.193L136.315 185.141H137.057L135.638 186.927L137.15 188.82H136.33L135.228 187.452L134.674 188.028V188.82H133.997V183.637H134.674Z" fill="white"/>
<path d="M126.796 203.314C127.098 203.314 127.374 203.386 127.623 203.53C127.878 203.674 128.079 203.873 128.228 204.128C128.377 204.382 128.451 204.667 128.451 204.984V206.733C128.451 207.045 128.379 207.328 128.235 207.583C128.091 207.832 127.892 208.031 127.638 208.18C127.388 208.324 127.107 208.396 126.796 208.396H126.702C126.385 208.396 126.1 208.324 125.845 208.18C125.596 208.031 125.401 207.83 125.262 207.576C125.123 207.321 125.054 207.041 125.054 206.733V204.984C125.054 204.663 125.126 204.375 125.27 204.12C125.418 203.866 125.617 203.669 125.867 203.53C126.117 203.386 126.395 203.314 126.702 203.314H126.796ZM126.752 203.955C126.474 203.955 126.239 204.048 126.047 204.236C125.855 204.418 125.759 204.648 125.759 204.927V206.784C125.759 207.062 125.855 207.295 126.047 207.482C126.239 207.664 126.474 207.756 126.752 207.756C127.04 207.756 127.278 207.662 127.465 207.475C127.652 207.288 127.746 207.057 127.746 206.784V204.927C127.746 204.653 127.652 204.423 127.465 204.236C127.278 204.048 127.04 203.955 126.752 203.955Z" fill="white"/>
<path d="M126.695 125.295C127.026 125.295 127.319 125.367 127.573 125.511C127.832 125.655 128.034 125.854 128.178 126.108C128.326 126.362 128.401 126.65 128.401 126.972V128.714C128.401 129.011 128.326 129.29 128.178 129.549C128.029 129.803 127.825 130.005 127.566 130.154C127.311 130.302 127.036 130.377 126.738 130.377C126.412 130.377 126.121 130.309 125.867 130.175C125.617 130.036 125.423 129.846 125.284 129.606C125.145 129.362 125.075 129.083 125.075 128.771H125.781C125.781 129.069 125.867 129.304 126.04 129.477C126.212 129.65 126.445 129.736 126.738 129.736C126.911 129.736 127.069 129.693 127.213 129.606C127.362 129.52 127.479 129.405 127.566 129.261C127.652 129.112 127.695 128.951 127.695 128.779V128.001C127.403 128.318 127.031 128.476 126.58 128.476C126.292 128.476 126.025 128.409 125.781 128.275C125.541 128.14 125.349 127.958 125.205 127.728C125.066 127.493 124.996 127.236 124.996 126.957C124.996 126.631 125.068 126.343 125.212 126.094C125.356 125.839 125.555 125.643 125.809 125.503C126.069 125.364 126.364 125.295 126.695 125.295ZM126.695 125.935C126.412 125.935 126.174 126.024 125.982 126.202C125.795 126.374 125.701 126.602 125.701 126.885C125.701 127.169 125.795 127.399 125.982 127.577C126.174 127.749 126.412 127.836 126.695 127.836C126.978 127.836 127.215 127.747 127.407 127.569C127.599 127.392 127.695 127.164 127.695 126.885C127.695 126.607 127.599 126.379 127.407 126.202C127.215 126.024 126.978 125.935 126.695 125.935ZM131.224 125.295C131.527 125.295 131.802 125.367 132.052 125.511C132.306 125.655 132.508 125.854 132.657 126.108C132.805 126.362 132.88 126.648 132.88 126.965V128.714C132.88 129.026 132.808 129.309 132.664 129.563C132.52 129.813 132.321 130.012 132.066 130.161C131.817 130.305 131.536 130.377 131.224 130.377H131.131C130.814 130.377 130.528 130.305 130.274 130.161C130.024 130.012 129.83 129.81 129.691 129.556C129.552 129.302 129.482 129.021 129.482 128.714V126.965C129.482 126.643 129.554 126.355 129.698 126.101C129.847 125.847 130.046 125.65 130.296 125.511C130.545 125.367 130.824 125.295 131.131 125.295H131.224ZM131.181 125.935C130.903 125.935 130.668 126.029 130.476 126.216C130.284 126.398 130.188 126.629 130.188 126.907V128.764C130.188 129.043 130.284 129.275 130.476 129.462C130.668 129.645 130.903 129.736 131.181 129.736C131.469 129.736 131.707 129.642 131.894 129.455C132.081 129.268 132.174 129.038 132.174 128.764V126.907C132.174 126.634 132.081 126.403 131.894 126.216C131.707 126.029 131.469 125.935 131.181 125.935ZM134.674 125.122V128.678L136.315 126.626H137.057L135.638 128.412L137.15 130.305H136.33L135.228 128.937L134.674 129.513V130.305H133.997V125.122H134.674Z" fill="white"/>
<path d="M152.314 217.835V222.773H151.609V218.663H151.566L149.86 222.773H149.262L147.563 218.663H147.527V222.773H146.887V217.835H147.995L149.586 221.722H149.615L151.213 217.835H152.314ZM155.024 219.023C155.509 219.023 155.869 219.119 156.104 219.311C156.344 219.503 156.464 219.781 156.464 220.146V222.053C156.464 222.139 156.483 222.204 156.521 222.247C156.56 222.286 156.608 222.305 156.665 222.305C156.776 222.305 156.886 222.271 156.996 222.204V222.701C156.833 222.797 156.649 222.845 156.442 222.845C156.236 222.845 156.082 222.787 155.982 222.672C155.881 222.552 155.826 222.389 155.816 222.183C155.518 222.624 155.089 222.845 154.527 222.845C154.124 222.845 153.822 222.759 153.62 222.586C153.424 222.408 153.325 222.13 153.325 221.751C153.325 221.453 153.402 221.221 153.556 221.053C153.709 220.88 153.964 220.755 154.319 220.678C154.674 220.601 155.163 220.563 155.787 220.563V220.225C155.787 219.98 155.715 219.81 155.571 219.714C155.427 219.613 155.219 219.562 154.945 219.562C154.686 219.562 154.484 219.613 154.34 219.714C154.196 219.814 154.124 219.956 154.124 220.138V220.225H153.462C153.453 220.158 153.448 220.078 153.448 219.987C153.448 219.819 153.515 219.661 153.649 219.512C153.784 219.363 153.966 219.246 154.196 219.159C154.427 219.068 154.681 219.023 154.959 219.023H155.024ZM155.787 221.089C155.283 221.089 154.902 221.115 154.643 221.168C154.388 221.216 154.218 221.29 154.132 221.391C154.045 221.492 154.002 221.631 154.002 221.808C154.002 222.139 154.254 222.305 154.758 222.305C154.935 222.305 155.103 222.262 155.262 222.175C155.42 222.084 155.547 221.957 155.643 221.794C155.739 221.631 155.787 221.444 155.787 221.233V221.089ZM159.444 219.023C159.784 219.023 160.051 219.133 160.243 219.354C160.435 219.57 160.531 219.843 160.531 220.174L160.509 220.448H159.912V220.29C159.912 220.146 159.876 220.018 159.804 219.908C159.732 219.798 159.64 219.714 159.53 219.656C159.42 219.594 159.309 219.562 159.199 219.562C158.969 219.562 158.789 219.654 158.659 219.836C158.529 220.018 158.465 220.266 158.465 220.577V222.773H157.788V219.095H158.27L158.371 219.642C158.4 219.546 158.465 219.45 158.565 219.354C158.666 219.258 158.791 219.179 158.94 219.116C159.093 219.054 159.261 219.023 159.444 219.023Z" fill="white"/>
<path d="M188.706 217.835L190.635 222.773H189.872L189.455 221.7H187.094L186.684 222.773H186L187.929 217.835H188.706ZM188.303 218.684H188.26L187.346 221.06H189.21L188.303 218.684ZM192.999 219.023C193.464 219.023 193.829 219.193 194.093 219.534C194.357 219.874 194.489 220.342 194.489 220.937V221.017C194.489 221.583 194.357 222.029 194.093 222.355C193.834 222.682 193.469 222.845 192.999 222.845C192.548 222.845 192.195 222.665 191.941 222.305V224.076H191.264V219.095H191.768C191.802 219.248 191.833 219.416 191.862 219.598C192.135 219.215 192.514 219.023 192.999 219.023ZM192.877 219.562C192.55 219.562 192.31 219.675 192.157 219.901C192.008 220.126 191.934 220.469 191.934 220.93C191.934 221.4 192.01 221.748 192.164 221.974C192.322 222.195 192.56 222.305 192.877 222.305C193.193 222.305 193.428 222.192 193.582 221.967C193.736 221.741 193.812 221.396 193.812 220.93C193.812 220.46 193.733 220.114 193.575 219.894C193.421 219.673 193.189 219.562 192.877 219.562ZM197.116 219.023C197.457 219.023 197.724 219.133 197.916 219.354C198.107 219.57 198.203 219.843 198.203 220.174L198.182 220.448H197.584V220.29C197.584 220.146 197.548 220.018 197.476 219.908C197.404 219.798 197.313 219.714 197.203 219.656C197.092 219.594 196.982 219.562 196.872 219.562C196.641 219.562 196.461 219.654 196.332 219.836C196.202 220.018 196.138 220.266 196.138 220.577V222.773H195.461V219.095H195.943L196.044 219.642C196.073 219.546 196.138 219.45 196.238 219.354C196.339 219.258 196.464 219.179 196.613 219.116C196.766 219.054 196.934 219.023 197.116 219.023Z" fill="white"/>
<path d="M229.643 217.835V222.773H228.937V218.663H228.894L227.188 222.773H226.59L224.892 218.663H224.856V222.773H224.215V217.835H225.324L226.914 221.722H226.943L228.541 217.835H229.643ZM232.353 219.023C232.837 219.023 233.197 219.119 233.432 219.311C233.672 219.503 233.792 219.781 233.792 220.146V222.053C233.792 222.139 233.811 222.204 233.85 222.247C233.888 222.286 233.936 222.305 233.994 222.305C234.104 222.305 234.214 222.271 234.325 222.204V222.701C234.162 222.797 233.977 222.845 233.771 222.845C233.564 222.845 233.411 222.787 233.31 222.672C233.209 222.552 233.154 222.389 233.144 222.183C232.847 222.624 232.417 222.845 231.856 222.845C231.453 222.845 231.15 222.759 230.949 222.586C230.752 222.408 230.654 222.13 230.654 221.751C230.654 221.453 230.73 221.221 230.884 221.053C231.038 220.88 231.292 220.755 231.647 220.678C232.002 220.601 232.492 220.563 233.116 220.563V220.225C233.116 219.98 233.044 219.81 232.9 219.714C232.756 219.613 232.547 219.562 232.273 219.562C232.014 219.562 231.813 219.613 231.669 219.714C231.525 219.814 231.453 219.956 231.453 220.138V220.225H230.79C230.781 220.158 230.776 220.078 230.776 219.987C230.776 219.819 230.843 219.661 230.978 219.512C231.112 219.363 231.294 219.246 231.525 219.159C231.755 219.068 232.009 219.023 232.288 219.023H232.353ZM233.116 221.089C232.612 221.089 232.23 221.115 231.971 221.168C231.717 221.216 231.546 221.29 231.46 221.391C231.374 221.492 231.33 221.631 231.33 221.808C231.33 222.139 231.582 222.305 232.086 222.305C232.264 222.305 232.432 222.262 232.59 222.175C232.748 222.084 232.876 221.957 232.972 221.794C233.068 221.631 233.116 221.444 233.116 221.233V221.089ZM236.743 222.629C236.58 223.032 236.429 223.339 236.29 223.55C236.151 223.766 236.009 223.913 235.865 223.989C235.721 224.071 235.553 224.112 235.361 224.112C235.184 224.112 235.016 224.078 234.857 224.011V223.457C235.016 223.524 235.136 223.558 235.217 223.558C235.414 223.558 235.577 223.49 235.707 223.356C235.841 223.226 235.951 223.02 236.038 222.737L234.605 219.095H235.325L236.383 221.808H236.412L237.456 219.095H238.118L236.743 222.629Z" fill="white"/>
<path d="M266.459 221.427C266.459 221.864 266.325 222.209 266.056 222.463C265.788 222.718 265.435 222.845 264.998 222.845H264.933C264.497 222.845 264.149 222.723 263.89 222.478C263.635 222.233 263.508 221.883 263.508 221.427V221.276H264.214V221.47C264.214 221.686 264.285 221.864 264.429 222.003C264.578 222.137 264.765 222.204 264.991 222.204C265.216 222.204 265.399 222.137 265.538 222.003C265.682 221.868 265.754 221.691 265.754 221.47V217.835H266.459V221.427ZM270.759 222.053C270.759 222.139 270.779 222.204 270.817 222.247C270.855 222.286 270.903 222.305 270.961 222.305C271.067 222.305 271.175 222.271 271.285 222.204V222.701C271.136 222.797 270.985 222.845 270.831 222.845C270.572 222.845 270.39 222.792 270.284 222.687C270.184 222.581 270.128 222.432 270.119 222.24C269.989 222.432 269.821 222.581 269.615 222.687C269.413 222.792 269.181 222.845 268.917 222.845C268.547 222.845 268.242 222.737 268.002 222.521C267.767 222.3 267.65 221.984 267.65 221.571V219.095H268.326V221.448C268.326 222.02 268.586 222.305 269.104 222.305C269.272 222.305 269.43 222.259 269.579 222.168C269.732 222.077 269.855 221.955 269.946 221.801C270.037 221.643 270.083 221.47 270.083 221.283V219.095H270.759V222.053ZM273.949 219.023C274.353 219.023 274.669 219.131 274.9 219.347C275.13 219.562 275.245 219.879 275.245 220.297V222.773H274.569V220.419C274.569 219.848 274.309 219.562 273.791 219.562C273.618 219.562 273.458 219.608 273.309 219.699C273.16 219.79 273.04 219.915 272.949 220.074C272.858 220.227 272.812 220.398 272.812 220.585V222.773H272.135V219.095H272.625L272.719 219.634C273.026 219.227 273.436 219.023 273.949 219.023Z" fill="white"/>
<path d="M304.038 221.427C304.038 221.864 303.903 222.209 303.635 222.463C303.366 222.718 303.013 222.845 302.576 222.845H302.512C302.075 222.845 301.727 222.723 301.468 222.478C301.214 222.233 301.086 221.883 301.086 221.427V221.276H301.792V221.47C301.792 221.686 301.864 221.864 302.008 222.003C302.157 222.137 302.344 222.204 302.569 222.204C302.795 222.204 302.977 222.137 303.116 222.003C303.26 221.868 303.332 221.691 303.332 221.47V217.835H304.038V221.427ZM308.338 222.053C308.338 222.139 308.357 222.204 308.395 222.247C308.434 222.286 308.482 222.305 308.539 222.305C308.645 222.305 308.753 222.271 308.863 222.204V222.701C308.715 222.797 308.563 222.845 308.41 222.845C308.151 222.845 307.968 222.792 307.863 222.687C307.762 222.581 307.707 222.432 307.697 222.24C307.568 222.432 307.4 222.581 307.193 222.687C306.992 222.792 306.759 222.845 306.495 222.845C306.126 222.845 305.821 222.737 305.581 222.521C305.346 222.3 305.228 221.984 305.228 221.571V219.095H305.905V221.448C305.905 222.02 306.164 222.305 306.682 222.305C306.85 222.305 307.009 222.259 307.157 222.168C307.311 222.077 307.433 221.955 307.524 221.801C307.616 221.643 307.661 221.47 307.661 221.283V219.095H308.338V222.053ZM310.419 217.59V222.773H309.743V217.59H310.419Z" fill="white"/>
<path d="M127.89 103.274C128.461 103.274 128.978 103.395 129.442 103.637C129.912 103.878 130.285 104.231 130.561 104.695C130.836 105.158 130.974 105.706 130.974 106.337V107.123C130.974 107.755 130.836 108.302 130.561 108.766C130.285 109.23 129.912 109.582 129.442 109.824C128.978 110.066 128.461 110.187 127.89 110.187H125.27V103.274H127.89ZM126.832 108.947H127.89C128.32 108.947 128.669 108.81 128.938 108.534C129.207 108.252 129.341 107.856 129.341 107.345V106.116C129.341 105.605 129.207 105.212 128.938 104.937C128.669 104.654 128.32 104.513 127.89 104.513H126.832V108.947ZM135.272 106.71C135.272 106.482 135.198 106.297 135.051 106.156C134.91 106.015 134.678 105.944 134.355 105.944C134.167 105.944 134.006 105.978 133.872 106.045C133.737 106.106 133.633 106.183 133.559 106.277C133.492 106.371 133.458 106.458 133.458 106.539V106.62H132.037C132.024 106.539 132.017 106.478 132.017 106.438C132.017 106.149 132.111 105.891 132.299 105.662C132.494 105.434 132.763 105.256 133.106 105.128C133.448 105 133.841 104.937 134.285 104.937H134.496C135.222 104.937 135.773 105.081 136.149 105.37C136.525 105.652 136.713 106.042 136.713 106.539V108.917C136.713 109.038 136.74 109.129 136.794 109.189C136.855 109.25 136.925 109.28 137.006 109.28C137.073 109.28 137.147 109.267 137.227 109.24C137.308 109.213 137.372 109.189 137.419 109.169V110.076C137.17 110.217 136.875 110.288 136.532 110.288C136.163 110.288 135.88 110.214 135.686 110.066C135.491 109.912 135.376 109.697 135.343 109.421C134.873 109.999 134.295 110.288 133.61 110.288C133.099 110.288 132.679 110.184 132.35 109.975C132.021 109.767 131.856 109.371 131.856 108.786C131.856 108.309 131.99 107.946 132.259 107.698C132.535 107.443 132.914 107.271 133.398 107.184C133.882 107.097 134.506 107.053 135.272 107.053V106.71ZM135.272 107.879C134.634 107.879 134.157 107.943 133.841 108.071C133.532 108.192 133.378 108.393 133.378 108.675C133.378 108.897 133.438 109.055 133.559 109.149C133.687 109.236 133.878 109.28 134.134 109.28C134.308 109.28 134.483 109.233 134.658 109.139C134.832 109.045 134.977 108.911 135.091 108.736C135.212 108.561 135.272 108.366 135.272 108.151V107.879ZM140.933 110.096C140.798 110.15 140.62 110.194 140.398 110.227C140.183 110.268 139.992 110.288 139.824 110.288C139.307 110.288 138.917 110.177 138.655 109.955C138.393 109.734 138.262 109.364 138.262 108.847V106.045H137.698V105.037H138.312L138.826 103.395H139.733V105.037H140.933V106.045H139.733V108.595C139.733 108.863 139.784 109.045 139.884 109.139C139.992 109.233 140.133 109.28 140.308 109.28C140.388 109.28 140.492 109.267 140.62 109.24C140.748 109.213 140.852 109.183 140.933 109.149V110.096ZM145.035 106.71C145.035 106.482 144.961 106.297 144.813 106.156C144.672 106.015 144.44 105.944 144.118 105.944C143.93 105.944 143.769 105.978 143.634 106.045C143.5 106.106 143.396 106.183 143.322 106.277C143.255 106.371 143.221 106.458 143.221 106.539V106.62H141.8C141.787 106.539 141.78 106.478 141.78 106.438C141.78 106.149 141.874 105.891 142.062 105.662C142.257 105.434 142.526 105.256 142.868 105.128C143.211 105 143.604 104.937 144.047 104.937H144.259C144.985 104.937 145.536 105.081 145.912 105.37C146.288 105.652 146.476 106.042 146.476 106.539V108.917C146.476 109.038 146.503 109.129 146.557 109.189C146.617 109.25 146.688 109.28 146.768 109.28C146.836 109.28 146.91 109.267 146.99 109.24C147.071 109.213 147.135 109.189 147.182 109.169V110.076C146.933 110.217 146.637 110.288 146.295 110.288C145.925 110.288 145.643 110.214 145.448 110.066C145.253 109.912 145.139 109.697 145.106 109.421C144.635 109.999 144.058 110.288 143.372 110.288C142.862 110.288 142.442 110.184 142.113 109.975C141.783 109.767 141.619 109.371 141.619 108.786C141.619 108.309 141.753 107.946 142.022 107.698C142.297 107.443 142.677 107.271 143.161 107.184C143.644 107.097 144.269 107.053 145.035 107.053V106.71ZM145.035 107.879C144.397 107.879 143.92 107.943 143.604 108.071C143.295 108.192 143.14 108.393 143.14 108.675C143.14 108.897 143.201 109.055 143.322 109.149C143.45 109.236 143.641 109.28 143.896 109.28C144.071 109.28 144.246 109.233 144.42 109.139C144.595 109.045 144.739 108.911 144.854 108.736C144.975 108.561 145.035 108.366 145.035 108.151V107.879ZM154.21 108.827H151.458L150.975 110.187H149.473L151.982 103.274H153.837L156.346 110.187H154.713L154.21 108.827ZM151.882 107.647H153.796C153.541 106.888 153.232 105.985 152.869 104.937H152.819L151.882 107.647ZM158.286 105.793C158.71 105.222 159.257 104.937 159.929 104.937C160.453 104.937 160.883 105.078 161.219 105.36C161.562 105.642 161.733 106.052 161.733 106.589V110.187H160.262V106.912C160.262 106.65 160.184 106.435 160.03 106.267C159.882 106.092 159.691 106.005 159.455 106.005C159.193 106.005 158.968 106.106 158.78 106.307C158.592 106.502 158.498 106.74 158.498 107.023V110.187H157.027V105.037H158.125L158.286 105.793ZM166.194 106.71C166.194 106.482 166.12 106.297 165.972 106.156C165.831 106.015 165.6 105.944 165.277 105.944C165.089 105.944 164.928 105.978 164.793 106.045C164.659 106.106 164.555 106.183 164.481 106.277C164.414 106.371 164.38 106.458 164.38 106.539V106.62H162.959C162.946 106.539 162.939 106.478 162.939 106.438C162.939 106.149 163.033 105.891 163.221 105.662C163.416 105.434 163.685 105.256 164.028 105.128C164.37 105 164.763 104.937 165.207 104.937H165.418C166.144 104.937 166.695 105.081 167.071 105.37C167.447 105.652 167.635 106.042 167.635 106.539V108.917C167.635 109.038 167.662 109.129 167.716 109.189C167.776 109.25 167.847 109.28 167.928 109.28C167.995 109.28 168.069 109.267 168.149 109.24C168.23 109.213 168.294 109.189 168.341 109.169V110.076C168.092 110.217 167.797 110.288 167.454 110.288C167.084 110.288 166.802 110.214 166.607 110.066C166.413 109.912 166.298 109.697 166.265 109.421C165.794 109.999 165.217 110.288 164.531 110.288C164.021 110.288 163.601 110.184 163.272 109.975C162.942 109.767 162.778 109.371 162.778 108.786C162.778 108.309 162.912 107.946 163.181 107.698C163.456 107.443 163.836 107.271 164.32 107.184C164.803 107.097 165.428 107.053 166.194 107.053V106.71ZM166.194 107.879C165.556 107.879 165.079 107.943 164.763 108.071C164.454 108.192 164.3 108.393 164.3 108.675C164.3 108.897 164.36 109.055 164.481 109.149C164.609 109.236 164.8 109.28 165.055 109.28C165.23 109.28 165.405 109.233 165.579 109.139C165.754 109.045 165.899 108.911 166.013 108.736C166.134 108.561 166.194 108.366 166.194 108.151V107.879ZM169.063 110.187V102.931H170.534V110.187H169.063ZM174.719 109.905C174.471 110.577 174.165 111.104 173.802 111.487C173.44 111.877 173.003 112.072 172.492 112.072C172.136 112.072 171.847 112.021 171.626 111.92V110.882C171.706 110.916 171.81 110.946 171.938 110.973C172.066 111.007 172.187 111.023 172.301 111.023C172.731 111.023 173.036 110.711 173.218 110.086L171.273 105.037H172.835L173.974 108.272H174.034L175.102 105.037H176.554L174.719 109.905ZM180.072 110.096C179.938 110.15 179.76 110.194 179.538 110.227C179.323 110.268 179.131 110.288 178.963 110.288C178.446 110.288 178.056 110.177 177.794 109.955C177.532 109.734 177.401 109.364 177.401 108.847V106.045H176.837V105.037H177.452L177.966 103.395H178.873V105.037H180.072V106.045H178.873V108.595C178.873 108.863 178.923 109.045 179.024 109.139C179.131 109.233 179.273 109.28 179.447 109.28C179.528 109.28 179.632 109.267 179.76 109.24C179.887 109.213 179.991 109.183 180.072 109.149V110.096ZM181.01 102.931H182.502V104.09H181.01V102.931ZM181.02 110.187V105.037H182.492V110.187H181.02ZM185.085 108.101C185.085 108.437 185.172 108.719 185.347 108.947C185.521 109.169 185.757 109.28 186.052 109.28C186.361 109.28 186.603 109.186 186.778 108.998C186.959 108.803 187.05 108.517 187.05 108.141H188.441C188.441 108.618 188.336 109.018 188.128 109.34C187.927 109.663 187.658 109.901 187.322 110.056C186.986 110.211 186.617 110.288 186.213 110.288H186.052C185.3 110.288 184.702 110.066 184.258 109.623C183.815 109.173 183.593 108.551 183.593 107.758V107.466C183.593 106.942 183.697 106.492 183.906 106.116C184.121 105.733 184.413 105.44 184.782 105.239C185.152 105.037 185.575 104.937 186.052 104.937H186.213C186.61 104.937 186.976 105.024 187.312 105.199C187.655 105.367 187.927 105.615 188.128 105.944C188.336 106.267 188.441 106.65 188.441 107.093H186.979C186.979 106.744 186.902 106.465 186.748 106.257C186.593 106.048 186.365 105.944 186.062 105.944C185.76 105.944 185.521 106.065 185.347 106.307C185.172 106.542 185.085 106.841 185.085 107.204V108.101ZM190.47 108.615C190.47 108.85 190.574 109.021 190.783 109.129C190.991 109.23 191.249 109.28 191.558 109.28C191.827 109.28 192.066 109.24 192.274 109.159C192.489 109.078 192.596 108.951 192.596 108.776C192.596 108.588 192.499 108.454 192.304 108.373C192.109 108.292 191.807 108.222 191.397 108.161C190.967 108.087 190.615 108.007 190.339 107.92C190.064 107.832 189.825 107.681 189.624 107.466C189.429 107.251 189.331 106.952 189.331 106.569C189.331 106.22 189.432 105.924 189.634 105.682C189.842 105.434 190.114 105.249 190.45 105.128C190.793 105 191.165 104.937 191.569 104.937H191.77C192.126 104.937 192.462 104.997 192.778 105.118C193.1 105.232 193.359 105.397 193.554 105.612C193.749 105.82 193.846 106.059 193.846 106.327C193.846 106.381 193.843 106.431 193.836 106.478C193.829 106.519 193.826 106.542 193.826 106.549H192.536C192.536 106.146 192.227 105.944 191.609 105.944C191.327 105.944 191.098 105.985 190.924 106.065C190.756 106.146 190.672 106.257 190.672 106.398C190.672 106.566 190.762 106.683 190.944 106.751C191.132 106.818 191.424 106.882 191.821 106.942C192.271 107.016 192.633 107.097 192.909 107.184C193.191 107.264 193.436 107.416 193.645 107.637C193.853 107.852 193.957 108.158 193.957 108.554C193.957 109.166 193.742 109.609 193.312 109.885C192.882 110.153 192.334 110.288 191.669 110.288H191.337C190.92 110.288 190.547 110.224 190.218 110.096C189.889 109.969 189.63 109.787 189.442 109.552C189.261 109.317 189.17 109.048 189.17 108.746L189.18 108.544H190.47V108.615Z" fill="white"/>
<path opacity="0.4" d="M169.128 189.925C161.456 189.925 154.452 194.073 148.392 209.993H318.222V137.03C310.864 137.03 303.879 150.513 296.067 150.513C288.87 150.513 286.817 158.876 283.867 158.876C281.198 158.876 279.864 157.082 277.863 157.082C275.862 157.082 275.862 166.416 271.859 166.416C269.191 166.416 266.522 163.65 262.186 163.65C257.85 163.65 255.158 171.256 251.513 171.256C241.84 171.256 246.176 155.699 239.839 155.699C234.502 155.699 233.502 165.033 227.498 165.033C219.826 165.033 221.828 152.241 216.824 152.241C210.487 152.241 214.157 174.022 203.816 174.022C195.478 174.022 194.96 180.891 190.474 180.936C185.989 180.982 181.469 176.8 177.466 176.8C171.462 176.8 175.798 189.925 169.128 189.925Z" fill="url(#paint0_linear_687_7328)"/>
<path d="M148.392 209.993C154.452 194.073 161.456 189.925 169.128 189.925C175.798 189.925 171.462 176.8 177.466 176.8C181.469 176.8 185.989 180.982 190.474 180.936C194.96 180.891 195.478 174.022 203.816 174.022C214.157 174.022 210.487 152.241 216.824 152.241C221.828 152.241 219.826 165.033 227.498 165.033C233.502 165.033 234.502 155.699 239.839 155.699C246.176 155.699 241.84 171.256 251.513 171.256C255.158 171.256 257.85 163.65 262.186 163.65C266.522 163.65 269.191 166.416 271.859 166.416C275.862 166.416 275.862 157.082 277.863 157.082C279.864 157.082 281.198 158.876 283.867 158.876C286.817 158.876 288.87 150.513 296.067 150.513C303.879 150.513 310.864 137.03 318.222 137.03" stroke="#6B3CF7" stroke-width="1.43967" stroke-linecap="round" stroke-linejoin="round"/>
<path d="M148.392 209.993C154.451 194.074 161.949 196.79 169.621 196.79C176.291 196.79 176.084 186.019 182.088 186.019C186.091 186.019 190.744 187.802 195.23 187.757C199.715 187.711 200.707 177.681 209.045 177.681C219.386 177.681 214.839 165.52 221.176 165.52C226.179 165.52 224.624 168.3 232.296 168.3C238.299 168.3 242.459 157.082 247.796 157.082C254.133 157.082 246.547 177.681 256.22 177.681C259.865 177.681 264.015 187.757 268.351 187.757C272.687 187.757 271.748 172.817 274.416 172.817C278.419 172.817 276.775 164.13 280.818 164.13C284.862 164.13 285.226 164.13 287.895 164.13C290.845 164.13 289.458 161.351 296.656 161.351C304.468 161.351 310.526 168.3 317.884 168.3" stroke="#FCE670" stroke-width="1.43967" stroke-linecap="round" stroke-linejoin="round"/>
<path d="M239.191 149.65C238.924 149.872 238.537 149.872 238.27 149.65L233.114 145.355C232.08 144.494 232.689 142.81 234.036 142.81L243.425 142.81C244.772 142.81 245.381 144.494 244.346 145.355L239.191 149.65Z" fill="#6B3CF7"/>
<rect x="213.436" y="123.305" width="50.5875" height="23.8395" rx="2.87933" fill="#6B3CF7"/>
<path d="M222.398 128.905C222.237 129.481 221.955 130.16 221.551 130.944C221.148 131.721 220.783 132.303 220.454 132.688H222.441V130.969C222.637 130.584 222.792 130.189 222.908 129.786H223.288V132.688H224.039V133.457H223.288V134.917H222.441V133.457H219.651V132.68C220.434 131.505 221.048 130.247 221.491 128.905H222.398ZM227.185 128.905C227.75 128.905 228.202 129.055 228.542 129.354C228.887 129.654 229.06 130.054 229.06 130.555C229.06 130.866 228.994 131.119 228.861 131.315C228.735 131.511 228.533 131.692 228.257 131.859V131.894C228.585 132.043 228.832 132.228 228.999 132.447C229.172 132.665 229.259 132.956 229.259 133.319C229.259 133.849 229.077 134.263 228.714 134.563C228.357 134.857 227.848 135.003 227.185 135.003C226.552 135.003 226.048 134.857 225.674 134.563C225.3 134.263 225.112 133.849 225.112 133.319C225.112 132.956 225.199 132.662 225.372 132.438C225.544 132.208 225.792 132.026 226.114 131.894V131.859C225.798 131.663 225.585 131.47 225.475 131.28C225.366 131.09 225.311 130.866 225.311 130.607C225.311 130.054 225.484 129.633 225.829 129.345C226.175 129.052 226.627 128.905 227.185 128.905ZM227.185 129.674C226.875 129.674 226.624 129.76 226.434 129.933C226.25 130.106 226.158 130.324 226.158 130.589C226.158 130.854 226.25 131.073 226.434 131.246C226.624 131.419 226.875 131.505 227.185 131.505C227.496 131.505 227.744 131.419 227.928 131.246C228.118 131.073 228.213 130.854 228.213 130.589C228.213 130.324 228.118 130.106 227.928 129.933C227.744 129.76 227.496 129.674 227.185 129.674ZM227.185 132.274C226.621 132.274 226.244 132.458 226.054 132.827C225.991 132.965 225.959 133.109 225.959 133.258C225.959 133.581 226.074 133.826 226.304 133.993C226.535 134.154 226.828 134.235 227.185 134.235C227.548 134.235 227.842 134.151 228.067 133.984C228.297 133.811 228.412 133.569 228.412 133.258C228.412 132.953 228.3 132.714 228.075 132.542C227.856 132.363 227.56 132.274 227.185 132.274ZM231.377 128.698V132.965L233.346 130.503H234.236L232.534 132.645L234.348 134.917H233.364L232.042 133.276L231.377 133.967V134.917H230.565V128.698H231.377Z" fill="white"/>
<path opacity="0.8" d="M222.663 138.08L221.258 142.03H220.653L219.248 138.08H219.853L220.964 141.264H220.999L222.116 138.08H222.663ZM223.72 137.884V138.385H223.156V137.884H223.72ZM223.708 139.088V142.03H223.167V139.088H223.708ZM225.786 139.03C226.005 139.03 226.199 139.065 226.367 139.134C226.54 139.203 226.673 139.299 226.765 139.422C226.861 139.544 226.909 139.681 226.909 139.83L226.903 139.934H226.367V139.882C226.367 139.602 226.151 139.462 225.717 139.462C225.287 139.462 225.072 139.591 225.072 139.848C225.072 139.967 225.133 140.055 225.256 140.113C225.379 140.166 225.567 140.218 225.82 140.268C226.062 140.318 226.26 140.37 226.414 140.424C226.571 140.477 226.703 140.562 226.811 140.677C226.922 140.792 226.978 140.948 226.978 141.143C226.978 141.458 226.87 141.694 226.655 141.852C226.44 142.009 226.131 142.088 225.728 142.088H225.642C225.4 142.088 225.189 142.051 225.008 141.978C224.828 141.902 224.688 141.8 224.588 141.673C224.492 141.543 224.446 141.397 224.45 141.236V141.109H224.985V141.166C224.985 141.493 225.26 141.656 225.809 141.656C225.97 141.656 226.114 141.619 226.241 141.547C226.371 141.474 226.437 141.374 226.437 141.247C226.437 141.14 226.4 141.055 226.327 140.994C226.258 140.932 226.172 140.886 226.068 140.856C225.964 140.825 225.82 140.794 225.636 140.763C225.398 140.717 225.206 140.671 225.06 140.625C224.914 140.575 224.79 140.493 224.686 140.378C224.582 140.262 224.53 140.105 224.53 139.905C224.53 139.633 224.638 139.42 224.853 139.266C225.068 139.109 225.362 139.03 225.734 139.03H225.786ZM228.292 137.884V138.385H227.728V137.884H228.292ZM228.28 139.088V142.03H227.739V139.088H228.28ZM229.868 139.088H230.554V139.519H229.868V141.276C229.868 141.414 229.895 141.514 229.949 141.575C230.003 141.637 230.085 141.667 230.197 141.667C230.297 141.667 230.416 141.639 230.554 141.581V141.984C230.416 142.053 230.237 142.088 230.018 142.088C229.792 142.088 229.619 142.021 229.5 141.886C229.385 141.752 229.327 141.539 229.327 141.247V139.519H229.005V139.088H229.344L229.529 138.149H229.868V139.088ZM232.401 139.03C232.811 139.03 233.14 139.157 233.385 139.41C233.631 139.663 233.754 140.011 233.754 140.452V140.665C233.754 141.107 233.633 141.454 233.391 141.708C233.149 141.961 232.819 142.088 232.401 142.088C231.982 142.088 231.652 141.961 231.41 141.708C231.168 141.454 231.047 141.107 231.047 140.665V140.452C231.047 140.011 231.17 139.663 231.416 139.41C231.662 139.157 231.99 139.03 232.401 139.03ZM232.401 139.462C232.143 139.462 231.944 139.55 231.802 139.727C231.66 139.903 231.589 140.163 231.589 140.504V140.614C231.589 140.948 231.658 141.205 231.796 141.385C231.938 141.566 232.139 141.656 232.401 141.656C232.654 141.656 232.852 141.568 232.994 141.391C233.14 141.211 233.213 140.951 233.213 140.614V140.504C233.213 140.17 233.141 139.913 232.999 139.733C232.861 139.552 232.662 139.462 232.401 139.462ZM235.857 139.03C236.13 139.03 236.343 139.118 236.496 139.295C236.65 139.468 236.727 139.686 236.727 139.951L236.709 140.17H236.231V140.044C236.231 139.928 236.203 139.827 236.145 139.738C236.087 139.65 236.014 139.583 235.926 139.537C235.838 139.487 235.75 139.462 235.661 139.462C235.477 139.462 235.333 139.535 235.229 139.681C235.126 139.827 235.074 140.024 235.074 140.274V142.03H234.533V139.088H234.918L234.999 139.525C235.022 139.448 235.074 139.372 235.154 139.295C235.235 139.218 235.335 139.155 235.454 139.105C235.577 139.055 235.711 139.03 235.857 139.03Z" fill="white"/>
<ellipse cx="253.183" cy="134.863" rx="5.05875" ry="5.05686" fill="white"/>
<path d="M253.556 133.593C253.365 133.389 253.005 133.389 252.814 133.593L250.92 135.614C250.668 135.884 250.89 136.285 251.292 136.285L255.078 136.285C255.479 136.285 255.701 135.884 255.449 135.614L253.556 133.593Z" fill="#38E7B2"/>
<path d="M241.257 155.812C241.257 157.209 240.124 158.342 238.726 158.342C237.328 158.342 236.195 157.209 236.195 155.812C236.195 154.415 237.328 153.283 238.726 153.283C240.124 153.283 241.257 154.415 241.257 155.812Z" fill="#6B3CF7" stroke="#6B3CF7" stroke-width="0.719833"/>
<rect x="244" y="20" width="219" height="109.5" rx="16.4063" fill="#2F2F32"/>
<path d="M262.094 41.4981C261.872 41.5855 261.583 41.6291 261.227 41.6291C260.884 41.6291 260.606 41.5452 260.391 41.3772C260.176 41.2092 260.068 40.9271 260.068 40.5307C260.068 39.9529 259.991 39.5028 259.836 39.1803C259.689 38.8578 259.406 38.6965 258.99 38.6965H257.821V41.5586H256.289V34.6453H259.383C260.041 34.6453 260.592 34.7797 261.036 35.0484C261.486 35.3172 261.711 35.7539 261.711 36.3585C261.711 36.6004 261.657 36.8389 261.55 37.074C261.442 37.3092 261.291 37.5107 261.096 37.6787C260.908 37.8467 260.7 37.9508 260.471 37.9911V38.0415C260.767 38.1355 261.026 38.3371 261.247 38.6462C261.469 38.9552 261.58 39.3684 261.58 39.8857C261.58 40.6247 261.751 41.048 262.094 41.1555V41.4981ZM259.333 37.4771C259.554 37.4771 259.742 37.4032 259.897 37.2554C260.058 37.1076 260.139 36.9296 260.139 36.7213V36.6508C260.139 36.4291 260.061 36.2477 259.907 36.1066C259.759 35.9588 259.568 35.8849 259.333 35.8849H257.821V37.4771H259.333ZM267.707 39.6338C267.707 40.0839 267.6 40.4635 267.385 40.7725C267.17 41.0749 266.884 41.2999 266.528 41.4477C266.179 41.5888 265.796 41.6594 265.38 41.6594H265.218C264.741 41.6594 264.311 41.5586 263.928 41.357C263.545 41.1555 263.243 40.8666 263.021 40.4904C262.806 40.1074 262.699 39.6539 262.699 39.1299V38.8376C262.699 38.3203 262.81 37.8702 263.031 37.4872C263.253 37.1043 263.552 36.812 263.928 36.6105C264.311 36.4089 264.741 36.3081 265.218 36.3081H265.38C265.796 36.3081 266.182 36.3955 266.538 36.5702C266.895 36.7381 267.18 36.9867 267.395 37.3159C267.61 37.6384 267.718 38.0213 267.718 38.4648V39.2307H264.19V39.4725C264.19 39.8084 264.288 40.0906 264.483 40.319C264.684 40.5408 264.956 40.6516 265.299 40.6516C265.608 40.6516 265.85 40.5676 266.024 40.3997C266.206 40.225 266.297 39.9697 266.297 39.6338H267.707ZM265.228 37.3159C264.933 37.3159 264.691 37.42 264.503 37.6283C264.321 37.8366 264.217 38.102 264.19 38.4244H266.226C266.226 38.0818 266.145 37.8131 265.984 37.6182C265.83 37.4167 265.578 37.3159 265.228 37.3159ZM271.678 41.5586H270.015L268.211 36.4089H269.773L270.892 39.8555H270.942L272.061 36.4089H273.492L271.678 41.5586ZM278.996 39.6338C278.996 40.0839 278.888 40.4635 278.673 40.7725C278.458 41.0749 278.173 41.2999 277.817 41.4477C277.467 41.5888 277.084 41.6594 276.668 41.6594H276.506C276.029 41.6594 275.599 41.5586 275.216 41.357C274.834 41.1555 274.531 40.8666 274.309 40.4904C274.095 40.1074 273.987 39.6539 273.987 39.1299V38.8376C273.987 38.3203 274.098 37.8702 274.32 37.4872C274.541 37.1043 274.84 36.812 275.216 36.6105C275.599 36.4089 276.029 36.3081 276.506 36.3081H276.668C277.084 36.3081 277.471 36.3955 277.827 36.5702C278.183 36.7381 278.468 36.9867 278.683 37.3159C278.898 37.6384 279.006 38.0213 279.006 38.4648V39.2307H275.479V39.4725C275.479 39.8084 275.576 40.0906 275.771 40.319C275.972 40.5408 276.244 40.6516 276.587 40.6516C276.896 40.6516 277.138 40.5676 277.313 40.3997C277.494 40.225 277.585 39.9697 277.585 39.6338H278.996ZM276.517 37.3159C276.221 37.3159 275.979 37.42 275.791 37.6283C275.61 37.8366 275.505 38.102 275.479 38.4244H277.514C277.514 38.0818 277.434 37.8131 277.272 37.6182C277.118 37.4167 276.866 37.3159 276.517 37.3159ZM281.364 37.1647C281.787 36.5937 282.335 36.3081 283.006 36.3081C283.53 36.3081 283.96 36.4492 284.296 36.7314C284.639 37.0136 284.81 37.4234 284.81 37.9609V41.5586H283.339V38.2834C283.339 38.0213 283.262 37.8063 283.107 37.6384C282.959 37.4637 282.768 37.3764 282.533 37.3764C282.271 37.3764 282.046 37.4771 281.858 37.6787C281.669 37.8735 281.575 38.112 281.575 38.3942V41.5586H280.104V36.4089H281.202L281.364 37.1647ZM290.803 40.3493C290.803 40.4501 290.833 40.5273 290.894 40.5811C290.954 40.6281 291.022 40.6516 291.095 40.6516C291.163 40.6516 291.237 40.6382 291.317 40.6113C291.398 40.5844 291.462 40.5609 291.509 40.5408V41.4477C291.26 41.5888 290.964 41.6594 290.622 41.6594C289.95 41.6594 289.56 41.4141 289.453 40.9237C289.03 41.4141 288.512 41.6594 287.901 41.6594C287.377 41.6594 286.943 41.5183 286.601 41.2361C286.265 40.9539 286.097 40.5441 286.097 40.0066V36.4089H287.568V39.6841C287.568 39.9462 287.642 40.1645 287.79 40.3392C287.945 40.5072 288.139 40.5911 288.375 40.5911C288.637 40.5911 288.862 40.4937 289.05 40.2989C289.238 40.0973 289.332 39.8555 289.332 39.5733V36.4089H290.803V40.3493ZM297.065 39.6338C297.065 40.0839 296.957 40.4635 296.742 40.7725C296.527 41.0749 296.242 41.2999 295.885 41.4477C295.536 41.5888 295.153 41.6594 294.737 41.6594H294.575C294.098 41.6594 293.668 41.5586 293.285 41.357C292.902 41.1555 292.6 40.8666 292.378 40.4904C292.163 40.1074 292.056 39.6539 292.056 39.1299V38.8376C292.056 38.3203 292.167 37.8702 292.388 37.4872C292.61 37.1043 292.909 36.812 293.285 36.6105C293.668 36.4089 294.098 36.3081 294.575 36.3081H294.737C295.153 36.3081 295.539 36.3955 295.896 36.5702C296.252 36.7381 296.537 36.9867 296.752 37.3159C296.967 37.6384 297.075 38.0213 297.075 38.4648V39.2307H293.547V39.4725C293.547 39.8084 293.645 40.0906 293.84 40.319C294.041 40.5408 294.313 40.6516 294.656 40.6516C294.965 40.6516 295.207 40.5676 295.382 40.3997C295.563 40.225 295.654 39.9697 295.654 39.6338H297.065ZM294.585 37.3159C294.29 37.3159 294.048 37.42 293.86 37.6283C293.678 37.8366 293.574 38.102 293.547 38.4244H295.583C295.583 38.0818 295.502 37.8131 295.341 37.6182C295.187 37.4167 294.935 37.3159 294.585 37.3159ZM301.838 38.8175C301.838 39.3281 301.976 39.7245 302.252 40.0066C302.534 40.2821 302.887 40.4198 303.31 40.4198C303.726 40.4198 304.052 40.2955 304.287 40.0469C304.522 39.7984 304.64 39.4255 304.64 38.9283H303.078V37.7996H306.101V40.188C306.101 40.524 306.108 40.8196 306.121 41.0749C306.142 41.3302 306.155 41.4914 306.162 41.5586H305.305C305.218 41.3167 305.137 41.0581 305.063 40.7826C304.848 41.0581 304.566 41.2731 304.217 41.4276C303.874 41.5821 303.508 41.6594 303.118 41.6594H303.068C302.517 41.6594 302.023 41.5351 301.586 41.2865C301.157 41.0379 300.817 40.6818 300.569 40.2183C300.327 39.7547 300.206 39.2139 300.206 38.5958V37.6082C300.206 36.9901 300.333 36.4492 300.589 35.9856C300.844 35.5221 301.2 35.166 301.657 34.9174C302.121 34.6688 302.645 34.5445 303.229 34.5445H303.37C303.874 34.5445 304.334 34.652 304.751 34.867C305.167 35.0753 305.497 35.3743 305.738 35.7639C305.98 36.1469 306.101 36.5937 306.101 37.1043H304.63C304.63 36.6676 304.502 36.3384 304.247 36.1167C303.992 35.8949 303.669 35.7841 303.28 35.7841C302.856 35.7841 302.51 35.9252 302.242 36.2074C301.973 36.4828 301.838 36.8758 301.838 37.3864V38.8175ZM310.326 38.1725C310.326 37.9642 310.269 37.7862 310.155 37.6384C310.04 37.4839 309.859 37.4066 309.611 37.4066C309.375 37.4066 309.194 37.5007 309.066 37.6888C308.945 37.8702 308.885 38.0986 308.885 38.3741V41.5586H307.434V36.4089H308.522L308.704 37.1647C308.73 37.0908 308.798 36.9867 308.905 36.8523C309.019 36.718 309.181 36.5937 309.389 36.4795C309.604 36.3652 309.856 36.3081 310.145 36.3081C310.608 36.3081 310.964 36.4526 311.213 36.7415C311.468 37.0304 311.596 37.4133 311.596 37.8903C311.596 37.9911 311.589 38.0919 311.576 38.1927C311.569 38.2934 311.562 38.364 311.555 38.4043H310.326V38.1725ZM317.333 39.1299C317.333 39.6472 317.222 40.0973 317 40.4803C316.785 40.8632 316.486 41.1555 316.103 41.357C315.72 41.5586 315.29 41.6594 314.813 41.6594H314.652C314.175 41.6594 313.745 41.5586 313.362 41.357C312.979 41.1555 312.677 40.8632 312.455 40.4803C312.24 40.0973 312.133 39.6472 312.133 39.1299V38.8376C312.133 38.3203 312.24 37.8702 312.455 37.4872C312.677 37.1043 312.979 36.812 313.362 36.6105C313.745 36.4089 314.175 36.3081 314.652 36.3081H314.813C315.29 36.3081 315.72 36.4089 316.103 36.6105C316.486 36.812 316.785 37.1043 317 37.4872C317.222 37.8702 317.333 38.3203 317.333 38.8376V39.1299ZM315.841 38.5756C315.841 38.1658 315.737 37.8534 315.529 37.6384C315.327 37.4234 315.062 37.3159 314.733 37.3159C314.403 37.3159 314.135 37.4234 313.926 37.6384C313.725 37.8534 313.624 38.1658 313.624 38.5756V39.3919C313.624 39.8017 313.725 40.1141 313.926 40.3291C314.135 40.5441 314.403 40.6516 314.733 40.6516C315.062 40.6516 315.327 40.5441 315.529 40.3291C315.737 40.1141 315.841 39.8017 315.841 39.3919V38.5756ZM321.863 38.6865C321.5 39.963 321.225 40.9203 321.037 41.5586H319.394L317.822 36.4089H319.344L320.231 39.5935H320.291C320.466 38.9754 320.6 38.5118 320.694 38.2027L321.208 36.4089H322.679L323.576 39.5935H323.637C324.04 38.1826 324.339 37.1211 324.534 36.4089H325.965L324.393 41.5586H322.77L321.924 38.6865H321.863ZM329.485 41.4679C329.351 41.5216 329.173 41.5653 328.951 41.5989C328.736 41.6392 328.544 41.6594 328.376 41.6594C327.859 41.6594 327.469 41.5485 327.207 41.3268C326.945 41.1051 326.814 40.7356 326.814 40.2183V37.4167H326.25V36.4089H326.865L327.379 34.7663H328.286V36.4089H329.485V37.4167H328.286V39.9663C328.286 40.2351 328.336 40.4165 328.437 40.5105C328.544 40.6046 328.685 40.6516 328.86 40.6516C328.941 40.6516 329.045 40.6382 329.173 40.6113C329.3 40.5844 329.404 40.5542 329.485 40.5206V41.4679ZM331.905 36.9128C332.294 36.5097 332.771 36.3081 333.336 36.3081C333.86 36.3081 334.29 36.4492 334.626 36.7314C334.968 37.0136 335.139 37.4234 335.139 37.9609V41.5586H333.668V38.2834C333.668 38.0213 333.591 37.8063 333.436 37.6384C333.289 37.4637 333.097 37.3764 332.862 37.3764C332.6 37.3764 332.375 37.4771 332.187 37.6787C331.999 37.8735 331.905 38.112 331.905 38.3942V41.5586H330.433V34.3027H331.905V36.9128Z" fill="white"/>
<path d="M261.344 84.2813C261.344 82.2935 262.955 80.6821 264.943 80.6821H267.286C269.274 80.6821 270.885 82.2935 270.885 84.2813V114.648C270.885 116.636 269.274 118.247 267.286 118.247H264.943C262.955 118.247 261.344 116.636 261.344 114.648V84.2813Z" fill="#6B3CF7"/>
<path d="M279.368 64.0537C279.368 62.066 280.979 60.4546 282.967 60.4546H285.31C287.298 60.4546 288.909 62.066 288.909 64.0538V114.648C288.909 116.636 287.298 118.247 285.31 118.247H282.967C280.979 118.247 279.368 116.636 279.368 114.648V64.0537Z" fill="#FCE670"/>
<path d="M297.389 92.2281C297.389 90.2403 299 88.6289 300.988 88.6289H303.331C305.319 88.6289 306.931 90.2403 306.931 92.2281V114.648C306.931 116.636 305.319 118.248 303.331 118.248H300.988C299 118.248 297.389 116.636 297.389 114.648V92.2281Z" fill="#6B3CF7"/>
<path d="M315.413 78.5025C315.413 76.5147 317.024 74.9033 319.012 74.9033H321.356C323.343 74.9033 324.955 76.5147 324.955 78.5025V114.649C324.955 116.636 323.343 118.248 321.356 118.248H319.012C317.024 118.248 315.413 116.636 315.413 114.649V78.5025Z" fill="#FCE670"/>
<path d="M333.437 104.508C333.437 102.521 335.049 100.909 337.036 100.909H339.38C341.368 100.909 342.979 102.521 342.979 104.508V114.648C342.979 116.636 341.368 118.247 339.38 118.247H337.036C335.049 118.247 333.437 116.636 333.437 114.648V104.508Z" fill="#6B3CF7"/>
<path d="M351.458 72.0005C351.458 70.0128 353.07 68.4014 355.058 68.4014H357.401C359.389 68.4014 361 70.0128 361 72.0005V114.648C361 116.636 359.389 118.248 357.401 118.248H355.058C353.07 118.248 351.458 116.636 351.458 114.648V72.0005Z" fill="#FCE670"/>
<path d="M385.325 74.7401H389.111V65.7761H385.302V63.7461C386.154 63.6853 387.119 63.4724 388.199 63.1074C389.279 62.7273 390.297 62.2711 391.255 61.7389H392.464V74.7401H396.182V77.5H385.325V74.7401ZM399.656 80.7845C399.808 80.0546 400.051 78.9598 400.386 77.5H398.949V74.1471H402.279V76.9526L401.321 80.7845H399.656ZM405.115 76.8157C405.115 75.8121 405.283 75.0214 405.617 74.4436C405.967 73.8505 406.453 73.3107 407.077 72.8241L411.525 69.3343C412.102 68.8933 412.498 68.4448 412.711 67.9886C412.939 67.5172 413.053 67.0306 413.053 66.5288C413.053 65.9662 412.87 65.4796 412.505 65.069C412.141 64.6432 411.593 64.4304 410.863 64.4304C410.27 64.4304 409.776 64.5672 409.381 64.8409C409 65.0994 408.719 65.4112 408.537 65.7761C408.354 66.141 408.263 66.4604 408.263 66.7341C408.263 67.0078 408.271 67.2131 408.286 67.3499H405.161C405.146 67.2283 405.138 67.0838 405.138 66.9166C405.138 66.0954 405.321 65.2895 405.686 64.4988C406.05 63.6929 406.674 63.0162 407.556 62.4688C408.438 61.9061 409.593 61.6248 411.023 61.6248H411.365C412.46 61.6248 413.395 61.8529 414.171 62.3091C414.961 62.7653 415.554 63.3659 415.95 64.111C416.345 64.8409 416.543 65.624 416.543 66.4604C416.543 67.3575 416.368 68.1559 416.018 68.8553C415.684 69.5396 415.098 70.2315 414.262 70.931C413.304 71.7369 412.148 72.6493 410.795 73.6681C410.643 73.7897 410.453 73.957 410.225 74.1699C409.996 74.3828 409.882 74.5196 409.882 74.5804H416.588V77.5H405.115V76.8157ZM425.4 67.7377C425.765 67.1903 426.107 66.5212 426.426 65.7305C426.761 64.9398 427.019 64.2099 427.201 63.5408H428.661V71.1591H430.76V73.8505H428.661V77.5H425.4V73.8505H418.511V71.1362C419.287 69.9046 420.077 68.3763 420.883 66.5516C421.704 64.7117 422.32 63.0694 422.731 61.6248H425.947C425.719 62.6589 425.308 63.8145 424.715 65.0918C424.122 66.3539 423.484 67.54 422.799 68.6501C422.13 69.7601 421.552 70.5964 421.066 71.1591H425.4V67.7377ZM444.498 72.2539C444.498 73.2727 444.254 74.2003 443.768 75.0366C443.281 75.8729 442.62 76.5344 441.783 77.021C440.947 77.4924 440.027 77.7281 439.024 77.7281H438.362C437.359 77.7281 436.439 77.4924 435.602 77.021C434.766 76.5344 434.104 75.8729 433.618 75.0366C433.146 74.2003 432.911 73.2727 432.911 72.2539V67.1218C432.911 66.103 433.146 65.1755 433.618 64.3391C434.104 63.5028 434.766 62.8413 435.602 62.3547C436.439 61.8681 437.359 61.6248 438.362 61.6248H439.024C440.027 61.6248 440.947 61.8681 441.783 62.3547C442.62 62.8413 443.281 63.5028 443.768 64.3391C444.254 65.1755 444.498 66.103 444.498 67.1218V72.2539ZM441.122 66.7341C441.122 66.0498 440.886 65.472 440.415 65.0006C439.959 64.5292 439.389 64.2935 438.704 64.2935C438.02 64.2935 437.442 64.5292 436.971 65.0006C436.515 65.472 436.286 66.0498 436.286 66.7341V72.6188C436.286 73.3031 436.515 73.8809 436.971 74.3523C437.442 74.8237 438.02 75.0594 438.704 75.0594C439.389 75.0594 439.959 74.8237 440.415 74.3523C440.886 73.8809 441.122 73.3031 441.122 72.6188V66.7341Z" fill="white"/>
<path d="M404.129 91.8826C404.931 91.8826 405.559 92.06 406.013 92.4148C406.475 92.7696 406.705 93.2735 406.705 93.9263V94.054H405.662V93.8944C405.662 93.5538 405.524 93.2912 405.247 93.1067C404.97 92.9222 404.605 92.8299 404.151 92.8299C403.647 92.8299 403.253 92.9151 402.969 93.0854C402.692 93.2486 402.554 93.4863 402.554 93.7986C402.554 94.0327 402.632 94.2243 402.788 94.3734C402.951 94.5224 403.15 94.6395 403.384 94.7246C403.626 94.8098 403.956 94.9056 404.374 95.012C404.914 95.1539 405.35 95.2923 405.683 95.4271C406.017 95.562 406.301 95.7642 406.535 96.0339C406.776 96.3035 406.897 96.6619 406.897 97.1089C406.897 97.9037 406.652 98.4856 406.162 98.8546C405.68 99.2165 404.999 99.3975 404.119 99.3975C403.239 99.3975 402.554 99.213 402.064 98.844C401.582 98.4679 401.341 97.925 401.341 97.2154L401.351 97.0025H402.394L402.384 97.226C402.384 97.6376 402.536 97.9463 402.841 98.1521C403.154 98.3508 403.583 98.4501 404.129 98.4501C404.662 98.4501 405.08 98.3543 405.385 98.1627C405.698 97.964 405.854 97.6944 405.854 97.3538C405.854 97.0841 405.769 96.8677 405.598 96.7045C405.435 96.5342 405.226 96.4029 404.97 96.3106C404.722 96.2184 404.381 96.1155 403.948 96.0019C403.416 95.86 402.99 95.7252 402.671 95.5975C402.352 95.4697 402.079 95.2746 401.852 95.012C401.624 94.7424 401.511 94.3911 401.511 93.9582C401.511 93.2557 401.749 92.7341 402.224 92.3935C402.7 92.0529 403.335 91.8826 404.129 91.8826ZM410.484 93.7454C411.2 93.7454 411.732 93.8873 412.08 94.1711C412.435 94.455 412.612 94.8665 412.612 95.4059V98.2266C412.612 98.3543 412.641 98.4501 412.698 98.514C412.754 98.5708 412.825 98.5991 412.91 98.5991C413.074 98.5991 413.237 98.5495 413.4 98.4501V99.1846C413.159 99.3265 412.886 99.3975 412.58 99.3975C412.275 99.3975 412.048 99.3123 411.899 99.142C411.75 98.9646 411.669 98.7233 411.654 98.4182C411.214 99.071 410.579 99.3975 409.749 99.3975C409.153 99.3975 408.706 99.2697 408.408 99.0143C408.117 98.7517 407.971 98.3401 407.971 97.7795C407.971 97.3396 408.085 96.9954 408.312 96.747C408.539 96.4916 408.915 96.3071 409.44 96.1935C409.966 96.08 410.689 96.0232 411.612 96.0232V95.5229C411.612 95.161 411.505 94.9091 411.293 94.7672C411.08 94.6182 410.771 94.5437 410.366 94.5437C409.983 94.5437 409.685 94.6182 409.472 94.7672C409.259 94.9162 409.153 95.1256 409.153 95.3952V95.5229H408.174C408.16 95.4236 408.152 95.3065 408.152 95.1717C408.152 94.9233 408.252 94.6891 408.45 94.4692C408.649 94.2492 408.919 94.0753 409.259 93.9476C409.6 93.8128 409.976 93.7454 410.388 93.7454H410.484ZM411.612 96.8003C410.867 96.8003 410.303 96.8393 409.919 96.9173C409.543 96.9883 409.291 97.0983 409.164 97.2473C409.036 97.3963 408.972 97.6021 408.972 97.8647C408.972 98.3543 409.345 98.5991 410.09 98.5991C410.352 98.5991 410.601 98.5353 410.835 98.4075C411.069 98.2727 411.257 98.0847 411.399 97.8434C411.541 97.6021 411.612 97.3254 411.612 97.0131V96.8003ZM415.614 91.6271V99.291H414.613V91.6271H415.614ZM419.601 93.7454C420.048 93.7454 420.442 93.8412 420.782 94.0327C421.13 94.2172 421.4 94.4834 421.591 94.8311C421.783 95.1788 421.879 95.5833 421.879 96.0445V96.8003H418.079C418.093 97.375 418.228 97.8186 418.483 98.1308C418.739 98.443 419.118 98.5991 419.622 98.5991C420.069 98.5991 420.399 98.4679 420.612 98.2053C420.825 97.9427 420.931 97.6305 420.931 97.2686H421.879C421.879 97.6944 421.779 98.0669 421.581 98.3863C421.389 98.7056 421.119 98.9539 420.772 99.1314C420.431 99.3088 420.041 99.3975 419.601 99.3975H419.558C418.792 99.3975 418.185 99.1526 417.738 98.663C417.298 98.1663 417.078 97.5063 417.078 96.6832V96.4703C417.078 95.931 417.177 95.4555 417.376 95.044C417.575 94.6324 417.859 94.313 418.228 94.086C418.597 93.8589 419.03 93.7454 419.526 93.7454H419.601ZM419.548 94.5437C419.143 94.5437 418.813 94.6679 418.558 94.9162C418.309 95.1646 418.157 95.5336 418.1 96.0232H420.889V95.8955C420.889 95.491 420.765 95.1646 420.516 94.9162C420.275 94.6679 419.952 94.5437 419.548 94.5437ZM425.409 93.7454C425.813 93.7454 426.172 93.8092 426.484 93.9369C426.803 94.0647 427.048 94.2421 427.218 94.4692C427.396 94.6962 427.485 94.9482 427.485 95.2249L427.474 95.4165H426.484V95.3207C426.484 94.8027 426.083 94.5437 425.281 94.5437C424.486 94.5437 424.089 94.7814 424.089 95.2568C424.089 95.4768 424.203 95.64 424.43 95.7465C424.657 95.8458 425.004 95.9416 425.473 96.0339C425.92 96.1261 426.285 96.2219 426.569 96.3213C426.86 96.4206 427.105 96.5767 427.304 96.7896C427.509 97.0025 427.612 97.2899 427.612 97.6518C427.612 98.2337 427.414 98.6701 427.016 98.961C426.619 99.252 426.048 99.3975 425.303 99.3975H425.143C424.696 99.3975 424.306 99.33 423.972 99.1952C423.638 99.0533 423.379 98.8652 423.195 98.6311C423.018 98.3898 422.932 98.1201 422.939 97.8221V97.5879H423.929V97.6944C423.929 98.2976 424.437 98.5991 425.452 98.5991C425.75 98.5991 426.016 98.5317 426.25 98.3969C426.491 98.2621 426.612 98.0776 426.612 97.8434C426.612 97.6447 426.544 97.4886 426.41 97.375C426.282 97.2615 426.122 97.1764 425.931 97.1196C425.739 97.0628 425.473 97.006 425.132 96.9493C424.692 96.8641 424.337 96.779 424.068 96.6938C423.798 96.6016 423.568 96.449 423.376 96.2361C423.184 96.0232 423.089 95.7323 423.089 95.3633C423.089 94.8595 423.287 94.4656 423.685 94.1818C424.082 93.8908 424.625 93.7454 425.313 93.7454H425.409Z" fill="white"/>
<defs>
<filter id="filter0_d_687_7328" x="0.840644" y="0.690176" width="223.818" height="139.818" filterUnits="userSpaceOnUse" color-interpolation-filters="sRGB">
<feFlood flood-opacity="0" result="BackgroundImageFix"/>
<feColorMatrix in="SourceAlpha" type="matrix" values="0 0 0 0 0 0 0 0 0 0 0 0 0 0 0 0 0 0 127 0" result="hardAlpha"/>
<feMorphology radius="1.58732" operator="erode" in="SourceAlpha" result="effect1_dropShadow_687_7328"/>
<feOffset dy="6.34929"/>
<feGaussianBlur stdDeviation="15.8732"/>
<feColorMatrix type="matrix" values="0 0 0 0 0.0235294 0 0 0 0 0.0470588 0 0 0 0 0.231373 0 0 0 0.08 0"/>
<feBlend mode="normal" in2="BackgroundImageFix" result="effect1_dropShadow_687_7328"/>
<feBlend mode="normal" in="SourceGraphic" in2="effect1_dropShadow_687_7328" result="shape"/>
</filter>
<filter id="filter1_d_687_7328" x="85.628" y="67.0339" width="271.511" height="202.078" filterUnits="userSpaceOnUse" color-interpolation-filters="sRGB">
<feFlood flood-opacity="0" result="BackgroundImageFix"/>
<feColorMatrix in="SourceAlpha" type="matrix" values="0 0 0 0 0 0 0 0 0 0 0 0 0 0 0 0 0 0 127 0" result="hardAlpha"/>
<feMorphology radius="1.43967" operator="erode" in="SourceAlpha" result="effect1_dropShadow_687_7328"/>
<feOffset dy="5.75866"/>
<feGaussianBlur stdDeviation="14.3967"/>
<feColorMatrix type="matrix" values="0 0 0 0 0.0235294 0 0 0 0 0.0470588 0 0 0 0 0.231373 0 0 0 0.08 0"/>
<feBlend mode="normal" in2="BackgroundImageFix" result="effect1_dropShadow_687_7328"/>
<feBlend mode="normal" in="SourceGraphic" in2="effect1_dropShadow_687_7328" result="shape"/>
</filter>
<linearGradient id="paint0_linear_687_7328" x1="233.307" y1="115.488" x2="233.307" y2="209.993" gradientUnits="userSpaceOnUse">
<stop stop-color="#9374FF"/>
<stop offset="1" stop-color="#9374FF" stop-opacity="0"/>
</linearGradient>
<clipPath id="clip0_687_7328">
<rect width="45" height="45" fill="white" transform="translate(46 42.5)"/>
</clipPath>
</defs>
</svg>
