<svg width="100" height="21" viewBox="0 0 100 21" fill="none" xmlns="http://www.w3.org/2000/svg">
<path d="M9.25112 2.64985C9.46334 1.99669 10.3874 1.99669 10.5996 2.64986L11.9946 6.9431C12.0895 7.2352 12.3617 7.43297 12.6688 7.43297H17.183C17.8698 7.43297 18.1554 8.3118 17.5997 8.71548L13.9477 11.3689C13.6992 11.5494 13.5952 11.8694 13.6901 12.1615L15.0851 16.4547C15.2973 17.1079 14.5498 17.651 13.9941 17.2474L10.3421 14.594C10.0936 14.4135 9.75714 14.4135 9.50866 14.594L5.85661 17.2474C5.30099 17.651 4.55341 17.1079 4.76564 16.4547L6.1606 12.1615C6.25551 11.8694 6.15154 11.5494 5.90306 11.3689L2.25101 8.71548C1.69539 8.3118 1.98094 7.43297 2.66772 7.43297H7.1819C7.48904 7.43297 7.76125 7.2352 7.85616 6.9431L9.25112 2.64985Z" fill="black"/>
<path d="M29.1019 2.64985C29.3141 1.99669 30.2382 1.99669 30.4504 2.64986L31.8454 6.9431C31.9403 7.2352 32.2125 7.43297 32.5196 7.43297H37.0338C37.7206 7.43297 38.0061 8.3118 37.4505 8.71548L33.7985 11.3689C33.55 11.5494 33.446 11.8694 33.5409 12.1615L34.9359 16.4547C35.1481 17.1079 34.4005 17.651 33.8449 17.2474L30.1929 14.594C29.9444 14.4135 29.6079 14.4135 29.3594 14.594L25.7074 17.2474C25.1518 17.651 24.4042 17.1079 24.6164 16.4547L26.0114 12.1615C26.1063 11.8694 26.0023 11.5494 25.7538 11.3689L22.1018 8.71548C21.5462 8.3118 21.8317 7.43297 22.5185 7.43297H27.0327C27.3398 7.43297 27.612 7.2352 27.7069 6.9431L29.1019 2.64985Z" fill="black"/>
<path d="M48.9526 2.64985C49.1648 1.99669 50.0889 1.99669 50.3011 2.64986L51.6961 6.9431C51.791 7.2352 52.0632 7.43297 52.3703 7.43297H56.8845C57.5713 7.43297 57.8568 8.3118 57.3012 8.71548L53.6492 11.3689C53.4007 11.5494 53.2967 11.8694 53.3916 12.1615L54.7866 16.4547C54.9988 17.1079 54.2512 17.651 53.6956 17.2474L50.0436 14.594C49.7951 14.4135 49.4586 14.4135 49.2101 14.594L45.5581 17.2474C45.0025 17.651 44.2549 17.1079 44.4671 16.4547L45.8621 12.1615C45.957 11.8694 45.853 11.5494 45.6045 11.3689L41.9525 8.71548C41.3969 8.3118 41.6824 7.43297 42.3692 7.43297H46.8834C47.1905 7.43297 47.4627 7.2352 47.5576 6.9431L48.9526 2.64985Z" fill="black"/>
<path d="M68.8034 2.64985C69.0156 1.99669 69.9396 1.99669 70.1519 2.64986L71.5468 6.9431C71.6417 7.2352 71.914 7.43297 72.2211 7.43297H76.7353C77.4221 7.43297 77.7076 8.3118 77.152 8.71548L73.4999 11.3689C73.2515 11.5494 73.1475 11.8694 73.2424 12.1615L74.6374 16.4547C74.8496 17.1079 74.102 17.651 73.5464 17.2474L69.8943 14.594C69.6459 14.4135 69.3094 14.4135 69.0609 14.594L65.4089 17.2474C64.8532 17.651 64.1057 17.1079 64.3179 16.4547L65.7128 12.1615C65.8078 11.8694 65.7038 11.5494 65.4553 11.3689L61.8033 8.71548C61.2476 8.3118 61.5332 7.43297 62.22 7.43297H66.7341C67.0413 7.43297 67.3135 7.2352 67.4084 6.9431L68.8034 2.64985Z" fill="black"/>
<path d="M88.6541 2.64985C88.8663 1.99669 89.7904 1.99669 90.0026 2.64986L91.3975 6.9431C91.4925 7.2352 91.7647 7.43297 92.0718 7.43297H96.586C97.2728 7.43297 97.5583 8.3118 97.0027 8.71548L93.3506 11.3689C93.1022 11.5494 92.9982 11.8694 93.0931 12.1615L94.4881 16.4547C94.7003 17.1079 93.9527 17.651 93.3971 17.2474L89.745 14.594C89.4966 14.4135 89.1601 14.4135 88.9116 14.594L85.2596 17.2474C84.7039 17.651 83.9564 17.1079 84.1686 16.4547L85.5636 12.1615C85.6585 11.8694 85.5545 11.5494 85.306 11.3689L81.654 8.71548C81.0983 8.3118 81.3839 7.43297 82.0707 7.43297H86.5849C86.892 7.43297 87.1642 7.2352 87.2591 6.9431L88.6541 2.64985Z" fill="black"/>
</svg>
