<svg width="110" height="20" viewBox="0 0 110 20" fill="none" xmlns="http://www.w3.org/2000/svg">
<g clip-path="url(#clip0_585_5093)">
<path d="M33.0097 12.4877C33.0097 8.2228 33.0097 4.16787 33.0097 0.0644774C34.4579 0.0644774 35.8063 0.0644774 37.2046 0.0644774C37.2046 6.57498 37.2046 13.0693 37.2046 19.6768C36.0726 19.6768 34.9407 19.7091 33.8087 19.6444C33.5424 19.6283 33.2427 19.2729 33.0596 19.0144C30.4628 15.3633 27.8659 11.7123 25.2691 8.0774C25.1192 7.86739 24.9528 7.65737 24.6531 7.25349C24.6531 11.5184 24.6531 15.5411 24.6531 19.6121C23.1883 19.6121 21.8066 19.6121 20.375 19.6121C20.375 13.1178 20.375 6.60729 20.375 0.0160121C21.5236 0.0160121 22.6889 -0.0162981 23.8375 0.0483223C24.0539 0.0644774 24.3202 0.355269 24.4867 0.565285C27.1501 4.29711 29.7969 8.04509 32.4604 11.7769C32.5602 11.9546 32.7267 12.1323 33.0097 12.4877Z" fill="white"/>
<path d="M85.0811 0.0323085C86.5626 0.0323085 87.8777 0.0323085 89.2594 0.0323085C89.2594 6.55896 89.2594 13.0533 89.2594 19.6607C88.1108 19.6607 86.9788 19.6931 85.8635 19.6446C85.6304 19.6284 85.3641 19.3538 85.2143 19.1438C82.5675 15.4443 79.9373 11.7286 77.2906 8.01292C77.1574 7.81906 76.9909 7.64136 76.7079 7.31825C76.7079 11.5024 76.7079 15.525 76.7079 19.6123C75.2264 19.6123 73.8281 19.6123 72.3965 19.6123C72.3965 13.1018 72.3965 6.60743 72.3965 0.0323085C73.5784 0.0323085 74.7436 -1.67824e-06 75.8922 0.0646187C76.1087 0.0807738 76.375 0.371565 76.5248 0.597737C79.1716 4.29725 81.8018 8.01292 84.4485 11.7286C84.5984 11.9386 84.7648 12.1325 85.0811 12.294C85.0811 8.22294 85.0811 4.16801 85.0811 0.0323085Z" fill="white"/>
<path d="M93.0039 0.0321985C94.4355 0.0321985 95.7839 0.0321985 97.2321 0.0321985C97.2321 2.9078 97.2321 5.7511 97.2321 8.61055C97.2987 8.64286 97.3653 8.65902 97.4319 8.69133C98.1643 7.85126 98.8968 7.0112 99.6126 6.15498C101.194 4.26483 102.759 2.37469 104.39 0.500696C104.623 0.242215 105.073 0.0483536 105.422 0.0321985C106.854 -0.0162668 108.302 0.0160434 109.983 0.0160434C107.403 3.03705 104.939 5.91265 102.442 8.85288C104.923 12.3908 107.42 15.9611 110.017 19.6606C108.269 19.6606 106.654 19.6768 105.039 19.6445C104.84 19.6445 104.623 19.3537 104.473 19.1437C102.775 16.6881 101.094 14.2325 99.3296 11.68C98.6471 12.4878 97.9978 13.2309 97.3986 14.0063C97.2654 14.1841 97.2821 14.5072 97.2821 14.7656C97.2654 16.365 97.2821 17.9643 97.2821 19.6122C95.8338 19.6122 94.4521 19.6122 93.0205 19.6122C93.0039 13.1017 93.0039 6.60732 93.0039 0.0321985Z" fill="white"/>
<path d="M0.000255372 0.0480347C1.48179 0.0480347 2.81351 0.0480347 4.2784 0.0480347C4.2784 0.742703 4.2784 1.40506 4.2784 2.06742C4.2784 5.33075 4.29505 8.61023 4.26176 11.8736C4.24511 13.5375 4.62798 14.9753 6.22604 15.7992C8.7896 17.1078 12.5184 15.9446 12.4851 12.2774C12.4518 8.52946 12.4851 4.76532 12.4851 1.01734C12.4851 0.726548 12.4851 0.435757 12.4851 0.0803448C13.9167 0.0803448 15.315 0.0803448 16.7966 0.0803448C16.7966 0.371136 16.7966 0.661928 16.7966 0.95272C16.7966 4.78148 16.73 8.62639 16.8132 12.4551C16.8964 16.7362 13.9833 19.3211 10.3211 19.838C7.55776 20.2257 4.92762 19.9996 2.6304 18.3194C0.949105 17.0917 0.0335483 15.4277 0.0169019 13.376C-0.0163911 9.1595 0.000255372 4.94303 0.000255372 0.726548C0.000255372 0.516532 0.000255372 0.322671 0.000255372 0.0480347Z" fill="white"/>
<path d="M48.791 0.0323486C50.206 0.0323486 51.5543 0.0323486 53.0026 0.0323486C53.0026 5.42815 53.0026 10.7916 53.0026 16.2521C55.9324 16.2521 58.7623 16.2521 61.6587 16.2521C61.6587 17.3991 61.6587 18.4653 61.6587 19.5962C57.3972 19.5962 53.1357 19.5962 48.791 19.5962C48.791 13.118 48.791 6.60747 48.791 0.0323486Z" fill="white"/>
<path d="M45.1284 19.6283C43.7301 19.6283 42.3817 19.6283 40.9668 19.6283C40.9668 13.1178 40.9668 6.62348 40.9668 0.0645142C42.3152 0.0645142 43.6802 0.0645142 45.1284 0.0645142C45.1284 6.5427 45.1284 13.0371 45.1284 19.6283Z" fill="white"/>
<path d="M64.5889 0.0323486C66.0205 0.0323486 67.3688 0.0323486 68.7838 0.0323486C68.7838 6.54285 68.7838 13.0372 68.7838 19.5962C67.4188 19.5962 66.0371 19.5962 64.5889 19.5962C64.5889 13.1018 64.5889 6.60747 64.5889 0.0323486Z" fill="white"/>
</g>
<defs>
<clipPath id="clip0_585_5093">
<rect width="110" height="20" fill="white"/>
</clipPath>
</defs>
</svg>
