<svg width="26" height="27" viewBox="0 0 26 27" fill="none" xmlns="http://www.w3.org/2000/svg">
<path fill-rule="evenodd" clip-rule="evenodd" d="M6.61995 0H0.00643338V1.0489C0.00643338 2.82733 0.00451772 4.308 0.00277708 5.65338C-0.00186196 9.23899 -0.0052578 11.8637 0.0321669 16.6035C0.0579005 19.7751 1.47324 22.3475 4.07233 24.2455C7.62356 26.8428 11.6895 27.1924 15.9612 26.593C21.6226 25.7939 26.126 21.798 25.9973 15.1799C25.9816 14.4563 25.9693 13.9416 25.9599 13.5847C25.9664 13.3458 25.9716 12.721 25.9716 11.3985V10.0499H19.3066V11.4984V14.9052C19.3581 20.5743 13.5937 22.3724 9.63078 20.3495C7.16036 19.0759 6.56849 16.8532 6.59422 14.2809C6.63122 10.6544 6.62832 9.08211 6.62377 6.61064C6.62199 5.64408 6.61995 4.54 6.61995 3.12174V0ZM26 0H19.5V7H26V0Z" fill="url(#paint0_linear_558_5009)"/>
<defs>
<linearGradient id="paint0_linear_558_5009" x1="-1.62222" y1="18.7381" x2="28.8138" y2="15.572" gradientUnits="userSpaceOnUse">
<stop stop-color="#CA55F3"/>
<stop offset="0.322917" stop-color="#FF53A5"/>
<stop offset="0.786458" stop-color="#FF763C"/>
<stop offset="1" stop-color="#FFF859"/>
</linearGradient>
</defs>
</svg>
